<?xml version="1.0" encoding="UTF-8" standalone="no"?>
<svg
   xmlns:svg="http://www.w3.org/2000/svg"
   xmlns="http://www.w3.org/2000/svg"
   version="1.0"
   width="440"
   height="291"
   viewBox="0 -0.693 440 291"
   id="svg2"
   xml:space="preserve">
	<defs
   id="defs4">
	</defs>
	<g
   transform="translate(0,0.307)"
   id="g6">
		<rect
   width="440"
   height="290"
   x="0"
   y="0"
   style="fill:#ffffff"
   id="rect8" /> 
		<path
   d="M 169.482,229.613 L 212.258,229.613 L 169.06,273.312 L 126.301,273.312 L 169.482,229.613 z M 111.794,229.613 L 154.57,229.613 L 111.372,273.312 L 68.599,273.312 L 111.794,229.613 z M 264.949,229.613 L 222.19,229.613 L 265.371,273.312 L 308.147,273.312 L 264.949,229.613 z M 322.652,229.613 L 279.879,229.613 L 323.06,273.312 L 365.836,273.312 L 322.652,229.613 z M 296.423,108.319 C 303.832,88.111 308.991,57.353 310.067,35.831 L 385.949,54.698 C 379.873,143.765 313.061,221.778 213.968,221.746 C 101.861,221.696 58.533,124.242 64.364,50.384 L 97.288,39.915 C 91.933,81.94 104.94,112.24 113.911,126.149 C 103.229,66.687 148.124,18.555 204.298,18.523 C 254.818,18.491 296.616,55.383 296.423,108.319 L 296.423,108.319 z M 143.722,110.193 L 143.722,110.193 C 143.722,143.735 170.915,170.928 204.457,170.928 C 237.987,170.928 265.175,143.735 265.175,110.193 C 265.175,76.664 237.985,49.474 204.457,49.474 C 170.915,49.474 143.722,76.664 143.722,110.193 z "
   id="path10" />
	</g>
</svg>