<?xml version="1.0" encoding="UTF-8" standalone="no"?>
<svg width="661px" height="373px" viewBox="0 0 661 373" version="1.1" xmlns="http://www.w3.org/2000/svg" xmlns:xlink="http://www.w3.org/1999/xlink" xmlns:sketch="http://www.bohemiancoding.com/sketch/ns"  style="transform: scale(0.6)">

    <title>bild_gehirn_remake</title>
    <description>Created with Sketch (http://www.bohemiancoding.com/sketch)</description>
    <defs></defs>
    <g id="Page-1" stroke="none" stroke-width="1" fill="none" fill-rule="evenodd" sketch:type="MSPage">
        <g id="gehirn" sketch:type="MSLayerGroup" transform="translate(219.000000, 57.000000)" >
            <path d="M126,15 L126,262" id="Stroke-1" stroke="#333333" stroke-width="15" sketch:type="MSShapeGroup"></path>
            <path d="M61.9189162,24.6440525 C70.6560998,35.9694227 84.8011941,42.5199648 98.8775878,41.9676512 C103.030547,41.8047518 103.051049,35.1850786 98.8775878,35.3487134 C86.3147616,35.8418243 74.2688071,30.0377514 66.4970263,19.9637281 C65.4132861,18.5590424 63.0530128,18.8043109 61.9189162,19.9637281 C60.5621727,21.3507633 60.8326582,23.2356897 61.9189162,24.6440525" id="Fill-3" fill="#333333" sketch:type="MSShapeGroup"></path>
            <path d="M68.8822019,32.6882169 C72.5880863,36.7968482 76.2049952,41.1879502 78.324328,46.4074378 C80.4247222,51.5800908 80.9785859,57.1775476 80.2732137,62.7069479 C80.0477375,64.4734874 81.9126503,66 83.4891966,66 C85.4141411,66 86.4789888,64.4786099 86.7051796,62.7069479 C87.5188233,56.3301355 86.6362146,49.7948907 84.2077902,43.8677629 C81.7432752,37.8517226 77.7193658,32.7862767 73.4303165,28.0311095 C70.6156168,24.9107597 66.0757208,29.5770145 68.8822019,32.6882169" id="Fill-5" fill="#333333" sketch:type="MSShapeGroup"></path>
            <path d="M122.956525,47.633439 C117.835491,59.0196629 109.773227,68.7864117 99.5056795,75.6549371 C95.9904731,78.0061363 99.2694641,83.8122652 102.812332,81.442447 C113.977062,73.974392 123.030411,63.429744 128.613322,51.0164996 C129.352542,49.3731923 129.069374,47.4070327 127.438432,46.4310281 C126.026235,45.5861008 123.699385,45.981567 122.956525,47.633439" id="Fill-7" fill="#333333" sketch:type="MSShapeGroup"></path>
            <path d="M31.3587724,58.9897564 C44.1392746,57.8618957 56.9432882,57.0012349 69.7629761,56.4088412 C74.0663099,56.2099535 74.0916873,49.8046301 69.7629761,50.0045852 C56.9432882,50.5969789 44.1392746,51.4576397 31.3587724,52.5855004 C29.5524992,52.7448952 28,53.9432026 28,55.7876284 C28,57.396164 29.5416765,59.1502185 31.3587724,58.9897564" id="Fill-9" fill="#333333" sketch:type="MSShapeGroup"></path>
            <path d="M47.1768447,56.1775032 C48.7473341,61.1666472 49.0361853,66.0096862 49.1015296,71.2092819 C49.1631611,76.112504 49.70485,81.305665 52.733704,85.319388 C53.832304,86.7751385 55.6081079,87.5541127 57.3055731,86.5415977 C58.7108455,85.7035759 59.6115564,83.3481065 58.5044171,81.8806221 C55.6897882,78.1507819 55.8022843,73.5829198 55.7703547,69.0896243 C55.7347124,64.0770127 55.127308,59.1507014 53.621049,54.3663315 C52.3119366,50.2076391 45.8573366,51.9858804 47.1768447,56.1775032" id="Fill-11" fill="#333333" sketch:type="MSShapeGroup"></path>
            <path d="M52.0201034,82.3120541 C52.7044811,87.390169 57.3703202,90.6164777 60.8644838,94.002501 C64.661532,97.6821931 68.4585802,101.361517 72.2556284,105.041209 C75.3388674,108.02905 80.0844325,103.34875 76.9974681,100.357229 C73.7182669,97.1794969 70.4390657,94.001765 67.159492,90.8240331 C65.6063234,89.3185205 64.0531549,87.8133759 62.4996137,86.3082314 C61.5648812,85.4022006 58.8884689,83.5169058 58.7260363,82.3120541 C58.4872306,80.5393691 57.3561632,79 55.3730698,79 C53.7472537,79 51.7794349,80.5261209 52.0201034,82.3120541" id="Fill-13" fill="#333333" sketch:type="MSShapeGroup"></path>
            <path d="M59.9515133,87.4952692 C62.7551266,85.2962994 66.5078017,85.3271688 69.8727235,85.1072718 C74.1848764,84.825636 78.5047184,84.7913366 82.8216312,84.9658822 C87.063117,85.137379 87.055794,78.2771267 82.8216312,78.106011 C78.0250614,77.9120291 73.224464,77.9791034 68.4366818,78.3499175 C64.3936495,78.663185 59.9848329,78.9368176 56.6250372,81.5721515 C55.2058384,82.6849751 54.4698762,84.5333293 55.4427377,86.2646845 C56.2607176,87.7201205 58.5216961,88.6168582 59.9515133,87.4952692" id="Fill-15" fill="#333333" sketch:type="MSShapeGroup"></path>
            <path d="M13.836205,115.532464 C19.7344197,112.027821 23.9817082,105.846308 28.9083046,101.069822 C34.0870411,96.0484745 39.6405806,91.5085486 45.5215795,87.4338209 C48.9769398,85.0399183 45.7464612,79.1564642 42.2631252,81.5699858 C36.2921018,85.7069663 30.6004771,90.3087677 25.2954911,95.3531298 C22.756515,97.767406 20.3140193,100.288832 17.9536574,102.895526 C15.68332,105.40337 13.471086,107.949321 10.5777507,109.668629 C6.96027466,111.818048 10.2104797,117.686788 13.836205,115.532464" id="Fill-17" fill="#333333" sketch:type="MSShapeGroup"></path>
            <path d="M30.1090036,101.723041 C35.5240063,100.757473 40.8156117,103.945364 45.0389808,107.026462 C49.6430358,110.385442 53.9033155,114.257323 59.1272515,116.614891 C60.7346721,117.340269 62.6254358,117.093795 63.5833021,115.421696 C64.3935261,114.007155 64.0316574,111.601179 62.4148282,110.871367 C56.6100931,108.251806 52.0328164,103.753211 46.8001956,100.205034 C41.2961733,96.4728329 35.0246275,94.1237637 28.3774621,95.3091993 C26.6433875,95.6184916 25.6688752,97.7876022 26.1027557,99.4002085 C26.606115,101.270004 28.3702247,102.033073 30.1090036,101.723041" id="Fill-19" fill="#333333" sketch:type="MSShapeGroup"></path>
            <path d="M126.041326,105.456023 C118.182975,99.2675787 108.054808,102.102683 101.154597,108.347844 C94.3385611,114.517013 90.4924636,123.789671 82.5579889,128.725154 C78.9516091,130.968252 82.2567863,136.742255 85.882929,134.486554 C93.1879159,129.942899 97.2847106,122.416232 102.849822,116.099526 C105.287258,113.333001 108.17302,110.554985 111.723039,109.367266 C114.781179,108.343767 118.674488,108.041276 121.383115,110.174277 C122.785922,111.278959 124.673287,111.559578 126.041326,110.174277 C127.178063,109.022887 127.453647,106.56812 126.041326,105.456023" id="Fill-21" fill="#333333" sketch:type="MSShapeGroup"></path>
            <path d="M108.607993,102.993493 C105.099527,102.574092 101.906518,99.7877999 100.75022,96.3945423 C99.3131396,92.1780177 92.7563899,93.9926999 94.2085458,98.2527178 C96.4566928,104.849726 101.91104,109.182751 108.607993,109.983495 C110.430631,110.20135 112,108.221237 112,106.488494 C112,104.418288 110.435908,103.212124 108.607993,102.993493" id="Fill-23" fill="#333333" sketch:type="MSShapeGroup"></path>
            <path d="M15.1234754,164.945389 C24.2841484,163.570968 33.5371075,162.468105 42.6469141,160.791391 C46.8546543,160.016855 49.9186275,158.195142 52.5516897,154.855455 C54.9467698,151.817337 58.140089,150.612504 61.7323459,149.451785 C65.718454,148.163786 64.0129767,141.877103 59.9934421,143.175589 C56.2060763,144.399225 52.310801,145.764606 49.3899804,148.57745 C48.0365712,149.880998 47.1507694,151.678123 45.6589309,152.836672 C44.3251416,153.873002 42.5302848,154.216879 40.9080103,154.515194 C31.7985671,156.191908 22.5456079,157.294772 13.384935,158.669192 C11.6369479,158.931349 10.6730299,161.122612 11.1010342,162.672406 C11.6147847,164.533533 13.3704017,165.208269 15.1234754,164.945389" id="Fill-25" fill="#333333" sketch:type="MSShapeGroup"></path>
            <path d="M41.5423854,154.888874 C38.950115,150.158576 34.847086,146.571107 31.8427241,142.141314 C29.0442255,138.01582 26.7760801,133.424391 26.573502,128.29304 C26.4001243,123.91371 19.8292918,123.890945 20.0033995,128.29304 C20.2359081,134.182483 22.345641,139.668598 25.4741048,144.536248 C26.9925285,146.898931 28.7025802,149.13868 30.489648,151.286988 C32.3905977,153.572268 34.4207594,155.692877 35.8694669,158.335956 C37.9620446,162.154494 43.6404381,158.717658 41.5423854,154.888874" id="Fill-27" fill="#333333" sketch:type="MSShapeGroup"></path>
            <path d="M31.0844355,143.827908 C38.4700815,141.535726 45.9824211,139.662137 53.5984865,138.213158 C57.8034556,137.412769 56.0234471,131.272564 51.825887,132.071538 C44.2098216,133.520517 36.697482,135.394106 29.311836,137.686288 C25.2480081,138.947732 26.9868967,145.099613 31.0844355,143.827908" id="Fill-29" fill="#333333" sketch:type="MSShapeGroup"></path>
            <path d="M122.045764,139.398363 C109.373105,145.296734 94.904512,141.454836 82.1123445,138.120457 C77.9850797,137.044815 76.2244468,143.497924 80.3528148,144.573938 C95.1519861,148.431452 110.854272,151.941324 125.386481,145.177012 C127.009955,144.421497 127.413341,142.050102 126.573842,140.598933 C125.599022,138.913525 123.67549,138.639874 122.045764,139.398363" id="Fill-31" fill="#333333" sketch:type="MSShapeGroup"></path>
            <path d="M99.9540024,147.082099 C93.3322989,148.495777 89.2446545,154.347366 87.1700914,160.45167 C84.8629039,167.240876 84.0043152,174.699758 84.0000007,181.847913 C83.9974839,186.04725 90.469258,186.054139 90.4717748,181.847913 C90.4753702,175.807785 91.1937372,169.779985 92.8584213,163.967554 C94.1847754,159.336028 96.5890395,154.460852 101.674416,153.375304 C105.7466,152.505851 104.02331,146.213371 99.9540024,147.082099" id="Fill-33" fill="#333333" sketch:type="MSShapeGroup"></path>
            <path d="M100.063515,154.827852 C105.509008,153.099237 111.029924,151.643716 116.620007,150.46276 C120.787367,149.582096 119.023956,143.203166 114.859539,144.083095 C109.269456,145.264051 103.74854,146.719572 98.303047,148.448187 C94.2563623,149.732794 95.9855575,156.122383 100.063515,154.827852" id="Fill-35" fill="#333333" sketch:type="MSShapeGroup"></path>
            <path d="M26.8782914,199.538065 C37.7219136,193.259909 46.5308397,183.521438 51.6206588,171.947017 C52.3375296,170.31751 52.0868603,168.393767 50.4513516,167.42363 C49.0603541,166.598591 46.7112347,166.970703 45.9907415,168.609761 C41.3207573,179.229473 33.5543548,188.05805 23.5873508,193.828914 C19.9439517,195.938163 23.2247496,201.653191 26.8782914,199.538065" id="Fill-39" fill="#333333" sketch:type="MSShapeGroup"></path>
            <path d="M45.136495,186.921932 C48.0295441,186.188999 51.5792637,186.048666 54.0638823,187.979159 C55.9684114,189.45884 57.0135346,191.995021 55.8829518,194.217815 C54.3217411,197.287335 51.7934677,199.446506 50.9455305,202.922848 C50.0021449,206.789652 50.6484565,210.762614 51.3399027,214.611239 C51.6525148,216.352682 53.818972,217.333198 55.435676,216.896565 C57.3050593,216.391583 58.0749359,214.617783 57.761214,212.871614 C57.0509001,208.918284 56.4752499,204.940232 58.8973462,201.449348 C61.2994649,197.986457 63.5887473,194.945658 62.8636352,190.506978 C61.3867743,181.467834 51.3114161,178.598634 43.3662596,180.611655 C39.2194325,181.662338 40.9770894,187.975887 45.136495,186.921932" id="Fill-41" fill="#333333" sketch:type="MSShapeGroup"></path>
            <path d="M74.4687084,246.390937 C82.0193157,234.200338 85.3153918,219.571318 83.52087,205.389311 C83.2910091,203.573017 82.1034579,202 80.0786926,202 C78.3969977,202 76.4051244,203.560213 76.6365152,205.389311 C78.2937324,218.487492 75.5109232,231.689235 68.5244505,242.969615 C66.2113073,246.703883 72.162832,250.113906 74.4687084,246.390937" id="Fill-43" fill="#333333" sketch:type="MSShapeGroup"></path>
            <path d="M82.27658,223.874341 C97.8315972,225.308354 112.362137,214.308382 114.938985,199.081884 C115.230237,197.360206 114.480628,195.597895 112.650476,195.100952 C111.08063,194.675207 108.913355,195.62774 108.619919,197.361284 C106.483224,209.985128 95.1961347,218.592801 82.27658,217.401866 C80.5123237,217.239335 79,219.005601 79,220.638103 C79,222.523751 80.5072268,223.711091 82.27658,223.874341" id="Fill-45" fill="#333333" sketch:type="MSShapeGroup"></path>
            <path d="M100.571183,217.107402 C102.540436,226.293821 102.361305,235.780198 100.102596,244.905751 C99.085149,249.016222 105.945898,250.770772 106.966113,246.649731 C109.520605,236.329816 109.659798,225.744203 107.4347,215.363422 C106.547746,211.225251 99.6858106,212.976884 100.571183,217.107402" id="Fill-47" fill="#333333" sketch:type="MSShapeGroup"></path>
            <path d="M125.985297,7.02455994 L112.453845,3.60865245 C107.66666,2.39992378 102.865843,0.9179076 97.9695991,0.252025612 C92.4735292,-0.495134244 87.4929116,0.449254936 82.4378684,2.68327782 C78.6738508,4.34686429 75.3438596,6.75611927 72.0882939,9.25932849 C70.2958168,10.6376967 68.9012586,11.9843741 68.2785893,14.2728308 C67.7321878,16.2809161 67.9786764,18.9548834 69.1142189,20.7370312 C71.3071939,24.1786642 76.7634719,26.586055 80.4563799,23.7461765 C83.374083,21.5028327 86.3588429,19.2908071 89.6774124,17.6857556 C91.3394605,16.8815521 89.6803599,17.6585387 89.6825706,17.6652497 C89.6785177,17.6529462 90.7492142,17.2853316 90.8405881,17.2562505 C91.2281906,17.131351 91.6205828,17.0168909 92.0151856,16.9158528 C92.1857749,16.8726041 93.9981479,16.6242965 92.7100698,16.7096755 C91.4905222,16.7905805 92.8990813,16.7044558 93.1326744,16.6910338 C93.6764968,16.65897 94.2214246,16.6518862 94.7659839,16.6746291 C95.2003786,16.6925251 95.7508331,16.6638169 96.1690163,16.787225 C95.0511591,16.4572667 95.5537158,16.7193692 96.4011356,16.8949741 C104.850648,18.6424483 113.209891,21.0901052 121.577609,23.202957 C125.7786,24.2632976 130.764744,21.8342824 131.775385,17.3438666 C132.753233,12.9996018 130.48657,8.16095876 125.985297,7.02455994" id="Fill-49" fill="#333333" sketch:type="MSShapeGroup"></path>
            <path d="M71.6420301,9.02946569 C66.2463874,9.53980103 61.6360242,12.3560009 57.3325733,15.4547013 C53.5943307,18.1461608 50.0442435,21.0746271 46.8886516,24.4228085 C40.506956,31.1943824 35.7585381,38.9851595 32.3999463,47.5977563 C30.8253048,51.6356792 34.1345383,56.8296528 38.2320204,57.7519987 C43.0104986,58.8280688 46.8173975,56.3101454 48.5033735,51.9867869 C48.6748287,51.5468933 48.856304,51.1114022 49.0281303,50.6718755 C49.4326458,49.6390976 48.166401,52.5411483 48.9732053,50.8252329 C49.3346714,50.0562445 49.6924264,49.2865223 50.0769016,48.5285404 C50.8881593,46.9285603 51.7721555,45.3652685 52.7251791,43.8441683 C53.6815428,42.3182987 54.7351386,40.8716759 55.78725,39.4111116 C56.4344747,38.5129801 54.4987383,40.9766047 55.7070891,39.5178748 C55.948685,39.226569 56.1869409,38.9319614 56.4307636,38.6424901 C57.0401346,37.9178946 57.666948,37.2079745 58.3097194,36.5123628 C59.4668564,35.2609223 60.6770628,34.0564428 61.9358853,32.9044277 C62.6350661,32.2645824 63.3490916,31.6401462 64.0779617,31.0336873 C64.3692871,30.7911772 64.6632103,30.5508683 64.958989,30.3134945 C65.0417477,30.2474554 66.4928078,29.0745279 65.4625922,29.9117567 C64.4635503,30.7236705 65.7702467,29.702633 65.9925446,29.5441392 C66.3788755,29.2686095 66.7689175,28.9982161 67.1615572,28.7322254 C67.8689027,28.2527083 68.5862682,27.7882334 69.3136538,27.3395345 C70.1219426,26.8405726 70.9424781,26.3606886 71.7748893,25.9024508 C72.1281909,25.7080024 72.4840903,25.5190572 72.841103,25.3319465 C73.5521596,24.9885433 73.6107958,24.9599263 73.0170116,25.2468295 C72.6043316,25.5021806 72.1460044,25.5997717 71.6420301,25.5392358 C75.9773969,25.1290598 80.207367,22.0362295 79.9921203,17.2843508 C79.8054494,13.1642459 76.2984115,8.58920516 71.6420301,9.02946569" id="Fill-51" fill="#333333" sketch:type="MSShapeGroup"></path>
            <path d="M32.6313281,43.1615804 C25.5634817,47.8040229 21.4532762,56.0342427 17.5283565,63.3291935 C13.2120754,71.3512073 10.0837382,79.608328 9.03694703,88.7026951 C8.53908294,93.0267481 13.1668482,97.1783402 17.243498,96.994087 C22.1149066,96.7733517 24.9168055,93.3351879 25.4500489,88.7026951 C25.6119915,87.2972121 25.3052489,88.9190083 25.409928,88.986445 C25.340993,88.9422242 25.605791,87.8403904 25.6287693,87.7187833 C25.7870646,86.8778519 25.9716208,86.0417111 26.1791554,85.2118349 C26.6201207,83.4470582 27.1679536,81.710288 27.7938398,80.0037353 C27.9415578,79.6009579 28.0940172,79.1996545 28.2501241,78.8001937 C28.3223417,78.6163091 28.8439136,77.2841588 28.4456224,78.2975511 C28.0476958,79.3091009 28.5911519,77.9880058 28.6728526,77.8055952 C28.8493847,77.4112935 29.0291993,77.0192027 29.2119318,76.6282176 C29.9921013,74.9599895 30.82844,73.3193994 31.7005228,71.6987087 C33.3316204,68.6673758 35.0801629,65.7005316 36.8516837,62.7513756 C37.2507044,62.0876958 37.6519136,61.4254899 38.07063,60.7739708 C38.3325102,60.3667713 38.6002261,59.9632569 38.8766957,59.5660071 C39.0050826,59.381754 39.7754042,58.2939233 39.0922544,59.2420901 C38.4178583,60.1780961 39.2031341,59.1484895 39.3603351,58.9708694 C39.6127321,58.6860141 39.8720591,58.4088973 40.1419635,58.1406247 C40.4107736,57.8730891 40.7047505,57.632823 40.9757491,57.368604 C41.7300223,56.6330654 39.3731009,58.4932853 40.915203,57.4802614 C44.510037,55.118873 46.3399155,50.0235363 43.8593487,46.1361633 C41.5443719,42.5082188 36.4811123,40.6328902 32.6313281,43.1615804" id="Fill-53" fill="#333333" sketch:type="MSShapeGroup"></path>
            <path d="M10.0907439,87.988422 C3.88118646,100.029197 0.627959907,113.277866 1.03389586,126.737145 C1.16397901,131.049531 4.90042621,135.196436 9.64233964,134.992796 C14.1948673,134.797229 18.3904315,131.361411 18.2507834,126.737145 C18.1643164,123.86638 18.2335665,120.997817 18.4929676,118.135858 C18.5526529,117.475773 18.6356765,116.818623 18.7014833,116.159272 C18.8239145,115.207487 18.8097584,115.282338 18.6593976,116.383458 C18.7076048,116.055801 18.7592555,115.728143 18.8139669,115.401219 C19.0462036,113.983816 19.3209086,112.572283 19.6411427,111.170657 C20.281611,108.367038 21.0923351,105.599744 22.0736977,102.888221 C22.5110066,101.679594 22.8805958,100.291543 23.5394287,99.1720772 C22.5580661,100.840086 23.5688887,99.1317162 23.7674568,98.7126961 C24.1485239,97.9084122 24.5487209,97.1136682 24.9569524,96.3218595 C26.950668,92.4563803 26.1736125,87.2079877 21.8686254,85.0266613 C17.9818174,83.0574133 12.2221946,83.8558265 10.0907439,87.988422" id="Fill-55" fill="#333333" sketch:type="MSShapeGroup"></path>
            <path d="M1.76507361,130.991187 C-1.83081045,147.572531 0.124104716,164.562724 7.11289959,179.923766 C8.90063926,183.852831 14.7095403,185.153948 18.1332371,182.888932 C22.0760014,180.280453 22.9351474,175.783481 21.0228316,171.580748 C20.8463487,171.193205 20.6748774,170.803458 20.4994685,170.415547 C20.0953119,169.519973 20.2492422,170.114696 20.56999,170.623094 C20.1465026,169.952332 19.9306422,168.982922 19.662517,168.233182 C19.0886791,166.628275 18.5764133,164.999491 18.1271515,163.353075 C17.6775318,161.706659 17.2905581,160.041875 16.9665884,158.364235 C16.8047826,157.525231 16.6698251,156.68182 16.528424,155.838775 C16.3580267,154.823081 16.447879,155.523598 16.5495446,156.131545 C16.4618402,155.606616 16.4231786,155.068096 16.369124,154.53876 C16.0229597,151.136828 15.9313175,147.708079 16.0992089,144.291453 C16.1414503,143.437756 16.1994426,142.584793 16.273902,141.7333 C16.3111316,141.307553 16.352657,140.882174 16.3981202,140.457162 C16.4210307,140.241166 16.5950078,138.807807 16.4457312,139.964927 C16.2964546,141.122047 16.4937002,139.692361 16.52735,139.477467 C16.5932179,139.055394 16.6630235,138.634055 16.7371249,138.213084 C16.9039424,137.266083 17.0951024,136.324958 17.2987916,135.385671 C18.2116342,131.175224 16.0591155,126.243689 11.673175,125.218444 C7.59258944,124.26483 2.74378411,126.477685 1.76507361,130.991187" id="Fill-57" fill="#333333" sketch:type="MSShapeGroup"></path>
            <path d="M7.37603713,182.357854 C12.1773239,196.11001 19.4746669,208.621406 29.0670241,219.633473 C31.8830688,222.866829 37.8274843,222.70988 40.6767319,219.633473 C43.8667653,216.189648 43.6806831,211.575219 40.6767319,208.126693 C39.5996441,206.88991 38.4112718,205.65168 37.4848741,204.29809 C38.6845573,206.050923 37.1090609,203.793975 36.8715324,203.474654 C36.4997328,202.974878 36.1326764,202.471847 35.7703634,201.965562 C33.8975003,199.34879 32.1501515,196.644503 30.5345198,193.864996 C28.9710641,191.174813 27.5312983,188.414473 26.2214253,185.594463 C25.9160315,184.936293 25.6237729,184.272335 25.3256764,183.61091 C24.9633633,182.774816 24.9947419,182.850759 25.420177,183.839823 C25.2607301,183.457216 25.1038372,183.073524 24.9491335,182.689109 C24.3303188,181.150725 23.7549234,179.59679 23.2087172,178.031645 C21.8072625,174.018611 17.5178843,170.934971 13.1099243,172.348592 C9.10039927,173.634919 5.87241962,178.051174 7.37603713,182.357854" id="Fill-59" fill="#333333" sketch:type="MSShapeGroup"></path>
            <path d="M29.4026493,222.475518 C31.0467704,226.934829 33.9017427,230.143603 37.1705365,233.450344 C40.1983846,236.51363 43.3490466,239.371113 46.7917966,241.951511 C53.187482,246.744567 61.0450485,249.507008 68.8284225,250.849297 C72.9918487,251.566866 77.7581794,249.733281 78.796875,245.104722 C79.6904269,241.121719 77.6058325,235.757678 73.1369924,234.987104 C69.8012092,234.412098 66.5068442,233.611915 63.3219672,232.44253 C62.9232724,232.295945 60.3117669,231.514771 62.3243296,232.076251 C61.5546721,231.861675 60.7540409,231.338577 60.0477711,230.965719 C58.6467566,230.226582 57.2925626,229.400811 55.9938329,228.489502 C55.652043,228.249702 53.6917031,226.954568 55.3657174,228.065467 C54.6796165,227.609995 54.0533017,226.977232 53.435991,226.431105 C52.1700357,225.310702 50.9509009,224.136565 49.7508546,222.944149 C48.5688161,221.768915 47.3864175,220.588197 46.2425557,219.374946 C45.9659544,219.085067 45.6951156,218.790436 45.4300393,218.490321 C44.8559475,217.798706 44.904929,217.887168 45.5777041,218.755709 C45.1307481,218.440241 44.2472805,215.977549 45.0309843,218.102476 C43.5492944,214.085111 39.4856319,210.905215 35.0625319,212.3579 C31.1901133,213.630005 27.8118315,218.161329 29.4026493,222.475518" id="Fill-61" fill="#333333" sketch:type="MSShapeGroup"></path>
            <path d="M68.3341447,252.965625 C74.7762218,260.038347 83.7751079,264.684659 93.0246329,266.900917 C98.1378855,268.126506 103.45976,268.725642 108.711851,268.895731 C114.507236,269.083303 121.205797,269.497053 125.630706,265.081655 C128.673813,262.044817 128.903627,256.487235 125.630706,253.492282 C122.350479,250.490409 117.252572,250.251483 114.004862,253.492282 C114.304825,253.280672 114.605153,253.069427 114.905481,252.857817 C116.043221,252.450623 116.307378,252.332252 115.697953,252.50307 C114.662149,252.722692 117.405293,252.452079 116.326012,252.44953 C115.385202,252.44698 114.43599,252.526744 113.493719,252.541677 C111.330771,252.575549 109.166362,252.546412 107.005972,252.432776 C105.983687,252.378872 104.962132,252.306757 103.94277,252.212789 C103.377188,252.160342 102.813433,252.086406 102.247852,252.034687 C101.00708,251.920687 103.635865,252.265236 102.407515,252.05909 C100.277085,251.701429 98.1638262,251.31973 96.0743163,250.763207 C94.3202094,250.296281 92.616888,249.708436 90.9161241,249.079798 C89.7816726,248.66022 91.0626346,248.940667 91.2339897,249.224028 C91.1189005,249.033542 90.1408242,248.727965 89.8850702,248.605588 C89.0830989,248.221703 88.2920884,247.814145 87.5164231,247.379999 C86.656359,246.898504 85.8131017,246.386052 84.9914007,245.841912 C84.6633049,245.624111 84.3443432,245.393561 84.0177088,245.174303 C82.7462462,244.320944 84.800316,245.857938 84.0326887,245.214367 C82.5927938,244.00626 81.2267023,242.767195 79.9599894,241.376252 C77.0612008,238.193727 71.238779,238.222136 68.3341447,241.376252 C65.2018893,244.777671 65.2420792,249.570762 68.3341447,252.965625" id="Fill-63" fill="#333333" sketch:type="MSShapeGroup"></path>
            <path d="M186.386807,19.9504895 C182.093392,25.3068634 175.895145,29.0628616 169.316887,31.0470804 C162.935072,32.9721067 155.739896,33.3283509 149.895907,29.7154314 C146.273856,27.4759224 142.946468,33.129348 146.553805,35.3594153 C153.702262,39.7792408 162.698531,39.7654413 170.589718,37.4936125 C178.345161,35.2610033 186.009004,30.8854813 191.069061,24.5725862 C192.177455,23.1897339 192.436435,21.3002957 191.069061,19.9504895 C189.917995,18.814212 187.502558,18.5585586 186.386807,19.9504895" id="Fill-65" fill="#333333" sketch:type="MSShapeGroup"></path>
            <path d="M175.570007,30.0315175 C171.280498,34.7866336 167.257207,39.8512933 164.792276,45.8680007 C162.363794,51.7950648 161.481164,58.3302394 162.294827,64.7069833 C162.519952,66.4698449 163.611982,68 165.510887,68 C167.073892,68 168.953858,66.483017 168.726947,64.7069833 C168.021558,59.1780083 168.575792,53.5798799 170.675879,48.4076483 C172.795262,43.1885827 176.412614,38.7967961 180.11823,34.6885749 C182.923348,31.5788694 178.385846,26.9097376 175.570007,30.0315175" id="Fill-67" fill="#333333" sketch:type="MSShapeGroup"></path>
            <path d="M124.118725,39.062864 C125.973737,46.1034424 127.01439,53.4235816 129.711006,60.2376067 C132.160136,66.4260688 136.262201,72.1813931 143.660677,72.9235003 C148.421949,73.4009322 153.150677,71.5689005 157.289071,69.5085003 C161.181492,67.5704533 157.740904,61.9291318 153.851131,63.8657265 C151.649488,64.9618232 149.378593,65.8782021 146.929085,66.3215058 C145.592886,66.5633078 144.020554,66.503765 142.836102,66.1664766 C142.693059,66.1258132 141.562721,65.6676237 142.214737,65.9678794 C141.848049,65.7990536 141.505958,65.6000934 141.155163,65.4044008 C140.984496,65.3002008 140.817613,65.1912809 140.653379,65.0780043 C140.937572,65.2962071 140.927733,65.2853151 140.623862,65.0456914 C140.311288,64.785373 140.010823,64.5137996 139.725116,64.2266142 C138.729495,63.2252779 138.106239,62.2584328 137.265769,60.6554958 C133.745334,53.9387725 132.698626,44.9601471 130.686949,37.3255926 C129.613374,33.2505384 123.042122,34.9772809 124.118725,39.062864" id="Fill-69" fill="#333333" sketch:type="MSShapeGroup"></path>
            <path d="M223.641217,52.585502 C210.860673,51.4576338 198.056618,50.5969672 185.236889,50.0045696 C180.915627,49.804969 180.92645,56.2096235 185.236889,56.4088683 C198.056618,57.0012659 210.860673,57.8619325 223.641217,58.9898007 C225.450108,59.1495524 227,57.4036694 227,55.7876513 C227,53.922933 225.45496,52.7456095 223.641217,52.585502" id="Fill-71" fill="#333333" sketch:type="MSShapeGroup"></path>
            <path d="M199.379149,54.3664496 C197.873203,59.1491891 197.265404,64.0749681 197.22976,69.0858895 C197.197829,73.5783876 197.310701,78.1446759 194.495591,81.8739185 C193.39435,83.3326938 194.27616,85.6879253 195.694482,86.533296 C197.418003,87.5610609 199.162317,86.7743439 200.266529,85.3117845 C203.293644,81.3010039 203.83721,76.104661 203.898844,71.2049924 C203.964191,66.0048653 204.252311,61.1668778 205.823603,56.1771474 C207.140935,51.9938112 200.69054,50.2024125 199.379149,54.3664496" id="Fill-73" fill="#333333" sketch:type="MSShapeGroup"></path>
            <path d="M194.273918,82.3120151 C194.123405,83.4274282 191.614984,85.2276925 190.759222,86.0571683 C189.119602,87.6461995 187.479982,89.2348628 185.840361,90.8238941 C182.560749,94.0015886 179.281508,97.1792831 176.002268,100.356978 C172.916384,103.347359 177.659398,108.029813 180.744164,105.040903 C184.541258,101.361254 188.338351,97.6819734 192.135445,94.0023246 C195.63114,90.6148691 200.295172,87.3933824 200.979931,82.3120151 C201.219484,80.535671 199.267662,79 197.626924,79 C195.616238,79 194.513844,80.530519 194.273918,82.3120151" id="Fill-75" fill="#333333" sketch:type="MSShapeGroup"></path>
            <path d="M196.367847,81.5719514 C193.009231,78.9372462 188.600752,78.6628375 184.559065,78.3499353 C179.772444,77.9791023 174.97301,77.9120246 170.177603,78.1060164 C165.951422,78.2767596 165.93019,85.1377407 170.177603,84.9662352 C174.493469,84.7916808 178.812264,84.8259819 183.123372,85.107632 C186.486014,85.327159 190.240341,85.2974314 193.042177,87.4953693 C194.464326,88.6112982 196.725489,87.7320468 197.54986,86.2651034 C198.536396,84.5085062 197.793291,82.6901671 196.367847,81.5719514" id="Fill-77" fill="#333333" sketch:type="MSShapeGroup"></path>
            <path d="M242.421223,109.668889 C239.61555,108.001964 237.450774,105.558173 235.250133,103.122305 C232.823905,100.437416 230.316624,97.8377987 227.70426,95.3528811 C222.399554,90.3083399 216.70823,85.7063752 210.737522,81.5692477 C207.257956,79.1582815 204.020475,85.0370396 207.47924,87.4336683 C213.360287,91.5081635 218.913174,96.0482505 224.091637,101.069776 C229.018691,105.847187 233.264321,112.028165 239.162941,115.532932 C242.785247,117.685446 246.042453,111.820648 242.421223,109.668889" id="Fill-79" fill="#333333" sketch:type="MSShapeGroup"></path>
            <path d="M224.622917,95.3091617 C217.975126,94.1240898 211.705482,96.4716996 206.200455,100.203494 C200.967911,103.750583 196.39034,108.247798 190.586052,110.866556 C188.977207,111.592818 188.601231,113.990299 189.417595,115.415488 C190.387751,117.108501 192.258584,117.337166 193.87358,116.608318 C199.097077,114.251473 203.357656,110.38041 207.961644,107.022829 C212.18495,103.942677 217.476116,100.755395 222.891401,101.721036 C224.622193,102.029495 226.400028,101.247081 226.89759,99.3989159 C227.328931,97.7956702 226.364927,95.6198368 224.622917,95.3091617" id="Fill-81" fill="#333333" sketch:type="MSShapeGroup"></path>
            <path d="M130.722868,101.107275 C134.514623,98.2193404 140.212506,99.6421264 143.878626,101.931512 C146.220559,103.394104 148.191556,105.356278 150.009331,107.397698 C151.679478,109.273321 153.040199,111.540795 154.862821,113.263769 C157.841125,116.07976 162.328525,117.220619 166.207141,118.255936 C168.313465,118.817966 170.435818,119.321565 172.534312,119.911715 C174.308097,120.410566 175.687086,120.815929 176.979586,121.540103 C180.73406,123.643972 184.118343,117.96634 180.366479,115.864297 C176.480406,113.687026 171.794303,112.949704 167.529838,111.793508 C165.526408,111.250103 163.391752,110.679309 161.605292,109.820743 C159.504188,108.810624 159.075467,108.022175 157.490692,106.031882 C153.658676,101.219388 149.302129,96.6665462 143.402187,94.35671 C137.524241,92.0552733 131.000605,92.6341018 125.977863,96.4591174 C124.545936,97.5495792 124.808761,99.9620341 125.977863,101.107275 C127.39115,102.491716 129.287214,102.200658 130.722868,101.107275" id="Fill-83" fill="#333333" sketch:type="MSShapeGroup"></path>
            <path d="M147.392115,101.983427 C154.090789,101.182734 159.54418,96.8488151 161.792022,90.2533841 C163.241586,86.0010105 156.689527,84.1720744 155.250139,88.3953248 C154.093428,91.7887585 150.901447,94.5744884 147.392115,94.9938622 C145.572434,95.2113154 144,96.4441969 144,98.4886447 C144,100.208854 145.560373,102.202433 147.392115,101.983427" id="Fill-85" fill="#333333" sketch:type="MSShapeGroup"></path>
            <path d="M240.614001,158.62945 C233.974086,157.627494 227.334535,156.625538 220.69462,155.623582 C217.704077,155.172284 214.639361,154.873844 211.696448,154.162685 C208.970236,153.504299 207.69621,152.244666 205.985147,150.078797 C203.353833,146.747558 199.69428,146.751925 195.773306,147.223241 C193.850995,147.45435 191.600362,147.830311 189.894752,148.046497 C189.047219,148.153499 188.192779,148.249945 187.337974,148.272146 C187.029285,148.280153 186.722049,148.274694 186.41336,148.267779 C185.762894,148.252857 186.919116,148.436288 186.047586,148.189894 C181.98772,147.04163 180.254841,153.360538 184.307799,154.506982 C187.825914,155.502023 191.859966,154.284973 195.374445,153.823119 C196.881897,153.62513 198.699493,153.372185 200.29348,153.579273 C199.733548,153.506482 200.388377,153.593103 200.575627,153.670624 C200.962852,153.830398 200.507999,153.661161 200.521452,153.627314 C200.196401,153.382375 200.279663,153.499931 200.770512,153.979982 C200.993031,154.245302 201.209368,154.515353 201.41916,154.790864 C201.911827,155.419406 202.382679,156.065418 202.926612,156.651379 C206.944666,160.98057 213.511135,161.119235 218.954833,161.940671 C225.594748,162.942627 232.234299,163.944583 238.874214,164.946538 C240.619455,165.210038 242.391965,164.507614 242.89954,162.658745 C243.324215,161.111592 242.372331,158.894769 240.614001,158.62945" id="Fill-87" fill="#333333" sketch:type="MSShapeGroup"></path>
            <path d="M217.130198,158.334908 C218.578573,155.692292 220.608049,153.57061 222.510135,151.286161 C224.297243,149.139058 226.010617,146.899759 227.525789,144.535632 C230.649576,139.660925 232.763736,134.187883 232.996614,128.292932 C233.170361,123.898183 226.599749,123.90653 226.426368,128.292932 C226.223785,133.419191 223.95851,138.021479 221.15703,142.140773 C218.147857,146.565495 214.048388,150.158922 211.457155,154.887935 C209.360881,158.712804 215.035385,162.157501 217.130198,158.334908" id="Fill-89" fill="#333333" sketch:type="MSShapeGroup"></path>
            <path d="M223.68742,137.686385 C216.30222,135.394076 208.790334,133.520384 201.174728,132.071325 C196.98446,131.273723 195.190853,137.411789 199.402236,138.213284 C207.017842,139.662343 214.529728,141.536035 221.914928,143.828344 C226.005181,145.097996 227.757671,138.949667 223.68742,137.686385" id="Fill-91" fill="#333333" sketch:type="MSShapeGroup"></path>
            <path d="M127.638741,153.035343 C137.739422,157.592029 150.229195,158.602144 160.498364,154.048021 C164.31157,152.356929 168.135236,149.935435 170.469784,146.449273 C173.024374,142.634339 172.239094,138.274258 169.163722,135.027903 C166.212756,131.912984 161.465955,136.581335 164.408703,139.687834 C164.716539,140.012579 164.662368,139.932766 164.900344,140.25861 C164.919023,140.284604 165.450264,141.198431 165.187632,140.710397 C165.192489,140.719184 165.54777,141.777261 165.335199,141.066629 C165.361724,141.155595 165.299335,142.108596 165.395347,141.407849 C165.260482,142.391238 164.700474,143.194864 163.930884,143.986408 C161.912018,146.063387 159.084336,147.60913 156.318668,148.678191 C152.543195,150.137531 150.139534,150.334135 146.201176,150.316928 C141.016904,150.294229 135.770617,149.482548 131.032782,147.34516 C129.384514,146.601212 127.4116,146.886783 126.432427,148.526984 C125.584757,149.947516 125.981507,152.287733 127.638741,153.035343" id="Fill-93" fill="#333333" sketch:type="MSShapeGroup"></path>
            <path d="M150.38586,161.472219 C153.611495,162.153939 156.537355,164.505357 157.160505,167.65776 C157.796193,170.871635 158.069789,174.437045 161.441072,176.03386 C165.433294,177.924787 169.517329,179.267613 173.24296,181.732406 C174.681,182.683575 176.123465,183.779038 177.200889,185.140638 C177.94572,186.0815 178.34026,187.060644 178.361277,187.802364 C178.481114,192.057224 185.118592,192.074525 184.998387,187.802364 C184.742489,178.704053 173.590302,173.818639 166.456146,170.92685 C166.139409,170.798752 164.011109,169.934454 164.597755,170.41556 C164.271062,170.147952 164.158969,169.343287 164.026595,168.676291 C163.659711,166.828432 163.512219,165.020696 162.732359,163.279219 C160.91121,159.211721 156.443329,155.990484 152.150225,155.083119 C147.983964,154.202625 146.203006,160.588044 150.38586,161.472219" id="Fill-95" fill="#333333" sketch:type="MSShapeGroup"></path>
            <path d="M154.696157,155.448228 C149.2511,153.719506 143.730627,152.263895 138.140991,151.082865 C133.983897,150.204352 132.207016,156.581105 136.380664,157.462926 C141.9703,158.643956 147.490773,160.099567 152.93583,161.828289 C157.006839,163.120695 158.74914,156.73512 154.696157,155.448228" id="Fill-97" fill="#333333" sketch:type="MSShapeGroup"></path>
            <path d="M139.604463,150.343113 C137.216485,149.740143 135.076196,148.829657 132.981859,147.52498 C129.289309,145.225024 125.908333,151.09042 129.587807,153.382462 C132.13045,154.966013 134.917794,156.152357 137.816841,156.884213 C142.015603,157.94431 143.80696,151.403965 139.604463,150.343113" id="Fill-99" fill="#333333" sketch:type="MSShapeGroup"></path>
            <path d="M222.411989,190.829422 C212.447065,185.058611 204.682928,176.230483 200.014088,165.610502 C199.297031,163.979541 196.955368,163.593474 195.554572,164.424382 C193.898821,165.406999 193.665596,167.310522 194.385551,168.947728 C199.474123,180.522409 208.28089,190.260422 219.121854,196.53852 C222.770879,198.651791 226.058478,192.941223 222.411989,190.829422" id="Fill-101" fill="#333333" sketch:type="MSShapeGroup"></path>
            <path d="M208.632834,180.611112 C200.695324,178.600223 190.601313,181.464403 189.135159,190.506676 C188.435933,194.818216 190.561358,197.854364 192.939836,201.217358 C195.481837,204.812671 194.9761,208.760644 194.237658,212.871859 C193.925411,214.610072 194.714538,216.397731 196.563232,216.896908 C198.171452,217.331007 200.344971,216.361011 200.659068,214.611527 C201.336836,210.838429 201.931733,207.023885 201.11745,203.222429 C200.338682,199.588214 197.729348,197.390816 196.115949,194.217604 C195.000887,192.024932 195.997562,189.522137 197.862904,188.035876 C200.353481,186.051891 203.936921,186.18023 206.862571,186.921543 C211.015011,187.973706 212.786384,181.663275 208.632834,180.611112" id="Fill-103" fill="#333333" sketch:type="MSShapeGroup"></path>
            <path d="M186.484133,242.115808 C185.617561,240.738351 185.27154,239.951545 184.819432,238.752707 C184.200778,237.111885 183.709124,235.428326 183.272606,233.735269 C182.285117,229.904248 181.577486,226.010035 180.867193,222.124954 C179.322649,213.676108 177.938947,205.057043 174.769627,196.99612 C173.065761,192.662479 170.896098,188.591107 167.722215,185.07532 C164.831233,181.872941 160.007479,186.540079 162.882491,189.72456 C167.978499,195.369544 170.100631,203.621141 171.737955,210.89818 C173.543726,218.924401 174.560494,227.109152 176.573497,235.092636 C177.469348,238.645681 178.592964,242.284931 180.574406,245.434346 C182.849777,249.051314 188.77053,245.749945 186.484133,242.115808" id="Fill-105" fill="#333333" sketch:type="MSShapeGroup"></path>
            <path d="M170.716101,218.259126 C164.763488,218.818576 158.940406,217.387442 154.019667,213.929725 C153.810592,213.782791 152.572197,212.847558 153.11404,213.26485 C153.598233,213.637694 153.009685,213.183302 152.902776,213.097713 C152.511262,212.785111 152.120114,212.472143 151.737722,212.148521 C150.917842,211.454994 150.127517,210.725836 149.383896,209.949658 C148.996761,209.545591 148.622032,209.129768 148.261533,208.701457 C148.044431,208.443955 147.831707,208.182414 147.625916,207.916096 C148.052093,208.467465 147.503682,207.732429 147.358826,207.524151 C146.530189,206.33362 145.806271,205.070725 145.189628,203.756771 C144.766735,202.855333 144.859414,203.062142 144.527375,202.139765 C144.207013,201.24898 143.930071,200.342766 143.691806,199.426268 C143.19995,197.53266 142.901481,195.738232 142.747867,193.863725 C142.23193,187.574596 143.015322,181.281793 144.313922,175.134455 C145.190723,170.983946 138.860826,169.210089 137.980741,173.376393 C135.773231,183.826318 134.623502,195.416814 138.838933,205.532464 C141.142041,211.059008 144.924727,215.230455 149.599174,218.818576 C155.560545,223.394091 163.258733,225.572016 170.716101,224.871142 C172.482109,224.705107 174,223.470497 174,221.565134 C174,219.905518 172.492326,218.092356 170.716101,218.259126" id="Fill-107" fill="#333333" sketch:type="MSShapeGroup"></path>
            <path d="M145.592138,213.701385 C143.616315,217.386999 140.454922,219.863966 137.888428,223.090294 C134.926232,226.814433 134.477845,231.017875 135.486523,235.560115 C136.435595,239.832677 143.110246,238.024619 142.161174,233.752813 C141.413992,230.388246 142.106184,228.475942 144.233135,226.21993 C146.944604,223.343732 149.687222,220.643165 151.56883,217.132805 C153.643098,213.264385 147.670637,209.824278 145.592138,213.701385" id="Fill-109" fill="#333333" sketch:type="MSShapeGroup"></path>
            <path d="M130.519453,23.3213675 C138.877685,21.198058 147.226717,18.7378521 155.666647,16.9810439 C155.93419,16.9252068 157.277057,16.8701192 156.3022,16.8255244 C155.276189,16.7786812 156.732403,16.7944205 156.948793,16.7813044 C157.490135,16.7487016 159.374343,17.1073332 159.849444,16.8536304 C159.307366,17.1429341 158.255594,16.5714468 159.750449,16.930828 C160.146795,17.0260134 160.538725,17.1343149 160.92808,17.2542336 C161.316698,17.3737775 161.698323,17.5405393 162.088782,17.6484661 C163.050022,17.9145356 160.701018,16.9405714 162.102398,17.6394722 C165.510534,19.3396937 168.577157,21.5345797 171.592259,23.8677468 C173.184269,25.0999108 176.144537,25.2303224 177.97244,24.7176702 C179.89345,24.1791605 181.974544,22.6666866 182.921064,20.842799 C185.22922,16.3945668 183.647147,12.1670599 179.950492,9.30662549 C176.78561,6.85766194 173.543814,4.47390416 169.897208,2.81902688 C164.767523,0.491480956 159.69488,-0.512462937 154.100031,0.253142652 C149.328051,0.905949768 144.653227,2.35096942 139.98797,3.53629026 C135.364298,4.71111822 130.740627,5.88557144 126.116955,7.06002465 C121.912814,8.12842482 118.979778,13.1717533 120.333685,17.4322378 C121.742794,21.8662297 126.01428,24.465841 130.519453,23.3213675" id="Fill-111" fill="#333333" sketch:type="MSShapeGroup"></path>
            <path d="M181.351721,25.4989734 L180.378441,25.4001373 C179.480457,24.9670886 179.309095,24.8847252 179.865095,25.153047 C180.315386,25.3909858 180.77161,25.6157465 181.218933,25.8613726 C181.96781,26.2731898 182.7063,26.7029439 183.435518,27.1469744 C184.165107,27.5910048 184.884681,28.0504098 185.593869,28.5251893 C186.242228,28.9593361 187.480711,29.5366123 187.91839,30.1629406 C187.471438,29.5230681 186.83532,29.3144141 187.808229,30.086068 C188.105331,30.3214444 188.399837,30.5593833 188.692489,30.8002506 C189.423561,31.4027849 190.140168,32.0217919 190.842309,32.6569056 C192.175746,33.8641706 193.455772,35.1292731 194.676823,36.4474542 C195.255078,37.0723181 195.81961,37.708896 196.37116,38.3568218 C196.677535,38.7166585 196.976492,39.0823522 197.278046,39.4462156 C197.962754,40.2724124 197.232423,39.528579 197.026566,39.1141994 C197.78694,40.6461594 199.179724,42.0624445 200.106639,43.523755 C201.066566,45.037046 201.958244,46.5924338 202.777224,48.1844276 C203.208968,49.0230705 203.60733,49.8752575 204.008289,50.7281767 C204.464884,51.7004314 203.979357,50.7684433 203.845457,50.3141632 C203.999387,50.8365304 204.279056,51.3782988 204.477866,51.8871219 C206.043125,55.8940118 210.159163,59.1036236 214.743666,57.6393846 C218.697243,56.3768446 222.253942,51.8120796 220.572587,47.5079492 C217.214327,38.9106702 212.467364,31.1483734 206.091715,24.3850536 C203.004594,21.1102832 199.532464,18.2495263 195.88452,15.6029144 C191.527388,12.4423546 186.832353,9.54352755 181.351721,9.02628514 C176.992734,8.61483399 172.817721,13.1085834 173.006145,17.2626293 C173.224614,22.0766809 176.682278,25.0582375 181.351721,25.4989734" id="Fill-113" fill="#333333" sketch:type="MSShapeGroup"></path>
            <path d="M211.005996,57.4601029 C211.981385,58.0994253 210.870363,57.5021344 210.729612,57.1633009 C210.83088,57.4066416 211.381821,57.7307272 211.579238,57.9198693 C211.887428,58.2148278 212.759721,59.541772 213.123115,59.6062942 C212.854043,59.5583634 212.182458,58.2834056 212.88329,59.3087548 C213.157115,59.7087922 213.433499,60.1055113 213.698551,60.5118166 C214.122267,61.1610938 214.528069,61.8218007 214.929119,62.4858259 C216.759618,65.5157864 218.561966,68.5682375 220.242208,71.6859481 C221.065146,73.212358 221.857009,74.7560967 222.599152,76.3241695 C222.91502,76.9915129 223.585874,77.9512339 223.668862,78.6838369 C223.605616,78.1256281 223.210781,77.5323929 223.582949,78.4910078 C223.738324,78.8914139 223.896624,79.2907139 224.047246,79.6933322 C224.6841,81.3974545 225.241987,83.1325475 225.696413,84.8952928 C225.910281,85.7244947 226.101118,86.5588584 226.266364,87.3987525 C226.348987,87.8186996 226.404556,88.2471267 226.495222,88.6648616 C226.754058,89.8535441 226.266364,86.6090013 226.507286,88.6987818 C226.769413,90.9710679 227.250892,92.8846107 228.91651,94.564399 C230.3434,96.0034274 232.684259,97.087031 234.733013,96.9944878 C238.763619,96.8123509 243.491401,93.31525 242.958739,88.6987818 C241.909502,79.6000516 238.773855,71.3378971 234.447489,63.3117095 C230.513764,56.0137004 226.393223,47.7788297 219.309227,43.1339718 C215.69466,40.7636121 210.06278,42.2778549 208.054971,46.1101024 C205.889229,50.2439448 207.147948,54.9304656 211.005996,57.4601029" id="Fill-115" fill="#333333" sketch:type="MSShapeGroup"></path>
            <path d="M228.069809,96.3902078 C228.426756,97.08174 228.777588,97.7754699 229.113898,98.4765253 C229.295046,98.8537913 230.430474,101.03937 229.485749,99.2354526 C230.096839,100.402047 230.503086,101.711856 230.949843,102.944746 C231.931256,105.650439 232.742986,108.414371 233.379681,111.213098 C233.673952,112.50496 233.931917,113.804146 234.152429,115.10956 C234.225806,115.544698 234.295361,115.980568 234.36033,116.416805 C234.225424,115.426756 234.197525,115.242519 234.277399,115.864824 C234.354597,116.632542 234.456637,117.39733 234.526574,118.166147 C234.787214,121.022746 234.854858,123.886671 234.768488,126.752062 C234.638168,131.064981 238.816816,135.188901 243.367316,134.993309 C248.137565,134.78856 251.826653,131.37302 251.966145,126.752062 C252.371628,113.317363 249.121653,100.090345 242.919413,88.0713097 C240.920663,84.1979234 234.870145,82.8188881 231.154686,85.1147164 C227.017312,87.6713345 225.931949,92.2476075 228.069809,96.3902078" id="Fill-117" fill="#333333" sketch:type="MSShapeGroup"></path>
            <path d="M235.680823,135.490518 C235.862175,136.325225 236.034926,137.161033 236.187605,138.001983 C236.256419,138.381695 236.810509,140.256388 236.595109,140.531441 C236.737037,140.350398 236.414116,138.916745 236.548517,140.242066 C236.591525,140.666948 236.639193,141.091462 236.678617,141.517078 C236.757466,142.367943 236.819828,143.220276 236.865703,144.073711 C237.056015,147.594683 236.968924,151.13071 236.611237,154.637726 C236.567871,155.062975 236.515544,155.487122 236.46931,155.912004 C236.337776,157.117609 236.715174,154.427673 236.499416,155.620793 C236.347453,156.461008 236.230614,157.307833 236.072558,158.147313 C235.756088,159.826275 235.376539,161.492016 234.93427,163.140497 C234.492001,164.788978 233.98737,166.419098 233.420376,168.026818 C233.136521,168.831044 232.825069,169.623153 232.523294,170.420035 C232.102529,171.531264 233.101398,169.139882 232.602501,170.216591 C232.379216,170.69876 232.172776,171.190477 231.952358,171.674482 C230.171454,175.582877 230.753859,180.764448 234.845386,182.979194 C238.414004,184.911174 243.973192,184.196183 245.878461,180.014938 C252.87592,164.658613 254.8328,147.674004 251.233001,131.097383 C250.315489,126.87354 245.313977,123.99999 241.313125,125.326413 C236.98541,126.761536 234.698083,130.965182 235.680823,135.490518" id="Fill-119" fill="#333333" sketch:type="MSShapeGroup"></path>
            <path d="M229.814771,177.936481 C229.268493,179.505346 228.693023,181.063697 228.074127,182.606095 C227.919403,182.991513 227.76249,183.375844 227.603022,183.759449 C228.028148,182.768167 228.059895,182.691663 227.69717,183.530301 C227.44173,184.09882 227.192493,184.669877 226.932309,185.235858 C225.587963,188.161845 224.103854,191.024019 222.487647,193.810777 C220.923987,196.507979 219.236621,199.134116 217.431752,201.678311 C217.010641,202.271848 216.58369,202.861396 216.149807,203.445869 C215.912247,203.766023 214.33691,206.028859 215.536385,204.271091 C214.609866,205.628575 213.421339,206.870035 212.34411,208.109682 C209.53974,211.337332 208.913181,216.517454 212.34411,219.646846 C215.423991,222.456084 220.958654,223.096393 223.955699,219.646846 C233.549309,208.605686 240.847239,196.062011 245.649518,182.273976 C247.055535,178.236693 244.046812,173.173684 239.914882,172.238601 C235.34177,171.203809 231.320044,173.613851 229.814771,177.936481" id="Fill-121" fill="#333333" sketch:type="MSShapeGroup"></path>
            <path d="M207.700651,218.004858 C208.498792,215.874256 207.59905,218.343101 207.143493,218.659356 C207.828662,217.789012 207.878913,217.700329 207.293878,218.393306 C207.023919,218.694536 206.74809,218.989904 206.46676,219.280507 C205.30146,220.49679 204.097646,221.680457 202.893465,222.858262 C201.671311,224.054023 200.429718,225.230728 199.140441,226.354296 C198.512125,226.901421 197.874272,227.536131 197.175532,227.992374 C198.880385,226.879067 196.883565,228.177437 196.535845,228.417469 C195.212824,229.331421 193.833683,230.159256 192.406859,230.900239 C191.687578,231.274029 190.872564,231.798434 190.088728,232.013547 C192.138366,231.450663 189.478752,232.233789 189.072712,232.38074 C185.829163,233.553047 182.47411,234.354863 179.076875,234.931672 C174.80924,235.655798 172.03592,241.132552 173.312726,245.074202 C174.803005,249.675847 178.891644,251.609294 183.464817,250.83313 C191.391209,249.487853 199.393895,246.718144 205.907034,241.913479 C209.32591,239.391131 212.46749,236.607863 215.478493,233.617545 C218.884897,230.234747 221.905069,226.958589 223.616891,222.388826 C225.132846,218.341635 221.931478,213.174174 217.852742,212.24593 C213.165497,211.179163 209.323709,213.671461 207.700651,218.004858" id="Fill-123" fill="#333333" sketch:type="MSShapeGroup"></path>
            <path d="M173.019516,241.358588 C171.822956,242.673603 170.540901,243.875965 169.177005,245.01635 C167.704231,246.247149 170.136445,244.386003 169.201119,244.987549 C168.788625,245.252958 168.396957,245.557012 167.987752,245.828254 C167.248624,246.31897 166.491229,246.782342 165.720315,247.221653 C164.94794,247.661692 164.160951,248.076577 163.361904,248.46667 C162.917624,248.683955 162.460921,248.87645 162.016641,249.093006 C160.992897,249.592472 163.409766,248.568021 162.339256,248.959208 C160.54131,249.616898 158.757978,250.261099 156.905228,250.754731 C154.927889,251.281903 152.926071,251.665434 150.908542,252.001571 C149.953121,252.160889 150.426995,252.183128 151.070032,251.987717 C150.573871,252.13865 149.900874,252.121515 149.375849,252.172555 C148.35722,252.271719 147.336398,252.349738 146.314481,252.40807 C144.154827,252.530931 141.990057,252.566294 139.827114,252.539316 C138.857444,252.52692 137.886677,252.466401 136.917372,252.462026 C135.791692,252.456558 137.13257,252.482807 137.531911,252.561555 C136.857087,252.362133 136.864029,252.388747 137.552736,252.641032 C138.087992,252.810923 138.561866,253.092738 138.974725,253.486477 C135.93126,250.446302 130.351087,250.222818 127.348908,253.486477 C124.335037,256.762531 124.101206,261.842857 127.348908,265.087193 C131.709137,269.442383 138.212215,269.079633 143.92611,268.914481 C149.293642,268.759902 154.728767,268.156534 159.954904,266.908235 C169.202945,264.699651 178.206925,260.034574 184.645333,252.959304 C187.535712,249.782779 188.024566,244.454178 184.645333,241.358588 C181.493721,238.471899 176.106825,237.965871 173.019516,241.358588" id="Fill-125" fill="#333333" sketch:type="MSShapeGroup"></path>
        </g>
        <g id="Left" sketch:type="MSLayerGroup" transform="translate(0.000000, -3.000000)" font-weight="normal" font-family="HanziPen SC" line-spacing="26" font-size="20">
            <text id="digital" sketch:type="MSTextLayer" fill="#000000">
                <tspan style="font-family: sans-serif; transform: scale(0.95)" x="163" y="21">digital</tspan>
            </text>
            <text id="logisch" sketch:type="MSTextLayer" fill="#333333">
                <tspan style="font-family: sans-serif; transform: scale(0.95)" x="132" y="65">logisch</tspan>
            </text>
            <text id="Zahlen" sketch:type="MSTextLayer" fill="#333333">
                <tspan style="font-family: sans-serif; transform: scale(0.95)" x="100" y="109">Zahlen</tspan>
            </text>
            <text id="linear" sketch:type="MSTextLayer" fill="#333333">
                <tspan style="font-family: sans-serif; transform: scale(0.95)" x="77" y="153">linear</tspan>
            </text>
            <text id="Reihenfolge" sketch:type="MSTextLayer" fill="#333333">
                <tspan style="font-family: sans-serif; transform: scale(0.95)" x="0" y="197">Reihenfolge</tspan>
            </text>
            <text id="Details" sketch:type="MSTextLayer" fill="#333333">
                <tspan style="font-family: sans-serif; transform: scale(0.95)" x="69" y="241">Details</tspan>
            </text>
            <text id="rational" sketch:type="MSTextLayer" fill="#333333">
                <tspan style="font-family: sans-serif; transform: scale(0.95)" x="92" y="285">rational</tspan>
            </text>
            <text id="Analyse" sketch:type="MSTextLayer" fill="#333333">
                <tspan style="font-family: sans-serif; transform: scale(0.95)" x="121" y="329">Analyse</tspan>
            </text>
            <text id="Sprache" sketch:type="MSTextLayer" fill="#333333">
                <tspan style="font-family: sans-serif; transform: scale(0.95)" x="153" y="373">Sprache</tspan>
            </text>
        </g>
        <g id="Right" sketch:type="MSLayerGroup" transform="translate(480.000000, -3.000000)" font-weight="normal" font-family="HanziPen SC" line-spacing="26" fill="#333333" font-size="20">
            <text id="analog" sketch:type="MSTextLayer">
                <tspan style="font-family: sans-serif; transform: scale(0.95)" x="0" y="21">analog</tspan>
            </text>
            <text id="ganzheitlich" sketch:type="MSTextLayer">
                <tspan style="font-family: sans-serif; transform: scale(0.95)" x="30" y="65">ganzheitlich</tspan>
            </text>
            <text id="nonverbal" sketch:type="MSTextLayer">
                <tspan style="font-family: sans-serif; transform: scale(0.95)" x="60" y="109">nonverbal</tspan>
            </text>
            <text id="Musik" sketch:type="MSTextLayer">
                <tspan style="font-family: sans-serif; transform: scale(0.95)" x="90" y="153">Musik</tspan>
            </text>
            <text id="Bilder" sketch:type="MSTextLayer">
                <tspan style="font-family: sans-serif; transform: scale(0.95)" x="120" y="197">Bilder</tspan>
            </text>
            <text id="Synthese" sketch:type="MSTextLayer">
                <tspan style="font-family: sans-serif; transform: scale(0.95)" x="90" y="241">Synthese</tspan>
            </text>
            <text id="Muster,Formen" sketch:type="MSTextLayer">
                <tspan style="font-family: sans-serif; transform: scale(0.95)" x="60" y="285">Muster,Formen</tspan>
            </text>
            <text id="Farben" sketch:type="MSTextLayer">
                <tspan style="font-family: sans-serif; transform: scale(0.95)" x="30" y="329">Farben</tspan>
            </text>
            <text id="Assoziationen" sketch:type="MSTextLayer">
                <tspan style="font-family: sans-serif; transform: scale(0.95)" x="0" y="373">Assoziationen</tspan>
            </text>
        </g>
        <g id="Lines" sketch:type="MSLayerGroup" transform="translate(113.000000, 21.000000)" stroke="#333333" stroke-width="2" stroke-linecap="round">
            <path d="M-0.5,166 L53.4846141,166 L78,166" id="Line" sketch:type="MSShapeGroup"></path>
            <g transform="translate(85.500000, 268.000000) scale(1, -1) translate(-85.500000, -268.000000) translate(25.000000, 200.000000)" sketch:type="MSShapeGroup">
                <path d="M0.5,124 L55,135.5" id="Line-copy"></path>
                <path d="M32.5,86 L70.1860771,100.763389" id="Line-copy-2"></path>
                <path d="M59.6759567,38.5281672 L91.8152847,60.5635543" id="Line-copy-3"></path>
                <path d="M87.5,0 L121.26339,32.8797569" id="Line-copy-4"></path>
            </g>
            <g transform="translate(25.000000, 0.000000)" sketch:type="MSShapeGroup">
                <path d="M0.5,124 L55,135.5" id="Line-copy"></path>
                <path d="M32.5,86 L70.1860771,100.763389" id="Line-copy-2"></path>
                <path d="M59.6759567,38.5281672 L91.8152847,60.5635543" id="Line-copy-3"></path>
                <path d="M87.5,0 L121.26339,32.8797569" id="Line-copy-4"></path>
            </g>
        </g>
        <g id="Lines-copy" sketch:type="MSLayerGroup" transform="translate(505.000000, 189.000000) scale(-1, 1) translate(-505.000000, -189.000000) translate(432.000000, 21.000000)" stroke="#333333" stroke-width="2" stroke-linecap="round">
            <path d="M-0.5,166 L53.4846141,166 L78,166" id="Line" sketch:type="MSShapeGroup"></path>
            <g id="Lines" transform="translate(85.500000, 268.000000) scale(1, -1) translate(-85.500000, -268.000000) translate(25.000000, 200.000000)" sketch:type="MSShapeGroup">
                <path d="M0.5,124 L55,135.5" id="Line-copy"></path>
                <path d="M32.5,86 L70.1860771,100.763389" id="Line-copy-2"></path>
                <path d="M59.6759567,38.5281672 L91.8152847,60.5635543" id="Line-copy-3"></path>
                <path d="M87.5,0 L121.26339,32.8797569" id="Line-copy-4"></path>
            </g>
            <g id="Lines" transform="translate(25.000000, 0.000000)" sketch:type="MSShapeGroup">
                <path d="M0.5,124 L55,135.5" id="Line-copy"></path>
                <path d="M32.5,86 L70.1860771,100.763389" id="Line-copy-2"></path>
                <path d="M59.6759567,38.5281672 L91.8152847,60.5635543" id="Line-copy-3"></path>
                <path d="M87.5,0 L121.26339,32.8797569" id="Line-copy-4"></path>
            </g>
        </g>
    </g>
</svg>