<svg fill="none" height="460" viewBox="0 0 613 460" width="613" xmlns="http://www.w3.org/2000/svg"><path d="m306 92c28.01 0 55.548 7.218 79.956 20.958 24.409 13.74 44.865 33.538 59.396 57.484 14.53 23.947 22.645 51.233 23.561 79.229.916 27.995-5.398 55.754-18.333 80.598l-144.58-75.269z" fill="#6e6e6e"/><path d="m161.888 331.162c-13.127-24.838-19.611-52.648-18.824-80.73.787-28.083 8.82-55.485 23.318-79.549 14.497-24.064 34.969-43.972 59.428-57.793 24.458-13.8213 52.074-21.0862 80.168-21.09l.022 163z" fill="#404040"/><path d="m450.605 330.222c-13.722 26.38-34.399 48.503-59.793 63.975-25.393 15.472-54.535 23.703-84.271 23.802-29.735.099-58.931-7.938-84.427-23.241-25.496-15.304-46.319-37.289-60.217-63.578l144.103-76.18z" fill="#333"/><path d="m306 429c96.098 0 174-77.902 174-174s-77.902-174-174-174-174 77.902-174 174 77.902 174 174 174z" stroke="#f1bb52" stroke-width="2"/><g fill="#fff"><path d="m212.232 170v-11.168h2.432v9.008h4.256v2.16zm12.324.192c-.736 0-1.408-.123-2.016-.368s-1.126-.608-1.552-1.088c-.427-.491-.758-1.093-.992-1.808-.235-.725-.352-1.563-.352-2.512s.117-1.781.352-2.496c.234-.725.565-1.328.992-1.808.426-.491.944-.859 1.552-1.104s1.28-.368 2.016-.368 1.408.123 2.016.368 1.125.613 1.552 1.104c.426.48.757 1.083.992 1.808.234.715.352 1.547.352 2.496s-.118 1.787-.352 2.512c-.235.715-.566 1.317-.992 1.808-.427.48-.944.843-1.552 1.088s-1.28.368-2.016.368zm0-2.16c.736 0 1.306-.24 1.712-.72.416-.48.624-1.168.624-2.064v-1.664c0-.896-.208-1.584-.624-2.064-.406-.48-.976-.72-1.712-.72s-1.312.24-1.728.72c-.406.48-.608 1.168-.608 2.064v1.664c0 .896.202 1.584.608 2.064.416.48.992.72 1.728.72zm11.422 2.16c-.736 0-1.408-.123-2.016-.368s-1.126-.608-1.552-1.088c-.427-.491-.758-1.093-.992-1.808-.235-.725-.352-1.563-.352-2.512s.117-1.781.352-2.496c.234-.725.565-1.328.992-1.808.426-.491.944-.859 1.552-1.104s1.28-.368 2.016-.368 1.408.123 2.016.368 1.125.613 1.552 1.104c.426.48.757 1.083.992 1.808.234.715.352 1.547.352 2.496s-.118 1.787-.352 2.512c-.235.715-.566 1.317-.992 1.808-.427.48-.944.843-1.552 1.088s-1.28.368-2.016.368zm0-2.16c.736 0 1.306-.24 1.712-.72.416-.48.624-1.168.624-2.064v-1.664c0-.896-.208-1.584-.624-2.064-.406-.48-.976-.72-1.712-.72s-1.312.24-1.728.72c-.406.48-.608 1.168-.608 2.064v1.664c0 .896.202 1.584.608 2.064.416.48.992.72 1.728.72zm10.83-2.896-1.456 1.76v3.104h-2.432v-11.168h2.432v5.312h.096l1.584-2.16 2.512-3.152h2.752l-3.76 4.592 4.096 6.576h-2.865z"/><path d="m267.536 297.832v6.848c0 .789.155 1.381.464 1.776.309.384.827.576 1.552.576s1.243-.192 1.552-.576c.309-.395.464-.987.464-1.776v-6.848h2.368v6.592c0 .821-.08 1.536-.24 2.144-.149.597-.4 1.093-.752 1.488-.352.384-.805.672-1.36.864-.555.181-1.232.272-2.032.272s-1.477-.091-2.032-.272c-.555-.192-1.008-.48-1.36-.864-.352-.395-.608-.891-.768-1.488-.149-.608-.224-1.323-.224-2.144v-6.592zm12.421 11.36c-.981 0-1.813-.165-2.496-.496-.682-.341-1.264-.779-1.744-1.312l1.6-1.616c.758.853 1.691 1.28 2.8 1.28.598 0 1.04-.123 1.328-.368s.432-.571.432-.976c0-.309-.085-.565-.256-.768-.17-.213-.517-.357-1.04-.432l-1.104-.144c-1.184-.149-2.053-.507-2.608-1.072-.544-.565-.816-1.317-.816-2.256 0-.501.096-.96.288-1.376s.464-.773.816-1.072c.363-.299.8-.528 1.312-.688.523-.171 1.115-.256 1.776-.256.843 0 1.584.133 2.224.4s1.19.656 1.648 1.168l-1.616 1.632c-.266-.309-.592-.56-.976-.752-.373-.203-.848-.304-1.424-.304-.544 0-.949.096-1.216.288-.266.192-.4.459-.4.8 0 .384.102.661.304.832.214.171.555.293 1.024.368l1.104.176c1.152.181 2.006.539 2.56 1.072.555.523.832 1.269.832 2.24 0 .533-.096 1.024-.288 1.472s-.474.832-.848 1.152c-.362.32-.816.571-1.36.752-.544.171-1.162.256-1.856.256zm13.249-.192-.8-2.656h-3.728l-.8 2.656h-2.464l3.68-11.168h3.008l3.632 11.168zm-2.64-8.96h-.08l-1.232 4.24h2.56zm6.713-2.208h5.424c.928 0 1.648.261 2.16.784.523.523.784 1.216.784 2.08 0 .427-.059.789-.176 1.088-.107.299-.256.544-.448.736-.181.192-.4.336-.656.432-.245.085-.512.133-.8.144v.096c.267 0 .544.048.832.144.299.096.571.251.816.464.245.203.448.469.608.8.171.331.256.736.256 1.216 0 .437-.075.853-.224 1.248-.139.384-.336.72-.592 1.008s-.56.517-.912.688c-.352.16-.736.24-1.152.24h-5.92zm2.432 9.12h2.8c.32 0 .571-.085.752-.256.192-.181.288-.432.288-.752v-.544c0-.32-.096-.565-.288-.736-.181-.181-.432-.272-.752-.272h-2.8zm0-4.544h2.416c.32 0 .571-.091.752-.272s.272-.432.272-.752v-.48c0-.32-.091-.571-.272-.752s-.432-.272-.752-.272h-2.416zm7.808 6.592v-1.936h1.44v-7.296h-1.44v-1.936h5.312v1.936h-1.44v7.296h1.44v1.936zm7.338 0v-11.168h2.432v9.008h4.256v2.16zm8.052 0v-1.936h1.44v-7.296h-1.44v-1.936h5.312v1.936h-1.44v7.296h1.44v1.936zm11.932-9.008v9.008h-2.432v-9.008h-3.024v-2.16h8.48v2.16zm7.471 9.008v-4.368l-3.824-6.8h2.72l2.4 4.448h.032l2.304-4.448h2.64l-3.824 6.784v4.384z"/><path d="m356.591 158v-11.168h7.408v2.16h-4.976v2.288h4.24v2.144h-4.24v4.576zm9.36 0v-11.168h7.6v2.16h-5.168v2.288h4.432v2.144h-4.432v2.416h5.168v2.16zm9.719 0v-11.168h7.6v2.16h-5.168v2.288h4.432v2.144h-4.432v2.416h5.168v2.16zm9.718 0v-11.168h2.432v9.008h4.256v2.16zm-52.731 13.96c-.48 0-.832-.107-1.056-.32-.213-.224-.32-.501-.32-.832v-.336c0-.309.043-.619.128-.928.096-.32.219-.624.368-.912.16-.288.347-.555.56-.8.213-.256.443-.48.688-.672h1.488c-.352.32-.656.645-.912.976-.245.331-.432.699-.56 1.104.341.064.592.208.752.432.16.213.24.459.24.736v.4c0 .331-.112.608-.336.832-.213.213-.56.32-1.04.32zm3.76 0c-.48 0-.832-.107-1.056-.32-.213-.224-.32-.501-.32-.832v-.336c0-.309.043-.619.128-.928.096-.32.219-.624.368-.912.16-.288.347-.555.56-.8.213-.256.443-.48.688-.672h1.488c-.352.32-.656.645-.912.976-.245.331-.432.699-.56 1.104.341.064.592.208.752.432.16.213.24.459.24.736v.4c0 .331-.112.608-.336.832-.213.213-.56.32-1.04.32zm3.539-1.36h2.368v9.296c0 .747-.187 1.317-.56 1.712-.374.395-.976.592-1.808.592h-1.248v-1.84h1.248zm1.184-.896c-.48 0-.832-.107-1.056-.32-.214-.224-.32-.507-.32-.848v-.352c0-.341.106-.619.32-.832.224-.224.576-.336 1.056-.336s.826.112 1.04.336c.224.213.336.491.336.832v.352c0 .341-.112.624-.336.848-.214.213-.56.32-1.04.32zm6.802 9.488c-.619 0-1.174-.101-1.664-.304-.48-.203-.891-.496-1.232-.88-.331-.384-.587-.848-.768-1.392-.182-.544-.272-1.152-.272-1.824s.09-1.28.272-1.824c.181-.544.437-1.003.768-1.376.341-.384.752-.677 1.232-.88.49-.203 1.045-.304 1.664-.304.618 0 1.168.101 1.648.304.49.203.901.496 1.232.88.341.373.602.832.784 1.376.181.544.272 1.152.272 1.824s-.091 1.28-.272 1.824c-.182.544-.443 1.008-.784 1.392-.331.384-.742.677-1.232.88-.48.203-1.03.304-1.648.304zm0-1.872c.469 0 .832-.144 1.088-.432s.384-.699.384-1.232v-1.712c0-.533-.128-.944-.384-1.232s-.619-.432-1.088-.432c-.47 0-.832.144-1.088.432s-.384.699-.384 1.232v1.712c0 .533.128.944.384 1.232s.618.432 1.088.432zm10.603-6.72h2.208l-3.232 9.696c-.214.651-.518 1.131-.912 1.44-.384.309-.939.464-1.664.464h-1.472v-1.84h1.584l.288-.928-2.944-8.832h2.352l1.232 3.92.608 2.432h.096l.624-2.432zm10.6 8.592c-.619 0-1.174-.101-1.664-.304-.48-.203-.891-.496-1.232-.88-.331-.384-.587-.848-.768-1.392-.182-.544-.272-1.152-.272-1.824s.09-1.28.272-1.824c.181-.544.437-1.003.768-1.376.341-.384.752-.677 1.232-.88.49-.203 1.045-.304 1.664-.304.618 0 1.168.101 1.648.304.49.203.901.496 1.232.88.341.373.602.832.784 1.376.181.544.272 1.152.272 1.824s-.091 1.28-.272 1.824c-.182.544-.443 1.008-.784 1.392-.331.384-.742.677-1.232.88-.48.203-1.03.304-1.648.304zm0-1.872c.469 0 .832-.144 1.088-.432s.384-.699.384-1.232v-1.712c0-.533-.128-.944-.384-1.232s-.619-.432-1.088-.432c-.47 0-.832.144-1.088.432s-.384.699-.384 1.232v1.712c0 .533.128.944.384 1.232s.618.432 1.088.432zm5.945-4.88h-1.184v-1.84h1.184v-.992c0-.811.214-1.419.64-1.824.427-.416 1.051-.624 1.872-.624h1.536v1.84h-1.68v1.6h1.68v1.84h-1.68v6.56h-2.368zm14.107 5.152h-.08c-.075.213-.176.416-.304.608-.118.192-.272.363-.464.512s-.422.267-.688.352c-.256.085-.555.128-.896.128-.864 0-1.52-.283-1.968-.848-.438-.576-.656-1.397-.656-2.464v-5.28h2.368v5.072c0 .512.09.907.272 1.184.181.277.49.416.928.416.181 0 .362-.027.544-.08.181-.053.341-.128.48-.224.138-.107.25-.235.336-.384.085-.149.128-.325.128-.528v-5.456h2.368v8.4h-2.368zm7.419 1.6c-.811 0-1.493-.128-2.048-.384-.555-.267-1.051-.64-1.488-1.12l1.392-1.408c.299.331.629.592.992.784s.773.288 1.232.288c.469 0 .795-.069.976-.208.181-.149.272-.347.272-.592 0-.395-.283-.629-.848-.704l-.912-.112c-1.888-.235-2.832-1.099-2.832-2.592 0-.405.075-.773.224-1.104.16-.341.379-.629.656-.864.288-.245.629-.432 1.024-.56.405-.139.859-.208 1.36-.208.437 0 .821.032 1.152.096.341.053.64.139.896.256.267.107.507.245.72.416.224.16.443.341.656.544l-1.36 1.392c-.267-.267-.571-.475-.912-.624-.331-.16-.672-.24-1.024-.24-.405 0-.693.064-.864.192s-.256.299-.256.512c0 .224.059.4.176.528.128.117.363.203.704.256l.944.128c1.845.245 2.768 1.088 2.768 2.528 0 .405-.085.779-.256 1.12s-.416.64-.736.896c-.309.245-.688.437-1.136.576-.437.139-.928.208-1.472.208zm8.719 0c-.64 0-1.211-.101-1.712-.304-.502-.213-.928-.507-1.28-.88-.342-.384-.603-.848-.784-1.392-.171-.544-.256-1.152-.256-1.824 0-.661.085-1.259.256-1.792.17-.544.421-1.008.752-1.392.341-.384.757-.677 1.248-.88.49-.213 1.05-.32 1.68-.32.693 0 1.285.117 1.776.352.501.235.906.549 1.216.944.32.395.549.853.688 1.376.149.512.224 1.051.224 1.616v.704h-5.392v.128c0 .555.149.997.448 1.328.298.32.768.48 1.408.48.49 0 .89-.096 1.2-.288.309-.203.597-.443.864-.72l1.184 1.472c-.374.437-.864.779-1.472 1.024-.598.245-1.28.368-2.048.368zm-.048-7.04c-.48 0-.859.16-1.136.48-.267.309-.4.725-.4 1.248v.128h2.944v-.144c0-.512-.118-.923-.352-1.232-.224-.32-.576-.48-1.056-.48zm6.293-5.152c.48 0 .827.112 1.04.336.224.213.336.485.336.816v.336c0 .309-.048.624-.144.944-.085.309-.208.608-.368.896-.149.288-.33.56-.544.816-.213.245-.442.464-.688.656h-1.488c.352-.32.651-.645.896-.976.256-.331.448-.699.576-1.104-.341-.064-.592-.203-.752-.416-.16-.224-.24-.475-.24-.752v-.4c0-.331.107-.603.32-.816.224-.224.576-.336 1.056-.336zm3.76 0c.48 0 .827.112 1.04.336.224.213.336.485.336.816v.336c0 .309-.048.624-.144.944-.085.309-.208.608-.368.896-.149.288-.33.56-.544.816-.213.245-.442.464-.688.656h-1.488c.352-.32.651-.645.896-.976.256-.331.448-.699.576-1.104-.341-.064-.592-.203-.752-.416-.16-.224-.24-.475-.24-.752v-.4c0-.331.107-.603.32-.816.224-.224.576-.336 1.056-.336z"/><path d="m205.108 207.144c-.696 0-1.26-.22-1.692-.66-.432-.448-.648-1.1-.648-1.956 0-.544.076-1.052.228-1.524.152-.48.368-.896.648-1.248s.612-.628.996-.828c.392-.208.824-.312 1.296-.312.576 0 1.048.14 1.416.42.376.28.616.648.72 1.104l-1.044.42c-.088-.28-.22-.496-.396-.648-.168-.16-.42-.24-.756-.24-.432 0-.784.136-1.056.408s-.456.66-.552 1.164l-.204 1.032c-.04.2-.06.376-.06.528 0 .384.1.696.3.936.2.232.508.348.924.348.304 0 .564-.088.78-.264.224-.176.444-.46.66-.852l.96.456c-.264.56-.608.988-1.032 1.284-.424.288-.92.432-1.488.432zm3.374-.144 1.248-6.24h1.248l-.264 1.332h.072c.072-.16.16-.32.264-.48.112-.16.244-.3.396-.42.152-.128.324-.232.516-.312.2-.08.424-.12.672-.12h.348l-.252 1.236h-.42c-.552 0-.98.132-1.284.396s-.5.624-.588 1.08l-.708 3.528zm7.117.144c-.808 0-1.424-.228-1.848-.684-.416-.464-.624-1.116-.624-1.956 0-.512.076-1 .228-1.464.16-.472.384-.888.672-1.248s.636-.644 1.044-.852c.408-.216.864-.324 1.368-.324.248 0 .496.032.744.096.256.064.484.164.684.3s.36.312.48.528c.128.216.192.476.192.78 0 .664-.336 1.172-1.008 1.524-.664.352-1.708.544-3.132.576-.024.16-.036.292-.036.396 0 .384.104.692.312.924.216.232.552.348 1.008.348.344 0 .656-.076.936-.228s.548-.388.804-.708l.792.66c-.392.488-.804.832-1.236 1.032s-.892.3-1.38.3zm.744-5.532c-.432 0-.808.148-1.128.444-.312.288-.516.68-.612 1.176l-.06.312c.568-.024 1.032-.064 1.392-.12s.64-.132.84-.228c.208-.096.348-.212.42-.348s.108-.292.108-.468c0-.152-.028-.276-.084-.372-.056-.104-.132-.184-.228-.24-.088-.064-.188-.104-.3-.12-.112-.024-.228-.036-.348-.036zm7.629 5.388c-.28 0-.504-.072-.672-.216-.16-.144-.24-.344-.24-.6 0-.136.012-.252.036-.348l.048-.228h-.048c-.256.512-.54.896-.852 1.152-.304.256-.696.384-1.176.384-.576 0-1.02-.208-1.332-.624s-.468-.972-.468-1.668c0-.544.068-1.072.204-1.584s.332-.964.588-1.356c.264-.392.58-.704.948-.936.368-.24.784-.36 1.248-.36.408 0 .76.108 1.056.324.296.208.476.496.54.864h.06l.732-3.684h1.248l-1.572 7.836h.804l-.204 1.044zm-2.4-.924c.248 0 .468-.056.66-.168.192-.12.368-.264.528-.432.352-.376.58-.836.684-1.38l.228-1.14c.072-.36.008-.66-.192-.9-.2-.248-.536-.372-1.008-.372-.448 0-.812.144-1.092.432-.28.28-.476.696-.588 1.248l-.18.876c-.016.096-.032.204-.048.324-.008.112-.012.22-.012.324 0 .352.084.64.252.864.168.216.424.324.768.324zm6.671-6.432c-.232 0-.4-.048-.504-.144s-.156-.216-.156-.36c0-.08.02-.22.06-.42.04-.184.124-.336.252-.456.128-.128.332-.192.612-.192.232 0 .4.048.504.144s.156.216.156.36c0 .08-.02.22-.06.42-.04.184-.124.34-.252.468-.128.12-.332.18-.612.18zm-.996 7.356c-.304 0-.536-.076-.696-.228-.16-.16-.24-.364-.24-.612 0-.08.012-.18.036-.3l1.02-5.1h1.248l-1.044 5.196h.804l-.204 1.044zm3.906-8.88h1.248l-.804 4.032h.048c.256-.512.536-.896.84-1.152.312-.256.708-.384 1.188-.384.576 0 1.02.208 1.332.624s.468.972.468 1.668c0 .544-.068 1.072-.204 1.584s-.336.964-.6 1.356c-.256.392-.568.708-.936.948-.368.232-.784.348-1.248.348-.408 0-.76-.104-1.056-.312s-.476-.5-.54-.876h-.06l-.204 1.044h-1.248zm1.104 7.956c.456 0 .824-.14 1.104-.42.28-.288.476-.708.588-1.26l.18-.876c.016-.096.028-.2.036-.312.016-.12.024-.232.024-.336 0-.352-.084-.636-.252-.852-.168-.224-.424-.336-.768-.336-.248 0-.468.06-.66.18-.192.112-.368.252-.528.42-.168.184-.312.392-.432.624-.112.224-.196.476-.252.756l-.228 1.14c-.072.36-.008.664.192.912.2.24.532.36.996.36zm6.17-6.432c-.232 0-.4-.048-.504-.144s-.156-.216-.156-.36c0-.08.02-.22.06-.42.04-.184.124-.336.252-.456.128-.128.332-.192.612-.192.232 0 .4.048.504.144s.156.216.156.36c0 .08-.02.22-.06.42-.04.184-.124.34-.252.468-.128.12-.332.18-.612.18zm-.996 7.356c-.304 0-.536-.076-.696-.228-.16-.16-.24-.364-.24-.612 0-.08.012-.18.036-.3l1.02-5.1h1.248l-1.044 5.196h.804l-.204 1.044zm3.245 0c-.304 0-.536-.076-.696-.228-.16-.16-.24-.364-.24-.612 0-.08.012-.18.036-.3l1.548-7.74h1.248l-1.572 7.836h.864l-.204 1.044zm4.243-7.356c-.232 0-.4-.048-.504-.144s-.156-.216-.156-.36c0-.08.02-.22.06-.42.04-.184.124-.336.252-.456.128-.128.332-.192.612-.192.232 0 .4.048.504.144s.156.216.156.36c0 .08-.02.22-.06.42-.04.184-.124.34-.252.468-.128.12-.332.18-.612.18zm-.996 7.356c-.304 0-.536-.076-.696-.228-.16-.16-.24-.364-.24-.612 0-.08.012-.18.036-.3l1.02-5.1h1.248l-1.044 5.196h.804l-.204 1.044zm3.702 0c-.384 0-.668-.084-.852-.252-.176-.168-.264-.4-.264-.696 0-.064.004-.136.012-.216s.02-.16.036-.24l.756-3.792h-.912l.204-1.044h.468c.232 0 .388-.048.468-.144.088-.096.152-.252.192-.468l.216-1.092h1.164l-.336 1.704h1.248l-.204 1.044h-1.26l-.828 4.152h1.212l-.204 1.044zm7.27-6.24h1.332l-4.056 7.476c-.112.208-.224.384-.336.528-.104.144-.224.264-.36.36-.128.096-.276.164-.444.204-.168.048-.36.072-.576.072h-.948l.204-1.032h1.14l.588-1.104-.948-6.504h1.224l.372 2.772.228 2.292h.06l1.092-2.292zm-36.485 22.24c-.384 0-.668-.084-.852-.252-.176-.168-.264-.4-.264-.696 0-.064.004-.136.012-.216s.02-.16.036-.24l.756-3.792h-.912l.204-1.044h.468c.232 0 .388-.048.468-.144.088-.096.152-.252.192-.468l.216-1.092h1.164l-.336 1.704h1.248l-.204 1.044h-1.26l-.828 4.152h1.212l-.204 1.044zm2.424 0 1.248-6.24h1.248l-.264 1.332h.072c.072-.16.16-.32.264-.48.112-.16.244-.3.396-.42.152-.128.324-.232.516-.312.2-.08.424-.12.672-.12h.348l-.252 1.236h-.42c-.552 0-.98.132-1.284.396s-.5.624-.588 1.08l-.708 3.528zm6.947-6.24-.756 3.792c-.024.112-.044.224-.06.336-.008.112-.012.212-.012.3 0 .28.06.496.18.648s.32.228.6.228c.4 0 .756-.176 1.068-.528.184-.208.336-.436.456-.684.128-.256.216-.508.264-.756l.672-3.336h1.248l-1.044 5.196h.804l-.204 1.044h-.96c-.28 0-.5-.072-.66-.216-.152-.152-.228-.356-.228-.612 0-.104.012-.224.036-.36l.024-.144h-.06c-.232.48-.5.848-.804 1.104-.304.248-.68.372-1.128.372-.512 0-.9-.148-1.164-.444-.256-.296-.384-.708-.384-1.236 0-.136.008-.272.024-.408s.04-.284.072-.444l.768-3.852zm6.616 6.384c-.496 0-.96-.096-1.392-.288-.424-.192-.764-.468-1.02-.828l.816-.744c.2.264.428.468.684.612.264.144.576.216.936.216.4 0 .708-.088.924-.264.224-.176.336-.412.336-.708 0-.168-.052-.312-.156-.432-.104-.128-.308-.22-.612-.276l-.54-.096c-.504-.088-.908-.256-1.212-.504s-.456-.624-.456-1.128c0-.272.048-.532.144-.78.104-.256.256-.48.456-.672s.452-.344.756-.456c.304-.12.66-.18 1.068-.18.928 0 1.648.316 2.16.948l-.816.744c-.144-.192-.332-.348-.564-.468-.232-.128-.516-.192-.852-.192-.384 0-.672.084-.864.252-.184.168-.276.384-.276.648 0 .176.052.324.156.444.112.12.316.208.612.264l.54.084c.52.088.928.26 1.224.516s.444.636.444 1.14c0 .312-.06.6-.18.864-.112.256-.276.48-.492.672s-.48.344-.792.456c-.304.104-.648.156-1.032.156zm4.989-.144c-.384 0-.668-.084-.852-.252-.176-.168-.264-.4-.264-.696 0-.064.004-.136.012-.216s.02-.16.036-.24l.756-3.792h-.912l.204-1.044h.468c.232 0 .388-.048.468-.144.088-.096.152-.252.192-.468l.216-1.092h1.164l-.336 1.704h1.248l-.204 1.044h-1.26l-.828 4.152h1.212l-.204 1.044zm-32.309 7.12h1.248l-.792 3.972h.06c.232-.48.504-.844.816-1.092.312-.256.7-.384 1.164-.384.52 0 .908.148 1.164.444.264.296.396.708.396 1.236 0 .136-.008.272-.024.408-.016.128-.04.272-.072.432l-.564 2.82h.756l-.204 1.044h-.948c-.264 0-.476-.068-.636-.204-.152-.136-.228-.332-.228-.588 0-.048 0-.096 0-.144.008-.056.016-.104.024-.144l.54-2.7c.048-.24.072-.46.072-.66 0-.28-.064-.492-.192-.636-.128-.152-.336-.228-.624-.228-.416 0-.78.176-1.092.528-.176.192-.328.416-.456.672-.128.248-.216.496-.264.744l-.672 3.36h-1.248zm9.986 8.88c-.28 0-.504-.072-.672-.216-.16-.144-.24-.344-.24-.6 0-.136.012-.252.036-.348l.048-.228h-.048c-.256.512-.54.896-.852 1.152-.304.256-.696.384-1.176.384-.576 0-1.02-.208-1.332-.624s-.468-.972-.468-1.668c0-.544.068-1.072.204-1.584s.332-.964.588-1.356c.264-.392.58-.704.948-.936.368-.24.784-.36 1.248-.36.408 0 .76.108 1.056.324.296.208.476.496.54.864h.06l.204-1.044h1.248l-1.044 5.196h.804l-.204 1.044zm-2.424-.924c.256 0 .48-.056.672-.168.2-.112.38-.256.54-.432.344-.368.572-.832.684-1.392l.252-1.26c.024-.136.016-.272-.024-.408s-.112-.256-.216-.36c-.104-.112-.24-.2-.408-.264-.16-.072-.344-.108-.552-.108-.464 0-.836.144-1.116.432-.28.28-.476.696-.588 1.248l-.18.876c-.016.096-.032.204-.048.324-.008.12-.012.228-.012.324 0 .352.08.64.24.864.168.216.42.324.756.324zm4.572.924 1.248-6.24h1.248l-.264 1.332h.072c.072-.16.16-.32.264-.48.112-.16.244-.3.396-.42.152-.128.324-.232.516-.312.2-.08.424-.12.672-.12h.348l-.252 1.236h-.42c-.552 0-.98.132-1.284.396s-.5.624-.588 1.08l-.708 3.528zm4.523 0 1.248-6.24h1.248l-.264 1.332h.06c.232-.48.496-.844.792-1.092.304-.256.688-.384 1.152-.384.456 0 .804.132 1.044.396.24.256.376.616.408 1.08h.06c.224-.472.492-.836.804-1.092.32-.256.72-.384 1.2-.384.504 0 .88.148 1.128.444.256.288.384.692.384 1.212 0 .288-.036.6-.108.936l-.552 2.748h.756l-.204 1.044h-.948c-.272 0-.488-.064-.648-.192-.152-.136-.228-.332-.228-.588 0-.104.012-.204.036-.3l.54-2.712c.024-.12.044-.236.06-.348s.024-.216.024-.312c0-.272-.064-.48-.192-.624-.12-.152-.312-.228-.576-.228-.368 0-.708.176-1.02.528-.176.192-.324.416-.444.672s-.204.504-.252.744l-.672 3.36h-1.248l.756-3.78c.024-.12.044-.236.06-.348.016-.12.024-.232.024-.336 0-.264-.06-.468-.18-.612-.112-.152-.296-.228-.552-.228-.208 0-.4.048-.576.144s-.332.224-.468.384c-.184.208-.34.436-.468.684s-.216.492-.264.732l-.672 3.36zm12.845.144c-.704 0-1.272-.22-1.704-.66s-.648-1.08-.648-1.92c0-.536.08-1.044.24-1.524s.38-.9.66-1.26c.288-.36.628-.644 1.02-.852s.824-.312 1.296-.312c.704 0 1.272.22 1.704.66s.648 1.08.648 1.92c0 .544-.08 1.056-.24 1.536-.16.472-.384.888-.672 1.248-.28.36-.616.644-1.008.852s-.824.312-1.296.312zm.096-1.056c.392 0 .732-.144 1.02-.432.296-.288.5-.708.612-1.26l.204-.996c.016-.064.028-.136.036-.216s.012-.164.012-.252c0-.384-.104-.688-.312-.912-.2-.232-.5-.348-.9-.348-.392 0-.736.144-1.032.432-.288.288-.488.708-.6 1.26l-.204.996c-.016.072-.028.148-.036.228-.008.072-.012.152-.012.24 0 .384.1.692.3.924.208.224.512.336.912.336zm3.946.912 1.248-6.24h1.248l-.264 1.332h.06c.232-.48.504-.844.816-1.092.312-.256.7-.384 1.164-.384.52 0 .908.148 1.164.444.264.296.396.708.396 1.236 0 .136-.008.272-.024.408-.016.128-.04.272-.072.432l-.564 2.82h.756l-.204 1.044h-.948c-.264 0-.476-.068-.636-.204-.152-.136-.228-.332-.228-.588 0-.048 0-.088 0-.12 0-.04.008-.096.024-.168l.54-2.7c.048-.24.072-.46.072-.66 0-.28-.064-.492-.192-.636-.128-.152-.336-.228-.624-.228-.416 0-.78.176-1.092.528-.176.192-.328.416-.456.672-.128.248-.216.496-.264.744l-.672 3.36zm11.561-6.24h1.332l-4.056 7.476c-.112.208-.224.384-.336.528-.104.144-.224.264-.36.36-.128.096-.276.164-.444.204-.168.048-.36.072-.576.072h-.948l.204-1.032h1.14l.588-1.104-.948-6.504h1.224l.372 2.772.228 2.292h.06l1.092-2.292zm-38.877 13.36h1.248l-.792 3.972h.06c.232-.48.504-.844.816-1.092.312-.256.7-.384 1.164-.384.52 0 .908.148 1.164.444.264.296.396.708.396 1.236 0 .136-.008.272-.024.408-.016.128-.04.272-.072.432l-.564 2.82h.756l-.204 1.044h-.948c-.264 0-.476-.068-.636-.204-.152-.136-.228-.332-.228-.588 0-.048 0-.096 0-.144.008-.056.016-.104.024-.144l.54-2.7c.048-.24.072-.46.072-.66 0-.28-.064-.492-.192-.636-.128-.152-.336-.228-.624-.228-.416 0-.78.176-1.092.528-.176.192-.328.416-.456.672-.128.248-.216.496-.264.744l-.672 3.36h-1.248zm7.527 2.64-.756 3.792c-.024.112-.044.224-.06.336-.008.112-.012.212-.012.3 0 .28.06.496.18.648s.32.228.6.228c.4 0 .756-.176 1.068-.528.184-.208.336-.436.456-.684.128-.256.216-.508.264-.756l.672-3.336h1.248l-1.044 5.196h.804l-.204 1.044h-.96c-.28 0-.5-.072-.66-.216-.152-.152-.228-.356-.228-.612 0-.104.012-.224.036-.36l.024-.144h-.06c-.232.48-.5.848-.804 1.104-.304.248-.68.372-1.128.372-.512 0-.9-.148-1.164-.444-.256-.296-.384-.708-.384-1.236 0-.136.008-.272.024-.408s.04-.284.072-.444l.768-3.852zm4.42 6.24 1.248-6.24h1.248l-.264 1.332h.06c.232-.48.496-.844.792-1.092.304-.256.688-.384 1.152-.384.456 0 .804.132 1.044.396.24.256.376.616.408 1.08h.06c.224-.472.492-.836.804-1.092.32-.256.72-.384 1.2-.384.504 0 .88.148 1.128.444.256.288.384.692.384 1.212 0 .288-.036.6-.108.936l-.552 2.748h.756l-.204 1.044h-.948c-.272 0-.488-.064-.648-.192-.152-.136-.228-.332-.228-.588 0-.104.012-.204.036-.3l.54-2.712c.024-.12.044-.236.06-.348s.024-.216.024-.312c0-.272-.064-.48-.192-.624-.12-.152-.312-.228-.576-.228-.368 0-.708.176-1.02.528-.176.192-.324.416-.444.672s-.204.504-.252.744l-.672 3.36h-1.248l.756-3.78c.024-.12.044-.236.06-.348.016-.12.024-.232.024-.336 0-.264-.06-.468-.18-.612-.112-.152-.296-.228-.552-.228-.208 0-.4.048-.576.144s-.332.224-.468.384c-.184.208-.34.436-.468.684s-.216.492-.264.732l-.672 3.36zm15.196 0c-.28 0-.504-.072-.672-.216-.16-.144-.24-.344-.24-.6 0-.136.012-.252.036-.348l.048-.228h-.048c-.256.512-.54.896-.852 1.152-.304.256-.696.384-1.176.384-.576 0-1.02-.208-1.332-.624s-.468-.972-.468-1.668c0-.544.068-1.072.204-1.584s.332-.964.588-1.356c.264-.392.58-.704.948-.936.368-.24.784-.36 1.248-.36.408 0 .76.108 1.056.324.296.208.476.496.54.864h.06l.204-1.044h1.248l-1.044 5.196h.804l-.204 1.044zm-2.424-.924c.256 0 .48-.056.672-.168.2-.112.38-.256.54-.432.344-.368.572-.832.684-1.392l.252-1.26c.024-.136.016-.272-.024-.408s-.112-.256-.216-.36c-.104-.112-.24-.2-.408-.264-.16-.072-.344-.108-.552-.108-.464 0-.836.144-1.116.432-.28.28-.476.696-.588 1.248l-.18.876c-.016.096-.032.204-.048.324-.008.12-.012.228-.012.324 0 .352.08.64.24.864.168.216.42.324.756.324zm4.571.924 1.248-6.24h1.248l-.264 1.332h.072c.072-.16.16-.32.264-.48.112-.16.244-.3.396-.42.152-.128.324-.232.516-.312.2-.08.424-.12.672-.12h.348l-.252 1.236h-.42c-.552 0-.98.132-1.284.396s-.5.624-.588 1.08l-.708 3.528z"/><path d="m347.815 212.644c-.232 0-.4-.048-.504-.144s-.156-.216-.156-.36c0-.08.02-.22.06-.42.04-.184.124-.336.252-.456.128-.128.332-.192.612-.192.232 0 .4.048.504.144s.156.216.156.36c0 .08-.02.22-.06.42-.04.184-.124.34-.252.468-.128.12-.332.18-.612.18zm-.996 7.356c-.304 0-.536-.076-.696-.228-.16-.16-.24-.364-.24-.612 0-.08.012-.18.036-.3l1.02-5.1h1.248l-1.044 5.196h.804l-.204 1.044zm2.13 0 1.248-6.24h1.248l-.264 1.332h.06c.232-.48.504-.844.816-1.092.312-.256.7-.384 1.164-.384.52 0 .908.148 1.164.444.264.296.396.708.396 1.236 0 .136-.008.272-.024.408-.016.128-.04.272-.072.432l-.564 2.82h.756l-.204 1.044h-.948c-.264 0-.476-.068-.636-.204-.152-.136-.228-.332-.228-.588 0-.048 0-.088 0-.12 0-.04.008-.096.024-.168l.54-2.7c.048-.24.072-.46.072-.66 0-.28-.064-.492-.192-.636-.128-.152-.336-.228-.624-.228-.416 0-.78.176-1.092.528-.176.192-.328.416-.456.672-.128.248-.216.496-.264.744l-.672 3.36zm8.451 0c-.384 0-.668-.084-.852-.252-.176-.168-.264-.4-.264-.696 0-.064.004-.136.012-.216s.02-.16.036-.24l.756-3.792h-.912l.204-1.044h.468c.232 0 .388-.048.468-.144.088-.096.152-.252.192-.468l.216-1.092h1.164l-.336 1.704h1.248l-.204 1.044h-1.26l-.828 4.152h1.212l-.204 1.044zm5.006.144c-.808 0-1.424-.228-1.848-.684-.416-.464-.624-1.116-.624-1.956 0-.512.076-1 .228-1.464.16-.472.384-.888.672-1.248s.636-.644 1.044-.852c.408-.216.864-.324 1.368-.324.248 0 .496.032.744.096.256.064.484.164.684.3s.36.312.48.528c.128.216.192.476.192.78 0 .664-.336 1.172-1.008 1.524-.664.352-1.708.544-3.132.576-.024.16-.036.292-.036.396 0 .384.104.692.312.924.216.232.552.348 1.008.348.344 0 .656-.076.936-.228s.548-.388.804-.708l.792.66c-.392.488-.804.832-1.236 1.032s-.892.3-1.38.3zm.744-5.532c-.432 0-.808.148-1.128.444-.312.288-.516.68-.612 1.176l-.06.312c.568-.024 1.032-.064 1.392-.12s.64-.132.84-.228c.208-.096.348-.212.42-.348s.108-.292.108-.468c0-.152-.028-.276-.084-.372-.056-.104-.132-.184-.228-.24-.088-.064-.188-.104-.3-.12-.112-.024-.228-.036-.348-.036zm2.744 5.388 1.248-6.24h1.248l-.264 1.332h.072c.072-.16.16-.32.264-.48.112-.16.244-.3.396-.42.152-.128.324-.232.516-.312.2-.08.424-.12.672-.12h.348l-.252 1.236h-.42c-.552 0-.98.132-1.284.396s-.5.624-.588 1.08l-.708 3.528zm9.314 0c-.28 0-.504-.072-.672-.216-.16-.144-.24-.344-.24-.6 0-.136.012-.252.036-.348l.048-.228h-.048c-.256.512-.54.896-.852 1.152-.304.256-.696.384-1.176.384-.576 0-1.02-.208-1.332-.624s-.468-.972-.468-1.668c0-.544.068-1.072.204-1.584s.332-.964.588-1.356c.264-.392.58-.704.948-.936.368-.24.784-.36 1.248-.36.408 0 .76.108 1.056.324.296.208.476.496.54.864h.06l.204-1.044h1.248l-1.044 5.196h.804l-.204 1.044zm-2.424-.924c.256 0 .48-.056.672-.168.2-.112.38-.256.54-.432.344-.368.572-.832.684-1.392l.252-1.26c.024-.136.016-.272-.024-.408s-.112-.256-.216-.36c-.104-.112-.24-.2-.408-.264-.16-.072-.344-.108-.552-.108-.464 0-.836.144-1.116.432-.28.28-.476.696-.588 1.248l-.18.876c-.016.096-.032.204-.048.324-.008.12-.012.228-.012.324 0 .352.08.64.24.864.168.216.42.324.756.324zm7.091 1.068c-.696 0-1.26-.22-1.692-.66-.432-.448-.648-1.1-.648-1.956 0-.544.076-1.052.228-1.524.152-.48.368-.896.648-1.248s.612-.628.996-.828c.392-.208.824-.312 1.296-.312.576 0 1.048.14 1.416.42.376.28.616.648.72 1.104l-1.044.42c-.088-.28-.22-.496-.396-.648-.168-.16-.42-.24-.756-.24-.432 0-.784.136-1.056.408s-.456.66-.552 1.164l-.204 1.032c-.04.2-.06.376-.06.528 0 .384.1.696.3.936.2.232.508.348.924.348.304 0 .564-.088.78-.264.224-.176.444-.46.66-.852l.96.456c-.264.56-.608.988-1.032 1.284-.424.288-.92.432-1.488.432zm4.947-.144c-.384 0-.668-.084-.852-.252-.176-.168-.264-.4-.264-.696 0-.064.004-.136.012-.216s.02-.16.036-.24l.756-3.792h-.912l.204-1.044h.468c.232 0 .388-.048.468-.144.088-.096.152-.252.192-.468l.216-1.092h1.164l-.336 1.704h1.248l-.204 1.044h-1.26l-.828 4.152h1.212l-.204 1.044zm4.548-7.356c-.232 0-.4-.048-.504-.144s-.156-.216-.156-.36c0-.08.02-.22.06-.42.04-.184.124-.336.252-.456.128-.128.332-.192.612-.192.232 0 .4.048.504.144s.156.216.156.36c0 .08-.02.22-.06.42-.04.184-.124.34-.252.468-.128.12-.332.18-.612.18zm-.996 7.356c-.304 0-.536-.076-.696-.228-.16-.16-.24-.364-.24-.612 0-.08.012-.18.036-.3l1.02-5.1h1.248l-1.044 5.196h.804l-.204 1.044zm4.662.144c-.704 0-1.272-.22-1.704-.66s-.648-1.08-.648-1.92c0-.536.08-1.044.24-1.524s.38-.9.66-1.26c.288-.36.628-.644 1.02-.852s.824-.312 1.296-.312c.704 0 1.272.22 1.704.66s.648 1.08.648 1.92c0 .544-.08 1.056-.24 1.536-.16.472-.384.888-.672 1.248-.28.36-.616.644-1.008.852s-.824.312-1.296.312zm.096-1.056c.392 0 .732-.144 1.02-.432.296-.288.5-.708.612-1.26l.204-.996c.016-.064.028-.136.036-.216s.012-.164.012-.252c0-.384-.104-.688-.312-.912-.2-.232-.5-.348-.9-.348-.392 0-.736.144-1.032.432-.288.288-.488.708-.6 1.26l-.204.996c-.016.072-.028.148-.036.228-.008.072-.012.152-.012.24 0 .384.1.692.3.924.208.224.512.336.912.336zm3.946.912 1.248-6.24h1.248l-.264 1.332h.06c.232-.48.504-.844.816-1.092.312-.256.7-.384 1.164-.384.52 0 .908.148 1.164.444.264.296.396.708.396 1.236 0 .136-.008.272-.024.408-.016.128-.04.272-.072.432l-.564 2.82h.756l-.204 1.044h-.948c-.264 0-.476-.068-.636-.204-.152-.136-.228-.332-.228-.588 0-.048 0-.088 0-.12 0-.04.008-.096.024-.168l.54-2.7c.048-.24.072-.46.072-.66 0-.28-.064-.492-.192-.636-.128-.152-.336-.228-.624-.228-.416 0-.78.176-1.092.528-.176.192-.328.416-.456.672-.128.248-.216.496-.264.744l-.672 3.36zm-44.373 16 1.248-6.24h1.248l-.264 1.332h.072c.072-.16.16-.32.264-.48.112-.16.244-.3.396-.42.152-.128.324-.232.516-.312.2-.08.424-.12.672-.12h.348l-.252 1.236h-.42c-.552 0-.98.132-1.284.396s-.5.624-.588 1.08l-.708 3.528zm7.117.144c-.808 0-1.424-.228-1.848-.684-.416-.464-.624-1.116-.624-1.956 0-.512.076-1 .228-1.464.16-.472.384-.888.672-1.248s.636-.644 1.044-.852c.408-.216.864-.324 1.368-.324.248 0 .496.032.744.096.256.064.484.164.684.3s.36.312.48.528c.128.216.192.476.192.78 0 .664-.336 1.172-1.008 1.524-.664.352-1.708.544-3.132.576-.024.16-.036.292-.036.396 0 .384.104.692.312.924.216.232.552.348 1.008.348.344 0 .656-.076.936-.228s.548-.388.804-.708l.792.66c-.392.488-.804.832-1.236 1.032s-.892.3-1.38.3zm.744-5.532c-.432 0-.808.148-1.128.444-.312.288-.516.68-.612 1.176l-.06.312c.568-.024 1.032-.064 1.392-.12s.64-.132.84-.228c.208-.096.348-.212.42-.348s.108-.292.108-.468c0-.152-.028-.276-.084-.372-.056-.104-.132-.184-.228-.24-.088-.064-.188-.104-.3-.12-.112-.024-.228-.036-.348-.036zm7.628 5.388c-.28 0-.504-.072-.672-.216-.16-.144-.24-.344-.24-.6 0-.136.012-.252.036-.348l.048-.228h-.048c-.256.512-.54.896-.852 1.152-.304.256-.696.384-1.176.384-.576 0-1.02-.208-1.332-.624s-.468-.972-.468-1.668c0-.544.068-1.072.204-1.584s.332-.964.588-1.356c.264-.392.58-.704.948-.936.368-.24.784-.36 1.248-.36.408 0 .76.108 1.056.324.296.208.476.496.54.864h.06l.204-1.044h1.248l-1.044 5.196h.804l-.204 1.044zm-2.424-.924c.256 0 .48-.056.672-.168.2-.112.38-.256.54-.432.344-.368.572-.832.684-1.392l.252-1.26c.024-.136.016-.272-.024-.408s-.112-.256-.216-.36c-.104-.112-.24-.2-.408-.264-.16-.072-.344-.108-.552-.108-.464 0-.836.144-1.116.432-.28.28-.476.696-.588 1.248l-.18.876c-.016.096-.032.204-.048.324-.008.12-.012.228-.012.324 0 .352.08.64.24.864.168.216.42.324.756.324zm7.092 1.068c-.696 0-1.26-.22-1.692-.66-.432-.448-.648-1.1-.648-1.956 0-.544.076-1.052.228-1.524.152-.48.368-.896.648-1.248s.612-.628.996-.828c.392-.208.824-.312 1.296-.312.576 0 1.048.14 1.416.42.376.28.616.648.72 1.104l-1.044.42c-.088-.28-.22-.496-.396-.648-.168-.16-.42-.24-.756-.24-.432 0-.784.136-1.056.408s-.456.66-.552 1.164l-.204 1.032c-.04.2-.06.376-.06.528 0 .384.1.696.3.936.2.232.508.348.924.348.304 0 .564-.088.78-.264.224-.176.444-.46.66-.852l.96.456c-.264.56-.608.988-1.032 1.284-.424.288-.92.432-1.488.432zm4.946-.144c-.384 0-.668-.084-.852-.252-.176-.168-.264-.4-.264-.696 0-.064.004-.136.012-.216s.02-.16.036-.24l.756-3.792h-.912l.204-1.044h.468c.232 0 .388-.048.468-.144.088-.096.152-.252.192-.468l.216-1.092h1.164l-.336 1.704h1.248l-.204 1.044h-1.26l-.828 4.152h1.212l-.204 1.044zm4.548-7.356c-.232 0-.4-.048-.504-.144s-.156-.216-.156-.36c0-.08.02-.22.06-.42.04-.184.124-.336.252-.456.128-.128.332-.192.612-.192.232 0 .4.048.504.144s.156.216.156.36c0 .08-.02.22-.06.42-.04.184-.124.34-.252.468-.128.12-.332.18-.612.18zm-.996 7.356c-.304 0-.536-.076-.696-.228-.16-.16-.24-.364-.24-.612 0-.08.012-.18.036-.3l1.02-5.1h1.248l-1.044 5.196h.804l-.204 1.044zm4.662.144c-.704 0-1.272-.22-1.704-.66s-.648-1.08-.648-1.92c0-.536.08-1.044.24-1.524s.38-.9.66-1.26c.288-.36.628-.644 1.02-.852s.824-.312 1.296-.312c.704 0 1.272.22 1.704.66s.648 1.08.648 1.92c0 .544-.08 1.056-.24 1.536-.16.472-.384.888-.672 1.248-.28.36-.616.644-1.008.852s-.824.312-1.296.312zm.096-1.056c.392 0 .732-.144 1.02-.432.296-.288.5-.708.612-1.26l.204-.996c.016-.064.028-.136.036-.216s.012-.164.012-.252c0-.384-.104-.688-.312-.912-.2-.232-.5-.348-.9-.348-.392 0-.736.144-1.032.432-.288.288-.488.708-.6 1.26l-.204.996c-.016.072-.028.148-.036.228-.008.072-.012.152-.012.24 0 .384.1.692.3.924.208.224.512.336.912.336zm3.946.912 1.248-6.24h1.248l-.264 1.332h.06c.232-.48.504-.844.816-1.092.312-.256.7-.384 1.164-.384.52 0 .908.148 1.164.444.264.296.396.708.396 1.236 0 .136-.008.272-.024.408-.016.128-.04.272-.072.432l-.564 2.82h.756l-.204 1.044h-.948c-.264 0-.476-.068-.636-.204-.152-.136-.228-.332-.228-.588 0-.048 0-.088 0-.12 0-.04.008-.096.024-.168l.54-2.7c.048-.24.072-.46.072-.66 0-.28-.064-.492-.192-.636-.128-.152-.336-.228-.624-.228-.416 0-.78.176-1.092.528-.176.192-.328.416-.456.672-.128.248-.216.496-.264.744l-.672 3.36z"/><path d="m273.843 341.852c-.096.496-.288.876-.576 1.14-.288.272-.712.408-1.272.408h-.84l.204-1.044h1.128l1.32-6.552h-.936l.204-1.044h.948l.216-1.092c.096-.496.288-.876.576-1.14.288-.272.712-.408 1.272-.408h.924l-.204 1.044h-1.224l-.312 1.596h1.212l-.204 1.044h-1.224zm4.934-7.092-.756 3.792c-.024.112-.044.224-.06.336-.008.112-.012.212-.012.3 0 .28.06.496.18.648s.32.228.6.228c.4 0 .756-.176 1.068-.528.184-.208.336-.436.456-.684.128-.256.216-.508.264-.756l.672-3.336h1.248l-1.044 5.196h.804l-.204 1.044h-.96c-.28 0-.5-.072-.66-.216-.152-.152-.228-.356-.228-.612 0-.104.012-.224.036-.36l.024-.144h-.06c-.232.48-.5.848-.804 1.104-.304.248-.68.372-1.128.372-.512 0-.9-.148-1.164-.444-.256-.296-.384-.708-.384-1.236 0-.136.008-.272.024-.408s.04-.284.072-.444l.768-3.852zm4.42 6.24 1.248-6.24h1.248l-.264 1.332h.06c.232-.48.504-.844.816-1.092.312-.256.7-.384 1.164-.384.52 0 .908.148 1.164.444.264.296.396.708.396 1.236 0 .136-.008.272-.024.408-.016.128-.04.272-.072.432l-.564 2.82h.756l-.204 1.044h-.948c-.264 0-.476-.068-.636-.204-.152-.136-.228-.332-.228-.588 0-.048 0-.088 0-.12 0-.04.008-.096.024-.168l.54-2.7c.048-.24.072-.46.072-.66 0-.28-.064-.492-.192-.636-.128-.152-.336-.228-.624-.228-.416 0-.78.176-1.092.528-.176.192-.328.416-.456.672-.128.248-.216.496-.264.744l-.672 3.36zm9.399.144c-.696 0-1.26-.22-1.692-.66-.432-.448-.648-1.1-.648-1.956 0-.544.076-1.052.228-1.524.152-.48.368-.896.648-1.248s.612-.628.996-.828c.392-.208.824-.312 1.296-.312.576 0 1.048.14 1.416.42.376.28.616.648.72 1.104l-1.044.42c-.088-.28-.22-.496-.396-.648-.168-.16-.42-.24-.756-.24-.432 0-.784.136-1.056.408s-.456.66-.552 1.164l-.204 1.032c-.04.2-.06.376-.06.528 0 .384.1.696.3.936.2.232.508.348.924.348.304 0 .564-.088.78-.264.224-.176.444-.46.66-.852l.96.456c-.264.56-.608.988-1.032 1.284-.424.288-.92.432-1.488.432zm4.946-.144c-.384 0-.668-.084-.852-.252-.176-.168-.264-.4-.264-.696 0-.064.004-.136.012-.216s.02-.16.036-.24l.756-3.792h-.912l.204-1.044h.468c.232 0 .388-.048.468-.144.088-.096.152-.252.192-.468l.216-1.092h1.164l-.336 1.704h1.248l-.204 1.044h-1.26l-.828 4.152h1.212l-.204 1.044zm4.549-7.356c-.232 0-.4-.048-.504-.144s-.156-.216-.156-.36c0-.08.02-.22.06-.42.04-.184.124-.336.252-.456.128-.128.332-.192.612-.192.232 0 .4.048.504.144s.156.216.156.36c0 .08-.02.22-.06.42-.04.184-.124.34-.252.468-.128.12-.332.18-.612.18zm-.996 7.356c-.304 0-.536-.076-.696-.228-.16-.16-.24-.364-.24-.612 0-.08.012-.18.036-.3l1.02-5.1h1.248l-1.044 5.196h.804l-.204 1.044zm4.661.144c-.704 0-1.272-.22-1.704-.66s-.648-1.08-.648-1.92c0-.536.08-1.044.24-1.524s.38-.9.66-1.26c.288-.36.628-.644 1.02-.852s.824-.312 1.296-.312c.704 0 1.272.22 1.704.66s.648 1.08.648 1.92c0 .544-.08 1.056-.24 1.536-.16.472-.384.888-.672 1.248-.28.36-.616.644-1.008.852s-.824.312-1.296.312zm.096-1.056c.392 0 .732-.144 1.02-.432.296-.288.5-.708.612-1.26l.204-.996c.016-.064.028-.136.036-.216s.012-.164.012-.252c0-.384-.104-.688-.312-.912-.2-.232-.5-.348-.9-.348-.392 0-.736.144-1.032.432-.288.288-.488.708-.6 1.26l-.204.996c-.016.072-.028.148-.036.228-.008.072-.012.152-.012.24 0 .384.1.692.3.924.208.224.512.336.912.336zm3.947.912 1.248-6.24h1.248l-.264 1.332h.06c.232-.48.504-.844.816-1.092.312-.256.7-.384 1.164-.384.52 0 .908.148 1.164.444.264.296.396.708.396 1.236 0 .136-.008.272-.024.408-.016.128-.04.272-.072.432l-.564 2.82h.756l-.204 1.044h-.948c-.264 0-.476-.068-.636-.204-.152-.136-.228-.332-.228-.588 0-.048 0-.088 0-.12 0-.04.008-.096.024-.168l.54-2.7c.048-.24.072-.46.072-.66 0-.28-.064-.492-.192-.636-.128-.152-.336-.228-.624-.228-.416 0-.78.176-1.092.528-.176.192-.328.416-.456.672-.128.248-.216.496-.264.744l-.672 3.36zm11.763 0c-.28 0-.504-.072-.672-.216-.16-.144-.24-.344-.24-.6 0-.136.012-.252.036-.348l.048-.228h-.048c-.256.512-.54.896-.852 1.152-.304.256-.696.384-1.176.384-.576 0-1.02-.208-1.332-.624s-.468-.972-.468-1.668c0-.544.068-1.072.204-1.584s.332-.964.588-1.356c.264-.392.58-.704.948-.936.368-.24.784-.36 1.248-.36.408 0 .76.108 1.056.324.296.208.476.496.54.864h.06l.204-1.044h1.248l-1.044 5.196h.804l-.204 1.044zm-2.424-.924c.256 0 .48-.056.672-.168.2-.112.38-.256.54-.432.344-.368.572-.832.684-1.392l.252-1.26c.024-.136.016-.272-.024-.408s-.112-.256-.216-.36c-.104-.112-.24-.2-.408-.264-.16-.072-.344-.108-.552-.108-.464 0-.836.144-1.116.432-.28.28-.476.696-.588 1.248l-.18.876c-.016.096-.032.204-.048.324-.008.12-.012.228-.012.324 0 .352.08.64.24.864.168.216.42.324.756.324zm5.687.924c-.304 0-.536-.076-.696-.228-.16-.16-.24-.364-.24-.612 0-.08.012-.18.036-.3l1.548-7.74h1.248l-1.572 7.836h.864l-.204 1.044zm4.242-7.356c-.232 0-.4-.048-.504-.144s-.156-.216-.156-.36c0-.08.02-.22.06-.42.04-.184.124-.336.252-.456.128-.128.332-.192.612-.192.232 0 .4.048.504.144s.156.216.156.36c0 .08-.02.22-.06.42-.04.184-.124.34-.252.468-.128.12-.332.18-.612.18zm-.996 7.356c-.304 0-.536-.076-.696-.228-.16-.16-.24-.364-.24-.612 0-.08.012-.18.036-.3l1.02-5.1h1.248l-1.044 5.196h.804l-.204 1.044zm3.702 0c-.384 0-.668-.084-.852-.252-.176-.168-.264-.4-.264-.696 0-.064.004-.136.012-.216s.02-.16.036-.24l.756-3.792h-.912l.204-1.044h.468c.232 0 .388-.048.468-.144.088-.096.152-.252.192-.468l.216-1.092h1.164l-.336 1.704h1.248l-.204 1.044h-1.26l-.828 4.152h1.212l-.204 1.044zm7.27-6.24h1.332l-4.056 7.476c-.112.208-.224.384-.336.528-.104.144-.224.264-.36.36-.128.096-.276.164-.444.204-.168.048-.36.072-.576.072h-.948l.204-1.032h1.14l.588-1.104-.948-6.504h1.224l.372 2.772.228 2.292h.06l1.092-2.292zm-55.949 14.884c-.232 0-.4-.048-.504-.144s-.156-.216-.156-.36c0-.08.02-.22.06-.42.04-.184.124-.336.252-.456.128-.128.332-.192.612-.192.232 0 .4.048.504.144s.156.216.156.36c0 .08-.02.22-.06.42-.04.184-.124.34-.252.468-.128.12-.332.18-.612.18zm-.996 7.356c-.304 0-.536-.076-.696-.228-.16-.16-.24-.364-.24-.612 0-.08.012-.18.036-.3l1.02-5.1h1.248l-1.044 5.196h.804l-.204 1.044zm2.13 0 1.248-6.24h1.248l-.264 1.332h.06c.232-.48.504-.844.816-1.092.312-.256.7-.384 1.164-.384.52 0 .908.148 1.164.444.264.296.396.708.396 1.236 0 .136-.008.272-.024.408-.016.128-.04.272-.072.432l-.564 2.82h.756l-.204 1.044h-.948c-.264 0-.476-.068-.636-.204-.152-.136-.228-.332-.228-.588 0-.048 0-.088 0-.12 0-.04.008-.096.024-.168l.54-2.7c.048-.24.072-.46.072-.66 0-.28-.064-.492-.192-.636-.128-.152-.336-.228-.624-.228-.416 0-.78.176-1.092.528-.176.192-.328.416-.456.672-.128.248-.216.496-.264.744l-.672 3.36zm8.451 0c-.384 0-.668-.084-.852-.252-.176-.168-.264-.4-.264-.696 0-.064.004-.136.012-.216s.02-.16.036-.24l.756-3.792h-.912l.204-1.044h.468c.232 0 .388-.048.468-.144.088-.096.152-.252.192-.468l.216-1.092h1.164l-.336 1.704h1.248l-.204 1.044h-1.26l-.828 4.152h1.212l-.204 1.044zm4.848-6.24-.756 3.792c-.024.112-.044.224-.06.336-.008.112-.012.212-.012.3 0 .28.06.496.18.648s.32.228.6.228c.4 0 .756-.176 1.068-.528.184-.208.336-.436.456-.684.128-.256.216-.508.264-.756l.672-3.336h1.248l-1.044 5.196h.804l-.204 1.044h-.96c-.28 0-.5-.072-.66-.216-.152-.152-.228-.356-.228-.612 0-.104.012-.224.036-.36l.024-.144h-.06c-.232.48-.5.848-.804 1.104-.304.248-.68.372-1.128.372-.512 0-.9-.148-1.164-.444-.256-.296-.384-.708-.384-1.236 0-.136.008-.272.024-.408s.04-.284.072-.444l.768-3.852zm6.544-1.116c-.232 0-.4-.048-.504-.144s-.156-.216-.156-.36c0-.08.02-.22.06-.42.04-.184.124-.336.252-.456.128-.128.332-.192.612-.192.232 0 .4.048.504.144s.156.216.156.36c0 .08-.02.22-.06.42-.04.184-.124.34-.252.468-.128.12-.332.18-.612.18zm-.996 7.356c-.304 0-.536-.076-.696-.228-.16-.16-.24-.364-.24-.612 0-.08.012-.18.036-.3l1.02-5.1h1.248l-1.044 5.196h.804l-.204 1.044zm3.702 0c-.384 0-.668-.084-.852-.252-.176-.168-.264-.4-.264-.696 0-.064.004-.136.012-.216s.02-.16.036-.24l.756-3.792h-.912l.204-1.044h.468c.232 0 .388-.048.468-.144.088-.096.152-.252.192-.468l.216-1.092h1.164l-.336 1.704h1.248l-.204 1.044h-1.26l-.828 4.152h1.212l-.204 1.044zm4.548-7.356c-.232 0-.4-.048-.504-.144s-.156-.216-.156-.36c0-.08.02-.22.06-.42.04-.184.124-.336.252-.456.128-.128.332-.192.612-.192.232 0 .4.048.504.144s.156.216.156.36c0 .08-.02.22-.06.42-.04.184-.124.34-.252.468-.128.12-.332.18-.612.18zm-.996 7.356c-.304 0-.536-.076-.696-.228-.16-.16-.24-.364-.24-.612 0-.08.012-.18.036-.3l1.02-5.1h1.248l-1.044 5.196h.804l-.204 1.044zm3.378 0-.876-6.24h1.224l.348 2.772.228 2.328h.06l1.092-2.328 1.428-2.772h1.332l-3.348 6.24zm6.829-7.356c-.232 0-.4-.048-.504-.144s-.156-.216-.156-.36c0-.08.02-.22.06-.42.04-.184.124-.336.252-.456.128-.128.332-.192.612-.192.232 0 .4.048.504.144s.156.216.156.36c0 .08-.02.22-.06.42-.04.184-.124.34-.252.468-.128.12-.332.18-.612.18zm-.996 7.356c-.304 0-.536-.076-.696-.228-.16-.16-.24-.364-.24-.612 0-.08.012-.18.036-.3l1.02-5.1h1.248l-1.044 5.196h.804l-.204 1.044zm3.702 0c-.384 0-.668-.084-.852-.252-.176-.168-.264-.4-.264-.696 0-.064.004-.136.012-.216s.02-.16.036-.24l.756-3.792h-.912l.204-1.044h.468c.232 0 .388-.048.468-.144.088-.096.152-.252.192-.468l.216-1.092h1.164l-.336 1.704h1.248l-.204 1.044h-1.26l-.828 4.152h1.212l-.204 1.044zm7.27-6.24h1.332l-4.056 7.476c-.112.208-.224.384-.336.528-.104.144-.224.264-.36.36-.128.096-.276.164-.444.204-.168.048-.36.072-.576.072h-.948l.204-1.032h1.14l.588-1.104-.948-6.504h1.224l.372 2.772.228 2.292h.06l1.092-2.292zm-58.612 16h1.248l-.276 1.392h.048c.256-.512.536-.896.84-1.152.312-.256.708-.384 1.188-.384.576 0 1.02.208 1.332.624s.468.972.468 1.668c0 .544-.068 1.072-.204 1.584s-.336.964-.6 1.356c-.256.392-.568.708-.936.948-.368.232-.784.348-1.248.348-.408 0-.76-.104-1.056-.312s-.476-.5-.54-.876h-.06l-.684 3.444h-1.248zm1.632 5.316c.456 0 .824-.14 1.104-.42.28-.288.476-.708.588-1.26l.18-.876c.016-.096.028-.2.036-.312.016-.12.024-.232.024-.336 0-.352-.084-.636-.252-.852-.168-.224-.424-.336-.768-.336-.248 0-.472.056-.672.168-.192.112-.364.256-.516.432-.168.192-.312.4-.432.624-.112.224-.196.476-.252.756l-.228 1.14c-.072.36-.008.664.192.912.2.24.532.36.996.36zm4.046.924 1.248-6.24h1.248l-.264 1.332h.072c.072-.16.16-.32.264-.48.112-.16.244-.3.396-.42.152-.128.324-.232.516-.312.2-.08.424-.12.672-.12h.348l-.252 1.236h-.42c-.552 0-.98.132-1.284.396s-.5.624-.588 1.08l-.708 3.528zm7.117.144c-.808 0-1.424-.228-1.848-.684-.416-.464-.624-1.116-.624-1.956 0-.512.076-1 .228-1.464.16-.472.384-.888.672-1.248s.636-.644 1.044-.852c.408-.216.864-.324 1.368-.324.248 0 .496.032.744.096.256.064.484.164.684.3s.36.312.48.528c.128.216.192.476.192.78 0 .664-.336 1.172-1.008 1.524-.664.352-1.708.544-3.132.576-.024.16-.036.292-.036.396 0 .384.104.692.312.924.216.232.552.348 1.008.348.344 0 .656-.076.936-.228s.548-.388.804-.708l.792.66c-.392.488-.804.832-1.236 1.032s-.892.3-1.38.3zm.744-5.532c-.432 0-.808.148-1.128.444-.312.288-.516.68-.612 1.176l-.06.312c.568-.024 1.032-.064 1.392-.12s.64-.132.84-.228c.208-.096.348-.212.42-.348s.108-.292.108-.468c0-.152-.028-.276-.084-.372-.056-.104-.132-.184-.228-.24-.088-.064-.188-.104-.3-.12-.112-.024-.228-.036-.348-.036zm7.628 5.388c-.28 0-.504-.072-.672-.216-.16-.144-.24-.344-.24-.6 0-.136.012-.252.036-.348l.048-.228h-.048c-.256.512-.54.896-.852 1.152-.304.256-.696.384-1.176.384-.576 0-1.02-.208-1.332-.624s-.468-.972-.468-1.668c0-.544.068-1.072.204-1.584s.332-.964.588-1.356c.264-.392.58-.704.948-.936.368-.24.784-.36 1.248-.36.408 0 .76.108 1.056.324.296.208.476.496.54.864h.06l.732-3.684h1.248l-1.572 7.836h.804l-.204 1.044zm-2.4-.924c.248 0 .468-.056.66-.168.192-.12.368-.264.528-.432.352-.376.58-.836.684-1.38l.228-1.14c.072-.36.008-.66-.192-.9-.2-.248-.536-.372-1.008-.372-.448 0-.812.144-1.092.432-.28.28-.476.696-.588 1.248l-.18.876c-.016.096-.032.204-.048.324-.008.112-.012.22-.012.324 0 .352.084.64.252.864.168.216.424.324.768.324zm6.672-6.432c-.232 0-.4-.048-.504-.144s-.156-.216-.156-.36c0-.08.02-.22.06-.42.04-.184.124-.336.252-.456.128-.128.332-.192.612-.192.232 0 .4.048.504.144s.156.216.156.36c0 .08-.02.22-.06.42-.04.184-.124.34-.252.468-.128.12-.332.18-.612.18zm-.996 7.356c-.304 0-.536-.076-.696-.228-.16-.16-.24-.364-.24-.612 0-.08.012-.18.036-.3l1.02-5.1h1.248l-1.044 5.196h.804l-.204 1.044zm4.649.144c-.696 0-1.26-.22-1.692-.66-.432-.448-.648-1.1-.648-1.956 0-.544.076-1.052.228-1.524.152-.48.368-.896.648-1.248s.612-.628.996-.828c.392-.208.824-.312 1.296-.312.576 0 1.048.14 1.416.42.376.28.616.648.72 1.104l-1.044.42c-.088-.28-.22-.496-.396-.648-.168-.16-.42-.24-.756-.24-.432 0-.784.136-1.056.408s-.456.66-.552 1.164l-.204 1.032c-.04.2-.06.376-.06.528 0 .384.1.696.3.936.2.232.508.348.924.348.304 0 .564-.088.78-.264.224-.176.444-.46.66-.852l.96.456c-.264.56-.608.988-1.032 1.284-.424.288-.92.432-1.488.432zm4.947-.144c-.384 0-.668-.084-.852-.252-.176-.168-.264-.4-.264-.696 0-.064.004-.136.012-.216s.02-.16.036-.24l.756-3.792h-.912l.204-1.044h.468c.232 0 .388-.048.468-.144.088-.096.152-.252.192-.468l.216-1.092h1.164l-.336 1.704h1.248l-.204 1.044h-1.26l-.828 4.152h1.212l-.204 1.044zm7.249 0c-.28 0-.504-.072-.672-.216-.16-.144-.24-.344-.24-.6 0-.136.012-.252.036-.348l.048-.228h-.048c-.256.512-.54.896-.852 1.152-.304.256-.696.384-1.176.384-.576 0-1.02-.208-1.332-.624s-.468-.972-.468-1.668c0-.544.068-1.072.204-1.584s.332-.964.588-1.356c.264-.392.58-.704.948-.936.368-.24.784-.36 1.248-.36.408 0 .76.108 1.056.324.296.208.476.496.54.864h.06l.204-1.044h1.248l-1.044 5.196h.804l-.204 1.044zm-2.424-.924c.256 0 .48-.056.672-.168.2-.112.38-.256.54-.432.344-.368.572-.832.684-1.392l.252-1.26c.024-.136.016-.272-.024-.408s-.112-.256-.216-.36c-.104-.112-.24-.2-.408-.264-.16-.072-.344-.108-.552-.108-.464 0-.836.144-1.116.432-.28.28-.476.696-.588 1.248l-.18.876c-.016.096-.032.204-.048.324-.008.12-.012.228-.012.324 0 .352.08.64.24.864.168.216.42.324.756.324zm6.324-7.956h1.248l-.804 4.032h.048c.256-.512.536-.896.84-1.152.312-.256.708-.384 1.188-.384.576 0 1.02.208 1.332.624s.468.972.468 1.668c0 .544-.068 1.072-.204 1.584s-.336.964-.6 1.356c-.256.392-.568.708-.936.948-.368.232-.784.348-1.248.348-.408 0-.76-.104-1.056-.312s-.476-.5-.54-.876h-.06l-.204 1.044h-1.248zm1.104 7.956c.456 0 .824-.14 1.104-.42.28-.288.476-.708.588-1.26l.18-.876c.016-.096.028-.2.036-.312.016-.12.024-.232.024-.336 0-.352-.084-.636-.252-.852-.168-.224-.424-.336-.768-.336-.248 0-.468.06-.66.18-.192.112-.368.252-.528.42-.168.184-.312.392-.432.624-.112.224-.196.476-.252.756l-.228 1.14c-.072.36-.008.664.192.912.2.24.532.36.996.36zm6.17-6.432c-.232 0-.4-.048-.504-.144s-.156-.216-.156-.36c0-.08.02-.22.06-.42.04-.184.124-.336.252-.456.128-.128.332-.192.612-.192.232 0 .4.048.504.144s.156.216.156.36c0 .08-.02.22-.06.42-.04.184-.124.34-.252.468-.128.12-.332.18-.612.18zm-.996 7.356c-.304 0-.536-.076-.696-.228-.16-.16-.24-.364-.24-.612 0-.08.012-.18.036-.3l1.02-5.1h1.248l-1.044 5.196h.804l-.204 1.044zm3.246 0c-.304 0-.536-.076-.696-.228-.16-.16-.24-.364-.24-.612 0-.08.012-.18.036-.3l1.548-7.74h1.248l-1.572 7.836h.864l-.204 1.044zm4.242-7.356c-.232 0-.4-.048-.504-.144s-.156-.216-.156-.36c0-.08.02-.22.06-.42.04-.184.124-.336.252-.456.128-.128.332-.192.612-.192.232 0 .4.048.504.144s.156.216.156.36c0 .08-.02.22-.06.42-.04.184-.124.34-.252.468-.128.12-.332.18-.612.18zm-.996 7.356c-.304 0-.536-.076-.696-.228-.16-.16-.24-.364-.24-.612 0-.08.012-.18.036-.3l1.02-5.1h1.248l-1.044 5.196h.804l-.204 1.044zm3.702 0c-.384 0-.668-.084-.852-.252-.176-.168-.264-.4-.264-.696 0-.064.004-.136.012-.216s.02-.16.036-.24l.756-3.792h-.912l.204-1.044h.468c.232 0 .388-.048.468-.144.088-.096.152-.252.192-.468l.216-1.092h1.164l-.336 1.704h1.248l-.204 1.044h-1.26l-.828 4.152h1.212l-.204 1.044zm7.27-6.24h1.332l-4.056 7.476c-.112.208-.224.384-.336.528-.104.144-.224.264-.36.36-.128.096-.276.164-.444.204-.168.048-.36.072-.576.072h-.948l.204-1.032h1.14l.588-1.104-.948-6.504h1.224l.372 2.772.228 2.292h.06l1.092-2.292z"/></g><path d="m230.641 37.342v8.988c0 1.036.203 1.813.609 2.331.406.504 1.085.756 2.037.756s1.631-.252 2.037-.756c.406-.518.609-1.295.609-2.331v-8.988h3.108v8.652c0 1.078-.105 2.016-.315 2.814-.196.784-.525 1.435-.987 1.953-.462.504-1.057.882-1.785 1.134-.728.238-1.617.357-2.667.357s-1.939-.119-2.667-.357c-.728-.252-1.323-.63-1.785-1.134-.462-.518-.798-1.169-1.008-1.953-.196-.798-.294-1.736-.294-2.814v-8.652zm15.127 14.91c-1.064 0-1.96-.168-2.688-.504-.728-.35-1.379-.84-1.953-1.47l1.827-1.848c.392.434.826.777 1.302 1.029s1.015.378 1.617.378c.616 0 1.043-.091 1.281-.273.238-.196.357-.455.357-.777 0-.518-.371-.826-1.113-.924l-1.197-.147c-2.478-.308-3.717-1.442-3.717-3.402 0-.532.098-1.015.294-1.449.21-.448.497-.826.861-1.134.378-.322.826-.567 1.344-.735.532-.182 1.127-.273 1.785-.273.574 0 1.078.042 1.512.126.448.07.84.182 1.176.336.35.14.665.322.945.546.294.21.581.448.861.714l-1.785 1.827c-.35-.35-.749-.623-1.197-.819-.434-.21-.882-.315-1.344-.315-.532 0-.91.084-1.134.252s-.336.392-.336.672c0 .294.077.525.231.693.168.154.476.266.924.336l1.239.168c2.422.322 3.633 1.428 3.633 3.318 0 .532-.112 1.022-.336 1.47s-.546.84-.966 1.176c-.406.322-.903.574-1.491.756-.574.182-1.218.273-1.932.273zm11.443 0c-.84 0-1.589-.133-2.247-.399-.658-.28-1.218-.665-1.68-1.155-.448-.504-.791-1.113-1.029-1.827-.224-.714-.336-1.512-.336-2.394 0-.868.112-1.652.336-2.352.224-.714.553-1.323.987-1.827.448-.504.994-.889 1.638-1.155.644-.28 1.379-.42 2.205-.42.91 0 1.687.154 2.331.462.658.308 1.19.721 1.596 1.239.42.518.721 1.12.903 1.806.196.672.294 1.379.294 2.121v.924h-7.077v.168c0 .728.196 1.309.588 1.743.392.42 1.008.63 1.848.63.644 0 1.169-.126 1.575-.378.406-.266.784-.581 1.134-.945l1.554 1.932c-.49.574-1.134 1.022-1.932 1.344-.784.322-1.68.483-2.688.483zm-.063-9.24c-.63 0-1.127.21-1.491.63-.35.406-.525.952-.525 1.638v.168h3.864v-.189c0-.672-.154-1.211-.462-1.617-.294-.42-.756-.63-1.386-.63zm7.256 8.988v-11.025h3.108v2.394h.105c.056-.308.154-.602.294-.882.14-.294.322-.553.546-.777.238-.224.518-.399.84-.525.322-.14.7-.21 1.134-.21h.546v2.898h-.777c-.91 0-1.589.119-2.037.357-.434.238-.651.679-.651 1.323v6.447zm13.621 0v-14.658h9.975v2.835h-6.783v3.003h5.817v2.814h-5.817v3.171h6.783v2.835zm11.517 0 3.633-5.607-3.591-5.418h3.528l2.058 3.465h.084l1.995-3.465h3.276l-3.654 5.523 3.675 5.502h-3.528l-2.121-3.591h-.084l-2.037 3.591zm12.822-11.025h3.108v1.848h.105c.154-.616.504-1.12 1.05-1.512.56-.392 1.197-.588 1.911-.588 1.4 0 2.457.49 3.171 1.47s1.071 2.408 1.071 4.284-.357 3.311-1.071 4.305c-.714.98-1.771 1.47-3.171 1.47-.364 0-.707-.056-1.029-.168-.322-.098-.616-.238-.882-.42-.252-.196-.469-.42-.651-.672-.182-.266-.315-.546-.399-.84h-.105v6.048h-3.108zm5.145 8.757c.588 0 1.071-.203 1.449-.609.392-.42.588-.98.588-1.68v-1.911c0-.7-.196-1.253-.588-1.659-.378-.42-.861-.63-1.449-.63s-1.078.147-1.47.441c-.378.28-.567.672-.567 1.176v3.255c0 .504.189.903.567 1.197.392.28.882.42 1.47.42zm12.23 2.52c-.84 0-1.589-.133-2.247-.399-.658-.28-1.218-.665-1.68-1.155-.448-.504-.791-1.113-1.029-1.827-.224-.714-.336-1.512-.336-2.394 0-.868.112-1.652.336-2.352.224-.714.553-1.323.987-1.827.448-.504.994-.889 1.638-1.155.644-.28 1.379-.42 2.205-.42.91 0 1.687.154 2.331.462.658.308 1.19.721 1.596 1.239.42.518.721 1.12.903 1.806.196.672.294 1.379.294 2.121v.924h-7.077v.168c0 .728.196 1.309.588 1.743.392.42 1.008.63 1.848.63.644 0 1.169-.126 1.575-.378.406-.266.784-.581 1.134-.945l1.554 1.932c-.49.574-1.134 1.022-1.932 1.344-.784.322-1.68.483-2.688.483zm-.063-9.24c-.63 0-1.127.21-1.491.63-.35.406-.525.952-.525 1.638v.168h3.864v-.189c0-.672-.154-1.211-.462-1.617-.294-.42-.756-.63-1.386-.63zm7.256 8.988v-11.025h3.108v2.394h.105c.056-.308.154-.602.294-.882.14-.294.322-.553.546-.777.238-.224.518-.399.84-.525.322-.14.7-.21 1.134-.21h.546v2.898h-.777c-.91 0-1.589.119-2.037.357-.434.238-.651.679-.651 1.323v6.447zm10.045-12.201c-.63 0-1.092-.14-1.386-.42-.28-.294-.42-.665-.42-1.113v-.462c0-.448.14-.812.42-1.092.294-.294.756-.441 1.386-.441s1.085.147 1.365.441c.294.28.441.644.441 1.092v.462c0 .448-.147.819-.441 1.113-.28.28-.735.42-1.365.42zm-1.554 1.176h3.108v11.025h-3.108zm10.607 11.277c-.84 0-1.589-.133-2.247-.399-.658-.28-1.218-.665-1.68-1.155-.448-.504-.791-1.113-1.029-1.827-.224-.714-.336-1.512-.336-2.394 0-.868.112-1.652.336-2.352.224-.714.553-1.323.987-1.827.448-.504.994-.889 1.638-1.155.644-.28 1.379-.42 2.205-.42.91 0 1.687.154 2.331.462.658.308 1.19.721 1.596 1.239.42.518.721 1.12.903 1.806.196.672.294 1.379.294 2.121v.924h-7.077v.168c0 .728.196 1.309.588 1.743.392.42 1.008.63 1.848.63.644 0 1.169-.126 1.575-.378.406-.266.784-.581 1.134-.945l1.554 1.932c-.49.574-1.134 1.022-1.932 1.344-.784.322-1.68.483-2.688.483zm-.063-9.24c-.63 0-1.127.21-1.491.63-.35.406-.525.952-.525 1.638v.168h3.864v-.189c0-.672-.154-1.211-.462-1.617-.294-.42-.756-.63-1.386-.63zm7.256 8.988v-11.025h3.108v1.869h.126c.196-.574.539-1.071 1.029-1.491s1.169-.63 2.037-.63c1.134 0 1.988.378 2.562 1.134.588.756.882 1.834.882 3.234v6.909h-3.108v-6.657c0-.714-.112-1.239-.336-1.575-.224-.35-.623-.525-1.197-.525-.252 0-.497.035-.735.105-.238.056-.455.154-.651.294-.182.14-.329.315-.441.525-.112.196-.168.427-.168.693v7.14zm16.962.252c-.826 0-1.561-.133-2.205-.399-.644-.28-1.183-.665-1.617-1.155-.434-.504-.763-1.113-.987-1.827s-.336-1.512-.336-2.394.112-1.673.336-2.373c.224-.714.553-1.323.987-1.827s.973-.889 1.617-1.155 1.379-.399 2.205-.399c1.12 0 2.051.252 2.793.756.756.504 1.295 1.211 1.617 2.121l-2.52 1.092c-.098-.42-.301-.777-.609-1.071s-.735-.441-1.281-.441c-.63 0-1.106.21-1.428.63-.322.406-.483.959-.483 1.659v2.058c0 .7.161 1.253.483 1.659s.798.609 1.428.609c.56 0 1.001-.147 1.323-.441.336-.308.581-.707.735-1.197l2.415 1.05c-.364 1.05-.931 1.82-1.701 2.31-.756.49-1.68.735-2.772.735zm10.893 0c-.84 0-1.589-.133-2.247-.399-.658-.28-1.218-.665-1.68-1.155-.448-.504-.791-1.113-1.029-1.827-.224-.714-.336-1.512-.336-2.394 0-.868.112-1.652.336-2.352.224-.714.553-1.323.987-1.827.448-.504.994-.889 1.638-1.155.644-.28 1.379-.42 2.205-.42.91 0 1.687.154 2.331.462.658.308 1.19.721 1.596 1.239.42.518.721 1.12.903 1.806.196.672.294 1.379.294 2.121v.924h-7.077v.168c0 .728.196 1.309.588 1.743.392.42 1.008.63 1.848.63.644 0 1.169-.126 1.575-.378.406-.266.784-.581 1.134-.945l1.554 1.932c-.49.574-1.134 1.022-1.932 1.344-.784.322-1.68.483-2.688.483zm-.063-9.24c-.63 0-1.127.21-1.491.63-.35.406-.525.952-.525 1.638v.168h3.864v-.189c0-.672-.154-1.211-.462-1.617-.294-.42-.756-.63-1.386-.63z" fill="#333"/></svg>