<svg width="1440" height="1024" viewBox="0 0 1440 1024" fill="none" xmlns="http://www.w3.org/2000/svg">
<rect width="1440" height="1024" fill="white"/>
<path d="M1380.27 973.476C1381.08 973.327 1381.62 972.546 1381.48 971.731L1379.06 958.45C1378.91 957.635 1378.13 957.094 1377.31 957.243C1376.5 957.391 1375.96 958.173 1376.1 958.988L1378.26 970.793L1366.45 972.944C1365.63 973.093 1365.09 973.874 1365.24 974.689C1365.39 975.504 1366.17 976.044 1366.99 975.896L1380.27 973.476ZM49.1467 53.2336L1379.15 973.234L1380.85 970.766L50.8533 50.7664L49.1467 53.2336Z" fill="black"/>
<rect x="550" y="494" width="342" height="47" fill="white"/>
<path d="M584.119 531C583.959 531 583.815 530.952 583.687 530.856C583.591 530.728 583.543 530.584 583.543 530.424V497.976C583.543 497.816 583.591 497.688 583.687 497.592C583.815 497.464 583.959 497.4 584.119 497.4H588.535C588.695 497.4 588.823 497.464 588.919 497.592C589.047 497.688 589.111 497.816 589.111 497.976V525.96C589.111 526.12 589.191 526.2 589.351 526.2H605.431C605.591 526.2 605.719 526.264 605.815 526.392C605.943 526.488 606.007 526.616 606.007 526.776V530.424C606.007 530.584 605.943 530.728 605.815 530.856C605.719 530.952 605.591 531 605.431 531H584.119ZM631.125 515.976C631.253 516.776 631.317 517.672 631.317 518.664L631.269 520.152C631.269 520.536 631.077 520.728 630.693 520.728H615.669C615.509 520.728 615.429 520.808 615.429 520.968C615.525 522.024 615.669 522.744 615.861 523.128C616.629 525.432 618.501 526.6 621.477 526.632C623.653 526.632 625.381 525.736 626.661 523.944C626.789 523.752 626.949 523.656 627.141 523.656C627.269 523.656 627.381 523.704 627.477 523.8L630.453 526.248C630.741 526.472 630.789 526.728 630.597 527.016C629.605 528.424 628.277 529.512 626.613 530.28C624.981 531.048 623.157 531.432 621.141 531.432C618.645 531.432 616.517 530.872 614.757 529.752C613.029 528.632 611.765 527.064 610.965 525.048C610.229 523.32 609.861 520.92 609.861 517.848C609.861 515.992 610.053 514.488 610.437 513.336C611.077 511.096 612.277 509.336 614.037 508.056C615.829 506.744 617.973 506.088 620.469 506.088C626.773 506.088 630.325 509.384 631.125 515.976ZM620.469 510.888C619.285 510.888 618.293 511.192 617.493 511.8C616.725 512.376 616.181 513.192 615.861 514.248C615.669 514.792 615.541 515.496 615.477 516.36C615.413 516.52 615.477 516.6 615.669 516.6H625.413C625.573 516.6 625.653 516.52 625.653 516.36C625.589 515.56 625.493 514.952 625.365 514.536C625.077 513.384 624.501 512.488 623.637 511.848C622.805 511.208 621.749 510.888 620.469 510.888ZM645.151 531.288C643.135 531.288 641.359 531 639.823 530.424C638.319 529.816 637.151 529 636.319 527.976C635.487 526.92 635.071 525.752 635.071 524.472V524.04C635.071 523.88 635.119 523.752 635.215 523.656C635.343 523.528 635.487 523.464 635.647 523.464H639.871C640.031 523.464 640.159 523.528 640.255 523.656C640.383 523.752 640.447 523.88 640.447 524.04V524.136C640.447 524.936 640.879 525.64 641.743 526.248C642.639 526.824 643.759 527.112 645.103 527.112C646.383 527.112 647.423 526.856 648.223 526.344C649.023 525.8 649.423 525.128 649.423 524.328C649.423 523.592 649.087 523.048 648.415 522.696C647.775 522.312 646.719 521.912 645.247 521.496L643.423 520.92C641.791 520.44 640.415 519.928 639.295 519.384C638.175 518.84 637.231 518.104 636.463 517.176C635.695 516.216 635.311 515 635.311 513.528C635.311 511.288 636.191 509.512 637.951 508.2C639.711 506.856 642.031 506.184 644.911 506.184C646.863 506.184 648.575 506.504 650.047 507.144C651.519 507.752 652.655 508.616 653.455 509.736C654.255 510.824 654.655 512.072 654.655 513.48C654.655 513.64 654.591 513.784 654.463 513.912C654.367 514.008 654.239 514.056 654.079 514.056H649.999C649.839 514.056 649.695 514.008 649.567 513.912C649.471 513.784 649.423 513.64 649.423 513.48C649.423 512.648 649.007 511.96 648.175 511.416C647.375 510.84 646.271 510.552 644.863 510.552C643.615 510.552 642.591 510.792 641.791 511.272C641.023 511.72 640.639 512.36 640.639 513.192C640.639 513.96 641.007 514.552 641.743 514.968C642.511 515.352 643.775 515.784 645.535 516.264L646.591 516.552C648.287 517.064 649.711 517.592 650.863 518.136C652.015 518.648 652.991 519.384 653.791 520.344C654.591 521.272 654.991 522.488 654.991 523.992C654.991 526.264 654.095 528.056 652.303 529.368C650.511 530.648 648.127 531.288 645.151 531.288ZM680.391 515.976C680.519 516.776 680.583 517.672 680.583 518.664L680.535 520.152C680.535 520.536 680.343 520.728 679.959 520.728H664.935C664.775 520.728 664.695 520.808 664.695 520.968C664.791 522.024 664.935 522.744 665.127 523.128C665.895 525.432 667.767 526.6 670.743 526.632C672.919 526.632 674.647 525.736 675.927 523.944C676.055 523.752 676.215 523.656 676.407 523.656C676.535 523.656 676.647 523.704 676.743 523.8L679.719 526.248C680.007 526.472 680.055 526.728 679.863 527.016C678.871 528.424 677.543 529.512 675.879 530.28C674.247 531.048 672.423 531.432 670.407 531.432C667.911 531.432 665.783 530.872 664.023 529.752C662.295 528.632 661.031 527.064 660.231 525.048C659.495 523.32 659.127 520.92 659.127 517.848C659.127 515.992 659.319 514.488 659.703 513.336C660.343 511.096 661.543 509.336 663.303 508.056C665.095 506.744 667.239 506.088 669.735 506.088C676.039 506.088 679.591 509.384 680.391 515.976ZM669.735 510.888C668.551 510.888 667.559 511.192 666.759 511.8C665.991 512.376 665.447 513.192 665.127 514.248C664.935 514.792 664.807 515.496 664.743 516.36C664.679 516.52 664.743 516.6 664.935 516.6H674.679C674.839 516.6 674.919 516.52 674.919 516.36C674.855 515.56 674.759 514.952 674.631 514.536C674.343 513.384 673.767 512.488 672.903 511.848C672.071 511.208 671.015 510.888 669.735 510.888ZM697.095 506.184C698.119 506.184 699.015 506.392 699.783 506.808C700.039 506.936 700.135 507.176 700.071 507.528L699.255 511.848C699.223 512.232 698.999 512.344 698.583 512.184C698.103 512.024 697.543 511.944 696.903 511.944C696.487 511.944 696.167 511.96 695.943 511.992C694.599 512.056 693.479 512.536 692.583 513.432C691.687 514.296 691.239 515.432 691.239 516.84V530.424C691.239 530.584 691.175 530.728 691.047 530.856C690.951 530.952 690.823 531 690.663 531H686.247C686.087 531 685.943 530.952 685.815 530.856C685.719 530.728 685.671 530.584 685.671 530.424V507.048C685.671 506.888 685.719 506.76 685.815 506.664C685.943 506.536 686.087 506.472 686.247 506.472H690.663C690.823 506.472 690.951 506.536 691.047 506.664C691.175 506.76 691.239 506.888 691.239 507.048V509.208C691.239 509.336 691.255 509.416 691.287 509.448C691.351 509.448 691.415 509.4 691.479 509.304C692.823 507.224 694.695 506.184 697.095 506.184ZM706.886 503.112C705.894 503.112 705.078 502.792 704.438 502.152C703.798 501.512 703.478 500.696 703.478 499.704C703.478 498.712 703.798 497.896 704.438 497.256C705.078 496.616 705.894 496.296 706.886 496.296C707.878 496.296 708.694 496.616 709.334 497.256C709.974 497.896 710.294 498.712 710.294 499.704C710.294 500.696 709.974 501.512 709.334 502.152C708.694 502.792 707.878 503.112 706.886 503.112ZM704.582 531C704.422 531 704.278 530.952 704.15 530.856C704.054 530.728 704.006 530.584 704.006 530.424V507C704.006 506.84 704.054 506.712 704.15 506.616C704.278 506.488 704.422 506.424 704.582 506.424H708.998C709.158 506.424 709.286 506.488 709.382 506.616C709.51 506.712 709.574 506.84 709.574 507V530.424C709.574 530.584 709.51 530.728 709.382 530.856C709.286 530.952 709.158 531 708.998 531H704.582ZM726.177 531.384C723.713 531.384 721.585 530.76 719.793 529.512C718.001 528.232 716.753 526.52 716.049 524.376C715.537 522.936 715.281 521.016 715.281 518.616C715.281 516.312 715.537 514.424 716.049 512.952C716.721 510.84 717.953 509.176 719.745 507.96C721.569 506.712 723.713 506.088 726.177 506.088C728.673 506.088 730.849 506.712 732.705 507.96C734.561 509.208 735.793 510.776 736.401 512.664C736.561 513.176 736.673 513.688 736.737 514.2V514.296C736.737 514.616 736.561 514.808 736.209 514.872L731.889 515.496H731.793C731.505 515.496 731.313 515.336 731.217 515.016C731.217 514.856 731.201 514.728 731.169 514.632C731.105 514.376 731.041 514.152 730.977 513.96C730.689 513.064 730.113 512.328 729.249 511.752C728.385 511.176 727.361 510.888 726.177 510.888C724.961 510.888 723.921 511.208 723.057 511.848C722.225 512.456 721.665 513.304 721.377 514.392C721.057 515.416 720.897 516.84 720.897 518.664C720.897 520.424 721.041 521.848 721.329 522.936C721.649 524.056 722.225 524.952 723.057 525.624C723.889 526.264 724.929 526.584 726.177 526.584C727.393 526.584 728.433 526.28 729.297 525.672C730.193 525.032 730.769 524.184 731.025 523.128C731.057 523.064 731.073 522.984 731.073 522.888C731.105 522.856 731.121 522.808 731.121 522.744C731.217 522.36 731.441 522.2 731.793 522.264L736.113 522.936C736.273 522.968 736.401 523.048 736.497 523.176C736.625 523.272 736.673 523.416 736.641 523.608C736.545 524.12 736.465 524.488 736.401 524.712C735.793 526.76 734.561 528.392 732.705 529.608C730.849 530.792 728.673 531.384 726.177 531.384ZM753.213 506.088C755.805 506.088 757.869 506.856 759.405 508.392C760.973 509.928 761.757 512.024 761.757 514.68V530.424C761.757 530.584 761.693 530.728 761.565 530.856C761.469 530.952 761.341 531 761.181 531H756.765C756.605 531 756.461 530.952 756.333 530.856C756.237 530.728 756.189 530.584 756.189 530.424V515.832C756.189 514.36 755.773 513.176 754.941 512.28C754.109 511.352 753.005 510.888 751.629 510.888C750.253 510.888 749.133 511.336 748.269 512.232C747.437 513.128 747.021 514.312 747.021 515.784V530.424C747.021 530.584 746.957 530.728 746.829 530.856C746.733 530.952 746.605 531 746.445 531H742.029C741.869 531 741.725 530.952 741.597 530.856C741.501 530.728 741.453 530.584 741.453 530.424V497.976C741.453 497.816 741.501 497.688 741.597 497.592C741.725 497.464 741.869 497.4 742.029 497.4H746.445C746.605 497.4 746.733 497.464 746.829 497.592C746.957 497.688 747.021 497.816 747.021 497.976V508.584C747.021 508.68 747.053 508.744 747.117 508.776C747.181 508.808 747.229 508.776 747.261 508.68C748.573 506.952 750.557 506.088 753.213 506.088ZM780.57 510.408C780.57 510.568 780.506 510.712 780.378 510.84C780.282 510.936 780.154 510.984 779.994 510.984H775.098C774.938 510.984 774.858 511.064 774.858 511.224V522.792C774.858 524.008 775.114 524.888 775.626 525.432C776.17 525.976 777.018 526.248 778.17 526.248H779.61C779.77 526.248 779.898 526.312 779.994 526.44C780.122 526.536 780.186 526.664 780.186 526.824V530.424C780.186 530.776 779.994 530.984 779.61 531.048L777.114 531.096C774.586 531.096 772.698 530.664 771.45 529.8C770.202 528.936 769.562 527.304 769.53 524.904V511.224C769.53 511.064 769.45 510.984 769.29 510.984H766.554C766.394 510.984 766.25 510.936 766.122 510.84C766.026 510.712 765.978 510.568 765.978 510.408V507.048C765.978 506.888 766.026 506.76 766.122 506.664C766.25 506.536 766.394 506.472 766.554 506.472H769.29C769.45 506.472 769.53 506.392 769.53 506.232V500.616C769.53 500.456 769.578 500.328 769.674 500.232C769.802 500.104 769.946 500.04 770.106 500.04H774.282C774.442 500.04 774.57 500.104 774.666 500.232C774.794 500.328 774.858 500.456 774.858 500.616V506.232C774.858 506.392 774.938 506.472 775.098 506.472H779.994C780.154 506.472 780.282 506.536 780.378 506.664C780.506 506.76 780.57 506.888 780.57 507.048V510.408ZM800.011 507.048C800.011 506.888 800.059 506.76 800.155 506.664C800.283 506.536 800.427 506.472 800.587 506.472H804.955C805.115 506.472 805.243 506.536 805.339 506.664C805.467 506.76 805.531 506.888 805.531 507.048V530.424C805.531 530.584 805.467 530.728 805.339 530.856C805.243 530.952 805.115 531 804.955 531H800.587C800.427 531 800.283 530.952 800.155 530.856C800.059 530.728 800.011 530.584 800.011 530.424V528.888C800.011 528.792 799.979 528.728 799.915 528.696C799.851 528.664 799.787 528.696 799.723 528.792C798.411 530.488 796.443 531.336 793.819 531.336C791.387 531.336 789.339 530.632 787.675 529.224C786.043 527.816 785.227 525.816 785.227 523.224V507.048C785.227 506.888 785.275 506.76 785.371 506.664C785.499 506.536 785.643 506.472 785.803 506.472H790.219C790.379 506.472 790.507 506.536 790.603 506.664C790.731 506.76 790.795 506.888 790.795 507.048V521.64C790.795 523.144 791.179 524.344 791.947 525.24C792.747 526.136 793.851 526.584 795.259 526.584C796.699 526.584 797.851 526.136 798.715 525.24C799.579 524.344 800.011 523.144 800.011 521.64V507.048ZM823.244 506.088C825.836 506.088 827.9 506.856 829.436 508.392C831.004 509.928 831.788 512.024 831.788 514.68V530.424C831.788 530.584 831.724 530.728 831.596 530.856C831.5 530.952 831.372 531 831.212 531H826.796C826.636 531 826.492 530.952 826.364 530.856C826.268 530.728 826.22 530.584 826.22 530.424V515.832C826.22 514.36 825.804 513.176 824.972 512.28C824.14 511.352 823.036 510.888 821.66 510.888C820.284 510.888 819.164 511.336 818.3 512.232C817.468 513.128 817.052 514.312 817.052 515.784V530.424C817.052 530.584 816.988 530.728 816.86 530.856C816.764 530.952 816.636 531 816.476 531H812.06C811.9 531 811.756 530.952 811.628 530.856C811.532 530.728 811.484 530.584 811.484 530.424V507.048C811.484 506.888 811.532 506.76 811.628 506.664C811.756 506.536 811.9 506.472 812.06 506.472H816.476C816.636 506.472 816.764 506.536 816.86 506.664C816.988 506.76 817.052 506.888 817.052 507.048V508.584C817.052 508.68 817.084 508.744 817.148 508.776C817.212 508.808 817.26 508.776 817.292 508.68C818.604 506.952 820.588 506.088 823.244 506.088ZM852.617 507.048C852.617 506.888 852.665 506.76 852.761 506.664C852.889 506.536 853.033 506.472 853.193 506.472H857.609C857.769 506.472 857.897 506.536 857.993 506.664C858.121 506.76 858.185 506.888 858.185 507.048V529.368C858.185 533.368 857.033 536.216 854.729 537.912C852.457 539.64 849.465 540.504 845.753 540.504C844.761 540.504 843.785 540.456 842.825 540.36C842.473 540.328 842.297 540.12 842.297 539.736L842.441 535.8C842.441 535.448 842.665 535.272 843.113 535.272C844.041 535.368 844.873 535.416 845.609 535.416C848.009 535.416 849.769 534.936 850.889 533.976C852.041 533.048 852.617 531.464 852.617 529.224V528.84C852.617 528.744 852.585 528.696 852.521 528.696C852.457 528.664 852.393 528.68 852.329 528.744C851.017 530.152 849.161 530.856 846.761 530.856C844.681 530.856 842.777 530.328 841.049 529.272C839.321 528.216 838.121 526.6 837.449 524.424C837.033 522.92 836.825 520.984 836.825 518.616C836.825 515.96 837.081 513.928 837.593 512.52C838.233 510.568 839.337 509.016 840.905 507.864C842.473 506.68 844.313 506.088 846.425 506.088C848.953 506.088 850.921 506.824 852.329 508.296C852.393 508.392 852.457 508.424 852.521 508.392C852.585 508.36 852.617 508.296 852.617 508.2V507.048ZM852.281 522.84C852.409 522.36 852.489 521.848 852.521 521.304C852.585 520.728 852.617 519.816 852.617 518.568C852.617 517.352 852.585 516.488 852.521 515.976C852.489 515.432 852.393 514.904 852.233 514.392C851.977 513.336 851.449 512.488 850.649 511.848C849.881 511.208 848.889 510.888 847.673 510.888C846.521 510.888 845.545 511.208 844.745 511.848C843.945 512.488 843.369 513.336 843.017 514.392C842.633 515.288 842.441 516.696 842.441 518.616C842.441 520.6 842.601 521.992 842.921 522.792C843.241 523.816 843.817 524.664 844.649 525.336C845.513 525.976 846.537 526.296 847.721 526.296C848.969 526.296 849.977 525.976 850.745 525.336C851.513 524.696 852.025 523.864 852.281 522.84Z" fill="black"/>
</svg>
