<?xml version="1.0" encoding="UTF-8" standalone="no"?>
<!-- Created with Inkscape (http://www.inkscape.org/) -->
<svg
   xmlns:dc="http://purl.org/dc/elements/1.1/"
   xmlns:cc="http://web.resource.org/cc/"
   xmlns:rdf="http://www.w3.org/1999/02/22-rdf-syntax-ns#"
   xmlns:svg="http://www.w3.org/2000/svg"
   xmlns="http://www.w3.org/2000/svg"
   xmlns:sodipodi="http://sodipodi.sourceforge.net/DTD/sodipodi-0.dtd"
   xmlns:inkscape="http://www.inkscape.org/namespaces/inkscape"
   width="605.35712"
   height="145.49802"
   id="svg1898"
   sodipodi:version="0.32"
   inkscape:version="0.44"
   version="1.0"
   sodipodi:docbase="C:\Dokumente und Einstellungen\Andreas\Eigene Dateien\Eigene Bilder\sonstiges\Logos\Vektor\other"
   sodipodi:docname="Deutsche_Post-Logo.svg">
  <defs
     id="defs1900">
  <metadata
   id="CorelCorpID_0Corel-Layer" />

  
 
   
   
  
    
    
   
     
     
     
     
     
     
     
     
     
     
     
     
    
     
     
     
     
     
    </defs>
  <sodipodi:namedview
     id="base"
     pagecolor="#ffffff"
     bordercolor="#666666"
     borderopacity="1.0"
     inkscape:pageopacity="0.0"
     inkscape:pageshadow="2"
     inkscape:zoom="0.26346507"
     inkscape:cx="897.50415"
     inkscape:cy="64.905024"
     inkscape:document-units="px"
     inkscape:current-layer="layer1"
     inkscape:window-width="904"
     inkscape:window-height="574"
     inkscape:window-x="92"
     inkscape:window-y="92" />
  <metadata
     id="metadata1903">
    <rdf:RDF>
      <cc:Work
         rdf:about="">
        <dc:format>image/svg+xml</dc:format>
        <dc:type
           rdf:resource="http://purl.org/dc/dcmitype/StillImage" />
      </cc:Work>
    </rdf:RDF>
  </metadata>
  <g
     inkscape:label="Ebene 1"
     inkscape:groupmode="layer"
     id="layer1"
     transform="translate(-91.6072,-651.0417)">
    <g
       id="g2038">
      <polygon
         transform="matrix(2.562571,0,0,2.562571,86.77773,644.0665)"
         style="fill:#fc0;fill-rule:nonzero"
         points="1.88462,59.5001 238.115,59.5001 238.115,2.72196 1.88462,2.72196 1.88462,59.5001 "
         id="_227260912" />
      <g
         id="g2017">
        <polygon
           id="_225737648"
           points="187.091,41.9979 192.655,41.9979 187.036,47.6823 181.474,47.6823 187.091,41.9979 "
           style="fill:black;fill-rule:nonzero"
           transform="matrix(2.562571,0,0,2.562571,86.77773,644.0665)" />
        <polygon
           id="_229043400"
           points="179.587,41.9979 185.151,41.9979 179.532,47.6823 173.968,47.6823 179.587,41.9979 "
           style="fill:black;fill-rule:nonzero"
           transform="matrix(2.562571,0,0,2.562571,86.77773,644.0665)" />
        <polygon
           id="_226455448"
           points="199.509,41.9979 193.947,41.9979 199.564,47.6823 205.128,47.6823 199.509,41.9979 "
           style="fill:black;fill-rule:nonzero"
           transform="matrix(2.562571,0,0,2.562571,86.77773,644.0665)" />
        <polygon
           id="_227904456"
           points="207.015,41.9979 201.451,41.9979 207.068,47.6823 212.632,47.6823 207.015,41.9979 "
           style="fill:black;fill-rule:nonzero"
           transform="matrix(2.562571,0,0,2.562571,86.77773,644.0665)" />
        <path
           id="path2012"
           style="fill:black"
           d="M 608.52487,711.25814 C 610.99406,704.52257 612.71427,694.26955 613.07236,687.09571 L 638.36596,693.38482 C 636.34097,723.07374 614.07097,749.07794 581.0392,749.06718 C 543.66974,749.05032 529.22786,716.56609 531.1708,691.9467 L 542.14544,688.45705 C 540.36054,702.46531 544.69618,712.56571 547.68698,717.20166 C 544.12672,697.38079 559.09075,681.33694 577.81589,681.32618 C 594.65642,681.3157 608.58904,693.61286 608.52472,711.25829 L 608.52487,711.25814 z M 557.62427,711.88272 L 557.62427,711.88272 C 557.62427,723.06327 566.68916,732.12816 577.86971,732.12816 C 589.04572,732.12816 598.10879,723.06327 598.10879,711.88272 C 598.10879,700.70673 589.04569,691.6432 577.86971,691.6432 C 566.68916,691.6432 557.62427,700.70673 557.62427,711.88272 z " />
      </g>
      <g
         id="g2024">
        <path
           id="_228277928"
           d="M 160.97877,703.83334 L 150.20595,703.83334 L 150.20595,748.88257 L 159.56333,748.88257 C 174.27636,748.88257 181.89209,740.10515 181.89209,725.9725 C 181.89209,716.15957 178.27625,710.15654 173.37023,706.99763 C 170.40677,705.06101 166.59731,703.83327 160.97877,703.83327 L 160.97877,703.83334 z M 160.274,709.4505 C 170.46689,709.4505 174.53784,716.35509 174.53784,725.9726 C 174.53784,736.68666 169.88513,743.26552 160.274,743.26552 L 157.17386,743.26552 L 157.17386,709.4506 L 160.274,709.4506 L 160.274,709.4505 z "
           style="fill:black" />
        <path
           id="_140087096"
           d="M 212.796,734.23312 L 212.796,731.97578 C 212.796,720.3556 207.6991,715.32476 200.405,715.32476 C 192.07995,715.32476 187.17211,722.42341 187.17211,732.55618 C 187.17211,742.23337 191.81846,749.33338 201.50201,749.33338 C 205.56658,749.33338 208.92047,748.30107 211.05435,747.33481 L 210.72816,741.71765 C 209.05122,742.94404 206.408,744.36725 202.59718,744.36725 C 196.47069,744.36725 193.88626,740.87623 193.88626,734.23312 L 212.79598,734.23312 L 212.796,734.23312 z M 206.21258,729.64645 L 193.88628,729.64645 C 193.95234,723.58467 196.40466,720.10003 200.20958,720.10003 C 204.20947,720.10003 206.2126,723.325 206.2126,729.64645 L 206.21258,729.64645 z "
           style="fill:black" />
        <path
           id="_140081624"
           d="M 243.90177,748.88283 C 243.77102,746.94439 243.64028,744.75173 243.64028,742.55953 L 243.64028,715.774 L 236.92793,715.774 L 236.92793,735.19898 C 236.92793,740.29635 234.99541,743.7213 230.73358,743.7213 C 227.31501,743.7213 225.63212,741.52273 225.63212,736.36067 L 225.63212,715.774 L 218.92387,715.774 L 218.92387,737.91326 C 218.92387,744.88253 221.95795,749.33343 228.60149,749.33343 C 233.123,749.33343 235.57533,746.94443 237.18806,743.84566 L 237.3188,743.84566 C 237.3188,744.81784 237.57255,748.04143 237.57255,748.88288 L 243.90177,748.88288 L 243.90177,748.88283 z "
           style="fill:black;fill-rule:nonzero" />
        <path
           id="_227263352"
           d="M 267.33213,748.36698 L 267.33213,743.33022 C 266.49069,743.7211 265.45974,744.1056 264.10259,744.1056 C 261.71496,744.1056 260.61796,742.87921 260.61796,739.26519 L 260.61796,720.9354 L 267.33213,720.9354 L 267.33213,715.77382 L 260.61796,715.77382 L 260.61796,706.99775 L 253.91017,708.99497 L 253.91017,715.77381 L 248.61283,715.77381 L 248.61283,720.93539 L 253.91017,720.93539 L 253.91017,740.62232 C 253.91017,747.0103 256.93788,749.33324 262.36097,749.33324 C 264.29804,749.33324 266.10573,748.88269 267.33213,748.36698 L 267.33213,748.36698 z "
           style="fill:black;fill-rule:nonzero" />
        <path
           id="_224935040"
           d="M 291.20837,739.32982 C 291.20837,735.32993 288.82074,733.19559 284.82039,730.93871 L 281.91569,729.32645 C 279.01235,727.71556 277.27072,726.61856 277.27072,724.41997 C 277.27072,722.09703 278.88161,720.55082 282.2355,720.55082 C 284.94978,720.55082 287.20802,721.19682 289.01617,721.9722 L 289.33598,716.55049 C 287.98339,716.02886 285.20488,715.32456 281.72024,715.32456 C 275.00608,715.32456 270.68592,719.8397 270.68592,724.81086 C 270.68592,729.52189 273.32913,731.71591 277.39552,733.71723 L 280.88016,735.46069 C 283.8541,736.9422 284.7543,738.42825 284.7543,740.17126 C 284.7543,742.74841 282.49742,744.10555 279.01232,744.10555 C 275.78325,744.10555 272.87991,742.74841 271.00754,741.78215 L 270.62122,747.59019 C 272.68449,748.56237 275.97871,749.3332 279.71845,749.3332 C 287.14376,749.3332 291.20833,745.20256 291.20833,739.32984 L 291.20837,739.32982 z "
           style="fill:black;fill-rule:nonzero" />
        <path
           id="_138505344"
           d="M 318.50334,747.98106 L 318.11246,742.29923 C 316.63095,743.13929 314.24331,743.97617 311.98461,743.97617 C 306.23671,743.97617 302.9475,739.46059 302.9475,732.556 C 302.9475,724.55076 306.17657,720.68161 311.85387,720.68161 C 314.24332,720.68161 316.17995,721.38591 317.79265,722.22781 L 318.11246,716.61521 C 316.5002,715.90453 313.7923,715.32459 311.40468,715.32459 C 301.20587,715.32459 295.97913,722.42324 295.97913,732.4913 C 295.97913,741.84868 300.69016,749.33321 311.07849,749.33321 C 313.92304,749.33321 316.7617,748.68722 318.50333,747.98109 L 318.50334,747.98106 z "
           style="fill:black;fill-rule:nonzero" />
        <path
           id="_140175464"
           d="M 348.31629,748.88283 L 348.31629,726.74357 C 348.31629,719.77384 345.2822,715.32476 338.63456,715.32476 C 334.24836,715.32476 331.86025,717.77708 330.4389,720.16471 L 330.30815,720.16471 L 330.30815,700.47914 L 323.59398,700.47914 L 323.59398,748.88278 L 330.30815,748.88278 L 330.30815,729.26191 C 330.30815,724.16501 332.44021,720.93551 336.63598,720.93551 C 340.05594,720.93551 341.60214,723.13408 341.60214,728.29567 L 341.60214,748.8828 L 348.31631,748.8828 L 348.31629,748.88283 z "
           style="fill:black;fill-rule:nonzero" />
        <path
           id="_140088704"
           d="M 380.26899,734.23312 L 380.26899,731.97578 C 380.26899,720.3556 375.16709,715.32476 367.87752,715.32476 C 359.55293,715.32476 354.64463,722.42341 354.64463,732.55618 C 354.64463,742.23337 359.29099,749.33338 368.97453,749.33338 C 373.03956,749.33338 376.39346,748.30107 378.52734,747.33481 L 378.20115,741.71765 C 376.5242,742.94404 373.88098,744.36725 370.07016,744.36725 C 363.93731,744.36725 361.35878,740.87623 361.35878,734.23312 L 380.26896,734.23312 L 380.26899,734.23312 z M 373.68556,729.64645 L 361.3588,729.64645 C 361.41894,723.58467 363.87309,720.10003 367.6821,720.10003 C 371.68245,720.10003 373.68559,723.325 373.68559,729.64645 L 373.68556,729.64645 z "
           style="fill:black" />
        <path
           id="_229157152"
           d="M 427.70474,717.06595 C 427.70474,712.93531 426.4788,709.6411 424.1554,707.38284 C 421.76777,705.06126 418.60292,703.8335 414.02128,703.8335 L 402.14689,703.8335 L 402.14689,748.88273 L 409.1148,748.88273 L 409.1148,730.619 L 413.31057,730.619 C 422.73217,730.619 427.70471,725.71252 427.70471,717.06585 L 427.70474,717.06595 z M 412.27965,709.32129 C 417.7615,709.32129 420.60606,711.77362 420.60606,717.32154 C 420.60606,722.2927 418.21661,725.1309 412.21494,725.1309 L 409.1148,725.1309 L 409.1148,709.32132 L 412.27962,709.32132 L 412.27965,709.32129 z "
           style="fill:black" />
        <path
           id="_224862128"
           d="M 457.72013,732.29582 C 457.72013,720.35537 451.52622,715.32453 443.7811,715.32453 C 436.03645,715.32453 429.83754,720.35537 429.83754,732.29582 C 429.83754,744.43169 436.03645,749.33315 443.7811,749.33315 C 451.52622,749.33315 457.72013,744.43169 457.72013,732.29582 z M 450.75086,732.29582 C 450.75086,739.19905 448.94271,744.30095 443.78113,744.30095 C 438.61499,744.30095 436.8073,739.19905 436.8073,732.29582 C 436.8073,725.39259 438.61499,720.35537 443.78113,720.35537 C 448.94271,720.35537 450.75086,725.39259 450.75086,732.29582 L 450.75086,732.29582 z "
           style="fill:black" />
        <path
           id="_224865032"
           d="M 483.07677,739.32982 C 483.07677,735.32993 480.68915,733.19559 476.68423,730.93871 L 473.77953,729.32645 C 470.87619,727.71556 469.13318,726.61856 469.13318,724.41997 C 469.13318,722.09703 470.75181,720.55082 474.1057,720.55082 C 476.81313,720.55082 479.07186,721.19682 480.87955,721.9722 L 481.20438,716.55049 C 479.84724,716.02886 477.0751,715.32456 473.59001,715.32456 C 466.87584,715.32456 462.54976,719.8397 462.54976,724.81086 C 462.54976,729.52189 465.19889,731.71591 469.26393,733.71723 L 472.74856,735.46069 C 475.71797,736.9422 476.62409,738.42825 476.62409,740.17126 C 476.62409,742.74841 474.36083,744.10555 470.87619,744.10555 C 467.65168,744.10555 464.74834,742.74841 462.87595,741.78215 L 462.48505,747.59019 C 464.55289,748.56237 467.84208,749.3332 471.58684,749.3332 C 479.01169,749.3332 483.07672,745.20256 483.07672,739.32984 L 483.07677,739.32982 z "
           style="fill:black;fill-rule:nonzero" />
        <path
           id="_23879864"
           d="M 504.23848,748.36698 L 504.23848,743.33022 C 503.39704,743.7211 502.36609,744.1056 501.00941,744.1056 C 498.62179,744.1056 497.52478,742.87921 497.52478,739.26519 L 497.52478,720.9354 L 504.23848,720.9354 L 504.23848,715.77382 L 497.52478,715.77382 L 497.52478,706.99775 L 490.81061,708.99497 L 490.81061,715.77381 L 485.51965,715.77381 L 485.51965,720.93539 L 490.81061,720.93539 L 490.81061,740.62232 C 490.81061,747.0103 493.84423,749.33324 499.26779,749.33324 C 501.20486,749.33324 503.01255,748.88269 504.23848,748.36698 L 504.23848,748.36698 z "
           style="fill:black;fill-rule:nonzero" />
      </g>
    </g>
  </g>
</svg>
