<svg width="1440" height="1024" viewBox="0 0 1440 1024" fill="none" xmlns="http://www.w3.org/2000/svg">
<rect x="235.5" y="404.5" width="154" height="75" fill="#EFEFEF" stroke="black"/>
<path d="M293.578 436.256C294.454 436.256 295.228 436.436 295.9 436.796C296.572 437.156 297.094 437.666 297.466 438.326C297.838 438.986 298.024 439.748 298.024 440.612V444.932C298.024 445.988 297.724 446.888 297.124 447.632C296.536 448.364 295.732 448.832 294.712 449.036C294.664 449.048 294.64 449.084 294.64 449.144V450.656C294.64 450.716 294.616 450.764 294.568 450.8C294.532 450.848 294.484 450.872 294.424 450.872H292.768C292.708 450.872 292.654 450.848 292.606 450.8C292.57 450.764 292.552 450.716 292.552 450.656V449.144C292.552 449.096 292.522 449.06 292.462 449.036C291.454 448.832 290.65 448.364 290.05 447.632C289.45 446.9 289.15 446 289.15 444.932V440.612C289.15 439.748 289.336 438.986 289.708 438.326C290.08 437.666 290.596 437.156 291.256 436.796C291.928 436.436 292.702 436.256 293.578 436.256ZM295.936 440.504C295.936 439.772 295.72 439.184 295.288 438.74C294.856 438.284 294.286 438.056 293.578 438.056C292.882 438.056 292.318 438.284 291.886 438.74C291.454 439.184 291.238 439.772 291.238 440.504V444.896C291.238 445.628 291.454 446.222 291.886 446.678C292.318 447.122 292.882 447.344 293.578 447.344C294.286 447.344 294.856 447.122 295.288 446.678C295.72 446.222 295.936 445.628 295.936 444.896V440.504ZM305.42 440.018C305.42 439.958 305.438 439.91 305.474 439.874C305.522 439.826 305.576 439.802 305.636 439.802H307.274C307.334 439.802 307.382 439.826 307.418 439.874C307.466 439.91 307.49 439.958 307.49 440.018V448.784C307.49 448.844 307.466 448.898 307.418 448.946C307.382 448.982 307.334 449 307.274 449H305.636C305.576 449 305.522 448.982 305.474 448.946C305.438 448.898 305.42 448.844 305.42 448.784V448.208C305.42 448.172 305.408 448.148 305.384 448.136C305.36 448.124 305.336 448.136 305.312 448.172C304.82 448.808 304.082 449.126 303.098 449.126C302.186 449.126 301.418 448.862 300.794 448.334C300.182 447.806 299.876 447.056 299.876 446.084V440.018C299.876 439.958 299.894 439.91 299.93 439.874C299.978 439.826 300.032 439.802 300.092 439.802H301.748C301.808 439.802 301.856 439.826 301.892 439.874C301.94 439.91 301.964 439.958 301.964 440.018V445.49C301.964 446.054 302.108 446.504 302.396 446.84C302.696 447.176 303.11 447.344 303.638 447.344C304.178 447.344 304.61 447.176 304.934 446.84C305.258 446.504 305.42 446.054 305.42 445.49V440.018ZM317.48 443.366C317.528 443.666 317.552 444.002 317.552 444.374L317.534 444.932C317.534 445.076 317.462 445.148 317.318 445.148H311.684C311.624 445.148 311.594 445.178 311.594 445.238C311.63 445.634 311.684 445.904 311.756 446.048C312.044 446.912 312.746 447.35 313.862 447.362C314.678 447.362 315.326 447.026 315.806 446.354C315.854 446.282 315.914 446.246 315.986 446.246C316.034 446.246 316.076 446.264 316.112 446.3L317.228 447.218C317.336 447.302 317.354 447.398 317.282 447.506C316.91 448.034 316.412 448.442 315.788 448.73C315.176 449.018 314.492 449.162 313.736 449.162C312.8 449.162 312.002 448.952 311.342 448.532C310.694 448.112 310.22 447.524 309.92 446.768C309.644 446.12 309.506 445.22 309.506 444.068C309.506 443.372 309.578 442.808 309.722 442.376C309.962 441.536 310.412 440.876 311.072 440.396C311.744 439.904 312.548 439.658 313.484 439.658C315.848 439.658 317.18 440.894 317.48 443.366ZM313.484 441.458C313.04 441.458 312.668 441.572 312.368 441.8C312.08 442.016 311.876 442.322 311.756 442.718C311.684 442.922 311.636 443.186 311.612 443.51C311.588 443.57 311.612 443.6 311.684 443.6H315.338C315.398 443.6 315.428 443.57 315.428 443.51C315.404 443.21 315.368 442.982 315.32 442.826C315.212 442.394 314.996 442.058 314.672 441.818C314.36 441.578 313.964 441.458 313.484 441.458ZM319.677 449C319.617 449 319.563 448.982 319.515 448.946C319.479 448.898 319.461 448.844 319.461 448.784V436.616C319.461 436.556 319.479 436.508 319.515 436.472C319.563 436.424 319.617 436.4 319.677 436.4H321.333C321.393 436.4 321.441 436.424 321.477 436.472C321.525 436.508 321.549 436.556 321.549 436.616V448.784C321.549 448.844 321.525 448.898 321.477 448.946C321.441 448.982 321.393 449 321.333 449H319.677ZM323.983 449C323.923 449 323.869 448.982 323.821 448.946C323.785 448.898 323.767 448.844 323.767 448.784V436.616C323.767 436.556 323.785 436.508 323.821 436.472C323.869 436.424 323.923 436.4 323.983 436.4H325.639C325.699 436.4 325.747 436.424 325.783 436.472C325.831 436.508 325.855 436.556 325.855 436.616V448.784C325.855 448.844 325.831 448.898 325.783 448.946C325.747 448.982 325.699 449 325.639 449H323.983ZM335.832 443.366C335.88 443.666 335.904 444.002 335.904 444.374L335.886 444.932C335.886 445.076 335.814 445.148 335.67 445.148H330.036C329.976 445.148 329.946 445.178 329.946 445.238C329.982 445.634 330.036 445.904 330.108 446.048C330.396 446.912 331.098 447.35 332.214 447.362C333.03 447.362 333.678 447.026 334.158 446.354C334.206 446.282 334.266 446.246 334.338 446.246C334.386 446.246 334.428 446.264 334.464 446.3L335.58 447.218C335.688 447.302 335.706 447.398 335.634 447.506C335.262 448.034 334.764 448.442 334.14 448.73C333.528 449.018 332.844 449.162 332.088 449.162C331.152 449.162 330.354 448.952 329.694 448.532C329.046 448.112 328.572 447.524 328.272 446.768C327.996 446.12 327.858 445.22 327.858 444.068C327.858 443.372 327.93 442.808 328.074 442.376C328.314 441.536 328.764 440.876 329.424 440.396C330.096 439.904 330.9 439.658 331.836 439.658C334.2 439.658 335.532 440.894 335.832 443.366ZM331.836 441.458C331.392 441.458 331.02 441.572 330.72 441.8C330.432 442.016 330.228 442.322 330.108 442.718C330.036 442.922 329.988 443.186 329.964 443.51C329.94 443.57 329.964 443.6 330.036 443.6H333.69C333.75 443.6 333.78 443.57 333.78 443.51C333.756 443.21 333.72 442.982 333.672 442.826C333.564 442.394 333.348 442.058 333.024 441.818C332.712 441.578 332.316 441.458 331.836 441.458Z" fill="black"/>
<path d="M434.061 443.061C434.646 442.475 434.646 441.525 434.061 440.939L424.515 431.393C423.929 430.808 422.979 430.808 422.393 431.393C421.808 431.979 421.808 432.929 422.393 433.515L430.879 442L422.393 450.485C421.808 451.071 421.808 452.021 422.393 452.607C422.979 453.192 423.929 453.192 424.515 452.607L434.061 443.061ZM390 443.5H433V440.5H390V443.5Z" fill="black"/>
<rect x="438.5" y="404.5" width="154" height="75" fill="#EFEFEF" stroke="black"/>
<path d="M492.555 449.144C491.619 449.144 490.803 448.994 490.107 448.694C489.411 448.394 488.871 447.974 488.487 447.434C488.115 446.894 487.929 446.258 487.929 445.526V445.076C487.929 445.016 487.947 444.968 487.983 444.932C488.031 444.884 488.085 444.86 488.145 444.86H489.747C489.807 444.86 489.855 444.884 489.891 444.932C489.939 444.968 489.963 445.016 489.963 445.076V445.418C489.963 445.97 490.209 446.432 490.701 446.804C491.193 447.164 491.865 447.344 492.717 447.344C493.449 447.344 494.001 447.188 494.373 446.876C494.745 446.564 494.931 446.162 494.931 445.67C494.931 445.334 494.829 445.052 494.625 444.824C494.421 444.584 494.127 444.368 493.743 444.176C493.371 443.984 492.807 443.744 492.051 443.456C491.199 443.144 490.509 442.85 489.981 442.574C489.453 442.298 489.009 441.926 488.649 441.458C488.301 440.978 488.127 440.384 488.127 439.676C488.127 438.62 488.511 437.786 489.279 437.174C490.047 436.562 491.073 436.256 492.357 436.256C493.257 436.256 494.049 436.412 494.733 436.724C495.429 437.036 495.969 437.474 496.353 438.038C496.737 438.59 496.929 439.232 496.929 439.964V440.27C496.929 440.33 496.905 440.384 496.857 440.432C496.821 440.468 496.773 440.486 496.713 440.486H495.093C495.033 440.486 494.979 440.468 494.931 440.432C494.895 440.384 494.877 440.33 494.877 440.27V440.072C494.877 439.508 494.643 439.034 494.175 438.65C493.719 438.254 493.083 438.056 492.267 438.056C491.607 438.056 491.091 438.194 490.719 438.47C490.359 438.746 490.179 439.136 490.179 439.64C490.179 440 490.275 440.294 490.467 440.522C490.659 440.75 490.947 440.96 491.331 441.152C491.715 441.332 492.309 441.566 493.113 441.854C493.965 442.178 494.643 442.472 495.147 442.736C495.663 443 496.101 443.372 496.461 443.852C496.833 444.32 497.019 444.908 497.019 445.616C497.019 446.696 496.617 447.554 495.813 448.19C495.021 448.826 493.935 449.144 492.555 449.144ZM506.682 443.366C506.73 443.666 506.754 444.002 506.754 444.374L506.736 444.932C506.736 445.076 506.664 445.148 506.52 445.148H500.886C500.826 445.148 500.796 445.178 500.796 445.238C500.832 445.634 500.886 445.904 500.958 446.048C501.246 446.912 501.948 447.35 503.064 447.362C503.88 447.362 504.528 447.026 505.008 446.354C505.056 446.282 505.116 446.246 505.188 446.246C505.236 446.246 505.278 446.264 505.314 446.3L506.43 447.218C506.538 447.302 506.556 447.398 506.484 447.506C506.112 448.034 505.614 448.442 504.99 448.73C504.378 449.018 503.694 449.162 502.938 449.162C502.002 449.162 501.204 448.952 500.544 448.532C499.896 448.112 499.422 447.524 499.122 446.768C498.846 446.12 498.708 445.22 498.708 444.068C498.708 443.372 498.78 442.808 498.924 442.376C499.164 441.536 499.614 440.876 500.274 440.396C500.946 439.904 501.75 439.658 502.686 439.658C505.05 439.658 506.382 440.894 506.682 443.366ZM502.686 441.458C502.242 441.458 501.87 441.572 501.57 441.8C501.282 442.016 501.078 442.322 500.958 442.718C500.886 442.922 500.838 443.186 500.814 443.51C500.79 443.57 500.814 443.6 500.886 443.6H504.54C504.6 443.6 504.63 443.57 504.63 443.51C504.606 443.21 504.57 442.982 504.522 442.826C504.414 442.394 504.198 442.058 503.874 441.818C503.562 441.578 503.166 441.458 502.686 441.458ZM513.072 439.658C514.044 439.658 514.818 439.946 515.394 440.522C515.982 441.098 516.276 441.884 516.276 442.88V448.784C516.276 448.844 516.252 448.898 516.204 448.946C516.168 448.982 516.12 449 516.06 449H514.404C514.344 449 514.29 448.982 514.242 448.946C514.206 448.898 514.188 448.844 514.188 448.784V443.312C514.188 442.76 514.032 442.316 513.72 441.98C513.408 441.632 512.994 441.458 512.478 441.458C511.962 441.458 511.542 441.626 511.218 441.962C510.906 442.298 510.75 442.742 510.75 443.294V448.784C510.75 448.844 510.726 448.898 510.678 448.946C510.642 448.982 510.594 449 510.534 449H508.878C508.818 449 508.764 448.982 508.716 448.946C508.68 448.898 508.662 448.844 508.662 448.784V440.018C508.662 439.958 508.68 439.91 508.716 439.874C508.764 439.826 508.818 439.802 508.878 439.802H510.534C510.594 439.802 510.642 439.826 510.678 439.874C510.726 439.91 510.75 439.958 510.75 440.018V440.594C510.75 440.63 510.762 440.654 510.786 440.666C510.81 440.678 510.828 440.666 510.84 440.63C511.332 439.982 512.076 439.658 513.072 439.658ZM524.089 436.616C524.089 436.556 524.107 436.508 524.143 436.472C524.191 436.424 524.245 436.4 524.305 436.4H525.961C526.021 436.4 526.069 436.424 526.105 436.472C526.153 436.508 526.177 436.556 526.177 436.616V448.784C526.177 448.844 526.153 448.898 526.105 448.946C526.069 448.982 526.021 449 525.961 449H524.305C524.245 449 524.191 448.982 524.143 448.946C524.107 448.898 524.089 448.844 524.089 448.784V448.244C524.089 448.208 524.077 448.184 524.053 448.172C524.029 448.16 524.005 448.172 523.981 448.208C523.453 448.832 522.763 449.144 521.911 449.144C521.059 449.144 520.339 448.922 519.751 448.478C519.163 448.034 518.737 447.416 518.473 446.624C518.257 445.952 518.149 445.202 518.149 444.374C518.149 443.522 518.251 442.79 518.455 442.178C518.719 441.386 519.145 440.768 519.733 440.324C520.321 439.88 521.059 439.658 521.947 439.658C522.775 439.658 523.453 439.958 523.981 440.558C524.005 440.582 524.029 440.594 524.053 440.594C524.077 440.582 524.089 440.558 524.089 440.522V436.616ZM523.657 446.48C523.933 445.988 524.071 445.292 524.071 444.392C524.071 443.456 523.921 442.742 523.621 442.25C523.297 441.722 522.841 441.458 522.253 441.458C521.641 441.458 521.161 441.71 520.813 442.214C520.453 442.742 520.273 443.474 520.273 444.41C520.273 445.25 520.417 445.94 520.705 446.48C521.041 447.056 521.551 447.344 522.235 447.344C522.847 447.344 523.321 447.056 523.657 446.48ZM536.195 443.366C536.243 443.666 536.267 444.002 536.267 444.374L536.249 444.932C536.249 445.076 536.177 445.148 536.033 445.148H530.399C530.339 445.148 530.309 445.178 530.309 445.238C530.345 445.634 530.399 445.904 530.471 446.048C530.759 446.912 531.461 447.35 532.577 447.362C533.393 447.362 534.041 447.026 534.521 446.354C534.569 446.282 534.629 446.246 534.701 446.246C534.749 446.246 534.791 446.264 534.827 446.3L535.943 447.218C536.051 447.302 536.069 447.398 535.997 447.506C535.625 448.034 535.127 448.442 534.503 448.73C533.891 449.018 533.207 449.162 532.451 449.162C531.515 449.162 530.717 448.952 530.057 448.532C529.409 448.112 528.935 447.524 528.635 446.768C528.359 446.12 528.221 445.22 528.221 444.068C528.221 443.372 528.293 442.808 528.437 442.376C528.677 441.536 529.127 440.876 529.787 440.396C530.459 439.904 531.263 439.658 532.199 439.658C534.563 439.658 535.895 440.894 536.195 443.366ZM532.199 441.458C531.755 441.458 531.383 441.572 531.083 441.8C530.795 442.016 530.591 442.322 530.471 442.718C530.399 442.922 530.351 443.186 530.327 443.51C530.303 443.57 530.327 443.6 530.399 443.6H534.053C534.113 443.6 534.143 443.57 534.143 443.51C534.119 443.21 534.083 442.982 534.035 442.826C533.927 442.394 533.711 442.058 533.387 441.818C533.075 441.578 532.679 441.458 532.199 441.458ZM542.46 439.694C542.844 439.694 543.18 439.772 543.468 439.928C543.564 439.976 543.6 440.066 543.576 440.198L543.27 441.818C543.258 441.962 543.174 442.004 543.018 441.944C542.838 441.884 542.628 441.854 542.388 441.854C542.232 441.854 542.112 441.86 542.028 441.872C541.524 441.896 541.104 442.076 540.768 442.412C540.432 442.736 540.264 443.162 540.264 443.69V448.784C540.264 448.844 540.24 448.898 540.192 448.946C540.156 448.982 540.108 449 540.048 449H538.392C538.332 449 538.278 448.982 538.23 448.946C538.194 448.898 538.176 448.844 538.176 448.784V440.018C538.176 439.958 538.194 439.91 538.23 439.874C538.278 439.826 538.332 439.802 538.392 439.802H540.048C540.108 439.802 540.156 439.826 540.192 439.874C540.24 439.91 540.264 439.958 540.264 440.018V440.828C540.264 440.876 540.27 440.906 540.282 440.918C540.306 440.918 540.33 440.9 540.354 440.864C540.858 440.084 541.56 439.694 542.46 439.694Z" fill="black"/>
<path d="M637.061 443.061C637.646 442.475 637.646 441.525 637.061 440.939L627.515 431.393C626.929 430.808 625.979 430.808 625.393 431.393C624.808 431.979 624.808 432.929 625.393 433.515L633.879 442L625.393 450.485C624.808 451.071 624.808 452.021 625.393 452.607C625.979 453.192 626.929 453.192 627.515 452.607L637.061 443.061ZM593 443.5H636V440.5H593V443.5Z" fill="black"/>
<rect x="641.5" y="404.5" width="154" height="75" fill="#EFEFEF" stroke="black"/>
<path d="M697.996 449C697.936 449 697.882 448.982 697.834 448.946C697.798 448.898 697.78 448.844 697.78 448.784V436.616C697.78 436.556 697.798 436.508 697.834 436.472C697.882 436.424 697.936 436.4 697.996 436.4H699.652C699.712 436.4 699.76 436.424 699.796 436.472C699.844 436.508 699.868 436.556 699.868 436.616V441.998C699.868 442.034 699.88 442.058 699.904 442.07C699.928 442.082 699.952 442.076 699.976 442.052L704.656 436.526C704.728 436.442 704.818 436.4 704.926 436.4H706.798C706.918 436.4 706.978 436.442 706.978 436.526C706.978 436.562 706.96 436.61 706.924 436.67L702.802 441.728C702.766 441.776 702.76 441.818 702.784 441.854L707.212 448.748C707.236 448.82 707.248 448.862 707.248 448.874C707.248 448.958 707.188 449 707.068 449H705.178C705.07 449 704.986 448.952 704.926 448.856L701.362 443.312C701.314 443.24 701.272 443.234 701.236 443.294L699.904 444.842C699.88 444.89 699.868 444.932 699.868 444.968V448.784C699.868 448.844 699.844 448.898 699.796 448.946C699.76 448.982 699.712 449 699.652 449H697.996ZM712.254 439.658C713.01 439.658 713.676 439.79 714.252 440.054C714.828 440.318 715.272 440.684 715.584 441.152C715.896 441.608 716.052 442.13 716.052 442.718V448.784C716.052 448.844 716.028 448.898 715.98 448.946C715.944 448.982 715.896 449 715.836 449H714.18C714.12 449 714.066 448.982 714.018 448.946C713.982 448.898 713.964 448.844 713.964 448.784V448.208C713.964 448.172 713.952 448.154 713.928 448.154C713.904 448.142 713.88 448.148 713.856 448.172C713.268 448.82 712.416 449.144 711.3 449.144C710.4 449.144 709.656 448.916 709.068 448.46C708.492 448.004 708.204 447.326 708.204 446.426C708.204 445.49 708.528 444.764 709.176 444.248C709.836 443.72 710.76 443.456 711.948 443.456H713.874C713.934 443.456 713.964 443.426 713.964 443.366V442.934C713.964 442.466 713.826 442.106 713.55 441.854C713.274 441.59 712.86 441.458 712.308 441.458C711.852 441.458 711.48 441.542 711.192 441.71C710.916 441.866 710.742 442.088 710.67 442.376C710.634 442.52 710.55 442.58 710.418 442.556L708.672 442.34C708.612 442.328 708.558 442.31 708.51 442.286C708.474 442.25 708.462 442.208 708.474 442.16C708.57 441.428 708.96 440.828 709.644 440.36C710.34 439.892 711.21 439.658 712.254 439.658ZM711.822 447.488C712.41 447.488 712.914 447.332 713.334 447.02C713.754 446.708 713.964 446.312 713.964 445.832V444.986C713.964 444.926 713.934 444.896 713.874 444.896H712.362C711.726 444.896 711.222 445.016 710.85 445.256C710.49 445.496 710.31 445.838 710.31 446.282C710.31 446.666 710.448 446.966 710.724 447.182C711.012 447.386 711.378 447.488 711.822 447.488ZM722.558 439.658C723.53 439.658 724.304 439.946 724.88 440.522C725.468 441.098 725.762 441.884 725.762 442.88V448.784C725.762 448.844 725.738 448.898 725.69 448.946C725.654 448.982 725.606 449 725.546 449H723.89C723.83 449 723.776 448.982 723.728 448.946C723.692 448.898 723.674 448.844 723.674 448.784V443.312C723.674 442.76 723.518 442.316 723.206 441.98C722.894 441.632 722.48 441.458 721.964 441.458C721.448 441.458 721.028 441.626 720.704 441.962C720.392 442.298 720.236 442.742 720.236 443.294V448.784C720.236 448.844 720.212 448.898 720.164 448.946C720.128 448.982 720.08 449 720.02 449H718.364C718.304 449 718.25 448.982 718.202 448.946C718.166 448.898 718.148 448.844 718.148 448.784V440.018C718.148 439.958 718.166 439.91 718.202 439.874C718.25 439.826 718.304 439.802 718.364 439.802H720.02C720.08 439.802 720.128 439.826 720.164 439.874C720.212 439.91 720.236 439.958 720.236 440.018V440.594C720.236 440.63 720.248 440.654 720.272 440.666C720.296 440.678 720.314 440.666 720.326 440.63C720.818 439.982 721.562 439.658 722.558 439.658ZM731.449 439.658C732.205 439.658 732.871 439.79 733.447 440.054C734.023 440.318 734.467 440.684 734.779 441.152C735.091 441.608 735.247 442.13 735.247 442.718V448.784C735.247 448.844 735.223 448.898 735.175 448.946C735.139 448.982 735.091 449 735.031 449H733.375C733.315 449 733.261 448.982 733.213 448.946C733.177 448.898 733.159 448.844 733.159 448.784V448.208C733.159 448.172 733.147 448.154 733.123 448.154C733.099 448.142 733.075 448.148 733.051 448.172C732.463 448.82 731.611 449.144 730.495 449.144C729.595 449.144 728.851 448.916 728.263 448.46C727.687 448.004 727.399 447.326 727.399 446.426C727.399 445.49 727.723 444.764 728.371 444.248C729.031 443.72 729.955 443.456 731.143 443.456H733.069C733.129 443.456 733.159 443.426 733.159 443.366V442.934C733.159 442.466 733.021 442.106 732.745 441.854C732.469 441.59 732.055 441.458 731.503 441.458C731.047 441.458 730.675 441.542 730.387 441.71C730.111 441.866 729.937 442.088 729.865 442.376C729.829 442.52 729.745 442.58 729.613 442.556L727.867 442.34C727.807 442.328 727.753 442.31 727.705 442.286C727.669 442.25 727.657 442.208 727.669 442.16C727.765 441.428 728.155 440.828 728.839 440.36C729.535 439.892 730.405 439.658 731.449 439.658ZM731.017 447.488C731.605 447.488 732.109 447.332 732.529 447.02C732.949 446.708 733.159 446.312 733.159 445.832V444.986C733.159 444.926 733.129 444.896 733.069 444.896H731.557C730.921 444.896 730.417 445.016 730.045 445.256C729.685 445.496 729.505 445.838 729.505 446.282C729.505 446.666 729.643 446.966 729.919 447.182C730.207 447.386 730.573 447.488 731.017 447.488ZM737.56 449C737.5 449 737.446 448.982 737.398 448.946C737.362 448.898 737.344 448.844 737.344 448.784V436.616C737.344 436.556 737.362 436.508 737.398 436.472C737.446 436.424 737.5 436.4 737.56 436.4H739.216C739.276 436.4 739.324 436.424 739.36 436.472C739.408 436.508 739.432 436.556 739.432 436.616V448.784C739.432 448.844 739.408 448.898 739.36 448.946C739.324 448.982 739.276 449 739.216 449H737.56Z" fill="black"/>
<path d="M840.061 443.061C840.646 442.475 840.646 441.525 840.061 440.939L830.515 431.393C829.929 430.808 828.979 430.808 828.393 431.393C827.808 431.979 827.808 432.929 828.393 433.515L836.879 442L828.393 450.485C827.808 451.071 827.808 452.021 828.393 452.607C828.979 453.192 829.929 453.192 830.515 452.607L840.061 443.061ZM796 443.5H839V440.5H796V443.5Z" fill="black"/>
<rect x="844.5" y="404.5" width="154" height="75" fill="#EFEFEF" stroke="black"/>
<path d="M886.909 437.984C886.909 438.044 886.885 438.098 886.837 438.146C886.801 438.182 886.753 438.2 886.693 438.2H880.555C880.495 438.2 880.465 438.23 880.465 438.29V441.656C880.465 441.716 880.495 441.746 880.555 441.746H884.677C884.737 441.746 884.785 441.77 884.821 441.818C884.869 441.854 884.893 441.902 884.893 441.962V443.33C884.893 443.39 884.869 443.444 884.821 443.492C884.785 443.528 884.737 443.546 884.677 443.546H880.555C880.495 443.546 880.465 443.576 880.465 443.636V447.11C880.465 447.17 880.495 447.2 880.555 447.2H886.693C886.753 447.2 886.801 447.224 886.837 447.272C886.885 447.308 886.909 447.356 886.909 447.416V448.784C886.909 448.844 886.885 448.898 886.837 448.946C886.801 448.982 886.753 449 886.693 449H878.593C878.533 449 878.479 448.982 878.431 448.946C878.395 448.898 878.377 448.844 878.377 448.784V436.616C878.377 436.556 878.395 436.508 878.431 436.472C878.479 436.424 878.533 436.4 878.593 436.4H886.693C886.753 436.4 886.801 436.424 886.837 436.472C886.885 436.508 886.909 436.556 886.909 436.616V437.984ZM898.678 439.658C899.602 439.658 900.322 439.94 900.838 440.504C901.366 441.056 901.63 441.83 901.63 442.826V448.784C901.63 448.844 901.606 448.898 901.558 448.946C901.522 448.982 901.474 449 901.414 449H899.776C899.716 449 899.662 448.982 899.614 448.946C899.578 448.898 899.56 448.844 899.56 448.784V443.258C899.56 442.706 899.41 442.268 899.11 441.944C898.822 441.62 898.432 441.458 897.94 441.458C897.448 441.458 897.046 441.62 896.734 441.944C896.422 442.268 896.266 442.7 896.266 443.24V448.784C896.266 448.844 896.242 448.898 896.194 448.946C896.158 448.982 896.11 449 896.05 449H894.412C894.352 449 894.298 448.982 894.25 448.946C894.214 448.898 894.196 448.844 894.196 448.784V443.258C894.196 442.706 894.046 442.268 893.746 441.944C893.446 441.62 893.05 441.458 892.558 441.458C892.102 441.458 891.724 441.59 891.424 441.854C891.136 442.118 890.968 442.478 890.92 442.934V448.784C890.92 448.844 890.896 448.898 890.848 448.946C890.812 448.982 890.764 449 890.704 449H889.048C888.988 449 888.934 448.982 888.886 448.946C888.85 448.898 888.832 448.844 888.832 448.784V440.018C888.832 439.958 888.85 439.91 888.886 439.874C888.934 439.826 888.988 439.802 889.048 439.802H890.704C890.764 439.802 890.812 439.826 890.848 439.874C890.896 439.91 890.92 439.958 890.92 440.018V440.612C890.92 440.648 890.932 440.672 890.956 440.684C890.98 440.696 891.004 440.684 891.028 440.648C891.292 440.312 891.616 440.066 892 439.91C892.396 439.742 892.834 439.658 893.314 439.658C893.902 439.658 894.418 439.778 894.862 440.018C895.306 440.258 895.648 440.606 895.888 441.062C895.924 441.11 895.966 441.11 896.014 441.062C896.278 440.582 896.644 440.228 897.112 440C897.58 439.772 898.102 439.658 898.678 439.658ZM911.55 442.178C911.766 442.79 911.874 443.54 911.874 444.428C911.874 445.28 911.772 446.012 911.568 446.624C911.304 447.416 910.878 448.034 910.29 448.478C909.714 448.922 908.982 449.144 908.094 449.144C907.242 449.144 906.558 448.838 906.042 448.226C906.018 448.202 905.994 448.196 905.97 448.208C905.946 448.22 905.934 448.244 905.934 448.28V452.186C905.934 452.246 905.91 452.294 905.862 452.33C905.826 452.378 905.778 452.402 905.718 452.402H904.062C904.002 452.402 903.948 452.378 903.9 452.33C903.864 452.294 903.846 452.246 903.846 452.186V440.018C903.846 439.958 903.864 439.91 903.9 439.874C903.948 439.826 904.002 439.802 904.062 439.802H905.718C905.778 439.802 905.826 439.826 905.862 439.874C905.91 439.91 905.934 439.958 905.934 440.018V440.558C905.934 440.594 905.946 440.618 905.97 440.63C905.994 440.642 906.018 440.63 906.042 440.594C906.57 439.97 907.26 439.658 908.112 439.658C908.964 439.658 909.684 439.88 910.272 440.324C910.86 440.768 911.286 441.386 911.55 442.178ZM909.21 446.588C909.57 446.036 909.75 445.304 909.75 444.392C909.75 443.516 909.606 442.826 909.318 442.322C908.982 441.734 908.472 441.44 907.788 441.44C907.164 441.44 906.696 441.728 906.384 442.304C906.108 442.772 905.97 443.468 905.97 444.392C905.97 445.34 906.12 446.06 906.42 446.552C906.732 447.08 907.182 447.344 907.77 447.344C908.406 447.344 908.886 447.092 909.21 446.588ZM918.686 439.784C918.746 439.784 918.794 439.808 918.83 439.856C918.878 439.892 918.902 439.94 918.902 440V441.422C918.902 441.482 918.878 441.536 918.83 441.584C918.794 441.62 918.746 441.638 918.686 441.638H916.904C916.844 441.638 916.814 441.668 916.814 441.728V448.784C916.814 448.844 916.79 448.898 916.742 448.946C916.706 448.982 916.658 449 916.598 449H914.942C914.882 449 914.828 448.982 914.78 448.946C914.744 448.898 914.726 448.844 914.726 448.784V441.728C914.726 441.668 914.696 441.638 914.636 441.638H913.52C913.46 441.638 913.406 441.62 913.358 441.584C913.322 441.536 913.304 441.482 913.304 441.422V440C913.304 439.94 913.322 439.892 913.358 439.856C913.406 439.808 913.46 439.784 913.52 439.784H914.636C914.696 439.784 914.726 439.754 914.726 439.694V439.37C914.726 438.59 914.828 437.99 915.032 437.57C915.236 437.138 915.572 436.832 916.04 436.652C916.508 436.472 917.168 436.388 918.02 436.4H918.65C918.71 436.4 918.758 436.424 918.794 436.472C918.842 436.508 918.866 436.556 918.866 436.616V437.876C918.866 437.936 918.842 437.99 918.794 438.038C918.758 438.074 918.71 438.092 918.65 438.092H918.182C917.666 438.092 917.306 438.194 917.102 438.398C916.91 438.602 916.814 438.974 916.814 439.514V439.694C916.814 439.754 916.844 439.784 916.904 439.784H918.686ZM923.982 439.658C924.738 439.658 925.404 439.79 925.98 440.054C926.556 440.318 927 440.684 927.312 441.152C927.624 441.608 927.78 442.13 927.78 442.718V448.784C927.78 448.844 927.756 448.898 927.708 448.946C927.672 448.982 927.624 449 927.564 449H925.908C925.848 449 925.794 448.982 925.746 448.946C925.71 448.898 925.692 448.844 925.692 448.784V448.208C925.692 448.172 925.68 448.154 925.656 448.154C925.632 448.142 925.608 448.148 925.584 448.172C924.996 448.82 924.144 449.144 923.028 449.144C922.128 449.144 921.384 448.916 920.796 448.46C920.22 448.004 919.932 447.326 919.932 446.426C919.932 445.49 920.256 444.764 920.904 444.248C921.564 443.72 922.488 443.456 923.676 443.456H925.602C925.662 443.456 925.692 443.426 925.692 443.366V442.934C925.692 442.466 925.554 442.106 925.278 441.854C925.002 441.59 924.588 441.458 924.036 441.458C923.58 441.458 923.208 441.542 922.92 441.71C922.644 441.866 922.47 442.088 922.398 442.376C922.362 442.52 922.278 442.58 922.146 442.556L920.4 442.34C920.34 442.328 920.286 442.31 920.238 442.286C920.202 442.25 920.19 442.208 920.202 442.16C920.298 441.428 920.688 440.828 921.372 440.36C922.068 439.892 922.938 439.658 923.982 439.658ZM923.55 447.488C924.138 447.488 924.642 447.332 925.062 447.02C925.482 446.708 925.692 446.312 925.692 445.832V444.986C925.692 444.926 925.662 444.896 925.602 444.896H924.09C923.454 444.896 922.95 445.016 922.578 445.256C922.218 445.496 922.038 445.838 922.038 446.282C922.038 446.666 922.176 446.966 922.452 447.182C922.74 447.386 923.106 447.488 923.55 447.488ZM925.764 438.452C925.392 438.452 925.086 438.332 924.846 438.092C924.606 437.852 924.486 437.546 924.486 437.174C924.486 436.802 924.606 436.496 924.846 436.256C925.086 436.016 925.392 435.896 925.764 435.896C926.136 435.896 926.436 436.016 926.664 436.256C926.904 436.496 927.024 436.802 927.024 437.174C927.024 437.546 926.904 437.852 926.664 438.092C926.424 438.332 926.124 438.452 925.764 438.452ZM922.344 438.452C921.972 438.452 921.666 438.332 921.426 438.092C921.186 437.852 921.066 437.546 921.066 437.174C921.066 436.802 921.186 436.496 921.426 436.256C921.666 436.016 921.972 435.896 922.344 435.896C922.716 435.896 923.016 436.016 923.244 436.256C923.484 436.496 923.604 436.802 923.604 437.174C923.604 437.546 923.484 437.852 923.244 438.092C923.004 438.332 922.704 438.452 922.344 438.452ZM934.287 439.658C935.259 439.658 936.033 439.946 936.609 440.522C937.197 441.098 937.491 441.884 937.491 442.88V448.784C937.491 448.844 937.467 448.898 937.419 448.946C937.383 448.982 937.335 449 937.275 449H935.619C935.559 449 935.505 448.982 935.457 448.946C935.421 448.898 935.403 448.844 935.403 448.784V443.312C935.403 442.76 935.247 442.316 934.935 441.98C934.623 441.632 934.209 441.458 933.693 441.458C933.177 441.458 932.757 441.626 932.433 441.962C932.121 442.298 931.965 442.742 931.965 443.294V448.784C931.965 448.844 931.941 448.898 931.893 448.946C931.857 448.982 931.809 449 931.749 449H930.093C930.033 449 929.979 448.982 929.931 448.946C929.895 448.898 929.877 448.844 929.877 448.784V440.018C929.877 439.958 929.895 439.91 929.931 439.874C929.979 439.826 930.033 439.802 930.093 439.802H931.749C931.809 439.802 931.857 439.826 931.893 439.874C931.941 439.91 931.965 439.958 931.965 440.018V440.594C931.965 440.63 931.977 440.654 932.001 440.666C932.025 440.678 932.043 440.666 932.055 440.63C932.547 439.982 933.291 439.658 934.287 439.658ZM945.302 440.018C945.302 439.958 945.32 439.91 945.356 439.874C945.404 439.826 945.458 439.802 945.518 439.802H947.174C947.234 439.802 947.282 439.826 947.318 439.874C947.366 439.91 947.39 439.958 947.39 440.018V448.388C947.39 449.888 946.958 450.956 946.094 451.592C945.242 452.24 944.12 452.564 942.728 452.564C942.356 452.564 941.99 452.546 941.63 452.51C941.498 452.498 941.432 452.42 941.432 452.276L941.486 450.8C941.486 450.668 941.57 450.602 941.738 450.602C942.086 450.638 942.398 450.656 942.674 450.656C943.574 450.656 944.234 450.476 944.654 450.116C945.086 449.768 945.302 449.174 945.302 448.334V448.19C945.302 448.154 945.29 448.136 945.266 448.136C945.242 448.124 945.218 448.13 945.194 448.154C944.702 448.682 944.006 448.946 943.106 448.946C942.326 448.946 941.612 448.748 940.964 448.352C940.316 447.956 939.866 447.35 939.614 446.534C939.458 445.97 939.38 445.244 939.38 444.356C939.38 443.36 939.476 442.598 939.668 442.07C939.908 441.338 940.322 440.756 940.91 440.324C941.498 439.88 942.188 439.658 942.98 439.658C943.928 439.658 944.666 439.934 945.194 440.486C945.218 440.522 945.242 440.534 945.266 440.522C945.29 440.51 945.302 440.486 945.302 440.45V440.018ZM945.176 445.94C945.224 445.76 945.254 445.568 945.266 445.364C945.29 445.148 945.302 444.806 945.302 444.338C945.302 443.882 945.29 443.558 945.266 443.366C945.254 443.162 945.218 442.964 945.158 442.772C945.062 442.376 944.864 442.058 944.564 441.818C944.276 441.578 943.904 441.458 943.448 441.458C943.016 441.458 942.65 441.578 942.35 441.818C942.05 442.058 941.834 442.376 941.702 442.772C941.558 443.108 941.486 443.636 941.486 444.356C941.486 445.1 941.546 445.622 941.666 445.922C941.786 446.306 942.002 446.624 942.314 446.876C942.638 447.116 943.022 447.236 943.466 447.236C943.934 447.236 944.312 447.116 944.6 446.876C944.888 446.636 945.08 446.324 945.176 445.94ZM957.305 443.366C957.353 443.666 957.377 444.002 957.377 444.374L957.359 444.932C957.359 445.076 957.287 445.148 957.143 445.148H951.509C951.449 445.148 951.419 445.178 951.419 445.238C951.455 445.634 951.509 445.904 951.581 446.048C951.869 446.912 952.571 447.35 953.687 447.362C954.503 447.362 955.151 447.026 955.631 446.354C955.679 446.282 955.739 446.246 955.811 446.246C955.859 446.246 955.901 446.264 955.937 446.3L957.053 447.218C957.161 447.302 957.179 447.398 957.107 447.506C956.735 448.034 956.237 448.442 955.613 448.73C955.001 449.018 954.317 449.162 953.561 449.162C952.625 449.162 951.827 448.952 951.167 448.532C950.519 448.112 950.045 447.524 949.745 446.768C949.469 446.12 949.331 445.22 949.331 444.068C949.331 443.372 949.403 442.808 949.547 442.376C949.787 441.536 950.237 440.876 950.897 440.396C951.569 439.904 952.373 439.658 953.309 439.658C955.673 439.658 957.005 440.894 957.305 443.366ZM953.309 441.458C952.865 441.458 952.493 441.572 952.193 441.8C951.905 442.016 951.701 442.322 951.581 442.718C951.509 442.922 951.461 443.186 951.437 443.51C951.413 443.57 951.437 443.6 951.509 443.6H955.163C955.223 443.6 955.253 443.57 955.253 443.51C955.229 443.21 955.193 442.982 955.145 442.826C955.037 442.394 954.821 442.058 954.497 441.818C954.185 441.578 953.789 441.458 953.309 441.458ZM963.569 439.694C963.953 439.694 964.289 439.772 964.577 439.928C964.673 439.976 964.709 440.066 964.685 440.198L964.379 441.818C964.367 441.962 964.283 442.004 964.127 441.944C963.947 441.884 963.737 441.854 963.497 441.854C963.341 441.854 963.221 441.86 963.137 441.872C962.633 441.896 962.213 442.076 961.877 442.412C961.541 442.736 961.373 443.162 961.373 443.69V448.784C961.373 448.844 961.349 448.898 961.301 448.946C961.265 448.982 961.217 449 961.157 449H959.501C959.441 449 959.387 448.982 959.339 448.946C959.303 448.898 959.285 448.844 959.285 448.784V440.018C959.285 439.958 959.303 439.91 959.339 439.874C959.387 439.826 959.441 439.802 959.501 439.802H961.157C961.217 439.802 961.265 439.826 961.301 439.874C961.349 439.91 961.373 439.958 961.373 440.018V440.828C961.373 440.876 961.379 440.906 961.391 440.918C961.415 440.918 961.439 440.9 961.463 440.864C961.967 440.084 962.669 439.694 963.569 439.694Z" fill="black"/>
<path d="M1043.06 443.061C1043.65 442.475 1043.65 441.525 1043.06 440.939L1033.51 431.393C1032.93 430.808 1031.98 430.808 1031.39 431.393C1030.81 431.979 1030.81 432.929 1031.39 433.515L1039.88 442L1031.39 450.485C1030.81 451.071 1030.81 452.021 1031.39 452.607C1031.98 453.192 1032.93 453.192 1033.51 452.607L1043.06 443.061ZM999 443.5H1042V440.5H999V443.5Z" fill="black"/>
<rect x="1047.5" y="404.5" width="154" height="75" fill="#EFEFEF" stroke="black"/>
<path d="M1082.68 449C1082.56 449 1082.49 448.94 1082.45 448.82L1078.67 436.652L1078.65 436.58C1078.65 436.46 1078.72 436.4 1078.85 436.4H1080.63C1080.76 436.4 1080.85 436.46 1080.88 436.58L1083.58 445.976C1083.6 446.012 1083.61 446.03 1083.64 446.03C1083.66 446.03 1083.68 446.012 1083.69 445.976L1086.37 436.58C1086.41 436.46 1086.49 436.4 1086.63 436.4H1088.37C1088.44 436.4 1088.5 436.424 1088.53 436.472C1088.57 436.52 1088.58 436.58 1088.55 436.652L1084.72 448.82C1084.68 448.94 1084.6 449 1084.48 449H1082.68ZM1096.95 443.366C1097 443.666 1097.02 444.002 1097.02 444.374L1097.01 444.932C1097.01 445.076 1096.93 445.148 1096.79 445.148H1091.16C1091.1 445.148 1091.07 445.178 1091.07 445.238C1091.1 445.634 1091.16 445.904 1091.23 446.048C1091.52 446.912 1092.22 447.35 1093.33 447.362C1094.15 447.362 1094.8 447.026 1095.28 446.354C1095.33 446.282 1095.39 446.246 1095.46 446.246C1095.51 446.246 1095.55 446.264 1095.58 446.3L1096.7 447.218C1096.81 447.302 1096.83 447.398 1096.75 447.506C1096.38 448.034 1095.88 448.442 1095.26 448.73C1094.65 449.018 1093.96 449.162 1093.21 449.162C1092.27 449.162 1091.47 448.952 1090.81 448.532C1090.17 448.112 1089.69 447.524 1089.39 446.768C1089.12 446.12 1088.98 445.22 1088.98 444.068C1088.98 443.372 1089.05 442.808 1089.19 442.376C1089.43 441.536 1089.88 440.876 1090.54 440.396C1091.22 439.904 1092.02 439.658 1092.96 439.658C1095.32 439.658 1096.65 440.894 1096.95 443.366ZM1092.96 441.458C1092.51 441.458 1092.14 441.572 1091.84 441.8C1091.55 442.016 1091.35 442.322 1091.23 442.718C1091.16 442.922 1091.11 443.186 1091.08 443.51C1091.06 443.57 1091.08 443.6 1091.16 443.6H1094.81C1094.87 443.6 1094.9 443.57 1094.9 443.51C1094.88 443.21 1094.84 442.982 1094.79 442.826C1094.68 442.394 1094.47 442.058 1094.14 441.818C1093.83 441.578 1093.44 441.458 1092.96 441.458ZM1103.22 439.694C1103.6 439.694 1103.94 439.772 1104.22 439.928C1104.32 439.976 1104.36 440.066 1104.33 440.198L1104.03 441.818C1104.01 441.962 1103.93 442.004 1103.77 441.944C1103.59 441.884 1103.38 441.854 1103.14 441.854C1102.99 441.854 1102.87 441.86 1102.78 441.872C1102.28 441.896 1101.86 442.076 1101.52 442.412C1101.19 442.736 1101.02 443.162 1101.02 443.69V448.784C1101.02 448.844 1101 448.898 1100.95 448.946C1100.91 448.982 1100.86 449 1100.8 449H1099.15C1099.09 449 1099.03 448.982 1098.99 448.946C1098.95 448.898 1098.93 448.844 1098.93 448.784V440.018C1098.93 439.958 1098.95 439.91 1098.99 439.874C1099.03 439.826 1099.09 439.802 1099.15 439.802H1100.8C1100.86 439.802 1100.91 439.826 1100.95 439.874C1101 439.91 1101.02 439.958 1101.02 440.018V440.828C1101.02 440.876 1101.03 440.906 1101.04 440.918C1101.06 440.918 1101.09 440.9 1101.11 440.864C1101.61 440.084 1102.32 439.694 1103.22 439.694ZM1108.18 449C1108.04 449 1107.96 448.94 1107.92 448.82L1105.35 440.036L1105.33 439.964C1105.33 439.844 1105.4 439.784 1105.53 439.784H1107.24C1107.37 439.784 1107.46 439.844 1107.49 439.964L1108.99 445.976C1109 446.012 1109.02 446.03 1109.04 446.03C1109.06 446.03 1109.08 446.012 1109.09 445.976L1110.66 439.964C1110.7 439.844 1110.78 439.784 1110.91 439.784H1112.41C1112.54 439.784 1112.62 439.844 1112.66 439.964L1114.26 445.976C1114.27 446.012 1114.29 446.03 1114.31 446.03C1114.34 446.03 1114.36 446.012 1114.37 445.976L1115.97 439.964C1116.01 439.844 1116.09 439.784 1116.22 439.784L1117.91 439.82C1117.99 439.82 1118.03 439.844 1118.06 439.892C1118.09 439.928 1118.11 439.982 1118.09 440.054L1115.5 448.82C1115.47 448.94 1115.39 449 1115.27 449H1113.54C1113.41 449 1113.32 448.94 1113.29 448.82L1111.7 443.33C1111.69 443.294 1111.67 443.276 1111.65 443.276C1111.63 443.276 1111.61 443.294 1111.6 443.33L1110.14 448.82C1110.1 448.94 1110.02 449 1109.89 449H1108.18ZM1126.96 443.366C1127.01 443.666 1127.03 444.002 1127.03 444.374L1127.01 444.932C1127.01 445.076 1126.94 445.148 1126.8 445.148H1121.16C1121.1 445.148 1121.07 445.178 1121.07 445.238C1121.11 445.634 1121.16 445.904 1121.23 446.048C1121.52 446.912 1122.22 447.35 1123.34 447.362C1124.16 447.362 1124.8 447.026 1125.28 446.354C1125.33 446.282 1125.39 446.246 1125.46 446.246C1125.51 446.246 1125.55 446.264 1125.59 446.3L1126.71 447.218C1126.81 447.302 1126.83 447.398 1126.76 447.506C1126.39 448.034 1125.89 448.442 1125.27 448.73C1124.65 449.018 1123.97 449.162 1123.21 449.162C1122.28 449.162 1121.48 448.952 1120.82 448.532C1120.17 448.112 1119.7 447.524 1119.4 446.768C1119.12 446.12 1118.98 445.22 1118.98 444.068C1118.98 443.372 1119.06 442.808 1119.2 442.376C1119.44 441.536 1119.89 440.876 1120.55 440.396C1121.22 439.904 1122.03 439.658 1122.96 439.658C1125.33 439.658 1126.66 440.894 1126.96 443.366ZM1122.96 441.458C1122.52 441.458 1122.15 441.572 1121.85 441.8C1121.56 442.016 1121.35 442.322 1121.23 442.718C1121.16 442.922 1121.11 443.186 1121.09 443.51C1121.07 443.57 1121.09 443.6 1121.16 443.6H1124.82C1124.88 443.6 1124.91 443.57 1124.91 443.51C1124.88 443.21 1124.85 442.982 1124.8 442.826C1124.69 442.394 1124.47 442.058 1124.15 441.818C1123.84 441.578 1123.44 441.458 1122.96 441.458ZM1133.22 439.694C1133.61 439.694 1133.94 439.772 1134.23 439.928C1134.33 439.976 1134.36 440.066 1134.34 440.198L1134.03 441.818C1134.02 441.962 1133.94 442.004 1133.78 441.944C1133.6 441.884 1133.39 441.854 1133.15 441.854C1132.99 441.854 1132.87 441.86 1132.79 441.872C1132.29 441.896 1131.87 442.076 1131.53 442.412C1131.19 442.736 1131.03 443.162 1131.03 443.69V448.784C1131.03 448.844 1131 448.898 1130.95 448.946C1130.92 448.982 1130.87 449 1130.81 449H1129.15C1129.09 449 1129.04 448.982 1128.99 448.946C1128.96 448.898 1128.94 448.844 1128.94 448.784V440.018C1128.94 439.958 1128.96 439.91 1128.99 439.874C1129.04 439.826 1129.09 439.802 1129.15 439.802H1130.81C1130.87 439.802 1130.92 439.826 1130.95 439.874C1131 439.91 1131.03 439.958 1131.03 440.018V440.828C1131.03 440.876 1131.03 440.906 1131.04 440.918C1131.07 440.918 1131.09 440.9 1131.12 440.864C1131.62 440.084 1132.32 439.694 1133.22 439.694ZM1140.74 441.278C1140.74 441.338 1140.72 441.392 1140.67 441.44C1140.63 441.476 1140.59 441.494 1140.53 441.494H1138.69C1138.63 441.494 1138.6 441.524 1138.6 441.584V445.922C1138.6 446.378 1138.7 446.708 1138.89 446.912C1139.09 447.116 1139.41 447.218 1139.84 447.218H1140.38C1140.44 447.218 1140.49 447.242 1140.53 447.29C1140.57 447.326 1140.6 447.374 1140.6 447.434V448.784C1140.6 448.916 1140.53 448.994 1140.38 449.018L1139.45 449.036C1138.5 449.036 1137.79 448.874 1137.32 448.55C1136.85 448.226 1136.61 447.614 1136.6 446.714V441.584C1136.6 441.524 1136.57 441.494 1136.51 441.494H1135.49C1135.43 441.494 1135.37 441.476 1135.32 441.44C1135.29 441.392 1135.27 441.338 1135.27 441.278V440.018C1135.27 439.958 1135.29 439.91 1135.32 439.874C1135.37 439.826 1135.43 439.802 1135.49 439.802H1136.51C1136.57 439.802 1136.6 439.772 1136.6 439.712V437.606C1136.6 437.546 1136.62 437.498 1136.66 437.462C1136.7 437.414 1136.76 437.39 1136.82 437.39H1138.38C1138.44 437.39 1138.49 437.414 1138.53 437.462C1138.58 437.498 1138.6 437.546 1138.6 437.606V439.712C1138.6 439.772 1138.63 439.802 1138.69 439.802H1140.53C1140.59 439.802 1140.63 439.826 1140.67 439.874C1140.72 439.91 1140.74 439.958 1140.74 440.018V441.278ZM1148.03 440.018C1148.03 439.958 1148.05 439.91 1148.09 439.874C1148.13 439.826 1148.19 439.802 1148.25 439.802H1149.89C1149.95 439.802 1149.99 439.826 1150.03 439.874C1150.08 439.91 1150.1 439.958 1150.1 440.018V448.784C1150.1 448.844 1150.08 448.898 1150.03 448.946C1149.99 448.982 1149.95 449 1149.89 449H1148.25C1148.19 449 1148.13 448.982 1148.09 448.946C1148.05 448.898 1148.03 448.844 1148.03 448.784V448.208C1148.03 448.172 1148.02 448.148 1148 448.136C1147.97 448.124 1147.95 448.136 1147.92 448.172C1147.43 448.808 1146.69 449.126 1145.71 449.126C1144.8 449.126 1144.03 448.862 1143.41 448.334C1142.79 447.806 1142.49 447.056 1142.49 446.084V440.018C1142.49 439.958 1142.51 439.91 1142.54 439.874C1142.59 439.826 1142.64 439.802 1142.7 439.802H1144.36C1144.42 439.802 1144.47 439.826 1144.5 439.874C1144.55 439.91 1144.58 439.958 1144.58 440.018V445.49C1144.58 446.054 1144.72 446.504 1145.01 446.84C1145.31 447.176 1145.72 447.344 1146.25 447.344C1146.79 447.344 1147.22 447.176 1147.55 446.84C1147.87 446.504 1148.03 446.054 1148.03 445.49V440.018ZM1156.74 439.658C1157.72 439.658 1158.49 439.946 1159.07 440.522C1159.65 441.098 1159.95 441.884 1159.95 442.88V448.784C1159.95 448.844 1159.92 448.898 1159.88 448.946C1159.84 448.982 1159.79 449 1159.73 449H1158.08C1158.02 449 1157.96 448.982 1157.91 448.946C1157.88 448.898 1157.86 448.844 1157.86 448.784V443.312C1157.86 442.76 1157.7 442.316 1157.39 441.98C1157.08 441.632 1156.67 441.458 1156.15 441.458C1155.63 441.458 1155.21 441.626 1154.89 441.962C1154.58 442.298 1154.42 442.742 1154.42 443.294V448.784C1154.42 448.844 1154.4 448.898 1154.35 448.946C1154.31 448.982 1154.27 449 1154.21 449H1152.55C1152.49 449 1152.44 448.982 1152.39 448.946C1152.35 448.898 1152.33 448.844 1152.33 448.784V440.018C1152.33 439.958 1152.35 439.91 1152.39 439.874C1152.44 439.826 1152.49 439.802 1152.55 439.802H1154.21C1154.27 439.802 1154.31 439.826 1154.35 439.874C1154.4 439.91 1154.42 439.958 1154.42 440.018V440.594C1154.42 440.63 1154.43 440.654 1154.46 440.666C1154.48 440.678 1154.5 440.666 1154.51 440.63C1155 439.982 1155.75 439.658 1156.74 439.658ZM1167.76 440.018C1167.76 439.958 1167.78 439.91 1167.81 439.874C1167.86 439.826 1167.92 439.802 1167.98 439.802H1169.63C1169.69 439.802 1169.74 439.826 1169.78 439.874C1169.82 439.91 1169.85 439.958 1169.85 440.018V448.388C1169.85 449.888 1169.42 450.956 1168.55 451.592C1167.7 452.24 1166.58 452.564 1165.19 452.564C1164.81 452.564 1164.45 452.546 1164.09 452.51C1163.96 452.498 1163.89 452.42 1163.89 452.276L1163.94 450.8C1163.94 450.668 1164.03 450.602 1164.2 450.602C1164.54 450.638 1164.86 450.656 1165.13 450.656C1166.03 450.656 1166.69 450.476 1167.11 450.116C1167.54 449.768 1167.76 449.174 1167.76 448.334V448.19C1167.76 448.154 1167.75 448.136 1167.72 448.136C1167.7 448.124 1167.68 448.13 1167.65 448.154C1167.16 448.682 1166.46 448.946 1165.56 448.946C1164.78 448.946 1164.07 448.748 1163.42 448.352C1162.77 447.956 1162.32 447.35 1162.07 446.534C1161.92 445.97 1161.84 445.244 1161.84 444.356C1161.84 443.36 1161.93 442.598 1162.13 442.07C1162.37 441.338 1162.78 440.756 1163.37 440.324C1163.96 439.88 1164.65 439.658 1165.44 439.658C1166.39 439.658 1167.12 439.934 1167.65 440.486C1167.68 440.522 1167.7 440.534 1167.72 440.522C1167.75 440.51 1167.76 440.486 1167.76 440.45V440.018ZM1167.63 445.94C1167.68 445.76 1167.71 445.568 1167.72 445.364C1167.75 445.148 1167.76 444.806 1167.76 444.338C1167.76 443.882 1167.75 443.558 1167.72 443.366C1167.71 443.162 1167.68 442.964 1167.62 442.772C1167.52 442.376 1167.32 442.058 1167.02 441.818C1166.73 441.578 1166.36 441.458 1165.91 441.458C1165.47 441.458 1165.11 441.578 1164.81 441.818C1164.51 442.058 1164.29 442.376 1164.16 442.772C1164.02 443.108 1163.94 443.636 1163.94 444.356C1163.94 445.1 1164 445.622 1164.12 445.922C1164.24 446.306 1164.46 446.624 1164.77 446.876C1165.1 447.116 1165.48 447.236 1165.92 447.236C1166.39 447.236 1166.77 447.116 1167.06 446.876C1167.35 446.636 1167.54 446.324 1167.63 445.94Z" fill="black"/>
<path d="M691.794 612.144C690.858 612.144 690.042 611.994 689.346 611.694C688.65 611.394 688.11 610.974 687.726 610.434C687.354 609.894 687.168 609.258 687.168 608.526V608.076C687.168 608.016 687.186 607.968 687.222 607.932C687.27 607.884 687.324 607.86 687.384 607.86H688.986C689.046 607.86 689.094 607.884 689.13 607.932C689.178 607.968 689.202 608.016 689.202 608.076V608.418C689.202 608.97 689.448 609.432 689.94 609.804C690.432 610.164 691.104 610.344 691.956 610.344C692.688 610.344 693.24 610.188 693.612 609.876C693.984 609.564 694.17 609.162 694.17 608.67C694.17 608.334 694.068 608.052 693.864 607.824C693.66 607.584 693.366 607.368 692.982 607.176C692.61 606.984 692.046 606.744 691.29 606.456C690.438 606.144 689.748 605.85 689.22 605.574C688.692 605.298 688.248 604.926 687.888 604.458C687.54 603.978 687.366 603.384 687.366 602.676C687.366 601.62 687.75 600.786 688.518 600.174C689.286 599.562 690.312 599.256 691.596 599.256C692.496 599.256 693.288 599.412 693.972 599.724C694.668 600.036 695.208 600.474 695.592 601.038C695.976 601.59 696.168 602.232 696.168 602.964V603.27C696.168 603.33 696.144 603.384 696.096 603.432C696.06 603.468 696.012 603.486 695.952 603.486H694.332C694.272 603.486 694.218 603.468 694.17 603.432C694.134 603.384 694.116 603.33 694.116 603.27V603.072C694.116 602.508 693.882 602.034 693.414 601.65C692.958 601.254 692.322 601.056 691.506 601.056C690.846 601.056 690.33 601.194 689.958 601.47C689.598 601.746 689.418 602.136 689.418 602.64C689.418 603 689.514 603.294 689.706 603.522C689.898 603.75 690.186 603.96 690.57 604.152C690.954 604.332 691.548 604.566 692.352 604.854C693.204 605.178 693.882 605.472 694.386 605.736C694.902 606 695.34 606.372 695.7 606.852C696.072 607.32 696.258 607.908 696.258 608.616C696.258 609.696 695.856 610.554 695.052 611.19C694.26 611.826 693.174 612.144 691.794 612.144ZM703.041 604.278C703.041 604.338 703.017 604.392 702.969 604.44C702.933 604.476 702.885 604.494 702.825 604.494H700.989C700.929 604.494 700.899 604.524 700.899 604.584V608.922C700.899 609.378 700.995 609.708 701.187 609.912C701.391 610.116 701.709 610.218 702.141 610.218H702.681C702.741 610.218 702.789 610.242 702.825 610.29C702.873 610.326 702.897 610.374 702.897 610.434V611.784C702.897 611.916 702.825 611.994 702.681 612.018L701.745 612.036C700.797 612.036 700.089 611.874 699.621 611.55C699.153 611.226 698.913 610.614 698.901 609.714V604.584C698.901 604.524 698.871 604.494 698.811 604.494H697.785C697.725 604.494 697.671 604.476 697.623 604.44C697.587 604.392 697.569 604.338 697.569 604.278V603.018C697.569 602.958 697.587 602.91 697.623 602.874C697.671 602.826 697.725 602.802 697.785 602.802H698.811C698.871 602.802 698.901 602.772 698.901 602.712V600.606C698.901 600.546 698.919 600.498 698.955 600.462C699.003 600.414 699.057 600.39 699.117 600.39H700.683C700.743 600.39 700.791 600.414 700.827 600.462C700.875 600.498 700.899 600.546 700.899 600.606V602.712C700.899 602.772 700.929 602.802 700.989 602.802H702.825C702.885 602.802 702.933 602.826 702.969 602.874C703.017 602.91 703.041 602.958 703.041 603.018V604.278ZM708.626 612.144C707.678 612.144 706.862 611.904 706.178 611.424C705.506 610.944 705.032 610.278 704.756 609.426C704.552 608.778 704.45 608.094 704.45 607.374C704.45 606.606 704.546 605.922 704.738 605.322C705.014 604.482 705.494 603.828 706.178 603.36C706.862 602.892 707.684 602.658 708.644 602.658C709.556 602.658 710.342 602.892 711.002 603.36C711.674 603.828 712.148 604.476 712.424 605.304C712.64 605.88 712.748 606.564 712.748 607.356C712.748 608.112 712.646 608.796 712.442 609.408C712.166 610.26 711.692 610.932 711.02 611.424C710.348 611.904 709.55 612.144 708.626 612.144ZM708.626 610.344C709.07 610.344 709.448 610.218 709.76 609.966C710.084 609.714 710.318 609.36 710.462 608.904C710.582 608.508 710.642 608.004 710.642 607.392C710.642 606.744 710.582 606.24 710.462 605.88C710.33 605.424 710.102 605.076 709.778 604.836C709.454 604.584 709.058 604.458 708.59 604.458C708.146 604.458 707.762 604.584 707.438 604.836C707.114 605.076 706.88 605.424 706.736 605.88C706.616 606.3 706.556 606.804 706.556 607.392C706.556 607.98 706.616 608.484 706.736 608.904C706.868 609.36 707.096 609.714 707.42 609.966C707.756 610.218 708.158 610.344 708.626 610.344ZM710.21 601.452C709.838 601.452 709.532 601.332 709.292 601.092C709.052 600.852 708.932 600.546 708.932 600.174C708.932 599.802 709.052 599.496 709.292 599.256C709.532 599.016 709.838 598.896 710.21 598.896C710.582 598.896 710.882 599.016 711.11 599.256C711.35 599.496 711.47 599.802 711.47 600.174C711.47 600.546 711.35 600.852 711.11 601.092C710.87 601.332 710.57 601.452 710.21 601.452ZM706.79 601.452C706.418 601.452 706.112 601.332 705.872 601.092C705.632 600.852 705.512 600.546 705.512 600.174C705.512 599.802 705.632 599.496 705.872 599.256C706.112 599.016 706.418 598.896 706.79 598.896C707.162 598.896 707.462 599.016 707.69 599.256C707.93 599.496 708.05 599.802 708.05 600.174C708.05 600.546 707.93 600.852 707.69 601.092C707.45 601.332 707.15 601.452 706.79 601.452ZM718.812 602.694C719.196 602.694 719.532 602.772 719.82 602.928C719.916 602.976 719.952 603.066 719.928 603.198L719.622 604.818C719.61 604.962 719.526 605.004 719.37 604.944C719.19 604.884 718.98 604.854 718.74 604.854C718.584 604.854 718.464 604.86 718.38 604.872C717.876 604.896 717.456 605.076 717.12 605.412C716.784 605.736 716.616 606.162 716.616 606.69V611.784C716.616 611.844 716.592 611.898 716.544 611.946C716.508 611.982 716.46 612 716.4 612H714.744C714.684 612 714.63 611.982 714.582 611.946C714.546 611.898 714.528 611.844 714.528 611.784V603.018C714.528 602.958 714.546 602.91 714.582 602.874C714.63 602.826 714.684 602.802 714.744 602.802H716.4C716.46 602.802 716.508 602.826 716.544 602.874C716.592 602.91 716.616 602.958 716.616 603.018V603.828C716.616 603.876 716.622 603.906 716.634 603.918C716.658 603.918 716.682 603.9 716.706 603.864C717.21 603.084 717.912 602.694 718.812 602.694ZM726.732 603.018C726.732 602.958 726.75 602.91 726.786 602.874C726.834 602.826 726.888 602.802 726.948 602.802H728.586C728.646 602.802 728.694 602.826 728.73 602.874C728.778 602.91 728.802 602.958 728.802 603.018V611.784C728.802 611.844 728.778 611.898 728.73 611.946C728.694 611.982 728.646 612 728.586 612H726.948C726.888 612 726.834 611.982 726.786 611.946C726.75 611.898 726.732 611.844 726.732 611.784V611.208C726.732 611.172 726.72 611.148 726.696 611.136C726.672 611.124 726.648 611.136 726.624 611.172C726.132 611.808 725.394 612.126 724.41 612.126C723.498 612.126 722.73 611.862 722.106 611.334C721.494 610.806 721.188 610.056 721.188 609.084V603.018C721.188 602.958 721.206 602.91 721.242 602.874C721.29 602.826 721.344 602.802 721.404 602.802H723.06C723.12 602.802 723.168 602.826 723.204 602.874C723.252 602.91 723.276 602.958 723.276 603.018V608.49C723.276 609.054 723.42 609.504 723.708 609.84C724.008 610.176 724.422 610.344 724.95 610.344C725.49 610.344 725.922 610.176 726.246 609.84C726.57 609.504 726.732 609.054 726.732 608.49V603.018ZM735.444 602.658C736.416 602.658 737.19 602.946 737.766 603.522C738.354 604.098 738.648 604.884 738.648 605.88V611.784C738.648 611.844 738.624 611.898 738.576 611.946C738.54 611.982 738.492 612 738.432 612H736.776C736.716 612 736.662 611.982 736.614 611.946C736.578 611.898 736.56 611.844 736.56 611.784V606.312C736.56 605.76 736.404 605.316 736.092 604.98C735.78 604.632 735.366 604.458 734.85 604.458C734.334 604.458 733.914 604.626 733.59 604.962C733.278 605.298 733.122 605.742 733.122 606.294V611.784C733.122 611.844 733.098 611.898 733.05 611.946C733.014 611.982 732.966 612 732.906 612H731.25C731.19 612 731.136 611.982 731.088 611.946C731.052 611.898 731.034 611.844 731.034 611.784V603.018C731.034 602.958 731.052 602.91 731.088 602.874C731.136 602.826 731.19 602.802 731.25 602.802H732.906C732.966 602.802 733.014 602.826 733.05 602.874C733.098 602.91 733.122 602.958 733.122 603.018V603.594C733.122 603.63 733.134 603.654 733.158 603.666C733.182 603.678 733.2 603.666 733.212 603.63C733.704 602.982 734.448 602.658 735.444 602.658ZM746.459 603.018C746.459 602.958 746.477 602.91 746.513 602.874C746.561 602.826 746.615 602.802 746.675 602.802H748.331C748.391 602.802 748.439 602.826 748.475 602.874C748.523 602.91 748.547 602.958 748.547 603.018V611.388C748.547 612.888 748.115 613.956 747.251 614.592C746.399 615.24 745.277 615.564 743.885 615.564C743.513 615.564 743.147 615.546 742.787 615.51C742.655 615.498 742.589 615.42 742.589 615.276L742.643 613.8C742.643 613.668 742.727 613.602 742.895 613.602C743.243 613.638 743.555 613.656 743.831 613.656C744.731 613.656 745.391 613.476 745.811 613.116C746.243 612.768 746.459 612.174 746.459 611.334V611.19C746.459 611.154 746.447 611.136 746.423 611.136C746.399 611.124 746.375 611.13 746.351 611.154C745.859 611.682 745.163 611.946 744.263 611.946C743.483 611.946 742.769 611.748 742.121 611.352C741.473 610.956 741.023 610.35 740.771 609.534C740.615 608.97 740.537 608.244 740.537 607.356C740.537 606.36 740.633 605.598 740.825 605.07C741.065 604.338 741.479 603.756 742.067 603.324C742.655 602.88 743.345 602.658 744.137 602.658C745.085 602.658 745.823 602.934 746.351 603.486C746.375 603.522 746.399 603.534 746.423 603.522C746.447 603.51 746.459 603.486 746.459 603.45V603.018ZM746.333 608.94C746.381 608.76 746.411 608.568 746.423 608.364C746.447 608.148 746.459 607.806 746.459 607.338C746.459 606.882 746.447 606.558 746.423 606.366C746.411 606.162 746.375 605.964 746.315 605.772C746.219 605.376 746.021 605.058 745.721 604.818C745.433 604.578 745.061 604.458 744.605 604.458C744.173 604.458 743.807 604.578 743.507 604.818C743.207 605.058 742.991 605.376 742.859 605.772C742.715 606.108 742.643 606.636 742.643 607.356C742.643 608.1 742.703 608.622 742.823 608.922C742.943 609.306 743.159 609.624 743.471 609.876C743.795 610.116 744.179 610.236 744.623 610.236C745.091 610.236 745.469 610.116 745.757 609.876C746.045 609.636 746.237 609.324 746.333 608.94Z" fill="white"/>
</svg>
