<svg width="1440" height="1024" viewBox="0 0 1440 1024" fill="none" xmlns="http://www.w3.org/2000/svg">
<rect x="436.5" y="456.5" width="228" height="111" fill="#EFEFEF" stroke="black"/>
<rect x="775.5" y="456.5" width="228" height="111" fill="#EFEFEF" stroke="black"/>
<path d="M451.382 484.144C450.446 484.144 449.63 483.994 448.934 483.694C448.238 483.394 447.698 482.974 447.314 482.434C446.942 481.894 446.756 481.258 446.756 480.526V480.076C446.756 480.016 446.774 479.968 446.81 479.932C446.858 479.884 446.912 479.86 446.972 479.86H448.574C448.634 479.86 448.682 479.884 448.718 479.932C448.766 479.968 448.79 480.016 448.79 480.076V480.418C448.79 480.97 449.036 481.432 449.528 481.804C450.02 482.164 450.692 482.344 451.544 482.344C452.276 482.344 452.828 482.188 453.2 481.876C453.572 481.564 453.758 481.162 453.758 480.67C453.758 480.334 453.656 480.052 453.452 479.824C453.248 479.584 452.954 479.368 452.57 479.176C452.198 478.984 451.634 478.744 450.878 478.456C450.026 478.144 449.336 477.85 448.808 477.574C448.28 477.298 447.836 476.926 447.476 476.458C447.128 475.978 446.954 475.384 446.954 474.676C446.954 473.62 447.338 472.786 448.106 472.174C448.874 471.562 449.9 471.256 451.184 471.256C452.084 471.256 452.876 471.412 453.56 471.724C454.256 472.036 454.796 472.474 455.18 473.038C455.564 473.59 455.756 474.232 455.756 474.964V475.27C455.756 475.33 455.732 475.384 455.684 475.432C455.648 475.468 455.6 475.486 455.54 475.486H453.92C453.86 475.486 453.806 475.468 453.758 475.432C453.722 475.384 453.704 475.33 453.704 475.27V475.072C453.704 474.508 453.47 474.034 453.002 473.65C452.546 473.254 451.91 473.056 451.094 473.056C450.434 473.056 449.918 473.194 449.546 473.47C449.186 473.746 449.006 474.136 449.006 474.64C449.006 475 449.102 475.294 449.294 475.522C449.486 475.75 449.774 475.96 450.158 476.152C450.542 476.332 451.136 476.566 451.94 476.854C452.792 477.178 453.47 477.472 453.974 477.736C454.49 478 454.928 478.372 455.288 478.852C455.66 479.32 455.846 479.908 455.846 480.616C455.846 481.696 455.444 482.554 454.64 483.19C453.848 483.826 452.762 484.144 451.382 484.144ZM465.509 478.366C465.557 478.666 465.581 479.002 465.581 479.374L465.563 479.932C465.563 480.076 465.491 480.148 465.347 480.148H459.713C459.653 480.148 459.623 480.178 459.623 480.238C459.659 480.634 459.713 480.904 459.785 481.048C460.073 481.912 460.775 482.35 461.891 482.362C462.707 482.362 463.355 482.026 463.835 481.354C463.883 481.282 463.943 481.246 464.015 481.246C464.063 481.246 464.105 481.264 464.141 481.3L465.257 482.218C465.365 482.302 465.383 482.398 465.311 482.506C464.939 483.034 464.441 483.442 463.817 483.73C463.205 484.018 462.521 484.162 461.765 484.162C460.829 484.162 460.031 483.952 459.371 483.532C458.723 483.112 458.249 482.524 457.949 481.768C457.673 481.12 457.535 480.22 457.535 479.068C457.535 478.372 457.607 477.808 457.751 477.376C457.991 476.536 458.441 475.876 459.101 475.396C459.773 474.904 460.577 474.658 461.513 474.658C463.877 474.658 465.209 475.894 465.509 478.366ZM461.513 476.458C461.069 476.458 460.697 476.572 460.397 476.8C460.109 477.016 459.905 477.322 459.785 477.718C459.713 477.922 459.665 478.186 459.641 478.51C459.617 478.57 459.641 478.6 459.713 478.6H463.367C463.427 478.6 463.457 478.57 463.457 478.51C463.433 478.21 463.397 477.982 463.349 477.826C463.241 477.394 463.025 477.058 462.701 476.818C462.389 476.578 461.993 476.458 461.513 476.458ZM471.899 474.658C472.871 474.658 473.645 474.946 474.221 475.522C474.809 476.098 475.103 476.884 475.103 477.88V483.784C475.103 483.844 475.079 483.898 475.031 483.946C474.995 483.982 474.947 484 474.887 484H473.231C473.171 484 473.117 483.982 473.069 483.946C473.033 483.898 473.015 483.844 473.015 483.784V478.312C473.015 477.76 472.859 477.316 472.547 476.98C472.235 476.632 471.821 476.458 471.305 476.458C470.789 476.458 470.369 476.626 470.045 476.962C469.733 477.298 469.577 477.742 469.577 478.294V483.784C469.577 483.844 469.553 483.898 469.505 483.946C469.469 483.982 469.421 484 469.361 484H467.705C467.645 484 467.591 483.982 467.543 483.946C467.507 483.898 467.489 483.844 467.489 483.784V475.018C467.489 474.958 467.507 474.91 467.543 474.874C467.591 474.826 467.645 474.802 467.705 474.802H469.361C469.421 474.802 469.469 474.826 469.505 474.874C469.553 474.91 469.577 474.958 469.577 475.018V475.594C469.577 475.63 469.589 475.654 469.613 475.666C469.637 475.678 469.655 475.666 469.667 475.63C470.159 474.982 470.903 474.658 471.899 474.658ZM482.916 471.616C482.916 471.556 482.934 471.508 482.97 471.472C483.018 471.424 483.072 471.4 483.132 471.4H484.788C484.848 471.4 484.896 471.424 484.932 471.472C484.98 471.508 485.004 471.556 485.004 471.616V483.784C485.004 483.844 484.98 483.898 484.932 483.946C484.896 483.982 484.848 484 484.788 484H483.132C483.072 484 483.018 483.982 482.97 483.946C482.934 483.898 482.916 483.844 482.916 483.784V483.244C482.916 483.208 482.904 483.184 482.88 483.172C482.856 483.16 482.832 483.172 482.808 483.208C482.28 483.832 481.59 484.144 480.738 484.144C479.886 484.144 479.166 483.922 478.578 483.478C477.99 483.034 477.564 482.416 477.3 481.624C477.084 480.952 476.976 480.202 476.976 479.374C476.976 478.522 477.078 477.79 477.282 477.178C477.546 476.386 477.972 475.768 478.56 475.324C479.148 474.88 479.886 474.658 480.774 474.658C481.602 474.658 482.28 474.958 482.808 475.558C482.832 475.582 482.856 475.594 482.88 475.594C482.904 475.582 482.916 475.558 482.916 475.522V471.616ZM482.484 481.48C482.76 480.988 482.898 480.292 482.898 479.392C482.898 478.456 482.748 477.742 482.448 477.25C482.124 476.722 481.668 476.458 481.08 476.458C480.468 476.458 479.988 476.71 479.64 477.214C479.28 477.742 479.1 478.474 479.1 479.41C479.1 480.25 479.244 480.94 479.532 481.48C479.868 482.056 480.378 482.344 481.062 482.344C481.674 482.344 482.148 482.056 482.484 481.48ZM495.022 478.366C495.07 478.666 495.094 479.002 495.094 479.374L495.076 479.932C495.076 480.076 495.004 480.148 494.86 480.148H489.226C489.166 480.148 489.136 480.178 489.136 480.238C489.172 480.634 489.226 480.904 489.298 481.048C489.586 481.912 490.288 482.35 491.404 482.362C492.22 482.362 492.868 482.026 493.348 481.354C493.396 481.282 493.456 481.246 493.528 481.246C493.576 481.246 493.618 481.264 493.654 481.3L494.77 482.218C494.878 482.302 494.896 482.398 494.824 482.506C494.452 483.034 493.954 483.442 493.33 483.73C492.718 484.018 492.034 484.162 491.278 484.162C490.342 484.162 489.544 483.952 488.884 483.532C488.236 483.112 487.762 482.524 487.462 481.768C487.186 481.12 487.048 480.22 487.048 479.068C487.048 478.372 487.12 477.808 487.264 477.376C487.504 476.536 487.954 475.876 488.614 475.396C489.286 474.904 490.09 474.658 491.026 474.658C493.39 474.658 494.722 475.894 495.022 478.366ZM491.026 476.458C490.582 476.458 490.21 476.572 489.91 476.8C489.622 477.016 489.418 477.322 489.298 477.718C489.226 477.922 489.178 478.186 489.154 478.51C489.13 478.57 489.154 478.6 489.226 478.6H492.88C492.94 478.6 492.97 478.57 492.97 478.51C492.946 478.21 492.91 477.982 492.862 477.826C492.754 477.394 492.538 477.058 492.214 476.818C491.902 476.578 491.506 476.458 491.026 476.458ZM501.287 474.694C501.671 474.694 502.007 474.772 502.295 474.928C502.391 474.976 502.427 475.066 502.403 475.198L502.097 476.818C502.085 476.962 502.001 477.004 501.845 476.944C501.665 476.884 501.455 476.854 501.215 476.854C501.059 476.854 500.939 476.86 500.855 476.872C500.351 476.896 499.931 477.076 499.595 477.412C499.259 477.736 499.091 478.162 499.091 478.69V483.784C499.091 483.844 499.067 483.898 499.019 483.946C498.983 483.982 498.935 484 498.875 484H497.219C497.159 484 497.105 483.982 497.057 483.946C497.021 483.898 497.003 483.844 497.003 483.784V475.018C497.003 474.958 497.021 474.91 497.057 474.874C497.105 474.826 497.159 474.802 497.219 474.802H498.875C498.935 474.802 498.983 474.826 499.019 474.874C499.067 474.91 499.091 474.958 499.091 475.018V475.828C499.091 475.876 499.097 475.906 499.109 475.918C499.133 475.918 499.157 475.9 499.181 475.864C499.685 475.084 500.387 474.694 501.287 474.694Z" fill="black"/>
<path d="M790.382 484.144C789.446 484.144 788.63 483.994 787.934 483.694C787.238 483.394 786.698 482.974 786.314 482.434C785.942 481.894 785.756 481.258 785.756 480.526V480.076C785.756 480.016 785.774 479.968 785.81 479.932C785.858 479.884 785.912 479.86 785.972 479.86H787.574C787.634 479.86 787.682 479.884 787.718 479.932C787.766 479.968 787.79 480.016 787.79 480.076V480.418C787.79 480.97 788.036 481.432 788.528 481.804C789.02 482.164 789.692 482.344 790.544 482.344C791.276 482.344 791.828 482.188 792.2 481.876C792.572 481.564 792.758 481.162 792.758 480.67C792.758 480.334 792.656 480.052 792.452 479.824C792.248 479.584 791.954 479.368 791.57 479.176C791.198 478.984 790.634 478.744 789.878 478.456C789.026 478.144 788.336 477.85 787.808 477.574C787.28 477.298 786.836 476.926 786.476 476.458C786.128 475.978 785.954 475.384 785.954 474.676C785.954 473.62 786.338 472.786 787.106 472.174C787.874 471.562 788.9 471.256 790.184 471.256C791.084 471.256 791.876 471.412 792.56 471.724C793.256 472.036 793.796 472.474 794.18 473.038C794.564 473.59 794.756 474.232 794.756 474.964V475.27C794.756 475.33 794.732 475.384 794.684 475.432C794.648 475.468 794.6 475.486 794.54 475.486H792.92C792.86 475.486 792.806 475.468 792.758 475.432C792.722 475.384 792.704 475.33 792.704 475.27V475.072C792.704 474.508 792.47 474.034 792.002 473.65C791.546 473.254 790.91 473.056 790.094 473.056C789.434 473.056 788.918 473.194 788.546 473.47C788.186 473.746 788.006 474.136 788.006 474.64C788.006 475 788.102 475.294 788.294 475.522C788.486 475.75 788.774 475.96 789.158 476.152C789.542 476.332 790.136 476.566 790.94 476.854C791.792 477.178 792.47 477.472 792.974 477.736C793.49 478 793.928 478.372 794.288 478.852C794.66 479.32 794.846 479.908 794.846 480.616C794.846 481.696 794.444 482.554 793.64 483.19C792.848 483.826 791.762 484.144 790.382 484.144ZM804.509 478.366C804.557 478.666 804.581 479.002 804.581 479.374L804.563 479.932C804.563 480.076 804.491 480.148 804.347 480.148H798.713C798.653 480.148 798.623 480.178 798.623 480.238C798.659 480.634 798.713 480.904 798.785 481.048C799.073 481.912 799.775 482.35 800.891 482.362C801.707 482.362 802.355 482.026 802.835 481.354C802.883 481.282 802.943 481.246 803.015 481.246C803.063 481.246 803.105 481.264 803.141 481.3L804.257 482.218C804.365 482.302 804.383 482.398 804.311 482.506C803.939 483.034 803.441 483.442 802.817 483.73C802.205 484.018 801.521 484.162 800.765 484.162C799.829 484.162 799.031 483.952 798.371 483.532C797.723 483.112 797.249 482.524 796.949 481.768C796.673 481.12 796.535 480.22 796.535 479.068C796.535 478.372 796.607 477.808 796.751 477.376C796.991 476.536 797.441 475.876 798.101 475.396C798.773 474.904 799.577 474.658 800.513 474.658C802.877 474.658 804.209 475.894 804.509 478.366ZM800.513 476.458C800.069 476.458 799.697 476.572 799.397 476.8C799.109 477.016 798.905 477.322 798.785 477.718C798.713 477.922 798.665 478.186 798.641 478.51C798.617 478.57 798.641 478.6 798.713 478.6H802.367C802.427 478.6 802.457 478.57 802.457 478.51C802.433 478.21 802.397 477.982 802.349 477.826C802.241 477.394 802.025 477.058 801.701 476.818C801.389 476.578 800.993 476.458 800.513 476.458ZM810.899 474.658C811.871 474.658 812.645 474.946 813.221 475.522C813.809 476.098 814.103 476.884 814.103 477.88V483.784C814.103 483.844 814.079 483.898 814.031 483.946C813.995 483.982 813.947 484 813.887 484H812.231C812.171 484 812.117 483.982 812.069 483.946C812.033 483.898 812.015 483.844 812.015 483.784V478.312C812.015 477.76 811.859 477.316 811.547 476.98C811.235 476.632 810.821 476.458 810.305 476.458C809.789 476.458 809.369 476.626 809.045 476.962C808.733 477.298 808.577 477.742 808.577 478.294V483.784C808.577 483.844 808.553 483.898 808.505 483.946C808.469 483.982 808.421 484 808.361 484H806.705C806.645 484 806.591 483.982 806.543 483.946C806.507 483.898 806.489 483.844 806.489 483.784V475.018C806.489 474.958 806.507 474.91 806.543 474.874C806.591 474.826 806.645 474.802 806.705 474.802H808.361C808.421 474.802 808.469 474.826 808.505 474.874C808.553 474.91 808.577 474.958 808.577 475.018V475.594C808.577 475.63 808.589 475.654 808.613 475.666C808.637 475.678 808.655 475.666 808.667 475.63C809.159 474.982 809.903 474.658 810.899 474.658ZM821.916 471.616C821.916 471.556 821.934 471.508 821.97 471.472C822.018 471.424 822.072 471.4 822.132 471.4H823.788C823.848 471.4 823.896 471.424 823.932 471.472C823.98 471.508 824.004 471.556 824.004 471.616V483.784C824.004 483.844 823.98 483.898 823.932 483.946C823.896 483.982 823.848 484 823.788 484H822.132C822.072 484 822.018 483.982 821.97 483.946C821.934 483.898 821.916 483.844 821.916 483.784V483.244C821.916 483.208 821.904 483.184 821.88 483.172C821.856 483.16 821.832 483.172 821.808 483.208C821.28 483.832 820.59 484.144 819.738 484.144C818.886 484.144 818.166 483.922 817.578 483.478C816.99 483.034 816.564 482.416 816.3 481.624C816.084 480.952 815.976 480.202 815.976 479.374C815.976 478.522 816.078 477.79 816.282 477.178C816.546 476.386 816.972 475.768 817.56 475.324C818.148 474.88 818.886 474.658 819.774 474.658C820.602 474.658 821.28 474.958 821.808 475.558C821.832 475.582 821.856 475.594 821.88 475.594C821.904 475.582 821.916 475.558 821.916 475.522V471.616ZM821.484 481.48C821.76 480.988 821.898 480.292 821.898 479.392C821.898 478.456 821.748 477.742 821.448 477.25C821.124 476.722 820.668 476.458 820.08 476.458C819.468 476.458 818.988 476.71 818.64 477.214C818.28 477.742 818.1 478.474 818.1 479.41C818.1 480.25 818.244 480.94 818.532 481.48C818.868 482.056 819.378 482.344 820.062 482.344C820.674 482.344 821.148 482.056 821.484 481.48ZM834.022 478.366C834.07 478.666 834.094 479.002 834.094 479.374L834.076 479.932C834.076 480.076 834.004 480.148 833.86 480.148H828.226C828.166 480.148 828.136 480.178 828.136 480.238C828.172 480.634 828.226 480.904 828.298 481.048C828.586 481.912 829.288 482.35 830.404 482.362C831.22 482.362 831.868 482.026 832.348 481.354C832.396 481.282 832.456 481.246 832.528 481.246C832.576 481.246 832.618 481.264 832.654 481.3L833.77 482.218C833.878 482.302 833.896 482.398 833.824 482.506C833.452 483.034 832.954 483.442 832.33 483.73C831.718 484.018 831.034 484.162 830.278 484.162C829.342 484.162 828.544 483.952 827.884 483.532C827.236 483.112 826.762 482.524 826.462 481.768C826.186 481.12 826.048 480.22 826.048 479.068C826.048 478.372 826.12 477.808 826.264 477.376C826.504 476.536 826.954 475.876 827.614 475.396C828.286 474.904 829.09 474.658 830.026 474.658C832.39 474.658 833.722 475.894 834.022 478.366ZM830.026 476.458C829.582 476.458 829.21 476.572 828.91 476.8C828.622 477.016 828.418 477.322 828.298 477.718C828.226 477.922 828.178 478.186 828.154 478.51C828.13 478.57 828.154 478.6 828.226 478.6H831.88C831.94 478.6 831.97 478.57 831.97 478.51C831.946 478.21 831.91 477.982 831.862 477.826C831.754 477.394 831.538 477.058 831.214 476.818C830.902 476.578 830.506 476.458 830.026 476.458ZM840.287 474.694C840.671 474.694 841.007 474.772 841.295 474.928C841.391 474.976 841.427 475.066 841.403 475.198L841.097 476.818C841.085 476.962 841.001 477.004 840.845 476.944C840.665 476.884 840.455 476.854 840.215 476.854C840.059 476.854 839.939 476.86 839.855 476.872C839.351 476.896 838.931 477.076 838.595 477.412C838.259 477.736 838.091 478.162 838.091 478.69V483.784C838.091 483.844 838.067 483.898 838.019 483.946C837.983 483.982 837.935 484 837.875 484H836.219C836.159 484 836.105 483.982 836.057 483.946C836.021 483.898 836.003 483.844 836.003 483.784V475.018C836.003 474.958 836.021 474.91 836.057 474.874C836.105 474.826 836.159 474.802 836.219 474.802H837.875C837.935 474.802 837.983 474.826 838.019 474.874C838.067 474.91 838.091 474.958 838.091 475.018V475.828C838.091 475.876 838.097 475.906 838.109 475.918C838.133 475.918 838.157 475.9 838.181 475.864C838.685 475.084 839.387 474.694 840.287 474.694Z" fill="black"/>
<path d="M576.846 542.984C576.846 543.044 576.822 543.098 576.774 543.146C576.738 543.182 576.69 543.2 576.63 543.2H570.492C570.432 543.2 570.402 543.23 570.402 543.29V546.656C570.402 546.716 570.432 546.746 570.492 546.746H574.614C574.674 546.746 574.722 546.77 574.758 546.818C574.806 546.854 574.83 546.902 574.83 546.962V548.33C574.83 548.39 574.806 548.444 574.758 548.492C574.722 548.528 574.674 548.546 574.614 548.546H570.492C570.432 548.546 570.402 548.576 570.402 548.636V552.11C570.402 552.17 570.432 552.2 570.492 552.2H576.63C576.69 552.2 576.738 552.224 576.774 552.272C576.822 552.308 576.846 552.356 576.846 552.416V553.784C576.846 553.844 576.822 553.898 576.774 553.946C576.738 553.982 576.69 554 576.63 554H568.53C568.47 554 568.416 553.982 568.368 553.946C568.332 553.898 568.314 553.844 568.314 553.784V541.616C568.314 541.556 568.332 541.508 568.368 541.472C568.416 541.424 568.47 541.4 568.53 541.4H576.63C576.69 541.4 576.738 541.424 576.774 541.472C576.822 541.508 576.846 541.556 576.846 541.616V542.984ZM588.614 544.658C589.538 544.658 590.258 544.94 590.774 545.504C591.302 546.056 591.566 546.83 591.566 547.826V553.784C591.566 553.844 591.542 553.898 591.494 553.946C591.458 553.982 591.41 554 591.35 554H589.712C589.652 554 589.598 553.982 589.55 553.946C589.514 553.898 589.496 553.844 589.496 553.784V548.258C589.496 547.706 589.346 547.268 589.046 546.944C588.758 546.62 588.368 546.458 587.876 546.458C587.384 546.458 586.982 546.62 586.67 546.944C586.358 547.268 586.202 547.7 586.202 548.24V553.784C586.202 553.844 586.178 553.898 586.13 553.946C586.094 553.982 586.046 554 585.986 554H584.348C584.288 554 584.234 553.982 584.186 553.946C584.15 553.898 584.132 553.844 584.132 553.784V548.258C584.132 547.706 583.982 547.268 583.682 546.944C583.382 546.62 582.986 546.458 582.494 546.458C582.038 546.458 581.66 546.59 581.36 546.854C581.072 547.118 580.904 547.478 580.856 547.934V553.784C580.856 553.844 580.832 553.898 580.784 553.946C580.748 553.982 580.7 554 580.64 554H578.984C578.924 554 578.87 553.982 578.822 553.946C578.786 553.898 578.768 553.844 578.768 553.784V545.018C578.768 544.958 578.786 544.91 578.822 544.874C578.87 544.826 578.924 544.802 578.984 544.802H580.64C580.7 544.802 580.748 544.826 580.784 544.874C580.832 544.91 580.856 544.958 580.856 545.018V545.612C580.856 545.648 580.868 545.672 580.892 545.684C580.916 545.696 580.94 545.684 580.964 545.648C581.228 545.312 581.552 545.066 581.936 544.91C582.332 544.742 582.77 544.658 583.25 544.658C583.838 544.658 584.354 544.778 584.798 545.018C585.242 545.258 585.584 545.606 585.824 546.062C585.86 546.11 585.902 546.11 585.95 546.062C586.214 545.582 586.58 545.228 587.048 545C587.516 544.772 588.038 544.658 588.614 544.658ZM601.486 547.178C601.702 547.79 601.81 548.54 601.81 549.428C601.81 550.28 601.708 551.012 601.504 551.624C601.24 552.416 600.814 553.034 600.226 553.478C599.65 553.922 598.918 554.144 598.03 554.144C597.178 554.144 596.494 553.838 595.978 553.226C595.954 553.202 595.93 553.196 595.906 553.208C595.882 553.22 595.87 553.244 595.87 553.28V557.186C595.87 557.246 595.846 557.294 595.798 557.33C595.762 557.378 595.714 557.402 595.654 557.402H593.998C593.938 557.402 593.884 557.378 593.836 557.33C593.8 557.294 593.782 557.246 593.782 557.186V545.018C593.782 544.958 593.8 544.91 593.836 544.874C593.884 544.826 593.938 544.802 593.998 544.802H595.654C595.714 544.802 595.762 544.826 595.798 544.874C595.846 544.91 595.87 544.958 595.87 545.018V545.558C595.87 545.594 595.882 545.618 595.906 545.63C595.93 545.642 595.954 545.63 595.978 545.594C596.506 544.97 597.196 544.658 598.048 544.658C598.9 544.658 599.62 544.88 600.208 545.324C600.796 545.768 601.222 546.386 601.486 547.178ZM599.146 551.588C599.506 551.036 599.686 550.304 599.686 549.392C599.686 548.516 599.542 547.826 599.254 547.322C598.918 546.734 598.408 546.44 597.724 546.44C597.1 546.44 596.632 546.728 596.32 547.304C596.044 547.772 595.906 548.468 595.906 549.392C595.906 550.34 596.056 551.06 596.356 551.552C596.668 552.08 597.118 552.344 597.706 552.344C598.342 552.344 598.822 552.092 599.146 551.588ZM608.623 544.784C608.683 544.784 608.731 544.808 608.767 544.856C608.815 544.892 608.839 544.94 608.839 545V546.422C608.839 546.482 608.815 546.536 608.767 546.584C608.731 546.62 608.683 546.638 608.623 546.638H606.841C606.781 546.638 606.751 546.668 606.751 546.728V553.784C606.751 553.844 606.727 553.898 606.679 553.946C606.643 553.982 606.595 554 606.535 554H604.879C604.819 554 604.765 553.982 604.717 553.946C604.681 553.898 604.663 553.844 604.663 553.784V546.728C604.663 546.668 604.633 546.638 604.573 546.638H603.457C603.397 546.638 603.343 546.62 603.295 546.584C603.259 546.536 603.241 546.482 603.241 546.422V545C603.241 544.94 603.259 544.892 603.295 544.856C603.343 544.808 603.397 544.784 603.457 544.784H604.573C604.633 544.784 604.663 544.754 604.663 544.694V544.37C604.663 543.59 604.765 542.99 604.969 542.57C605.173 542.138 605.509 541.832 605.977 541.652C606.445 541.472 607.105 541.388 607.957 541.4H608.587C608.647 541.4 608.695 541.424 608.731 541.472C608.779 541.508 608.803 541.556 608.803 541.616V542.876C608.803 542.936 608.779 542.99 608.731 543.038C608.695 543.074 608.647 543.092 608.587 543.092H608.119C607.603 543.092 607.243 543.194 607.039 543.398C606.847 543.602 606.751 543.974 606.751 544.514V544.694C606.751 544.754 606.781 544.784 606.841 544.784H608.623ZM613.919 544.658C614.675 544.658 615.341 544.79 615.917 545.054C616.493 545.318 616.937 545.684 617.249 546.152C617.561 546.608 617.717 547.13 617.717 547.718V553.784C617.717 553.844 617.693 553.898 617.645 553.946C617.609 553.982 617.561 554 617.501 554H615.845C615.785 554 615.731 553.982 615.683 553.946C615.647 553.898 615.629 553.844 615.629 553.784V553.208C615.629 553.172 615.617 553.154 615.593 553.154C615.569 553.142 615.545 553.148 615.521 553.172C614.933 553.82 614.081 554.144 612.965 554.144C612.065 554.144 611.321 553.916 610.733 553.46C610.157 553.004 609.869 552.326 609.869 551.426C609.869 550.49 610.193 549.764 610.841 549.248C611.501 548.72 612.425 548.456 613.613 548.456H615.539C615.599 548.456 615.629 548.426 615.629 548.366V547.934C615.629 547.466 615.491 547.106 615.215 546.854C614.939 546.59 614.525 546.458 613.973 546.458C613.517 546.458 613.145 546.542 612.857 546.71C612.581 546.866 612.407 547.088 612.335 547.376C612.299 547.52 612.215 547.58 612.083 547.556L610.337 547.34C610.277 547.328 610.223 547.31 610.175 547.286C610.139 547.25 610.127 547.208 610.139 547.16C610.235 546.428 610.625 545.828 611.309 545.36C612.005 544.892 612.875 544.658 613.919 544.658ZM613.487 552.488C614.075 552.488 614.579 552.332 614.999 552.02C615.419 551.708 615.629 551.312 615.629 550.832V549.986C615.629 549.926 615.599 549.896 615.539 549.896H614.027C613.391 549.896 612.887 550.016 612.515 550.256C612.155 550.496 611.975 550.838 611.975 551.282C611.975 551.666 612.113 551.966 612.389 552.182C612.677 552.386 613.043 552.488 613.487 552.488ZM615.701 543.452C615.329 543.452 615.023 543.332 614.783 543.092C614.543 542.852 614.423 542.546 614.423 542.174C614.423 541.802 614.543 541.496 614.783 541.256C615.023 541.016 615.329 540.896 615.701 540.896C616.073 540.896 616.373 541.016 616.601 541.256C616.841 541.496 616.961 541.802 616.961 542.174C616.961 542.546 616.841 542.852 616.601 543.092C616.361 543.332 616.061 543.452 615.701 543.452ZM612.281 543.452C611.909 543.452 611.603 543.332 611.363 543.092C611.123 542.852 611.003 542.546 611.003 542.174C611.003 541.802 611.123 541.496 611.363 541.256C611.603 541.016 611.909 540.896 612.281 540.896C612.653 540.896 612.953 541.016 613.181 541.256C613.421 541.496 613.541 541.802 613.541 542.174C613.541 542.546 613.421 542.852 613.181 543.092C612.941 543.332 612.641 543.452 612.281 543.452ZM624.223 544.658C625.195 544.658 625.969 544.946 626.545 545.522C627.133 546.098 627.427 546.884 627.427 547.88V553.784C627.427 553.844 627.403 553.898 627.355 553.946C627.319 553.982 627.271 554 627.211 554H625.555C625.495 554 625.441 553.982 625.393 553.946C625.357 553.898 625.339 553.844 625.339 553.784V548.312C625.339 547.76 625.183 547.316 624.871 546.98C624.559 546.632 624.145 546.458 623.629 546.458C623.113 546.458 622.693 546.626 622.369 546.962C622.057 547.298 621.901 547.742 621.901 548.294V553.784C621.901 553.844 621.877 553.898 621.829 553.946C621.793 553.982 621.745 554 621.685 554H620.029C619.969 554 619.915 553.982 619.867 553.946C619.831 553.898 619.813 553.844 619.813 553.784V545.018C619.813 544.958 619.831 544.91 619.867 544.874C619.915 544.826 619.969 544.802 620.029 544.802H621.685C621.745 544.802 621.793 544.826 621.829 544.874C621.877 544.91 621.901 544.958 621.901 545.018V545.594C621.901 545.63 621.913 545.654 621.937 545.666C621.961 545.678 621.979 545.666 621.991 545.63C622.483 544.982 623.227 544.658 624.223 544.658ZM635.238 545.018C635.238 544.958 635.256 544.91 635.292 544.874C635.34 544.826 635.394 544.802 635.454 544.802H637.11C637.17 544.802 637.218 544.826 637.254 544.874C637.302 544.91 637.326 544.958 637.326 545.018V553.388C637.326 554.888 636.894 555.956 636.03 556.592C635.178 557.24 634.056 557.564 632.664 557.564C632.292 557.564 631.926 557.546 631.566 557.51C631.434 557.498 631.368 557.42 631.368 557.276L631.422 555.8C631.422 555.668 631.506 555.602 631.674 555.602C632.022 555.638 632.334 555.656 632.61 555.656C633.51 555.656 634.17 555.476 634.59 555.116C635.022 554.768 635.238 554.174 635.238 553.334V553.19C635.238 553.154 635.226 553.136 635.202 553.136C635.178 553.124 635.154 553.13 635.13 553.154C634.638 553.682 633.942 553.946 633.042 553.946C632.262 553.946 631.548 553.748 630.9 553.352C630.252 552.956 629.802 552.35 629.55 551.534C629.394 550.97 629.316 550.244 629.316 549.356C629.316 548.36 629.412 547.598 629.604 547.07C629.844 546.338 630.258 545.756 630.846 545.324C631.434 544.88 632.124 544.658 632.916 544.658C633.864 544.658 634.602 544.934 635.13 545.486C635.154 545.522 635.178 545.534 635.202 545.522C635.226 545.51 635.238 545.486 635.238 545.45V545.018ZM635.112 550.94C635.16 550.76 635.19 550.568 635.202 550.364C635.226 550.148 635.238 549.806 635.238 549.338C635.238 548.882 635.226 548.558 635.202 548.366C635.19 548.162 635.154 547.964 635.094 547.772C634.998 547.376 634.8 547.058 634.5 546.818C634.212 546.578 633.84 546.458 633.384 546.458C632.952 546.458 632.586 546.578 632.286 546.818C631.986 547.058 631.77 547.376 631.638 547.772C631.494 548.108 631.422 548.636 631.422 549.356C631.422 550.1 631.482 550.622 631.602 550.922C631.722 551.306 631.938 551.624 632.25 551.876C632.574 552.116 632.958 552.236 633.402 552.236C633.87 552.236 634.248 552.116 634.536 551.876C634.824 551.636 635.016 551.324 635.112 550.94ZM647.241 548.366C647.289 548.666 647.313 549.002 647.313 549.374L647.295 549.932C647.295 550.076 647.223 550.148 647.079 550.148H641.445C641.385 550.148 641.355 550.178 641.355 550.238C641.391 550.634 641.445 550.904 641.517 551.048C641.805 551.912 642.507 552.35 643.623 552.362C644.439 552.362 645.087 552.026 645.567 551.354C645.615 551.282 645.675 551.246 645.747 551.246C645.795 551.246 645.837 551.264 645.873 551.3L646.989 552.218C647.097 552.302 647.115 552.398 647.043 552.506C646.671 553.034 646.173 553.442 645.549 553.73C644.937 554.018 644.253 554.162 643.497 554.162C642.561 554.162 641.763 553.952 641.103 553.532C640.455 553.112 639.981 552.524 639.681 551.768C639.405 551.12 639.267 550.22 639.267 549.068C639.267 548.372 639.339 547.808 639.483 547.376C639.723 546.536 640.173 545.876 640.833 545.396C641.505 544.904 642.309 544.658 643.245 544.658C645.609 544.658 646.941 545.894 647.241 548.366ZM643.245 546.458C642.801 546.458 642.429 546.572 642.129 546.8C641.841 547.016 641.637 547.322 641.517 547.718C641.445 547.922 641.397 548.186 641.373 548.51C641.349 548.57 641.373 548.6 641.445 548.6H645.099C645.159 548.6 645.189 548.57 645.189 548.51C645.165 548.21 645.129 547.982 645.081 547.826C644.973 547.394 644.757 547.058 644.433 546.818C644.121 546.578 643.725 546.458 643.245 546.458ZM653.505 544.694C653.889 544.694 654.225 544.772 654.513 544.928C654.609 544.976 654.645 545.066 654.621 545.198L654.315 546.818C654.303 546.962 654.219 547.004 654.063 546.944C653.883 546.884 653.673 546.854 653.433 546.854C653.277 546.854 653.157 546.86 653.073 546.872C652.569 546.896 652.149 547.076 651.813 547.412C651.477 547.736 651.309 548.162 651.309 548.69V553.784C651.309 553.844 651.285 553.898 651.237 553.946C651.201 553.982 651.153 554 651.093 554H649.437C649.377 554 649.323 553.982 649.275 553.946C649.239 553.898 649.221 553.844 649.221 553.784V545.018C649.221 544.958 649.239 544.91 649.275 544.874C649.323 544.826 649.377 544.802 649.437 544.802H651.093C651.153 544.802 651.201 544.826 651.237 544.874C651.285 544.91 651.309 544.958 651.309 545.018V545.828C651.309 545.876 651.315 545.906 651.327 545.918C651.351 545.918 651.375 545.9 651.399 545.864C651.903 545.084 652.605 544.694 653.505 544.694Z" fill="black"/>
<path d="M915.846 542.984C915.846 543.044 915.822 543.098 915.774 543.146C915.738 543.182 915.69 543.2 915.63 543.2H909.492C909.432 543.2 909.402 543.23 909.402 543.29V546.656C909.402 546.716 909.432 546.746 909.492 546.746H913.614C913.674 546.746 913.722 546.77 913.758 546.818C913.806 546.854 913.83 546.902 913.83 546.962V548.33C913.83 548.39 913.806 548.444 913.758 548.492C913.722 548.528 913.674 548.546 913.614 548.546H909.492C909.432 548.546 909.402 548.576 909.402 548.636V552.11C909.402 552.17 909.432 552.2 909.492 552.2H915.63C915.69 552.2 915.738 552.224 915.774 552.272C915.822 552.308 915.846 552.356 915.846 552.416V553.784C915.846 553.844 915.822 553.898 915.774 553.946C915.738 553.982 915.69 554 915.63 554H907.53C907.47 554 907.416 553.982 907.368 553.946C907.332 553.898 907.314 553.844 907.314 553.784V541.616C907.314 541.556 907.332 541.508 907.368 541.472C907.416 541.424 907.47 541.4 907.53 541.4H915.63C915.69 541.4 915.738 541.424 915.774 541.472C915.822 541.508 915.846 541.556 915.846 541.616V542.984ZM927.614 544.658C928.538 544.658 929.258 544.94 929.774 545.504C930.302 546.056 930.566 546.83 930.566 547.826V553.784C930.566 553.844 930.542 553.898 930.494 553.946C930.458 553.982 930.41 554 930.35 554H928.712C928.652 554 928.598 553.982 928.55 553.946C928.514 553.898 928.496 553.844 928.496 553.784V548.258C928.496 547.706 928.346 547.268 928.046 546.944C927.758 546.62 927.368 546.458 926.876 546.458C926.384 546.458 925.982 546.62 925.67 546.944C925.358 547.268 925.202 547.7 925.202 548.24V553.784C925.202 553.844 925.178 553.898 925.13 553.946C925.094 553.982 925.046 554 924.986 554H923.348C923.288 554 923.234 553.982 923.186 553.946C923.15 553.898 923.132 553.844 923.132 553.784V548.258C923.132 547.706 922.982 547.268 922.682 546.944C922.382 546.62 921.986 546.458 921.494 546.458C921.038 546.458 920.66 546.59 920.36 546.854C920.072 547.118 919.904 547.478 919.856 547.934V553.784C919.856 553.844 919.832 553.898 919.784 553.946C919.748 553.982 919.7 554 919.64 554H917.984C917.924 554 917.87 553.982 917.822 553.946C917.786 553.898 917.768 553.844 917.768 553.784V545.018C917.768 544.958 917.786 544.91 917.822 544.874C917.87 544.826 917.924 544.802 917.984 544.802H919.64C919.7 544.802 919.748 544.826 919.784 544.874C919.832 544.91 919.856 544.958 919.856 545.018V545.612C919.856 545.648 919.868 545.672 919.892 545.684C919.916 545.696 919.94 545.684 919.964 545.648C920.228 545.312 920.552 545.066 920.936 544.91C921.332 544.742 921.77 544.658 922.25 544.658C922.838 544.658 923.354 544.778 923.798 545.018C924.242 545.258 924.584 545.606 924.824 546.062C924.86 546.11 924.902 546.11 924.95 546.062C925.214 545.582 925.58 545.228 926.048 545C926.516 544.772 927.038 544.658 927.614 544.658ZM940.486 547.178C940.702 547.79 940.81 548.54 940.81 549.428C940.81 550.28 940.708 551.012 940.504 551.624C940.24 552.416 939.814 553.034 939.226 553.478C938.65 553.922 937.918 554.144 937.03 554.144C936.178 554.144 935.494 553.838 934.978 553.226C934.954 553.202 934.93 553.196 934.906 553.208C934.882 553.22 934.87 553.244 934.87 553.28V557.186C934.87 557.246 934.846 557.294 934.798 557.33C934.762 557.378 934.714 557.402 934.654 557.402H932.998C932.938 557.402 932.884 557.378 932.836 557.33C932.8 557.294 932.782 557.246 932.782 557.186V545.018C932.782 544.958 932.8 544.91 932.836 544.874C932.884 544.826 932.938 544.802 932.998 544.802H934.654C934.714 544.802 934.762 544.826 934.798 544.874C934.846 544.91 934.87 544.958 934.87 545.018V545.558C934.87 545.594 934.882 545.618 934.906 545.63C934.93 545.642 934.954 545.63 934.978 545.594C935.506 544.97 936.196 544.658 937.048 544.658C937.9 544.658 938.62 544.88 939.208 545.324C939.796 545.768 940.222 546.386 940.486 547.178ZM938.146 551.588C938.506 551.036 938.686 550.304 938.686 549.392C938.686 548.516 938.542 547.826 938.254 547.322C937.918 546.734 937.408 546.44 936.724 546.44C936.1 546.44 935.632 546.728 935.32 547.304C935.044 547.772 934.906 548.468 934.906 549.392C934.906 550.34 935.056 551.06 935.356 551.552C935.668 552.08 936.118 552.344 936.706 552.344C937.342 552.344 937.822 552.092 938.146 551.588ZM947.623 544.784C947.683 544.784 947.731 544.808 947.767 544.856C947.815 544.892 947.839 544.94 947.839 545V546.422C947.839 546.482 947.815 546.536 947.767 546.584C947.731 546.62 947.683 546.638 947.623 546.638H945.841C945.781 546.638 945.751 546.668 945.751 546.728V553.784C945.751 553.844 945.727 553.898 945.679 553.946C945.643 553.982 945.595 554 945.535 554H943.879C943.819 554 943.765 553.982 943.717 553.946C943.681 553.898 943.663 553.844 943.663 553.784V546.728C943.663 546.668 943.633 546.638 943.573 546.638H942.457C942.397 546.638 942.343 546.62 942.295 546.584C942.259 546.536 942.241 546.482 942.241 546.422V545C942.241 544.94 942.259 544.892 942.295 544.856C942.343 544.808 942.397 544.784 942.457 544.784H943.573C943.633 544.784 943.663 544.754 943.663 544.694V544.37C943.663 543.59 943.765 542.99 943.969 542.57C944.173 542.138 944.509 541.832 944.977 541.652C945.445 541.472 946.105 541.388 946.957 541.4H947.587C947.647 541.4 947.695 541.424 947.731 541.472C947.779 541.508 947.803 541.556 947.803 541.616V542.876C947.803 542.936 947.779 542.99 947.731 543.038C947.695 543.074 947.647 543.092 947.587 543.092H947.119C946.603 543.092 946.243 543.194 946.039 543.398C945.847 543.602 945.751 543.974 945.751 544.514V544.694C945.751 544.754 945.781 544.784 945.841 544.784H947.623ZM952.919 544.658C953.675 544.658 954.341 544.79 954.917 545.054C955.493 545.318 955.937 545.684 956.249 546.152C956.561 546.608 956.717 547.13 956.717 547.718V553.784C956.717 553.844 956.693 553.898 956.645 553.946C956.609 553.982 956.561 554 956.501 554H954.845C954.785 554 954.731 553.982 954.683 553.946C954.647 553.898 954.629 553.844 954.629 553.784V553.208C954.629 553.172 954.617 553.154 954.593 553.154C954.569 553.142 954.545 553.148 954.521 553.172C953.933 553.82 953.081 554.144 951.965 554.144C951.065 554.144 950.321 553.916 949.733 553.46C949.157 553.004 948.869 552.326 948.869 551.426C948.869 550.49 949.193 549.764 949.841 549.248C950.501 548.72 951.425 548.456 952.613 548.456H954.539C954.599 548.456 954.629 548.426 954.629 548.366V547.934C954.629 547.466 954.491 547.106 954.215 546.854C953.939 546.59 953.525 546.458 952.973 546.458C952.517 546.458 952.145 546.542 951.857 546.71C951.581 546.866 951.407 547.088 951.335 547.376C951.299 547.52 951.215 547.58 951.083 547.556L949.337 547.34C949.277 547.328 949.223 547.31 949.175 547.286C949.139 547.25 949.127 547.208 949.139 547.16C949.235 546.428 949.625 545.828 950.309 545.36C951.005 544.892 951.875 544.658 952.919 544.658ZM952.487 552.488C953.075 552.488 953.579 552.332 953.999 552.02C954.419 551.708 954.629 551.312 954.629 550.832V549.986C954.629 549.926 954.599 549.896 954.539 549.896H953.027C952.391 549.896 951.887 550.016 951.515 550.256C951.155 550.496 950.975 550.838 950.975 551.282C950.975 551.666 951.113 551.966 951.389 552.182C951.677 552.386 952.043 552.488 952.487 552.488ZM954.701 543.452C954.329 543.452 954.023 543.332 953.783 543.092C953.543 542.852 953.423 542.546 953.423 542.174C953.423 541.802 953.543 541.496 953.783 541.256C954.023 541.016 954.329 540.896 954.701 540.896C955.073 540.896 955.373 541.016 955.601 541.256C955.841 541.496 955.961 541.802 955.961 542.174C955.961 542.546 955.841 542.852 955.601 543.092C955.361 543.332 955.061 543.452 954.701 543.452ZM951.281 543.452C950.909 543.452 950.603 543.332 950.363 543.092C950.123 542.852 950.003 542.546 950.003 542.174C950.003 541.802 950.123 541.496 950.363 541.256C950.603 541.016 950.909 540.896 951.281 540.896C951.653 540.896 951.953 541.016 952.181 541.256C952.421 541.496 952.541 541.802 952.541 542.174C952.541 542.546 952.421 542.852 952.181 543.092C951.941 543.332 951.641 543.452 951.281 543.452ZM963.223 544.658C964.195 544.658 964.969 544.946 965.545 545.522C966.133 546.098 966.427 546.884 966.427 547.88V553.784C966.427 553.844 966.403 553.898 966.355 553.946C966.319 553.982 966.271 554 966.211 554H964.555C964.495 554 964.441 553.982 964.393 553.946C964.357 553.898 964.339 553.844 964.339 553.784V548.312C964.339 547.76 964.183 547.316 963.871 546.98C963.559 546.632 963.145 546.458 962.629 546.458C962.113 546.458 961.693 546.626 961.369 546.962C961.057 547.298 960.901 547.742 960.901 548.294V553.784C960.901 553.844 960.877 553.898 960.829 553.946C960.793 553.982 960.745 554 960.685 554H959.029C958.969 554 958.915 553.982 958.867 553.946C958.831 553.898 958.813 553.844 958.813 553.784V545.018C958.813 544.958 958.831 544.91 958.867 544.874C958.915 544.826 958.969 544.802 959.029 544.802H960.685C960.745 544.802 960.793 544.826 960.829 544.874C960.877 544.91 960.901 544.958 960.901 545.018V545.594C960.901 545.63 960.913 545.654 960.937 545.666C960.961 545.678 960.979 545.666 960.991 545.63C961.483 544.982 962.227 544.658 963.223 544.658ZM974.238 545.018C974.238 544.958 974.256 544.91 974.292 544.874C974.34 544.826 974.394 544.802 974.454 544.802H976.11C976.17 544.802 976.218 544.826 976.254 544.874C976.302 544.91 976.326 544.958 976.326 545.018V553.388C976.326 554.888 975.894 555.956 975.03 556.592C974.178 557.24 973.056 557.564 971.664 557.564C971.292 557.564 970.926 557.546 970.566 557.51C970.434 557.498 970.368 557.42 970.368 557.276L970.422 555.8C970.422 555.668 970.506 555.602 970.674 555.602C971.022 555.638 971.334 555.656 971.61 555.656C972.51 555.656 973.17 555.476 973.59 555.116C974.022 554.768 974.238 554.174 974.238 553.334V553.19C974.238 553.154 974.226 553.136 974.202 553.136C974.178 553.124 974.154 553.13 974.13 553.154C973.638 553.682 972.942 553.946 972.042 553.946C971.262 553.946 970.548 553.748 969.9 553.352C969.252 552.956 968.802 552.35 968.55 551.534C968.394 550.97 968.316 550.244 968.316 549.356C968.316 548.36 968.412 547.598 968.604 547.07C968.844 546.338 969.258 545.756 969.846 545.324C970.434 544.88 971.124 544.658 971.916 544.658C972.864 544.658 973.602 544.934 974.13 545.486C974.154 545.522 974.178 545.534 974.202 545.522C974.226 545.51 974.238 545.486 974.238 545.45V545.018ZM974.112 550.94C974.16 550.76 974.19 550.568 974.202 550.364C974.226 550.148 974.238 549.806 974.238 549.338C974.238 548.882 974.226 548.558 974.202 548.366C974.19 548.162 974.154 547.964 974.094 547.772C973.998 547.376 973.8 547.058 973.5 546.818C973.212 546.578 972.84 546.458 972.384 546.458C971.952 546.458 971.586 546.578 971.286 546.818C970.986 547.058 970.77 547.376 970.638 547.772C970.494 548.108 970.422 548.636 970.422 549.356C970.422 550.1 970.482 550.622 970.602 550.922C970.722 551.306 970.938 551.624 971.25 551.876C971.574 552.116 971.958 552.236 972.402 552.236C972.87 552.236 973.248 552.116 973.536 551.876C973.824 551.636 974.016 551.324 974.112 550.94ZM986.241 548.366C986.289 548.666 986.313 549.002 986.313 549.374L986.295 549.932C986.295 550.076 986.223 550.148 986.079 550.148H980.445C980.385 550.148 980.355 550.178 980.355 550.238C980.391 550.634 980.445 550.904 980.517 551.048C980.805 551.912 981.507 552.35 982.623 552.362C983.439 552.362 984.087 552.026 984.567 551.354C984.615 551.282 984.675 551.246 984.747 551.246C984.795 551.246 984.837 551.264 984.873 551.3L985.989 552.218C986.097 552.302 986.115 552.398 986.043 552.506C985.671 553.034 985.173 553.442 984.549 553.73C983.937 554.018 983.253 554.162 982.497 554.162C981.561 554.162 980.763 553.952 980.103 553.532C979.455 553.112 978.981 552.524 978.681 551.768C978.405 551.12 978.267 550.22 978.267 549.068C978.267 548.372 978.339 547.808 978.483 547.376C978.723 546.536 979.173 545.876 979.833 545.396C980.505 544.904 981.309 544.658 982.245 544.658C984.609 544.658 985.941 545.894 986.241 548.366ZM982.245 546.458C981.801 546.458 981.429 546.572 981.129 546.8C980.841 547.016 980.637 547.322 980.517 547.718C980.445 547.922 980.397 548.186 980.373 548.51C980.349 548.57 980.373 548.6 980.445 548.6H984.099C984.159 548.6 984.189 548.57 984.189 548.51C984.165 548.21 984.129 547.982 984.081 547.826C983.973 547.394 983.757 547.058 983.433 546.818C983.121 546.578 982.725 546.458 982.245 546.458ZM992.505 544.694C992.889 544.694 993.225 544.772 993.513 544.928C993.609 544.976 993.645 545.066 993.621 545.198L993.315 546.818C993.303 546.962 993.219 547.004 993.063 546.944C992.883 546.884 992.673 546.854 992.433 546.854C992.277 546.854 992.157 546.86 992.073 546.872C991.569 546.896 991.149 547.076 990.813 547.412C990.477 547.736 990.309 548.162 990.309 548.69V553.784C990.309 553.844 990.285 553.898 990.237 553.946C990.201 553.982 990.153 554 990.093 554H988.437C988.377 554 988.323 553.982 988.275 553.946C988.239 553.898 988.221 553.844 988.221 553.784V545.018C988.221 544.958 988.239 544.91 988.275 544.874C988.323 544.826 988.377 544.802 988.437 544.802H990.093C990.153 544.802 990.201 544.826 990.237 544.874C990.285 544.91 990.309 544.958 990.309 545.018V545.828C990.309 545.876 990.315 545.906 990.327 545.918C990.351 545.918 990.375 545.9 990.399 545.864C990.903 545.084 991.605 544.694 992.505 544.694Z" fill="black"/>
<path d="M437 567L664 456.5" stroke="black"/>
<path d="M776 567L1003 456.5" stroke="black"/>
<path d="M674.939 511.939C674.354 512.525 674.354 513.475 674.939 514.061L684.485 523.607C685.071 524.192 686.021 524.192 686.607 523.607C687.192 523.021 687.192 522.071 686.607 521.485L678.121 513L686.607 504.515C687.192 503.929 687.192 502.979 686.607 502.393C686.021 501.808 685.071 501.808 684.485 502.393L674.939 511.939ZM766.061 514.061C766.646 513.475 766.646 512.525 766.061 511.939L756.515 502.393C755.929 501.808 754.979 501.808 754.393 502.393C753.808 502.979 753.808 503.929 754.393 504.515L762.879 513L754.393 521.485C753.808 522.071 753.808 523.021 754.393 523.607C754.979 524.192 755.929 524.192 756.515 523.607L766.061 514.061ZM676 514.5H765V511.5H676V514.5Z" fill="black"/>
</svg>
