<svg width="1440" height="1024" viewBox="0 0 1440 1024" fill="none" xmlns="http://www.w3.org/2000/svg">
<g clip-path="url(#clip0)">
<path d="M542 674L515 480" stroke="#E5E5E5" stroke-width="2"/>
<path d="M542 674L311 480" stroke="#E5E5E5" stroke-width="2"/>
<rect x="296" y="675" width="499" height="118" rx="19" fill="#C977FC" fill-opacity="0.12" stroke="black" stroke-width="2" stroke-dasharray="2 2"/>
<rect x="235.5" y="404.5" width="154" height="75" fill="#EFEFEF" stroke="black"/>
<path d="M289.555 449.144C288.619 449.144 287.803 448.994 287.107 448.694C286.411 448.394 285.871 447.974 285.487 447.434C285.115 446.894 284.929 446.258 284.929 445.526V445.076C284.929 445.016 284.947 444.968 284.983 444.932C285.031 444.884 285.085 444.86 285.145 444.86H286.747C286.807 444.86 286.855 444.884 286.891 444.932C286.939 444.968 286.963 445.016 286.963 445.076V445.418C286.963 445.97 287.209 446.432 287.701 446.804C288.193 447.164 288.865 447.344 289.717 447.344C290.449 447.344 291.001 447.188 291.373 446.876C291.745 446.564 291.931 446.162 291.931 445.67C291.931 445.334 291.829 445.052 291.625 444.824C291.421 444.584 291.127 444.368 290.743 444.176C290.371 443.984 289.807 443.744 289.051 443.456C288.199 443.144 287.509 442.85 286.981 442.574C286.453 442.298 286.009 441.926 285.649 441.458C285.301 440.978 285.127 440.384 285.127 439.676C285.127 438.62 285.511 437.786 286.279 437.174C287.047 436.562 288.073 436.256 289.357 436.256C290.257 436.256 291.049 436.412 291.733 436.724C292.429 437.036 292.969 437.474 293.353 438.038C293.737 438.59 293.929 439.232 293.929 439.964V440.27C293.929 440.33 293.905 440.384 293.857 440.432C293.821 440.468 293.773 440.486 293.713 440.486H292.093C292.033 440.486 291.979 440.468 291.931 440.432C291.895 440.384 291.877 440.33 291.877 440.27V440.072C291.877 439.508 291.643 439.034 291.175 438.65C290.719 438.254 290.083 438.056 289.267 438.056C288.607 438.056 288.091 438.194 287.719 438.47C287.359 438.746 287.179 439.136 287.179 439.64C287.179 440 287.275 440.294 287.467 440.522C287.659 440.75 287.947 440.96 288.331 441.152C288.715 441.332 289.309 441.566 290.113 441.854C290.965 442.178 291.643 442.472 292.147 442.736C292.663 443 293.101 443.372 293.461 443.852C293.833 444.32 294.019 444.908 294.019 445.616C294.019 446.696 293.617 447.554 292.813 448.19C292.021 448.826 290.935 449.144 289.555 449.144ZM303.682 443.366C303.73 443.666 303.754 444.002 303.754 444.374L303.736 444.932C303.736 445.076 303.664 445.148 303.52 445.148H297.886C297.826 445.148 297.796 445.178 297.796 445.238C297.832 445.634 297.886 445.904 297.958 446.048C298.246 446.912 298.948 447.35 300.064 447.362C300.88 447.362 301.528 447.026 302.008 446.354C302.056 446.282 302.116 446.246 302.188 446.246C302.236 446.246 302.278 446.264 302.314 446.3L303.43 447.218C303.538 447.302 303.556 447.398 303.484 447.506C303.112 448.034 302.614 448.442 301.99 448.73C301.378 449.018 300.694 449.162 299.938 449.162C299.002 449.162 298.204 448.952 297.544 448.532C296.896 448.112 296.422 447.524 296.122 446.768C295.846 446.12 295.708 445.22 295.708 444.068C295.708 443.372 295.78 442.808 295.924 442.376C296.164 441.536 296.614 440.876 297.274 440.396C297.946 439.904 298.75 439.658 299.686 439.658C302.05 439.658 303.382 440.894 303.682 443.366ZM299.686 441.458C299.242 441.458 298.87 441.572 298.57 441.8C298.282 442.016 298.078 442.322 297.958 442.718C297.886 442.922 297.838 443.186 297.814 443.51C297.79 443.57 297.814 443.6 297.886 443.6H301.54C301.6 443.6 301.63 443.57 301.63 443.51C301.606 443.21 301.57 442.982 301.522 442.826C301.414 442.394 301.198 442.058 300.874 441.818C300.562 441.578 300.166 441.458 299.686 441.458ZM310.072 439.658C311.044 439.658 311.818 439.946 312.394 440.522C312.982 441.098 313.276 441.884 313.276 442.88V448.784C313.276 448.844 313.252 448.898 313.204 448.946C313.168 448.982 313.12 449 313.06 449H311.404C311.344 449 311.29 448.982 311.242 448.946C311.206 448.898 311.188 448.844 311.188 448.784V443.312C311.188 442.76 311.032 442.316 310.72 441.98C310.408 441.632 309.994 441.458 309.478 441.458C308.962 441.458 308.542 441.626 308.218 441.962C307.906 442.298 307.75 442.742 307.75 443.294V448.784C307.75 448.844 307.726 448.898 307.678 448.946C307.642 448.982 307.594 449 307.534 449H305.878C305.818 449 305.764 448.982 305.716 448.946C305.68 448.898 305.662 448.844 305.662 448.784V440.018C305.662 439.958 305.68 439.91 305.716 439.874C305.764 439.826 305.818 439.802 305.878 439.802H307.534C307.594 439.802 307.642 439.826 307.678 439.874C307.726 439.91 307.75 439.958 307.75 440.018V440.594C307.75 440.63 307.762 440.654 307.786 440.666C307.81 440.678 307.828 440.666 307.84 440.63C308.332 439.982 309.076 439.658 310.072 439.658ZM321.089 436.616C321.089 436.556 321.107 436.508 321.143 436.472C321.191 436.424 321.245 436.4 321.305 436.4H322.961C323.021 436.4 323.069 436.424 323.105 436.472C323.153 436.508 323.177 436.556 323.177 436.616V448.784C323.177 448.844 323.153 448.898 323.105 448.946C323.069 448.982 323.021 449 322.961 449H321.305C321.245 449 321.191 448.982 321.143 448.946C321.107 448.898 321.089 448.844 321.089 448.784V448.244C321.089 448.208 321.077 448.184 321.053 448.172C321.029 448.16 321.005 448.172 320.981 448.208C320.453 448.832 319.763 449.144 318.911 449.144C318.059 449.144 317.339 448.922 316.751 448.478C316.163 448.034 315.737 447.416 315.473 446.624C315.257 445.952 315.149 445.202 315.149 444.374C315.149 443.522 315.251 442.79 315.455 442.178C315.719 441.386 316.145 440.768 316.733 440.324C317.321 439.88 318.059 439.658 318.947 439.658C319.775 439.658 320.453 439.958 320.981 440.558C321.005 440.582 321.029 440.594 321.053 440.594C321.077 440.582 321.089 440.558 321.089 440.522V436.616ZM320.657 446.48C320.933 445.988 321.071 445.292 321.071 444.392C321.071 443.456 320.921 442.742 320.621 442.25C320.297 441.722 319.841 441.458 319.253 441.458C318.641 441.458 318.161 441.71 317.813 442.214C317.453 442.742 317.273 443.474 317.273 444.41C317.273 445.25 317.417 445.94 317.705 446.48C318.041 447.056 318.551 447.344 319.235 447.344C319.847 447.344 320.321 447.056 320.657 446.48ZM333.195 443.366C333.243 443.666 333.267 444.002 333.267 444.374L333.249 444.932C333.249 445.076 333.177 445.148 333.033 445.148H327.399C327.339 445.148 327.309 445.178 327.309 445.238C327.345 445.634 327.399 445.904 327.471 446.048C327.759 446.912 328.461 447.35 329.577 447.362C330.393 447.362 331.041 447.026 331.521 446.354C331.569 446.282 331.629 446.246 331.701 446.246C331.749 446.246 331.791 446.264 331.827 446.3L332.943 447.218C333.051 447.302 333.069 447.398 332.997 447.506C332.625 448.034 332.127 448.442 331.503 448.73C330.891 449.018 330.207 449.162 329.451 449.162C328.515 449.162 327.717 448.952 327.057 448.532C326.409 448.112 325.935 447.524 325.635 446.768C325.359 446.12 325.221 445.22 325.221 444.068C325.221 443.372 325.293 442.808 325.437 442.376C325.677 441.536 326.127 440.876 326.787 440.396C327.459 439.904 328.263 439.658 329.199 439.658C331.563 439.658 332.895 440.894 333.195 443.366ZM329.199 441.458C328.755 441.458 328.383 441.572 328.083 441.8C327.795 442.016 327.591 442.322 327.471 442.718C327.399 442.922 327.351 443.186 327.327 443.51C327.303 443.57 327.327 443.6 327.399 443.6H331.053C331.113 443.6 331.143 443.57 331.143 443.51C331.119 443.21 331.083 442.982 331.035 442.826C330.927 442.394 330.711 442.058 330.387 441.818C330.075 441.578 329.679 441.458 329.199 441.458ZM339.46 439.694C339.844 439.694 340.18 439.772 340.468 439.928C340.564 439.976 340.6 440.066 340.576 440.198L340.27 441.818C340.258 441.962 340.174 442.004 340.018 441.944C339.838 441.884 339.628 441.854 339.388 441.854C339.232 441.854 339.112 441.86 339.028 441.872C338.524 441.896 338.104 442.076 337.768 442.412C337.432 442.736 337.264 443.162 337.264 443.69V448.784C337.264 448.844 337.24 448.898 337.192 448.946C337.156 448.982 337.108 449 337.048 449H335.392C335.332 449 335.278 448.982 335.23 448.946C335.194 448.898 335.176 448.844 335.176 448.784V440.018C335.176 439.958 335.194 439.91 335.23 439.874C335.278 439.826 335.332 439.802 335.392 439.802H337.048C337.108 439.802 337.156 439.826 337.192 439.874C337.24 439.91 337.264 439.958 337.264 440.018V440.828C337.264 440.876 337.27 440.906 337.282 440.918C337.306 440.918 337.33 440.9 337.354 440.864C337.858 440.084 338.56 439.694 339.46 439.694Z" fill="black"/>
<path d="M434.061 443.061C434.646 442.475 434.646 441.525 434.061 440.939L424.515 431.393C423.929 430.808 422.979 430.808 422.393 431.393C421.808 431.979 421.808 432.929 422.393 433.515L430.879 442L422.393 450.485C421.808 451.071 421.808 452.021 422.393 452.607C422.979 453.192 423.929 453.192 424.515 452.607L434.061 443.061ZM390 443.5H433V440.5H390V443.5Z" fill="black"/>
<rect x="32.5" y="404.5" width="154" height="75" fill="#EFEFEF" stroke="black"/>
<path d="M90.5777 436.256C91.4537 436.256 92.2277 436.436 92.8997 436.796C93.5717 437.156 94.0937 437.666 94.4657 438.326C94.8377 438.986 95.0237 439.748 95.0237 440.612V444.932C95.0237 445.988 94.7237 446.888 94.1237 447.632C93.5357 448.364 92.7317 448.832 91.7117 449.036C91.6637 449.048 91.6397 449.084 91.6397 449.144V450.656C91.6397 450.716 91.6157 450.764 91.5677 450.8C91.5317 450.848 91.4837 450.872 91.4237 450.872H89.7677C89.7077 450.872 89.6537 450.848 89.6057 450.8C89.5697 450.764 89.5517 450.716 89.5517 450.656V449.144C89.5517 449.096 89.5217 449.06 89.4617 449.036C88.4537 448.832 87.6497 448.364 87.0497 447.632C86.4497 446.9 86.1497 446 86.1497 444.932V440.612C86.1497 439.748 86.3357 438.986 86.7077 438.326C87.0797 437.666 87.5957 437.156 88.2557 436.796C88.9277 436.436 89.7017 436.256 90.5777 436.256ZM92.9357 440.504C92.9357 439.772 92.7197 439.184 92.2877 438.74C91.8557 438.284 91.2857 438.056 90.5777 438.056C89.8817 438.056 89.3177 438.284 88.8857 438.74C88.4537 439.184 88.2377 439.772 88.2377 440.504V444.896C88.2377 445.628 88.4537 446.222 88.8857 446.678C89.3177 447.122 89.8817 447.344 90.5777 447.344C91.2857 447.344 91.8557 447.122 92.2877 446.678C92.7197 446.222 92.9357 445.628 92.9357 444.896V440.504ZM102.42 440.018C102.42 439.958 102.438 439.91 102.474 439.874C102.522 439.826 102.576 439.802 102.636 439.802H104.274C104.334 439.802 104.382 439.826 104.418 439.874C104.466 439.91 104.49 439.958 104.49 440.018V448.784C104.49 448.844 104.466 448.898 104.418 448.946C104.382 448.982 104.334 449 104.274 449H102.636C102.576 449 102.522 448.982 102.474 448.946C102.438 448.898 102.42 448.844 102.42 448.784V448.208C102.42 448.172 102.408 448.148 102.384 448.136C102.36 448.124 102.336 448.136 102.312 448.172C101.82 448.808 101.082 449.126 100.098 449.126C99.1862 449.126 98.4182 448.862 97.7942 448.334C97.1822 447.806 96.8762 447.056 96.8762 446.084V440.018C96.8762 439.958 96.8942 439.91 96.9302 439.874C96.9782 439.826 97.0322 439.802 97.0922 439.802H98.7482C98.8082 439.802 98.8562 439.826 98.8922 439.874C98.9402 439.91 98.9642 439.958 98.9642 440.018V445.49C98.9642 446.054 99.1082 446.504 99.3962 446.84C99.6962 447.176 100.11 447.344 100.638 447.344C101.178 447.344 101.61 447.176 101.934 446.84C102.258 446.504 102.42 446.054 102.42 445.49V440.018ZM114.48 443.366C114.528 443.666 114.552 444.002 114.552 444.374L114.534 444.932C114.534 445.076 114.462 445.148 114.318 445.148H108.684C108.624 445.148 108.594 445.178 108.594 445.238C108.63 445.634 108.684 445.904 108.756 446.048C109.044 446.912 109.746 447.35 110.862 447.362C111.678 447.362 112.326 447.026 112.806 446.354C112.854 446.282 112.914 446.246 112.986 446.246C113.034 446.246 113.076 446.264 113.112 446.3L114.228 447.218C114.336 447.302 114.354 447.398 114.282 447.506C113.91 448.034 113.412 448.442 112.788 448.73C112.176 449.018 111.492 449.162 110.736 449.162C109.8 449.162 109.002 448.952 108.342 448.532C107.694 448.112 107.22 447.524 106.92 446.768C106.644 446.12 106.506 445.22 106.506 444.068C106.506 443.372 106.578 442.808 106.722 442.376C106.962 441.536 107.412 440.876 108.072 440.396C108.744 439.904 109.548 439.658 110.484 439.658C112.848 439.658 114.18 440.894 114.48 443.366ZM110.484 441.458C110.04 441.458 109.668 441.572 109.368 441.8C109.08 442.016 108.876 442.322 108.756 442.718C108.684 442.922 108.636 443.186 108.612 443.51C108.588 443.57 108.612 443.6 108.684 443.6H112.338C112.398 443.6 112.428 443.57 112.428 443.51C112.404 443.21 112.368 442.982 112.32 442.826C112.212 442.394 111.996 442.058 111.672 441.818C111.36 441.578 110.964 441.458 110.484 441.458ZM116.677 449C116.617 449 116.563 448.982 116.515 448.946C116.479 448.898 116.461 448.844 116.461 448.784V436.616C116.461 436.556 116.479 436.508 116.515 436.472C116.563 436.424 116.617 436.4 116.677 436.4H118.333C118.393 436.4 118.441 436.424 118.477 436.472C118.525 436.508 118.549 436.556 118.549 436.616V448.784C118.549 448.844 118.525 448.898 118.477 448.946C118.441 448.982 118.393 449 118.333 449H116.677ZM120.983 449C120.923 449 120.869 448.982 120.821 448.946C120.785 448.898 120.767 448.844 120.767 448.784V436.616C120.767 436.556 120.785 436.508 120.821 436.472C120.869 436.424 120.923 436.4 120.983 436.4H122.639C122.699 436.4 122.747 436.424 122.783 436.472C122.831 436.508 122.855 436.556 122.855 436.616V448.784C122.855 448.844 122.831 448.898 122.783 448.946C122.747 448.982 122.699 449 122.639 449H120.983ZM132.832 443.366C132.88 443.666 132.904 444.002 132.904 444.374L132.886 444.932C132.886 445.076 132.814 445.148 132.67 445.148H127.036C126.976 445.148 126.946 445.178 126.946 445.238C126.982 445.634 127.036 445.904 127.108 446.048C127.396 446.912 128.098 447.35 129.214 447.362C130.03 447.362 130.678 447.026 131.158 446.354C131.206 446.282 131.266 446.246 131.338 446.246C131.386 446.246 131.428 446.264 131.464 446.3L132.58 447.218C132.688 447.302 132.706 447.398 132.634 447.506C132.262 448.034 131.764 448.442 131.14 448.73C130.528 449.018 129.844 449.162 129.088 449.162C128.152 449.162 127.354 448.952 126.694 448.532C126.046 448.112 125.572 447.524 125.272 446.768C124.996 446.12 124.858 445.22 124.858 444.068C124.858 443.372 124.93 442.808 125.074 442.376C125.314 441.536 125.764 440.876 126.424 440.396C127.096 439.904 127.9 439.658 128.836 439.658C131.2 439.658 132.532 440.894 132.832 443.366ZM128.836 441.458C128.392 441.458 128.02 441.572 127.72 441.8C127.432 442.016 127.228 442.322 127.108 442.718C127.036 442.922 126.988 443.186 126.964 443.51C126.94 443.57 126.964 443.6 127.036 443.6H130.69C130.75 443.6 130.78 443.57 130.78 443.51C130.756 443.21 130.72 442.982 130.672 442.826C130.564 442.394 130.348 442.058 130.024 441.818C129.712 441.578 129.316 441.458 128.836 441.458Z" fill="black"/>
<path d="M231.061 443.061C231.646 442.475 231.646 441.525 231.061 440.939L221.515 431.393C220.929 430.808 219.979 430.808 219.393 431.393C218.808 431.979 218.808 432.929 219.393 433.515L227.879 442L219.393 450.485C218.808 451.071 218.808 452.021 219.393 452.607C219.979 453.192 220.929 453.192 221.515 452.607L231.061 443.061ZM187 443.5H230V440.5H187V443.5Z" fill="black"/>
<rect x="438.5" y="404.5" width="154" height="75" fill="#EFEFEF" stroke="black"/>
<path d="M479.78 449.144C478.88 449.144 478.088 448.97 477.404 448.622C476.72 448.262 476.192 447.764 475.82 447.128C475.448 446.492 475.262 445.754 475.262 444.914V440.468C475.262 439.628 475.448 438.89 475.82 438.254C476.192 437.618 476.72 437.126 477.404 436.778C478.088 436.43 478.88 436.256 479.78 436.256C480.668 436.256 481.454 436.424 482.138 436.76C482.822 437.096 483.35 437.57 483.722 438.182C484.094 438.794 484.28 439.502 484.28 440.306C484.28 440.366 484.256 440.42 484.208 440.468C484.172 440.504 484.124 440.522 484.064 440.522L482.408 440.612C482.264 440.612 482.192 440.546 482.192 440.414C482.192 439.706 481.97 439.136 481.526 438.704C481.094 438.272 480.512 438.056 479.78 438.056C479.048 438.056 478.46 438.272 478.016 438.704C477.572 439.136 477.35 439.706 477.35 440.414V445.004C477.35 445.7 477.572 446.264 478.016 446.696C478.46 447.128 479.048 447.344 479.78 447.344C480.512 447.344 481.094 447.134 481.526 446.714C481.97 446.282 482.192 445.712 482.192 445.004C482.192 444.872 482.264 444.806 482.408 444.806L484.064 444.878C484.124 444.878 484.172 444.896 484.208 444.932C484.256 444.968 484.28 445.01 484.28 445.058C484.28 445.874 484.094 446.594 483.722 447.218C483.35 447.83 482.822 448.304 482.138 448.64C481.454 448.976 480.668 449.144 479.78 449.144ZM490.21 449.144C489.262 449.144 488.446 448.904 487.762 448.424C487.09 447.944 486.616 447.278 486.34 446.426C486.136 445.778 486.034 445.094 486.034 444.374C486.034 443.606 486.13 442.922 486.322 442.322C486.598 441.482 487.078 440.828 487.762 440.36C488.446 439.892 489.268 439.658 490.228 439.658C491.14 439.658 491.926 439.892 492.586 440.36C493.258 440.828 493.732 441.476 494.008 442.304C494.224 442.88 494.332 443.564 494.332 444.356C494.332 445.112 494.23 445.796 494.026 446.408C493.75 447.26 493.276 447.932 492.604 448.424C491.932 448.904 491.134 449.144 490.21 449.144ZM490.21 447.344C490.654 447.344 491.032 447.218 491.344 446.966C491.668 446.714 491.902 446.36 492.046 445.904C492.166 445.508 492.226 445.004 492.226 444.392C492.226 443.744 492.166 443.24 492.046 442.88C491.914 442.424 491.686 442.076 491.362 441.836C491.038 441.584 490.642 441.458 490.174 441.458C489.73 441.458 489.346 441.584 489.022 441.836C488.698 442.076 488.464 442.424 488.32 442.88C488.2 443.3 488.14 443.804 488.14 444.392C488.14 444.98 488.2 445.484 488.32 445.904C488.452 446.36 488.68 446.714 489.004 446.966C489.34 447.218 489.742 447.344 490.21 447.344ZM502.011 436.616C502.011 436.556 502.029 436.508 502.065 436.472C502.113 436.424 502.167 436.4 502.227 436.4H503.883C503.943 436.4 503.991 436.424 504.027 436.472C504.075 436.508 504.099 436.556 504.099 436.616V448.784C504.099 448.844 504.075 448.898 504.027 448.946C503.991 448.982 503.943 449 503.883 449H502.227C502.167 449 502.113 448.982 502.065 448.946C502.029 448.898 502.011 448.844 502.011 448.784V448.244C502.011 448.208 501.999 448.184 501.975 448.172C501.951 448.16 501.927 448.172 501.903 448.208C501.375 448.832 500.685 449.144 499.833 449.144C498.981 449.144 498.261 448.922 497.673 448.478C497.085 448.034 496.659 447.416 496.395 446.624C496.179 445.952 496.071 445.202 496.071 444.374C496.071 443.522 496.173 442.79 496.377 442.178C496.641 441.386 497.067 440.768 497.655 440.324C498.243 439.88 498.981 439.658 499.869 439.658C500.697 439.658 501.375 439.958 501.903 440.558C501.927 440.582 501.951 440.594 501.975 440.594C501.999 440.582 502.011 440.558 502.011 440.522V436.616ZM501.579 446.48C501.855 445.988 501.993 445.292 501.993 444.392C501.993 443.456 501.843 442.742 501.543 442.25C501.219 441.722 500.763 441.458 500.175 441.458C499.563 441.458 499.083 441.71 498.735 442.214C498.375 442.742 498.195 443.474 498.195 444.41C498.195 445.25 498.339 445.94 498.627 446.48C498.963 447.056 499.473 447.344 500.157 447.344C500.769 447.344 501.243 447.056 501.579 446.48ZM507.548 438.542C507.176 438.542 506.87 438.422 506.63 438.182C506.39 437.942 506.27 437.636 506.27 437.264C506.27 436.892 506.39 436.586 506.63 436.346C506.87 436.106 507.176 435.986 507.548 435.986C507.92 435.986 508.226 436.106 508.466 436.346C508.706 436.586 508.826 436.892 508.826 437.264C508.826 437.636 508.706 437.942 508.466 438.182C508.226 438.422 507.92 438.542 507.548 438.542ZM506.684 449C506.624 449 506.57 448.982 506.522 448.946C506.486 448.898 506.468 448.844 506.468 448.784V440C506.468 439.94 506.486 439.892 506.522 439.856C506.57 439.808 506.624 439.784 506.684 439.784H508.34C508.4 439.784 508.448 439.808 508.484 439.856C508.532 439.892 508.556 439.94 508.556 440V448.784C508.556 448.844 508.532 448.898 508.484 448.946C508.448 448.982 508.4 449 508.34 449H506.684ZM518.706 443.366C518.754 443.666 518.778 444.002 518.778 444.374L518.76 444.932C518.76 445.076 518.688 445.148 518.544 445.148H512.91C512.85 445.148 512.82 445.178 512.82 445.238C512.856 445.634 512.91 445.904 512.982 446.048C513.27 446.912 513.972 447.35 515.088 447.362C515.904 447.362 516.552 447.026 517.032 446.354C517.08 446.282 517.14 446.246 517.212 446.246C517.26 446.246 517.302 446.264 517.338 446.3L518.454 447.218C518.562 447.302 518.58 447.398 518.508 447.506C518.136 448.034 517.638 448.442 517.014 448.73C516.402 449.018 515.718 449.162 514.962 449.162C514.026 449.162 513.228 448.952 512.568 448.532C511.92 448.112 511.446 447.524 511.146 446.768C510.87 446.12 510.732 445.22 510.732 444.068C510.732 443.372 510.804 442.808 510.948 442.376C511.188 441.536 511.638 440.876 512.298 440.396C512.97 439.904 513.774 439.658 514.71 439.658C517.074 439.658 518.406 440.894 518.706 443.366ZM514.71 441.458C514.266 441.458 513.894 441.572 513.594 441.8C513.306 442.016 513.102 442.322 512.982 442.718C512.91 442.922 512.862 443.186 512.838 443.51C512.814 443.57 512.838 443.6 512.91 443.6H516.564C516.624 443.6 516.654 443.57 516.654 443.51C516.63 443.21 516.594 442.982 516.546 442.826C516.438 442.394 516.222 442.058 515.898 441.818C515.586 441.578 515.19 441.458 514.71 441.458ZM524.97 439.694C525.354 439.694 525.69 439.772 525.978 439.928C526.074 439.976 526.11 440.066 526.086 440.198L525.78 441.818C525.768 441.962 525.684 442.004 525.528 441.944C525.348 441.884 525.138 441.854 524.898 441.854C524.742 441.854 524.622 441.86 524.538 441.872C524.034 441.896 523.614 442.076 523.278 442.412C522.942 442.736 522.774 443.162 522.774 443.69V448.784C522.774 448.844 522.75 448.898 522.702 448.946C522.666 448.982 522.618 449 522.558 449H520.902C520.842 449 520.788 448.982 520.74 448.946C520.704 448.898 520.686 448.844 520.686 448.784V440.018C520.686 439.958 520.704 439.91 520.74 439.874C520.788 439.826 520.842 439.802 520.902 439.802H522.558C522.618 439.802 522.666 439.826 522.702 439.874C522.75 439.91 522.774 439.958 522.774 440.018V440.828C522.774 440.876 522.78 440.906 522.792 440.918C522.816 440.918 522.84 440.9 522.864 440.864C523.368 440.084 524.07 439.694 524.97 439.694ZM532.89 440.018C532.89 439.958 532.908 439.91 532.944 439.874C532.992 439.826 533.046 439.802 533.106 439.802H534.744C534.804 439.802 534.852 439.826 534.888 439.874C534.936 439.91 534.96 439.958 534.96 440.018V448.784C534.96 448.844 534.936 448.898 534.888 448.946C534.852 448.982 534.804 449 534.744 449H533.106C533.046 449 532.992 448.982 532.944 448.946C532.908 448.898 532.89 448.844 532.89 448.784V448.208C532.89 448.172 532.878 448.148 532.854 448.136C532.83 448.124 532.806 448.136 532.782 448.172C532.29 448.808 531.552 449.126 530.568 449.126C529.656 449.126 528.888 448.862 528.264 448.334C527.652 447.806 527.346 447.056 527.346 446.084V440.018C527.346 439.958 527.364 439.91 527.4 439.874C527.448 439.826 527.502 439.802 527.562 439.802H529.218C529.278 439.802 529.326 439.826 529.362 439.874C529.41 439.91 529.434 439.958 529.434 440.018V445.49C529.434 446.054 529.578 446.504 529.866 446.84C530.166 447.176 530.58 447.344 531.108 447.344C531.648 447.344 532.08 447.176 532.404 446.84C532.728 446.504 532.89 446.054 532.89 445.49V440.018ZM541.602 439.658C542.574 439.658 543.348 439.946 543.924 440.522C544.512 441.098 544.806 441.884 544.806 442.88V448.784C544.806 448.844 544.782 448.898 544.734 448.946C544.698 448.982 544.65 449 544.59 449H542.934C542.874 449 542.82 448.982 542.772 448.946C542.736 448.898 542.718 448.844 542.718 448.784V443.312C542.718 442.76 542.562 442.316 542.25 441.98C541.938 441.632 541.524 441.458 541.008 441.458C540.492 441.458 540.072 441.626 539.748 441.962C539.436 442.298 539.28 442.742 539.28 443.294V448.784C539.28 448.844 539.256 448.898 539.208 448.946C539.172 448.982 539.124 449 539.064 449H537.408C537.348 449 537.294 448.982 537.246 448.946C537.21 448.898 537.192 448.844 537.192 448.784V440.018C537.192 439.958 537.21 439.91 537.246 439.874C537.294 439.826 537.348 439.802 537.408 439.802H539.064C539.124 439.802 539.172 439.826 539.208 439.874C539.256 439.91 539.28 439.958 539.28 440.018V440.594C539.28 440.63 539.292 440.654 539.316 440.666C539.34 440.678 539.358 440.666 539.37 440.63C539.862 439.982 540.606 439.658 541.602 439.658ZM552.617 440.018C552.617 439.958 552.635 439.91 552.671 439.874C552.719 439.826 552.773 439.802 552.833 439.802H554.489C554.549 439.802 554.597 439.826 554.633 439.874C554.681 439.91 554.705 439.958 554.705 440.018V448.388C554.705 449.888 554.273 450.956 553.409 451.592C552.557 452.24 551.435 452.564 550.043 452.564C549.671 452.564 549.305 452.546 548.945 452.51C548.813 452.498 548.747 452.42 548.747 452.276L548.801 450.8C548.801 450.668 548.885 450.602 549.053 450.602C549.401 450.638 549.713 450.656 549.989 450.656C550.889 450.656 551.549 450.476 551.969 450.116C552.401 449.768 552.617 449.174 552.617 448.334V448.19C552.617 448.154 552.605 448.136 552.581 448.136C552.557 448.124 552.533 448.13 552.509 448.154C552.017 448.682 551.321 448.946 550.421 448.946C549.641 448.946 548.927 448.748 548.279 448.352C547.631 447.956 547.181 447.35 546.929 446.534C546.773 445.97 546.695 445.244 546.695 444.356C546.695 443.36 546.791 442.598 546.983 442.07C547.223 441.338 547.637 440.756 548.225 440.324C548.813 439.88 549.503 439.658 550.295 439.658C551.243 439.658 551.981 439.934 552.509 440.486C552.533 440.522 552.557 440.534 552.581 440.522C552.605 440.51 552.617 440.486 552.617 440.45V440.018ZM552.491 445.94C552.539 445.76 552.569 445.568 552.581 445.364C552.605 445.148 552.617 444.806 552.617 444.338C552.617 443.882 552.605 443.558 552.581 443.366C552.569 443.162 552.533 442.964 552.473 442.772C552.377 442.376 552.179 442.058 551.879 441.818C551.591 441.578 551.219 441.458 550.763 441.458C550.331 441.458 549.965 441.578 549.665 441.818C549.365 442.058 549.149 442.376 549.017 442.772C548.873 443.108 548.801 443.636 548.801 444.356C548.801 445.1 548.861 445.622 548.981 445.922C549.101 446.306 549.317 446.624 549.629 446.876C549.953 447.116 550.337 447.236 550.781 447.236C551.249 447.236 551.627 447.116 551.915 446.876C552.203 446.636 552.395 446.324 552.491 445.94Z" fill="black"/>
<path d="M637.061 443.061C637.646 442.475 637.646 441.525 637.061 440.939L627.515 431.393C626.929 430.808 625.979 430.808 625.393 431.393C624.808 431.979 624.808 432.929 625.393 433.515L633.879 442L625.393 450.485C624.808 451.071 624.808 452.021 625.393 452.607C625.979 453.192 626.929 453.192 627.515 452.607L637.061 443.061ZM593 443.5H636V440.5H593V443.5Z" fill="black"/>
<rect x="641.5" y="404.5" width="154" height="75" fill="#EFEFEF" stroke="black"/>
<path d="M697.996 449C697.936 449 697.882 448.982 697.834 448.946C697.798 448.898 697.78 448.844 697.78 448.784V436.616C697.78 436.556 697.798 436.508 697.834 436.472C697.882 436.424 697.936 436.4 697.996 436.4H699.652C699.712 436.4 699.76 436.424 699.796 436.472C699.844 436.508 699.868 436.556 699.868 436.616V441.998C699.868 442.034 699.88 442.058 699.904 442.07C699.928 442.082 699.952 442.076 699.976 442.052L704.656 436.526C704.728 436.442 704.818 436.4 704.926 436.4H706.798C706.918 436.4 706.978 436.442 706.978 436.526C706.978 436.562 706.96 436.61 706.924 436.67L702.802 441.728C702.766 441.776 702.76 441.818 702.784 441.854L707.212 448.748C707.236 448.82 707.248 448.862 707.248 448.874C707.248 448.958 707.188 449 707.068 449H705.178C705.07 449 704.986 448.952 704.926 448.856L701.362 443.312C701.314 443.24 701.272 443.234 701.236 443.294L699.904 444.842C699.88 444.89 699.868 444.932 699.868 444.968V448.784C699.868 448.844 699.844 448.898 699.796 448.946C699.76 448.982 699.712 449 699.652 449H697.996ZM712.254 439.658C713.01 439.658 713.676 439.79 714.252 440.054C714.828 440.318 715.272 440.684 715.584 441.152C715.896 441.608 716.052 442.13 716.052 442.718V448.784C716.052 448.844 716.028 448.898 715.98 448.946C715.944 448.982 715.896 449 715.836 449H714.18C714.12 449 714.066 448.982 714.018 448.946C713.982 448.898 713.964 448.844 713.964 448.784V448.208C713.964 448.172 713.952 448.154 713.928 448.154C713.904 448.142 713.88 448.148 713.856 448.172C713.268 448.82 712.416 449.144 711.3 449.144C710.4 449.144 709.656 448.916 709.068 448.46C708.492 448.004 708.204 447.326 708.204 446.426C708.204 445.49 708.528 444.764 709.176 444.248C709.836 443.72 710.76 443.456 711.948 443.456H713.874C713.934 443.456 713.964 443.426 713.964 443.366V442.934C713.964 442.466 713.826 442.106 713.55 441.854C713.274 441.59 712.86 441.458 712.308 441.458C711.852 441.458 711.48 441.542 711.192 441.71C710.916 441.866 710.742 442.088 710.67 442.376C710.634 442.52 710.55 442.58 710.418 442.556L708.672 442.34C708.612 442.328 708.558 442.31 708.51 442.286C708.474 442.25 708.462 442.208 708.474 442.16C708.57 441.428 708.96 440.828 709.644 440.36C710.34 439.892 711.21 439.658 712.254 439.658ZM711.822 447.488C712.41 447.488 712.914 447.332 713.334 447.02C713.754 446.708 713.964 446.312 713.964 445.832V444.986C713.964 444.926 713.934 444.896 713.874 444.896H712.362C711.726 444.896 711.222 445.016 710.85 445.256C710.49 445.496 710.31 445.838 710.31 446.282C710.31 446.666 710.448 446.966 710.724 447.182C711.012 447.386 711.378 447.488 711.822 447.488ZM722.558 439.658C723.53 439.658 724.304 439.946 724.88 440.522C725.468 441.098 725.762 441.884 725.762 442.88V448.784C725.762 448.844 725.738 448.898 725.69 448.946C725.654 448.982 725.606 449 725.546 449H723.89C723.83 449 723.776 448.982 723.728 448.946C723.692 448.898 723.674 448.844 723.674 448.784V443.312C723.674 442.76 723.518 442.316 723.206 441.98C722.894 441.632 722.48 441.458 721.964 441.458C721.448 441.458 721.028 441.626 720.704 441.962C720.392 442.298 720.236 442.742 720.236 443.294V448.784C720.236 448.844 720.212 448.898 720.164 448.946C720.128 448.982 720.08 449 720.02 449H718.364C718.304 449 718.25 448.982 718.202 448.946C718.166 448.898 718.148 448.844 718.148 448.784V440.018C718.148 439.958 718.166 439.91 718.202 439.874C718.25 439.826 718.304 439.802 718.364 439.802H720.02C720.08 439.802 720.128 439.826 720.164 439.874C720.212 439.91 720.236 439.958 720.236 440.018V440.594C720.236 440.63 720.248 440.654 720.272 440.666C720.296 440.678 720.314 440.666 720.326 440.63C720.818 439.982 721.562 439.658 722.558 439.658ZM731.449 439.658C732.205 439.658 732.871 439.79 733.447 440.054C734.023 440.318 734.467 440.684 734.779 441.152C735.091 441.608 735.247 442.13 735.247 442.718V448.784C735.247 448.844 735.223 448.898 735.175 448.946C735.139 448.982 735.091 449 735.031 449H733.375C733.315 449 733.261 448.982 733.213 448.946C733.177 448.898 733.159 448.844 733.159 448.784V448.208C733.159 448.172 733.147 448.154 733.123 448.154C733.099 448.142 733.075 448.148 733.051 448.172C732.463 448.82 731.611 449.144 730.495 449.144C729.595 449.144 728.851 448.916 728.263 448.46C727.687 448.004 727.399 447.326 727.399 446.426C727.399 445.49 727.723 444.764 728.371 444.248C729.031 443.72 729.955 443.456 731.143 443.456H733.069C733.129 443.456 733.159 443.426 733.159 443.366V442.934C733.159 442.466 733.021 442.106 732.745 441.854C732.469 441.59 732.055 441.458 731.503 441.458C731.047 441.458 730.675 441.542 730.387 441.71C730.111 441.866 729.937 442.088 729.865 442.376C729.829 442.52 729.745 442.58 729.613 442.556L727.867 442.34C727.807 442.328 727.753 442.31 727.705 442.286C727.669 442.25 727.657 442.208 727.669 442.16C727.765 441.428 728.155 440.828 728.839 440.36C729.535 439.892 730.405 439.658 731.449 439.658ZM731.017 447.488C731.605 447.488 732.109 447.332 732.529 447.02C732.949 446.708 733.159 446.312 733.159 445.832V444.986C733.159 444.926 733.129 444.896 733.069 444.896H731.557C730.921 444.896 730.417 445.016 730.045 445.256C729.685 445.496 729.505 445.838 729.505 446.282C729.505 446.666 729.643 446.966 729.919 447.182C730.207 447.386 730.573 447.488 731.017 447.488ZM737.56 449C737.5 449 737.446 448.982 737.398 448.946C737.362 448.898 737.344 448.844 737.344 448.784V436.616C737.344 436.556 737.362 436.508 737.398 436.472C737.446 436.424 737.5 436.4 737.56 436.4H739.216C739.276 436.4 739.324 436.424 739.36 436.472C739.408 436.508 739.432 436.556 739.432 436.616V448.784C739.432 448.844 739.408 448.898 739.36 448.946C739.324 448.982 739.276 449 739.216 449H737.56Z" fill="black"/>
<path d="M840.061 443.061C840.646 442.475 840.646 441.525 840.061 440.939L830.515 431.393C829.929 430.808 828.979 430.808 828.393 431.393C827.808 431.979 827.808 432.929 828.393 433.515L836.879 442L828.393 450.485C827.808 451.071 827.808 452.021 828.393 452.607C828.979 453.192 829.929 453.192 830.515 452.607L840.061 443.061ZM796 443.5H839V440.5H796V443.5Z" fill="black"/>
<rect x="844.5" y="404.5" width="154" height="75" fill="#EFEFEF" stroke="black"/>
<path d="M872.581 449C872.521 449 872.467 448.982 872.419 448.946C872.383 448.898 872.365 448.844 872.365 448.784V436.616C872.365 436.556 872.383 436.508 872.419 436.472C872.467 436.424 872.521 436.4 872.581 436.4H876.973C877.825 436.4 878.575 436.55 879.223 436.85C879.871 437.15 880.369 437.582 880.717 438.146C881.077 438.698 881.257 439.346 881.257 440.09V445.31C881.257 446.054 881.077 446.708 880.717 447.272C880.369 447.824 879.871 448.25 879.223 448.55C878.575 448.85 877.825 449 876.973 449H872.581ZM874.453 447.11C874.453 447.17 874.483 447.2 874.543 447.2H877.063C877.699 447.2 878.203 447.002 878.575 446.606C878.959 446.198 879.157 445.658 879.169 444.986V440.432C879.169 439.748 878.977 439.208 878.593 438.812C878.209 438.404 877.693 438.2 877.045 438.2H874.543C874.483 438.2 874.453 438.23 874.453 438.29V447.11ZM891.052 443.366C891.1 443.666 891.124 444.002 891.124 444.374L891.106 444.932C891.106 445.076 891.034 445.148 890.89 445.148H885.256C885.196 445.148 885.166 445.178 885.166 445.238C885.202 445.634 885.256 445.904 885.328 446.048C885.616 446.912 886.318 447.35 887.434 447.362C888.25 447.362 888.898 447.026 889.378 446.354C889.426 446.282 889.486 446.246 889.558 446.246C889.606 446.246 889.648 446.264 889.684 446.3L890.8 447.218C890.908 447.302 890.926 447.398 890.854 447.506C890.482 448.034 889.984 448.442 889.36 448.73C888.748 449.018 888.064 449.162 887.308 449.162C886.372 449.162 885.574 448.952 884.914 448.532C884.266 448.112 883.792 447.524 883.492 446.768C883.216 446.12 883.078 445.22 883.078 444.068C883.078 443.372 883.15 442.808 883.294 442.376C883.534 441.536 883.984 440.876 884.644 440.396C885.316 439.904 886.12 439.658 887.056 439.658C889.42 439.658 890.752 440.894 891.052 443.366ZM887.056 441.458C886.612 441.458 886.24 441.572 885.94 441.8C885.652 442.016 885.448 442.322 885.328 442.718C885.256 442.922 885.208 443.186 885.184 443.51C885.16 443.57 885.184 443.6 885.256 443.6H888.91C888.97 443.6 889 443.57 889 443.51C888.976 443.21 888.94 442.982 888.892 442.826C888.784 442.394 888.568 442.058 888.244 441.818C887.932 441.578 887.536 441.458 887.056 441.458ZM896.866 449.144C895.942 449.144 895.144 448.91 894.472 448.442C893.8 447.962 893.332 447.32 893.068 446.516C892.876 445.976 892.78 445.256 892.78 444.356C892.78 443.492 892.876 442.784 893.068 442.232C893.32 441.44 893.782 440.816 894.454 440.36C895.138 439.892 895.942 439.658 896.866 439.658C897.802 439.658 898.618 439.892 899.314 440.36C900.01 440.828 900.472 441.416 900.7 442.124C900.76 442.316 900.802 442.508 900.826 442.7V442.736C900.826 442.856 900.76 442.928 900.628 442.952L899.008 443.186H898.972C898.864 443.186 898.792 443.126 898.756 443.006C898.756 442.946 898.75 442.898 898.738 442.862C898.714 442.766 898.69 442.682 898.666 442.61C898.558 442.274 898.342 441.998 898.018 441.782C897.694 441.566 897.31 441.458 896.866 441.458C896.41 441.458 896.02 441.578 895.696 441.818C895.384 442.046 895.174 442.364 895.066 442.772C894.946 443.156 894.886 443.69 894.886 444.374C894.886 445.034 894.94 445.568 895.048 445.976C895.168 446.396 895.384 446.732 895.696 446.984C896.008 447.224 896.398 447.344 896.866 447.344C897.322 447.344 897.712 447.23 898.036 447.002C898.372 446.762 898.588 446.444 898.684 446.048C898.696 446.024 898.702 445.994 898.702 445.958C898.714 445.946 898.72 445.928 898.72 445.904C898.756 445.76 898.84 445.7 898.972 445.724L900.592 445.976C900.652 445.988 900.7 446.018 900.736 446.066C900.784 446.102 900.802 446.156 900.79 446.228C900.754 446.42 900.724 446.558 900.7 446.642C900.472 447.41 900.01 448.022 899.314 448.478C898.618 448.922 897.802 449.144 896.866 449.144ZM906.413 449.144C905.465 449.144 904.649 448.904 903.965 448.424C903.293 447.944 902.819 447.278 902.543 446.426C902.339 445.778 902.237 445.094 902.237 444.374C902.237 443.606 902.333 442.922 902.525 442.322C902.801 441.482 903.281 440.828 903.965 440.36C904.649 439.892 905.471 439.658 906.431 439.658C907.343 439.658 908.129 439.892 908.789 440.36C909.461 440.828 909.935 441.476 910.211 442.304C910.427 442.88 910.535 443.564 910.535 444.356C910.535 445.112 910.433 445.796 910.229 446.408C909.953 447.26 909.479 447.932 908.807 448.424C908.135 448.904 907.337 449.144 906.413 449.144ZM906.413 447.344C906.857 447.344 907.235 447.218 907.547 446.966C907.871 446.714 908.105 446.36 908.249 445.904C908.369 445.508 908.429 445.004 908.429 444.392C908.429 443.744 908.369 443.24 908.249 442.88C908.117 442.424 907.889 442.076 907.565 441.836C907.241 441.584 906.845 441.458 906.377 441.458C905.933 441.458 905.549 441.584 905.225 441.836C904.901 442.076 904.667 442.424 904.523 442.88C904.403 443.3 904.343 443.804 904.343 444.392C904.343 444.98 904.403 445.484 904.523 445.904C904.655 446.36 904.883 446.714 905.207 446.966C905.543 447.218 905.945 447.344 906.413 447.344ZM918.215 436.616C918.215 436.556 918.233 436.508 918.269 436.472C918.317 436.424 918.371 436.4 918.431 436.4H920.087C920.147 436.4 920.195 436.424 920.231 436.472C920.279 436.508 920.303 436.556 920.303 436.616V448.784C920.303 448.844 920.279 448.898 920.231 448.946C920.195 448.982 920.147 449 920.087 449H918.431C918.371 449 918.317 448.982 918.269 448.946C918.233 448.898 918.215 448.844 918.215 448.784V448.244C918.215 448.208 918.203 448.184 918.179 448.172C918.155 448.16 918.131 448.172 918.107 448.208C917.579 448.832 916.889 449.144 916.037 449.144C915.185 449.144 914.465 448.922 913.877 448.478C913.289 448.034 912.863 447.416 912.599 446.624C912.383 445.952 912.275 445.202 912.275 444.374C912.275 443.522 912.377 442.79 912.581 442.178C912.845 441.386 913.271 440.768 913.859 440.324C914.447 439.88 915.185 439.658 916.073 439.658C916.901 439.658 917.579 439.958 918.107 440.558C918.131 440.582 918.155 440.594 918.179 440.594C918.203 440.582 918.215 440.558 918.215 440.522V436.616ZM917.783 446.48C918.059 445.988 918.197 445.292 918.197 444.392C918.197 443.456 918.047 442.742 917.747 442.25C917.423 441.722 916.967 441.458 916.379 441.458C915.767 441.458 915.287 441.71 914.939 442.214C914.579 442.742 914.399 443.474 914.399 444.41C914.399 445.25 914.543 445.94 914.831 446.48C915.167 447.056 915.677 447.344 916.361 447.344C916.973 447.344 917.447 447.056 917.783 446.48ZM923.751 438.542C923.379 438.542 923.073 438.422 922.833 438.182C922.593 437.942 922.473 437.636 922.473 437.264C922.473 436.892 922.593 436.586 922.833 436.346C923.073 436.106 923.379 435.986 923.751 435.986C924.123 435.986 924.429 436.106 924.669 436.346C924.909 436.586 925.029 436.892 925.029 437.264C925.029 437.636 924.909 437.942 924.669 438.182C924.429 438.422 924.123 438.542 923.751 438.542ZM922.887 449C922.827 449 922.773 448.982 922.725 448.946C922.689 448.898 922.671 448.844 922.671 448.784V440C922.671 439.94 922.689 439.892 922.725 439.856C922.773 439.808 922.827 439.784 922.887 439.784H924.543C924.603 439.784 924.651 439.808 924.687 439.856C924.735 439.892 924.759 439.94 924.759 440V448.784C924.759 448.844 924.735 448.898 924.687 448.946C924.651 448.982 924.603 449 924.543 449H922.887ZM934.909 443.366C934.957 443.666 934.981 444.002 934.981 444.374L934.963 444.932C934.963 445.076 934.891 445.148 934.747 445.148H929.113C929.053 445.148 929.023 445.178 929.023 445.238C929.059 445.634 929.113 445.904 929.185 446.048C929.473 446.912 930.175 447.35 931.291 447.362C932.107 447.362 932.755 447.026 933.235 446.354C933.283 446.282 933.343 446.246 933.415 446.246C933.463 446.246 933.505 446.264 933.541 446.3L934.657 447.218C934.765 447.302 934.783 447.398 934.711 447.506C934.339 448.034 933.841 448.442 933.217 448.73C932.605 449.018 931.921 449.162 931.165 449.162C930.229 449.162 929.431 448.952 928.771 448.532C928.123 448.112 927.649 447.524 927.349 446.768C927.073 446.12 926.935 445.22 926.935 444.068C926.935 443.372 927.007 442.808 927.151 442.376C927.391 441.536 927.841 440.876 928.501 440.396C929.173 439.904 929.977 439.658 930.913 439.658C933.277 439.658 934.609 440.894 934.909 443.366ZM930.913 441.458C930.469 441.458 930.097 441.572 929.797 441.8C929.509 442.016 929.305 442.322 929.185 442.718C929.113 442.922 929.065 443.186 929.041 443.51C929.017 443.57 929.041 443.6 929.113 443.6H932.767C932.827 443.6 932.857 443.57 932.857 443.51C932.833 443.21 932.797 442.982 932.749 442.826C932.641 442.394 932.425 442.058 932.101 441.818C931.789 441.578 931.393 441.458 930.913 441.458ZM941.173 439.694C941.557 439.694 941.893 439.772 942.181 439.928C942.277 439.976 942.313 440.066 942.289 440.198L941.983 441.818C941.971 441.962 941.887 442.004 941.731 441.944C941.551 441.884 941.341 441.854 941.101 441.854C940.945 441.854 940.825 441.86 940.741 441.872C940.237 441.896 939.817 442.076 939.481 442.412C939.145 442.736 938.977 443.162 938.977 443.69V448.784C938.977 448.844 938.953 448.898 938.905 448.946C938.869 448.982 938.821 449 938.761 449H937.105C937.045 449 936.991 448.982 936.943 448.946C936.907 448.898 936.889 448.844 936.889 448.784V440.018C936.889 439.958 936.907 439.91 936.943 439.874C936.991 439.826 937.045 439.802 937.105 439.802H938.761C938.821 439.802 938.869 439.826 938.905 439.874C938.953 439.91 938.977 439.958 938.977 440.018V440.828C938.977 440.876 938.983 440.906 938.995 440.918C939.019 440.918 939.043 440.9 939.067 440.864C939.571 440.084 940.273 439.694 941.173 439.694ZM949.093 440.018C949.093 439.958 949.111 439.91 949.147 439.874C949.195 439.826 949.249 439.802 949.309 439.802H950.947C951.007 439.802 951.055 439.826 951.091 439.874C951.139 439.91 951.163 439.958 951.163 440.018V448.784C951.163 448.844 951.139 448.898 951.091 448.946C951.055 448.982 951.007 449 950.947 449H949.309C949.249 449 949.195 448.982 949.147 448.946C949.111 448.898 949.093 448.844 949.093 448.784V448.208C949.093 448.172 949.081 448.148 949.057 448.136C949.033 448.124 949.009 448.136 948.985 448.172C948.493 448.808 947.755 449.126 946.771 449.126C945.859 449.126 945.091 448.862 944.467 448.334C943.855 447.806 943.549 447.056 943.549 446.084V440.018C943.549 439.958 943.567 439.91 943.603 439.874C943.651 439.826 943.705 439.802 943.765 439.802H945.421C945.481 439.802 945.529 439.826 945.565 439.874C945.613 439.91 945.637 439.958 945.637 440.018V445.49C945.637 446.054 945.781 446.504 946.069 446.84C946.369 447.176 946.783 447.344 947.311 447.344C947.851 447.344 948.283 447.176 948.607 446.84C948.931 446.504 949.093 446.054 949.093 445.49V440.018ZM957.805 439.658C958.777 439.658 959.551 439.946 960.127 440.522C960.715 441.098 961.009 441.884 961.009 442.88V448.784C961.009 448.844 960.985 448.898 960.937 448.946C960.901 448.982 960.853 449 960.793 449H959.137C959.077 449 959.023 448.982 958.975 448.946C958.939 448.898 958.921 448.844 958.921 448.784V443.312C958.921 442.76 958.765 442.316 958.453 441.98C958.141 441.632 957.727 441.458 957.211 441.458C956.695 441.458 956.275 441.626 955.951 441.962C955.639 442.298 955.483 442.742 955.483 443.294V448.784C955.483 448.844 955.459 448.898 955.411 448.946C955.375 448.982 955.327 449 955.267 449H953.611C953.551 449 953.497 448.982 953.449 448.946C953.413 448.898 953.395 448.844 953.395 448.784V440.018C953.395 439.958 953.413 439.91 953.449 439.874C953.497 439.826 953.551 439.802 953.611 439.802H955.267C955.327 439.802 955.375 439.826 955.411 439.874C955.459 439.91 955.483 439.958 955.483 440.018V440.594C955.483 440.63 955.495 440.654 955.519 440.666C955.543 440.678 955.561 440.666 955.573 440.63C956.065 439.982 956.809 439.658 957.805 439.658ZM968.82 440.018C968.82 439.958 968.838 439.91 968.874 439.874C968.922 439.826 968.976 439.802 969.036 439.802H970.692C970.752 439.802 970.8 439.826 970.836 439.874C970.884 439.91 970.908 439.958 970.908 440.018V448.388C970.908 449.888 970.476 450.956 969.612 451.592C968.76 452.24 967.638 452.564 966.246 452.564C965.874 452.564 965.508 452.546 965.148 452.51C965.016 452.498 964.95 452.42 964.95 452.276L965.004 450.8C965.004 450.668 965.088 450.602 965.256 450.602C965.604 450.638 965.916 450.656 966.192 450.656C967.092 450.656 967.752 450.476 968.172 450.116C968.604 449.768 968.82 449.174 968.82 448.334V448.19C968.82 448.154 968.808 448.136 968.784 448.136C968.76 448.124 968.736 448.13 968.712 448.154C968.22 448.682 967.524 448.946 966.624 448.946C965.844 448.946 965.13 448.748 964.482 448.352C963.834 447.956 963.384 447.35 963.132 446.534C962.976 445.97 962.898 445.244 962.898 444.356C962.898 443.36 962.994 442.598 963.186 442.07C963.426 441.338 963.84 440.756 964.428 440.324C965.016 439.88 965.706 439.658 966.498 439.658C967.446 439.658 968.184 439.934 968.712 440.486C968.736 440.522 968.76 440.534 968.784 440.522C968.808 440.51 968.82 440.486 968.82 440.45V440.018ZM968.694 445.94C968.742 445.76 968.772 445.568 968.784 445.364C968.808 445.148 968.82 444.806 968.82 444.338C968.82 443.882 968.808 443.558 968.784 443.366C968.772 443.162 968.736 442.964 968.676 442.772C968.58 442.376 968.382 442.058 968.082 441.818C967.794 441.578 967.422 441.458 966.966 441.458C966.534 441.458 966.168 441.578 965.868 441.818C965.568 442.058 965.352 442.376 965.22 442.772C965.076 443.108 965.004 443.636 965.004 444.356C965.004 445.1 965.064 445.622 965.184 445.922C965.304 446.306 965.52 446.624 965.832 446.876C966.156 447.116 966.54 447.236 966.984 447.236C967.452 447.236 967.83 447.116 968.118 446.876C968.406 446.636 968.598 446.324 968.694 445.94Z" fill="black"/>
<path d="M1043.06 443.061C1043.65 442.475 1043.65 441.525 1043.06 440.939L1033.51 431.393C1032.93 430.808 1031.98 430.808 1031.39 431.393C1030.81 431.979 1030.81 432.929 1031.39 433.515L1039.88 442L1031.39 450.485C1030.81 451.071 1030.81 452.021 1031.39 452.607C1031.98 453.192 1032.93 453.192 1033.51 452.607L1043.06 443.061ZM999 443.5H1042V440.5H999V443.5Z" fill="black"/>
<rect x="1047.5" y="404.5" width="154" height="75" fill="#EFEFEF" stroke="black"/>
<path d="M1089.91 437.984C1089.91 438.044 1089.89 438.098 1089.84 438.146C1089.8 438.182 1089.75 438.2 1089.69 438.2H1083.56C1083.5 438.2 1083.47 438.23 1083.47 438.29V441.656C1083.47 441.716 1083.5 441.746 1083.56 441.746H1087.68C1087.74 441.746 1087.79 441.77 1087.82 441.818C1087.87 441.854 1087.89 441.902 1087.89 441.962V443.33C1087.89 443.39 1087.87 443.444 1087.82 443.492C1087.79 443.528 1087.74 443.546 1087.68 443.546H1083.56C1083.5 443.546 1083.47 443.576 1083.47 443.636V447.11C1083.47 447.17 1083.5 447.2 1083.56 447.2H1089.69C1089.75 447.2 1089.8 447.224 1089.84 447.272C1089.89 447.308 1089.91 447.356 1089.91 447.416V448.784C1089.91 448.844 1089.89 448.898 1089.84 448.946C1089.8 448.982 1089.75 449 1089.69 449H1081.59C1081.53 449 1081.48 448.982 1081.43 448.946C1081.4 448.898 1081.38 448.844 1081.38 448.784V436.616C1081.38 436.556 1081.4 436.508 1081.43 436.472C1081.48 436.424 1081.53 436.4 1081.59 436.4H1089.69C1089.75 436.4 1089.8 436.424 1089.84 436.472C1089.89 436.508 1089.91 436.556 1089.91 436.616V437.984ZM1101.68 439.658C1102.6 439.658 1103.32 439.94 1103.84 440.504C1104.37 441.056 1104.63 441.83 1104.63 442.826V448.784C1104.63 448.844 1104.61 448.898 1104.56 448.946C1104.52 448.982 1104.47 449 1104.41 449H1102.78C1102.72 449 1102.66 448.982 1102.61 448.946C1102.58 448.898 1102.56 448.844 1102.56 448.784V443.258C1102.56 442.706 1102.41 442.268 1102.11 441.944C1101.82 441.62 1101.43 441.458 1100.94 441.458C1100.45 441.458 1100.05 441.62 1099.73 441.944C1099.42 442.268 1099.27 442.7 1099.27 443.24V448.784C1099.27 448.844 1099.24 448.898 1099.19 448.946C1099.16 448.982 1099.11 449 1099.05 449H1097.41C1097.35 449 1097.3 448.982 1097.25 448.946C1097.21 448.898 1097.2 448.844 1097.2 448.784V443.258C1097.2 442.706 1097.05 442.268 1096.75 441.944C1096.45 441.62 1096.05 441.458 1095.56 441.458C1095.1 441.458 1094.72 441.59 1094.42 441.854C1094.14 442.118 1093.97 442.478 1093.92 442.934V448.784C1093.92 448.844 1093.9 448.898 1093.85 448.946C1093.81 448.982 1093.76 449 1093.7 449H1092.05C1091.99 449 1091.93 448.982 1091.89 448.946C1091.85 448.898 1091.83 448.844 1091.83 448.784V440.018C1091.83 439.958 1091.85 439.91 1091.89 439.874C1091.93 439.826 1091.99 439.802 1092.05 439.802H1093.7C1093.76 439.802 1093.81 439.826 1093.85 439.874C1093.9 439.91 1093.92 439.958 1093.92 440.018V440.612C1093.92 440.648 1093.93 440.672 1093.96 440.684C1093.98 440.696 1094 440.684 1094.03 440.648C1094.29 440.312 1094.62 440.066 1095 439.91C1095.4 439.742 1095.83 439.658 1096.31 439.658C1096.9 439.658 1097.42 439.778 1097.86 440.018C1098.31 440.258 1098.65 440.606 1098.89 441.062C1098.92 441.11 1098.97 441.11 1099.01 441.062C1099.28 440.582 1099.64 440.228 1100.11 440C1100.58 439.772 1101.1 439.658 1101.68 439.658ZM1114.55 442.178C1114.77 442.79 1114.87 443.54 1114.87 444.428C1114.87 445.28 1114.77 446.012 1114.57 446.624C1114.3 447.416 1113.88 448.034 1113.29 448.478C1112.71 448.922 1111.98 449.144 1111.09 449.144C1110.24 449.144 1109.56 448.838 1109.04 448.226C1109.02 448.202 1108.99 448.196 1108.97 448.208C1108.95 448.22 1108.93 448.244 1108.93 448.28V452.186C1108.93 452.246 1108.91 452.294 1108.86 452.33C1108.83 452.378 1108.78 452.402 1108.72 452.402H1107.06C1107 452.402 1106.95 452.378 1106.9 452.33C1106.86 452.294 1106.85 452.246 1106.85 452.186V440.018C1106.85 439.958 1106.86 439.91 1106.9 439.874C1106.95 439.826 1107 439.802 1107.06 439.802H1108.72C1108.78 439.802 1108.83 439.826 1108.86 439.874C1108.91 439.91 1108.93 439.958 1108.93 440.018V440.558C1108.93 440.594 1108.95 440.618 1108.97 440.63C1108.99 440.642 1109.02 440.63 1109.04 440.594C1109.57 439.97 1110.26 439.658 1111.11 439.658C1111.96 439.658 1112.68 439.88 1113.27 440.324C1113.86 440.768 1114.29 441.386 1114.55 442.178ZM1112.21 446.588C1112.57 446.036 1112.75 445.304 1112.75 444.392C1112.75 443.516 1112.61 442.826 1112.32 442.322C1111.98 441.734 1111.47 441.44 1110.79 441.44C1110.16 441.44 1109.7 441.728 1109.38 442.304C1109.11 442.772 1108.97 443.468 1108.97 444.392C1108.97 445.34 1109.12 446.06 1109.42 446.552C1109.73 447.08 1110.18 447.344 1110.77 447.344C1111.41 447.344 1111.89 447.092 1112.21 446.588ZM1121.69 439.784C1121.75 439.784 1121.79 439.808 1121.83 439.856C1121.88 439.892 1121.9 439.94 1121.9 440V441.422C1121.9 441.482 1121.88 441.536 1121.83 441.584C1121.79 441.62 1121.75 441.638 1121.69 441.638H1119.9C1119.84 441.638 1119.81 441.668 1119.81 441.728V448.784C1119.81 448.844 1119.79 448.898 1119.74 448.946C1119.71 448.982 1119.66 449 1119.6 449H1117.94C1117.88 449 1117.83 448.982 1117.78 448.946C1117.74 448.898 1117.73 448.844 1117.73 448.784V441.728C1117.73 441.668 1117.7 441.638 1117.64 441.638H1116.52C1116.46 441.638 1116.41 441.62 1116.36 441.584C1116.32 441.536 1116.3 441.482 1116.3 441.422V440C1116.3 439.94 1116.32 439.892 1116.36 439.856C1116.41 439.808 1116.46 439.784 1116.52 439.784H1117.64C1117.7 439.784 1117.73 439.754 1117.73 439.694V439.37C1117.73 438.59 1117.83 437.99 1118.03 437.57C1118.24 437.138 1118.57 436.832 1119.04 436.652C1119.51 436.472 1120.17 436.388 1121.02 436.4H1121.65C1121.71 436.4 1121.76 436.424 1121.79 436.472C1121.84 436.508 1121.87 436.556 1121.87 436.616V437.876C1121.87 437.936 1121.84 437.99 1121.79 438.038C1121.76 438.074 1121.71 438.092 1121.65 438.092H1121.18C1120.67 438.092 1120.31 438.194 1120.1 438.398C1119.91 438.602 1119.81 438.974 1119.81 439.514V439.694C1119.81 439.754 1119.84 439.784 1119.9 439.784H1121.69ZM1126.98 439.658C1127.74 439.658 1128.4 439.79 1128.98 440.054C1129.56 440.318 1130 440.684 1130.31 441.152C1130.62 441.608 1130.78 442.13 1130.78 442.718V448.784C1130.78 448.844 1130.76 448.898 1130.71 448.946C1130.67 448.982 1130.62 449 1130.56 449H1128.91C1128.85 449 1128.79 448.982 1128.75 448.946C1128.71 448.898 1128.69 448.844 1128.69 448.784V448.208C1128.69 448.172 1128.68 448.154 1128.66 448.154C1128.63 448.142 1128.61 448.148 1128.58 448.172C1128 448.82 1127.14 449.144 1126.03 449.144C1125.13 449.144 1124.38 448.916 1123.8 448.46C1123.22 448.004 1122.93 447.326 1122.93 446.426C1122.93 445.49 1123.26 444.764 1123.9 444.248C1124.56 443.72 1125.49 443.456 1126.68 443.456H1128.6C1128.66 443.456 1128.69 443.426 1128.69 443.366V442.934C1128.69 442.466 1128.55 442.106 1128.28 441.854C1128 441.59 1127.59 441.458 1127.04 441.458C1126.58 441.458 1126.21 441.542 1125.92 441.71C1125.64 441.866 1125.47 442.088 1125.4 442.376C1125.36 442.52 1125.28 442.58 1125.15 442.556L1123.4 442.34C1123.34 442.328 1123.29 442.31 1123.24 442.286C1123.2 442.25 1123.19 442.208 1123.2 442.16C1123.3 441.428 1123.69 440.828 1124.37 440.36C1125.07 439.892 1125.94 439.658 1126.98 439.658ZM1126.55 447.488C1127.14 447.488 1127.64 447.332 1128.06 447.02C1128.48 446.708 1128.69 446.312 1128.69 445.832V444.986C1128.69 444.926 1128.66 444.896 1128.6 444.896H1127.09C1126.45 444.896 1125.95 445.016 1125.58 445.256C1125.22 445.496 1125.04 445.838 1125.04 446.282C1125.04 446.666 1125.18 446.966 1125.45 447.182C1125.74 447.386 1126.11 447.488 1126.55 447.488ZM1128.76 438.452C1128.39 438.452 1128.09 438.332 1127.85 438.092C1127.61 437.852 1127.49 437.546 1127.49 437.174C1127.49 436.802 1127.61 436.496 1127.85 436.256C1128.09 436.016 1128.39 435.896 1128.76 435.896C1129.14 435.896 1129.44 436.016 1129.66 436.256C1129.9 436.496 1130.02 436.802 1130.02 437.174C1130.02 437.546 1129.9 437.852 1129.66 438.092C1129.42 438.332 1129.12 438.452 1128.76 438.452ZM1125.34 438.452C1124.97 438.452 1124.67 438.332 1124.43 438.092C1124.19 437.852 1124.07 437.546 1124.07 437.174C1124.07 436.802 1124.19 436.496 1124.43 436.256C1124.67 436.016 1124.97 435.896 1125.34 435.896C1125.72 435.896 1126.02 436.016 1126.24 436.256C1126.48 436.496 1126.6 436.802 1126.6 437.174C1126.6 437.546 1126.48 437.852 1126.24 438.092C1126 438.332 1125.7 438.452 1125.34 438.452ZM1137.29 439.658C1138.26 439.658 1139.03 439.946 1139.61 440.522C1140.2 441.098 1140.49 441.884 1140.49 442.88V448.784C1140.49 448.844 1140.47 448.898 1140.42 448.946C1140.38 448.982 1140.33 449 1140.27 449H1138.62C1138.56 449 1138.5 448.982 1138.46 448.946C1138.42 448.898 1138.4 448.844 1138.4 448.784V443.312C1138.4 442.76 1138.25 442.316 1137.93 441.98C1137.62 441.632 1137.21 441.458 1136.69 441.458C1136.18 441.458 1135.76 441.626 1135.43 441.962C1135.12 442.298 1134.96 442.742 1134.96 443.294V448.784C1134.96 448.844 1134.94 448.898 1134.89 448.946C1134.86 448.982 1134.81 449 1134.75 449H1133.09C1133.03 449 1132.98 448.982 1132.93 448.946C1132.89 448.898 1132.88 448.844 1132.88 448.784V440.018C1132.88 439.958 1132.89 439.91 1132.93 439.874C1132.98 439.826 1133.03 439.802 1133.09 439.802H1134.75C1134.81 439.802 1134.86 439.826 1134.89 439.874C1134.94 439.91 1134.96 439.958 1134.96 440.018V440.594C1134.96 440.63 1134.98 440.654 1135 440.666C1135.02 440.678 1135.04 440.666 1135.05 440.63C1135.55 439.982 1136.29 439.658 1137.29 439.658ZM1148.3 440.018C1148.3 439.958 1148.32 439.91 1148.36 439.874C1148.4 439.826 1148.46 439.802 1148.52 439.802H1150.17C1150.23 439.802 1150.28 439.826 1150.32 439.874C1150.37 439.91 1150.39 439.958 1150.39 440.018V448.388C1150.39 449.888 1149.96 450.956 1149.09 451.592C1148.24 452.24 1147.12 452.564 1145.73 452.564C1145.36 452.564 1144.99 452.546 1144.63 452.51C1144.5 452.498 1144.43 452.42 1144.43 452.276L1144.49 450.8C1144.49 450.668 1144.57 450.602 1144.74 450.602C1145.09 450.638 1145.4 450.656 1145.67 450.656C1146.57 450.656 1147.23 450.476 1147.65 450.116C1148.09 449.768 1148.3 449.174 1148.3 448.334V448.19C1148.3 448.154 1148.29 448.136 1148.27 448.136C1148.24 448.124 1148.22 448.13 1148.19 448.154C1147.7 448.682 1147.01 448.946 1146.11 448.946C1145.33 448.946 1144.61 448.748 1143.96 448.352C1143.32 447.956 1142.87 447.35 1142.61 446.534C1142.46 445.97 1142.38 445.244 1142.38 444.356C1142.38 443.36 1142.48 442.598 1142.67 442.07C1142.91 441.338 1143.32 440.756 1143.91 440.324C1144.5 439.88 1145.19 439.658 1145.98 439.658C1146.93 439.658 1147.67 439.934 1148.19 440.486C1148.22 440.522 1148.24 440.534 1148.27 440.522C1148.29 440.51 1148.3 440.486 1148.3 440.45V440.018ZM1148.18 445.94C1148.22 445.76 1148.25 445.568 1148.27 445.364C1148.29 445.148 1148.3 444.806 1148.3 444.338C1148.3 443.882 1148.29 443.558 1148.27 443.366C1148.25 443.162 1148.22 442.964 1148.16 442.772C1148.06 442.376 1147.86 442.058 1147.56 441.818C1147.28 441.578 1146.9 441.458 1146.45 441.458C1146.02 441.458 1145.65 441.578 1145.35 441.818C1145.05 442.058 1144.83 442.376 1144.7 442.772C1144.56 443.108 1144.49 443.636 1144.49 444.356C1144.49 445.1 1144.55 445.622 1144.67 445.922C1144.79 446.306 1145 446.624 1145.31 446.876C1145.64 447.116 1146.02 447.236 1146.47 447.236C1146.93 447.236 1147.31 447.116 1147.6 446.876C1147.89 446.636 1148.08 446.324 1148.18 445.94ZM1160.3 443.366C1160.35 443.666 1160.38 444.002 1160.38 444.374L1160.36 444.932C1160.36 445.076 1160.29 445.148 1160.14 445.148H1154.51C1154.45 445.148 1154.42 445.178 1154.42 445.238C1154.45 445.634 1154.51 445.904 1154.58 446.048C1154.87 446.912 1155.57 447.35 1156.69 447.362C1157.5 447.362 1158.15 447.026 1158.63 446.354C1158.68 446.282 1158.74 446.246 1158.81 446.246C1158.86 446.246 1158.9 446.264 1158.94 446.3L1160.05 447.218C1160.16 447.302 1160.18 447.398 1160.11 447.506C1159.73 448.034 1159.24 448.442 1158.61 448.73C1158 449.018 1157.32 449.162 1156.56 449.162C1155.62 449.162 1154.83 448.952 1154.17 448.532C1153.52 448.112 1153.04 447.524 1152.74 446.768C1152.47 446.12 1152.33 445.22 1152.33 444.068C1152.33 443.372 1152.4 442.808 1152.55 442.376C1152.79 441.536 1153.24 440.876 1153.9 440.396C1154.57 439.904 1155.37 439.658 1156.31 439.658C1158.67 439.658 1160 440.894 1160.3 443.366ZM1156.31 441.458C1155.86 441.458 1155.49 441.572 1155.19 441.8C1154.9 442.016 1154.7 442.322 1154.58 442.718C1154.51 442.922 1154.46 443.186 1154.44 443.51C1154.41 443.57 1154.44 443.6 1154.51 443.6H1158.16C1158.22 443.6 1158.25 443.57 1158.25 443.51C1158.23 443.21 1158.19 442.982 1158.14 442.826C1158.04 442.394 1157.82 442.058 1157.5 441.818C1157.18 441.578 1156.79 441.458 1156.31 441.458ZM1166.57 439.694C1166.95 439.694 1167.29 439.772 1167.58 439.928C1167.67 439.976 1167.71 440.066 1167.68 440.198L1167.38 441.818C1167.37 441.962 1167.28 442.004 1167.13 441.944C1166.95 441.884 1166.74 441.854 1166.5 441.854C1166.34 441.854 1166.22 441.86 1166.14 441.872C1165.63 441.896 1165.21 442.076 1164.88 442.412C1164.54 442.736 1164.37 443.162 1164.37 443.69V448.784C1164.37 448.844 1164.35 448.898 1164.3 448.946C1164.26 448.982 1164.22 449 1164.16 449H1162.5C1162.44 449 1162.39 448.982 1162.34 448.946C1162.3 448.898 1162.28 448.844 1162.28 448.784V440.018C1162.28 439.958 1162.3 439.91 1162.34 439.874C1162.39 439.826 1162.44 439.802 1162.5 439.802H1164.16C1164.22 439.802 1164.26 439.826 1164.3 439.874C1164.35 439.91 1164.37 439.958 1164.37 440.018V440.828C1164.37 440.876 1164.38 440.906 1164.39 440.918C1164.41 440.918 1164.44 440.9 1164.46 440.864C1164.97 440.084 1165.67 439.694 1166.57 439.694Z" fill="black"/>
<path d="M1246.06 443.061C1246.65 442.475 1246.65 441.525 1246.06 440.939L1236.51 431.393C1235.93 430.808 1234.98 430.808 1234.39 431.393C1233.81 431.979 1233.81 432.929 1234.39 433.515L1242.88 442L1234.39 450.485C1233.81 451.071 1233.81 452.021 1234.39 452.607C1234.98 453.192 1235.93 453.192 1236.51 452.607L1246.06 443.061ZM1202 443.5H1245V440.5H1202V443.5Z" fill="black"/>
<rect x="1250.5" y="404.5" width="154" height="75" fill="#EFEFEF" stroke="black"/>
<path d="M1285.68 449C1285.56 449 1285.49 448.94 1285.45 448.82L1281.67 436.652L1281.65 436.58C1281.65 436.46 1281.72 436.4 1281.85 436.4H1283.63C1283.76 436.4 1283.85 436.46 1283.88 436.58L1286.58 445.976C1286.6 446.012 1286.61 446.03 1286.64 446.03C1286.66 446.03 1286.68 446.012 1286.69 445.976L1289.37 436.58C1289.41 436.46 1289.49 436.4 1289.63 436.4H1291.37C1291.44 436.4 1291.5 436.424 1291.53 436.472C1291.57 436.52 1291.58 436.58 1291.55 436.652L1287.72 448.82C1287.68 448.94 1287.6 449 1287.48 449H1285.68ZM1299.95 443.366C1300 443.666 1300.02 444.002 1300.02 444.374L1300.01 444.932C1300.01 445.076 1299.93 445.148 1299.79 445.148H1294.16C1294.1 445.148 1294.07 445.178 1294.07 445.238C1294.1 445.634 1294.16 445.904 1294.23 446.048C1294.52 446.912 1295.22 447.35 1296.33 447.362C1297.15 447.362 1297.8 447.026 1298.28 446.354C1298.33 446.282 1298.39 446.246 1298.46 446.246C1298.51 446.246 1298.55 446.264 1298.58 446.3L1299.7 447.218C1299.81 447.302 1299.83 447.398 1299.75 447.506C1299.38 448.034 1298.88 448.442 1298.26 448.73C1297.65 449.018 1296.96 449.162 1296.21 449.162C1295.27 449.162 1294.47 448.952 1293.81 448.532C1293.17 448.112 1292.69 447.524 1292.39 446.768C1292.12 446.12 1291.98 445.22 1291.98 444.068C1291.98 443.372 1292.05 442.808 1292.19 442.376C1292.43 441.536 1292.88 440.876 1293.54 440.396C1294.22 439.904 1295.02 439.658 1295.96 439.658C1298.32 439.658 1299.65 440.894 1299.95 443.366ZM1295.96 441.458C1295.51 441.458 1295.14 441.572 1294.84 441.8C1294.55 442.016 1294.35 442.322 1294.23 442.718C1294.16 442.922 1294.11 443.186 1294.08 443.51C1294.06 443.57 1294.08 443.6 1294.16 443.6H1297.81C1297.87 443.6 1297.9 443.57 1297.9 443.51C1297.88 443.21 1297.84 442.982 1297.79 442.826C1297.68 442.394 1297.47 442.058 1297.14 441.818C1296.83 441.578 1296.44 441.458 1295.96 441.458ZM1306.22 439.694C1306.6 439.694 1306.94 439.772 1307.22 439.928C1307.32 439.976 1307.36 440.066 1307.33 440.198L1307.03 441.818C1307.01 441.962 1306.93 442.004 1306.77 441.944C1306.59 441.884 1306.38 441.854 1306.14 441.854C1305.99 441.854 1305.87 441.86 1305.78 441.872C1305.28 441.896 1304.86 442.076 1304.52 442.412C1304.19 442.736 1304.02 443.162 1304.02 443.69V448.784C1304.02 448.844 1304 448.898 1303.95 448.946C1303.91 448.982 1303.86 449 1303.8 449H1302.15C1302.09 449 1302.03 448.982 1301.99 448.946C1301.95 448.898 1301.93 448.844 1301.93 448.784V440.018C1301.93 439.958 1301.95 439.91 1301.99 439.874C1302.03 439.826 1302.09 439.802 1302.15 439.802H1303.8C1303.86 439.802 1303.91 439.826 1303.95 439.874C1304 439.91 1304.02 439.958 1304.02 440.018V440.828C1304.02 440.876 1304.03 440.906 1304.04 440.918C1304.06 440.918 1304.09 440.9 1304.11 440.864C1304.61 440.084 1305.32 439.694 1306.22 439.694ZM1311.18 449C1311.04 449 1310.96 448.94 1310.92 448.82L1308.35 440.036L1308.33 439.964C1308.33 439.844 1308.4 439.784 1308.53 439.784H1310.24C1310.37 439.784 1310.46 439.844 1310.49 439.964L1311.99 445.976C1312 446.012 1312.02 446.03 1312.04 446.03C1312.06 446.03 1312.08 446.012 1312.09 445.976L1313.66 439.964C1313.7 439.844 1313.78 439.784 1313.91 439.784H1315.41C1315.54 439.784 1315.62 439.844 1315.66 439.964L1317.26 445.976C1317.27 446.012 1317.29 446.03 1317.31 446.03C1317.34 446.03 1317.36 446.012 1317.37 445.976L1318.97 439.964C1319.01 439.844 1319.09 439.784 1319.22 439.784L1320.91 439.82C1320.99 439.82 1321.03 439.844 1321.06 439.892C1321.09 439.928 1321.11 439.982 1321.09 440.054L1318.5 448.82C1318.47 448.94 1318.39 449 1318.27 449H1316.54C1316.41 449 1316.32 448.94 1316.29 448.82L1314.7 443.33C1314.69 443.294 1314.67 443.276 1314.65 443.276C1314.63 443.276 1314.61 443.294 1314.6 443.33L1313.14 448.82C1313.1 448.94 1313.02 449 1312.89 449H1311.18ZM1329.96 443.366C1330.01 443.666 1330.03 444.002 1330.03 444.374L1330.01 444.932C1330.01 445.076 1329.94 445.148 1329.8 445.148H1324.16C1324.1 445.148 1324.07 445.178 1324.07 445.238C1324.11 445.634 1324.16 445.904 1324.23 446.048C1324.52 446.912 1325.22 447.35 1326.34 447.362C1327.16 447.362 1327.8 447.026 1328.28 446.354C1328.33 446.282 1328.39 446.246 1328.46 446.246C1328.51 446.246 1328.55 446.264 1328.59 446.3L1329.71 447.218C1329.81 447.302 1329.83 447.398 1329.76 447.506C1329.39 448.034 1328.89 448.442 1328.27 448.73C1327.65 449.018 1326.97 449.162 1326.21 449.162C1325.28 449.162 1324.48 448.952 1323.82 448.532C1323.17 448.112 1322.7 447.524 1322.4 446.768C1322.12 446.12 1321.98 445.22 1321.98 444.068C1321.98 443.372 1322.06 442.808 1322.2 442.376C1322.44 441.536 1322.89 440.876 1323.55 440.396C1324.22 439.904 1325.03 439.658 1325.96 439.658C1328.33 439.658 1329.66 440.894 1329.96 443.366ZM1325.96 441.458C1325.52 441.458 1325.15 441.572 1324.85 441.8C1324.56 442.016 1324.35 442.322 1324.23 442.718C1324.16 442.922 1324.11 443.186 1324.09 443.51C1324.07 443.57 1324.09 443.6 1324.16 443.6H1327.82C1327.88 443.6 1327.91 443.57 1327.91 443.51C1327.88 443.21 1327.85 442.982 1327.8 442.826C1327.69 442.394 1327.47 442.058 1327.15 441.818C1326.84 441.578 1326.44 441.458 1325.96 441.458ZM1336.22 439.694C1336.61 439.694 1336.94 439.772 1337.23 439.928C1337.33 439.976 1337.36 440.066 1337.34 440.198L1337.03 441.818C1337.02 441.962 1336.94 442.004 1336.78 441.944C1336.6 441.884 1336.39 441.854 1336.15 441.854C1335.99 441.854 1335.87 441.86 1335.79 441.872C1335.29 441.896 1334.87 442.076 1334.53 442.412C1334.19 442.736 1334.03 443.162 1334.03 443.69V448.784C1334.03 448.844 1334 448.898 1333.95 448.946C1333.92 448.982 1333.87 449 1333.81 449H1332.15C1332.09 449 1332.04 448.982 1331.99 448.946C1331.96 448.898 1331.94 448.844 1331.94 448.784V440.018C1331.94 439.958 1331.96 439.91 1331.99 439.874C1332.04 439.826 1332.09 439.802 1332.15 439.802H1333.81C1333.87 439.802 1333.92 439.826 1333.95 439.874C1334 439.91 1334.03 439.958 1334.03 440.018V440.828C1334.03 440.876 1334.03 440.906 1334.04 440.918C1334.07 440.918 1334.09 440.9 1334.12 440.864C1334.62 440.084 1335.32 439.694 1336.22 439.694ZM1343.74 441.278C1343.74 441.338 1343.72 441.392 1343.67 441.44C1343.63 441.476 1343.59 441.494 1343.53 441.494H1341.69C1341.63 441.494 1341.6 441.524 1341.6 441.584V445.922C1341.6 446.378 1341.7 446.708 1341.89 446.912C1342.09 447.116 1342.41 447.218 1342.84 447.218H1343.38C1343.44 447.218 1343.49 447.242 1343.53 447.29C1343.57 447.326 1343.6 447.374 1343.6 447.434V448.784C1343.6 448.916 1343.53 448.994 1343.38 449.018L1342.45 449.036C1341.5 449.036 1340.79 448.874 1340.32 448.55C1339.85 448.226 1339.61 447.614 1339.6 446.714V441.584C1339.6 441.524 1339.57 441.494 1339.51 441.494H1338.49C1338.43 441.494 1338.37 441.476 1338.32 441.44C1338.29 441.392 1338.27 441.338 1338.27 441.278V440.018C1338.27 439.958 1338.29 439.91 1338.32 439.874C1338.37 439.826 1338.43 439.802 1338.49 439.802H1339.51C1339.57 439.802 1339.6 439.772 1339.6 439.712V437.606C1339.6 437.546 1339.62 437.498 1339.66 437.462C1339.7 437.414 1339.76 437.39 1339.82 437.39H1341.38C1341.44 437.39 1341.49 437.414 1341.53 437.462C1341.58 437.498 1341.6 437.546 1341.6 437.606V439.712C1341.6 439.772 1341.63 439.802 1341.69 439.802H1343.53C1343.59 439.802 1343.63 439.826 1343.67 439.874C1343.72 439.91 1343.74 439.958 1343.74 440.018V441.278ZM1351.03 440.018C1351.03 439.958 1351.05 439.91 1351.09 439.874C1351.13 439.826 1351.19 439.802 1351.25 439.802H1352.89C1352.95 439.802 1352.99 439.826 1353.03 439.874C1353.08 439.91 1353.1 439.958 1353.1 440.018V448.784C1353.1 448.844 1353.08 448.898 1353.03 448.946C1352.99 448.982 1352.95 449 1352.89 449H1351.25C1351.19 449 1351.13 448.982 1351.09 448.946C1351.05 448.898 1351.03 448.844 1351.03 448.784V448.208C1351.03 448.172 1351.02 448.148 1351 448.136C1350.97 448.124 1350.95 448.136 1350.92 448.172C1350.43 448.808 1349.69 449.126 1348.71 449.126C1347.8 449.126 1347.03 448.862 1346.41 448.334C1345.79 447.806 1345.49 447.056 1345.49 446.084V440.018C1345.49 439.958 1345.51 439.91 1345.54 439.874C1345.59 439.826 1345.64 439.802 1345.7 439.802H1347.36C1347.42 439.802 1347.47 439.826 1347.5 439.874C1347.55 439.91 1347.58 439.958 1347.58 440.018V445.49C1347.58 446.054 1347.72 446.504 1348.01 446.84C1348.31 447.176 1348.72 447.344 1349.25 447.344C1349.79 447.344 1350.22 447.176 1350.55 446.84C1350.87 446.504 1351.03 446.054 1351.03 445.49V440.018ZM1359.74 439.658C1360.72 439.658 1361.49 439.946 1362.07 440.522C1362.65 441.098 1362.95 441.884 1362.95 442.88V448.784C1362.95 448.844 1362.92 448.898 1362.88 448.946C1362.84 448.982 1362.79 449 1362.73 449H1361.08C1361.02 449 1360.96 448.982 1360.91 448.946C1360.88 448.898 1360.86 448.844 1360.86 448.784V443.312C1360.86 442.76 1360.7 442.316 1360.39 441.98C1360.08 441.632 1359.67 441.458 1359.15 441.458C1358.63 441.458 1358.21 441.626 1357.89 441.962C1357.58 442.298 1357.42 442.742 1357.42 443.294V448.784C1357.42 448.844 1357.4 448.898 1357.35 448.946C1357.31 448.982 1357.27 449 1357.21 449H1355.55C1355.49 449 1355.44 448.982 1355.39 448.946C1355.35 448.898 1355.33 448.844 1355.33 448.784V440.018C1355.33 439.958 1355.35 439.91 1355.39 439.874C1355.44 439.826 1355.49 439.802 1355.55 439.802H1357.21C1357.27 439.802 1357.31 439.826 1357.35 439.874C1357.4 439.91 1357.42 439.958 1357.42 440.018V440.594C1357.42 440.63 1357.43 440.654 1357.46 440.666C1357.48 440.678 1357.5 440.666 1357.51 440.63C1358 439.982 1358.75 439.658 1359.74 439.658ZM1370.76 440.018C1370.76 439.958 1370.78 439.91 1370.81 439.874C1370.86 439.826 1370.92 439.802 1370.98 439.802H1372.63C1372.69 439.802 1372.74 439.826 1372.78 439.874C1372.82 439.91 1372.85 439.958 1372.85 440.018V448.388C1372.85 449.888 1372.42 450.956 1371.55 451.592C1370.7 452.24 1369.58 452.564 1368.19 452.564C1367.81 452.564 1367.45 452.546 1367.09 452.51C1366.96 452.498 1366.89 452.42 1366.89 452.276L1366.94 450.8C1366.94 450.668 1367.03 450.602 1367.2 450.602C1367.54 450.638 1367.86 450.656 1368.13 450.656C1369.03 450.656 1369.69 450.476 1370.11 450.116C1370.54 449.768 1370.76 449.174 1370.76 448.334V448.19C1370.76 448.154 1370.75 448.136 1370.72 448.136C1370.7 448.124 1370.68 448.13 1370.65 448.154C1370.16 448.682 1369.46 448.946 1368.56 448.946C1367.78 448.946 1367.07 448.748 1366.42 448.352C1365.77 447.956 1365.32 447.35 1365.07 446.534C1364.92 445.97 1364.84 445.244 1364.84 444.356C1364.84 443.36 1364.93 442.598 1365.13 442.07C1365.37 441.338 1365.78 440.756 1366.37 440.324C1366.96 439.88 1367.65 439.658 1368.44 439.658C1369.39 439.658 1370.12 439.934 1370.65 440.486C1370.68 440.522 1370.7 440.534 1370.72 440.522C1370.75 440.51 1370.76 440.486 1370.76 440.45V440.018ZM1370.63 445.94C1370.68 445.76 1370.71 445.568 1370.72 445.364C1370.75 445.148 1370.76 444.806 1370.76 444.338C1370.76 443.882 1370.75 443.558 1370.72 443.366C1370.71 443.162 1370.68 442.964 1370.62 442.772C1370.52 442.376 1370.32 442.058 1370.02 441.818C1369.73 441.578 1369.36 441.458 1368.91 441.458C1368.47 441.458 1368.11 441.578 1367.81 441.818C1367.51 442.058 1367.29 442.376 1367.16 442.772C1367.02 443.108 1366.94 443.636 1366.94 444.356C1366.94 445.1 1367 445.622 1367.12 445.922C1367.24 446.306 1367.46 446.624 1367.77 446.876C1368.1 447.116 1368.48 447.236 1368.92 447.236C1369.39 447.236 1369.77 447.116 1370.06 446.876C1370.35 446.636 1370.54 446.324 1370.63 445.94Z" fill="black"/>
<path d="M691.794 612.144C690.858 612.144 690.042 611.994 689.346 611.694C688.65 611.394 688.11 610.974 687.726 610.434C687.354 609.894 687.168 609.258 687.168 608.526V608.076C687.168 608.016 687.186 607.968 687.222 607.932C687.27 607.884 687.324 607.86 687.384 607.86H688.986C689.046 607.86 689.094 607.884 689.13 607.932C689.178 607.968 689.202 608.016 689.202 608.076V608.418C689.202 608.97 689.448 609.432 689.94 609.804C690.432 610.164 691.104 610.344 691.956 610.344C692.688 610.344 693.24 610.188 693.612 609.876C693.984 609.564 694.17 609.162 694.17 608.67C694.17 608.334 694.068 608.052 693.864 607.824C693.66 607.584 693.366 607.368 692.982 607.176C692.61 606.984 692.046 606.744 691.29 606.456C690.438 606.144 689.748 605.85 689.22 605.574C688.692 605.298 688.248 604.926 687.888 604.458C687.54 603.978 687.366 603.384 687.366 602.676C687.366 601.62 687.75 600.786 688.518 600.174C689.286 599.562 690.312 599.256 691.596 599.256C692.496 599.256 693.288 599.412 693.972 599.724C694.668 600.036 695.208 600.474 695.592 601.038C695.976 601.59 696.168 602.232 696.168 602.964V603.27C696.168 603.33 696.144 603.384 696.096 603.432C696.06 603.468 696.012 603.486 695.952 603.486H694.332C694.272 603.486 694.218 603.468 694.17 603.432C694.134 603.384 694.116 603.33 694.116 603.27V603.072C694.116 602.508 693.882 602.034 693.414 601.65C692.958 601.254 692.322 601.056 691.506 601.056C690.846 601.056 690.33 601.194 689.958 601.47C689.598 601.746 689.418 602.136 689.418 602.64C689.418 603 689.514 603.294 689.706 603.522C689.898 603.75 690.186 603.96 690.57 604.152C690.954 604.332 691.548 604.566 692.352 604.854C693.204 605.178 693.882 605.472 694.386 605.736C694.902 606 695.34 606.372 695.7 606.852C696.072 607.32 696.258 607.908 696.258 608.616C696.258 609.696 695.856 610.554 695.052 611.19C694.26 611.826 693.174 612.144 691.794 612.144ZM703.041 604.278C703.041 604.338 703.017 604.392 702.969 604.44C702.933 604.476 702.885 604.494 702.825 604.494H700.989C700.929 604.494 700.899 604.524 700.899 604.584V608.922C700.899 609.378 700.995 609.708 701.187 609.912C701.391 610.116 701.709 610.218 702.141 610.218H702.681C702.741 610.218 702.789 610.242 702.825 610.29C702.873 610.326 702.897 610.374 702.897 610.434V611.784C702.897 611.916 702.825 611.994 702.681 612.018L701.745 612.036C700.797 612.036 700.089 611.874 699.621 611.55C699.153 611.226 698.913 610.614 698.901 609.714V604.584C698.901 604.524 698.871 604.494 698.811 604.494H697.785C697.725 604.494 697.671 604.476 697.623 604.44C697.587 604.392 697.569 604.338 697.569 604.278V603.018C697.569 602.958 697.587 602.91 697.623 602.874C697.671 602.826 697.725 602.802 697.785 602.802H698.811C698.871 602.802 698.901 602.772 698.901 602.712V600.606C698.901 600.546 698.919 600.498 698.955 600.462C699.003 600.414 699.057 600.39 699.117 600.39H700.683C700.743 600.39 700.791 600.414 700.827 600.462C700.875 600.498 700.899 600.546 700.899 600.606V602.712C700.899 602.772 700.929 602.802 700.989 602.802H702.825C702.885 602.802 702.933 602.826 702.969 602.874C703.017 602.91 703.041 602.958 703.041 603.018V604.278ZM708.626 612.144C707.678 612.144 706.862 611.904 706.178 611.424C705.506 610.944 705.032 610.278 704.756 609.426C704.552 608.778 704.45 608.094 704.45 607.374C704.45 606.606 704.546 605.922 704.738 605.322C705.014 604.482 705.494 603.828 706.178 603.36C706.862 602.892 707.684 602.658 708.644 602.658C709.556 602.658 710.342 602.892 711.002 603.36C711.674 603.828 712.148 604.476 712.424 605.304C712.64 605.88 712.748 606.564 712.748 607.356C712.748 608.112 712.646 608.796 712.442 609.408C712.166 610.26 711.692 610.932 711.02 611.424C710.348 611.904 709.55 612.144 708.626 612.144ZM708.626 610.344C709.07 610.344 709.448 610.218 709.76 609.966C710.084 609.714 710.318 609.36 710.462 608.904C710.582 608.508 710.642 608.004 710.642 607.392C710.642 606.744 710.582 606.24 710.462 605.88C710.33 605.424 710.102 605.076 709.778 604.836C709.454 604.584 709.058 604.458 708.59 604.458C708.146 604.458 707.762 604.584 707.438 604.836C707.114 605.076 706.88 605.424 706.736 605.88C706.616 606.3 706.556 606.804 706.556 607.392C706.556 607.98 706.616 608.484 706.736 608.904C706.868 609.36 707.096 609.714 707.42 609.966C707.756 610.218 708.158 610.344 708.626 610.344ZM710.21 601.452C709.838 601.452 709.532 601.332 709.292 601.092C709.052 600.852 708.932 600.546 708.932 600.174C708.932 599.802 709.052 599.496 709.292 599.256C709.532 599.016 709.838 598.896 710.21 598.896C710.582 598.896 710.882 599.016 711.11 599.256C711.35 599.496 711.47 599.802 711.47 600.174C711.47 600.546 711.35 600.852 711.11 601.092C710.87 601.332 710.57 601.452 710.21 601.452ZM706.79 601.452C706.418 601.452 706.112 601.332 705.872 601.092C705.632 600.852 705.512 600.546 705.512 600.174C705.512 599.802 705.632 599.496 705.872 599.256C706.112 599.016 706.418 598.896 706.79 598.896C707.162 598.896 707.462 599.016 707.69 599.256C707.93 599.496 708.05 599.802 708.05 600.174C708.05 600.546 707.93 600.852 707.69 601.092C707.45 601.332 707.15 601.452 706.79 601.452ZM718.812 602.694C719.196 602.694 719.532 602.772 719.82 602.928C719.916 602.976 719.952 603.066 719.928 603.198L719.622 604.818C719.61 604.962 719.526 605.004 719.37 604.944C719.19 604.884 718.98 604.854 718.74 604.854C718.584 604.854 718.464 604.86 718.38 604.872C717.876 604.896 717.456 605.076 717.12 605.412C716.784 605.736 716.616 606.162 716.616 606.69V611.784C716.616 611.844 716.592 611.898 716.544 611.946C716.508 611.982 716.46 612 716.4 612H714.744C714.684 612 714.63 611.982 714.582 611.946C714.546 611.898 714.528 611.844 714.528 611.784V603.018C714.528 602.958 714.546 602.91 714.582 602.874C714.63 602.826 714.684 602.802 714.744 602.802H716.4C716.46 602.802 716.508 602.826 716.544 602.874C716.592 602.91 716.616 602.958 716.616 603.018V603.828C716.616 603.876 716.622 603.906 716.634 603.918C716.658 603.918 716.682 603.9 716.706 603.864C717.21 603.084 717.912 602.694 718.812 602.694ZM726.732 603.018C726.732 602.958 726.75 602.91 726.786 602.874C726.834 602.826 726.888 602.802 726.948 602.802H728.586C728.646 602.802 728.694 602.826 728.73 602.874C728.778 602.91 728.802 602.958 728.802 603.018V611.784C728.802 611.844 728.778 611.898 728.73 611.946C728.694 611.982 728.646 612 728.586 612H726.948C726.888 612 726.834 611.982 726.786 611.946C726.75 611.898 726.732 611.844 726.732 611.784V611.208C726.732 611.172 726.72 611.148 726.696 611.136C726.672 611.124 726.648 611.136 726.624 611.172C726.132 611.808 725.394 612.126 724.41 612.126C723.498 612.126 722.73 611.862 722.106 611.334C721.494 610.806 721.188 610.056 721.188 609.084V603.018C721.188 602.958 721.206 602.91 721.242 602.874C721.29 602.826 721.344 602.802 721.404 602.802H723.06C723.12 602.802 723.168 602.826 723.204 602.874C723.252 602.91 723.276 602.958 723.276 603.018V608.49C723.276 609.054 723.42 609.504 723.708 609.84C724.008 610.176 724.422 610.344 724.95 610.344C725.49 610.344 725.922 610.176 726.246 609.84C726.57 609.504 726.732 609.054 726.732 608.49V603.018ZM735.444 602.658C736.416 602.658 737.19 602.946 737.766 603.522C738.354 604.098 738.648 604.884 738.648 605.88V611.784C738.648 611.844 738.624 611.898 738.576 611.946C738.54 611.982 738.492 612 738.432 612H736.776C736.716 612 736.662 611.982 736.614 611.946C736.578 611.898 736.56 611.844 736.56 611.784V606.312C736.56 605.76 736.404 605.316 736.092 604.98C735.78 604.632 735.366 604.458 734.85 604.458C734.334 604.458 733.914 604.626 733.59 604.962C733.278 605.298 733.122 605.742 733.122 606.294V611.784C733.122 611.844 733.098 611.898 733.05 611.946C733.014 611.982 732.966 612 732.906 612H731.25C731.19 612 731.136 611.982 731.088 611.946C731.052 611.898 731.034 611.844 731.034 611.784V603.018C731.034 602.958 731.052 602.91 731.088 602.874C731.136 602.826 731.19 602.802 731.25 602.802H732.906C732.966 602.802 733.014 602.826 733.05 602.874C733.098 602.91 733.122 602.958 733.122 603.018V603.594C733.122 603.63 733.134 603.654 733.158 603.666C733.182 603.678 733.2 603.666 733.212 603.63C733.704 602.982 734.448 602.658 735.444 602.658ZM746.459 603.018C746.459 602.958 746.477 602.91 746.513 602.874C746.561 602.826 746.615 602.802 746.675 602.802H748.331C748.391 602.802 748.439 602.826 748.475 602.874C748.523 602.91 748.547 602.958 748.547 603.018V611.388C748.547 612.888 748.115 613.956 747.251 614.592C746.399 615.24 745.277 615.564 743.885 615.564C743.513 615.564 743.147 615.546 742.787 615.51C742.655 615.498 742.589 615.42 742.589 615.276L742.643 613.8C742.643 613.668 742.727 613.602 742.895 613.602C743.243 613.638 743.555 613.656 743.831 613.656C744.731 613.656 745.391 613.476 745.811 613.116C746.243 612.768 746.459 612.174 746.459 611.334V611.19C746.459 611.154 746.447 611.136 746.423 611.136C746.399 611.124 746.375 611.13 746.351 611.154C745.859 611.682 745.163 611.946 744.263 611.946C743.483 611.946 742.769 611.748 742.121 611.352C741.473 610.956 741.023 610.35 740.771 609.534C740.615 608.97 740.537 608.244 740.537 607.356C740.537 606.36 740.633 605.598 740.825 605.07C741.065 604.338 741.479 603.756 742.067 603.324C742.655 602.88 743.345 602.658 744.137 602.658C745.085 602.658 745.823 602.934 746.351 603.486C746.375 603.522 746.399 603.534 746.423 603.522C746.447 603.51 746.459 603.486 746.459 603.45V603.018ZM746.333 608.94C746.381 608.76 746.411 608.568 746.423 608.364C746.447 608.148 746.459 607.806 746.459 607.338C746.459 606.882 746.447 606.558 746.423 606.366C746.411 606.162 746.375 605.964 746.315 605.772C746.219 605.376 746.021 605.058 745.721 604.818C745.433 604.578 745.061 604.458 744.605 604.458C744.173 604.458 743.807 604.578 743.507 604.818C743.207 605.058 742.991 605.376 742.859 605.772C742.715 606.108 742.643 606.636 742.643 607.356C742.643 608.1 742.703 608.622 742.823 608.922C742.943 609.306 743.159 609.624 743.471 609.876C743.795 610.116 744.179 610.236 744.623 610.236C745.091 610.236 745.469 610.116 745.757 609.876C746.045 609.636 746.237 609.324 746.333 608.94Z" fill="black"/>
<path d="M721.061 480.939C720.475 480.354 719.525 480.354 718.939 480.939L709.393 490.485C708.808 491.071 708.808 492.021 709.393 492.607C709.979 493.192 710.929 493.192 711.515 492.607L720 484.121L728.485 492.607C729.071 493.192 730.021 493.192 730.607 492.607C731.192 492.021 731.192 491.071 730.607 490.485L721.061 480.939ZM721.5 594L721.5 482L718.5 482L718.5 594L721.5 594Z" fill="black"/>
<path d="M491.976 741C491.916 741 491.862 740.982 491.814 740.946C491.778 740.898 491.76 740.844 491.76 740.784V739.254C491.76 739.17 491.79 739.08 491.85 738.984L497.916 730.308C497.94 730.284 497.946 730.26 497.934 730.236C497.922 730.212 497.898 730.2 497.862 730.2H491.976C491.916 730.2 491.862 730.182 491.814 730.146C491.778 730.098 491.76 730.044 491.76 729.984V728.616C491.76 728.556 491.778 728.508 491.814 728.472C491.862 728.424 491.916 728.4 491.976 728.4H500.076C500.136 728.4 500.184 728.424 500.22 728.472C500.268 728.508 500.292 728.556 500.292 728.616V730.146C500.292 730.23 500.262 730.32 500.202 730.416L494.136 739.092C494.112 739.116 494.106 739.14 494.118 739.164C494.13 739.188 494.154 739.2 494.19 739.2H500.076C500.136 739.2 500.184 739.224 500.22 739.272C500.268 739.308 500.292 739.356 500.292 739.416V740.784C500.292 740.844 500.268 740.898 500.22 740.946C500.184 740.982 500.136 741 500.076 741H491.976ZM509.935 735.366C509.983 735.666 510.007 736.002 510.007 736.374L509.989 736.932C509.989 737.076 509.917 737.148 509.773 737.148H504.139C504.079 737.148 504.049 737.178 504.049 737.238C504.085 737.634 504.139 737.904 504.211 738.048C504.499 738.912 505.201 739.35 506.317 739.362C507.133 739.362 507.781 739.026 508.261 738.354C508.309 738.282 508.369 738.246 508.441 738.246C508.489 738.246 508.531 738.264 508.567 738.3L509.683 739.218C509.791 739.302 509.809 739.398 509.737 739.506C509.365 740.034 508.867 740.442 508.243 740.73C507.631 741.018 506.947 741.162 506.191 741.162C505.255 741.162 504.457 740.952 503.797 740.532C503.149 740.112 502.675 739.524 502.375 738.768C502.099 738.12 501.961 737.22 501.961 736.068C501.961 735.372 502.033 734.808 502.177 734.376C502.417 733.536 502.867 732.876 503.527 732.396C504.199 731.904 505.003 731.658 505.939 731.658C508.303 731.658 509.635 732.894 509.935 735.366ZM505.939 733.458C505.495 733.458 505.123 733.572 504.823 733.8C504.535 734.016 504.331 734.322 504.211 734.718C504.139 734.922 504.091 735.186 504.067 735.51C504.043 735.57 504.067 735.6 504.139 735.6H507.793C507.853 735.6 507.883 735.57 507.883 735.51C507.859 735.21 507.823 734.982 507.775 734.826C507.667 734.394 507.451 734.058 507.127 733.818C506.815 733.578 506.419 733.458 505.939 733.458ZM513.103 730.542C512.731 730.542 512.425 730.422 512.185 730.182C511.945 729.942 511.825 729.636 511.825 729.264C511.825 728.892 511.945 728.586 512.185 728.346C512.425 728.106 512.731 727.986 513.103 727.986C513.475 727.986 513.781 728.106 514.021 728.346C514.261 728.586 514.381 728.892 514.381 729.264C514.381 729.636 514.261 729.942 514.021 730.182C513.781 730.422 513.475 730.542 513.103 730.542ZM512.239 741C512.179 741 512.125 740.982 512.077 740.946C512.041 740.898 512.023 740.844 512.023 740.784V732C512.023 731.94 512.041 731.892 512.077 731.856C512.125 731.808 512.179 731.784 512.239 731.784H513.895C513.955 731.784 514.003 731.808 514.039 731.856C514.087 731.892 514.111 731.94 514.111 732V740.784C514.111 740.844 514.087 740.898 514.039 740.946C514.003 740.982 513.955 741 513.895 741H512.239ZM520.337 741.144C519.413 741.144 518.615 740.91 517.943 740.442C517.271 739.962 516.803 739.32 516.539 738.516C516.347 737.976 516.251 737.256 516.251 736.356C516.251 735.492 516.347 734.784 516.539 734.232C516.791 733.44 517.253 732.816 517.925 732.36C518.609 731.892 519.413 731.658 520.337 731.658C521.273 731.658 522.089 731.892 522.785 732.36C523.481 732.828 523.943 733.416 524.171 734.124C524.231 734.316 524.273 734.508 524.297 734.7V734.736C524.297 734.856 524.231 734.928 524.099 734.952L522.479 735.186H522.443C522.335 735.186 522.263 735.126 522.227 735.006C522.227 734.946 522.221 734.898 522.209 734.862C522.185 734.766 522.161 734.682 522.137 734.61C522.029 734.274 521.813 733.998 521.489 733.782C521.165 733.566 520.781 733.458 520.337 733.458C519.881 733.458 519.491 733.578 519.167 733.818C518.855 734.046 518.645 734.364 518.537 734.772C518.417 735.156 518.357 735.69 518.357 736.374C518.357 737.034 518.411 737.568 518.519 737.976C518.639 738.396 518.855 738.732 519.167 738.984C519.479 739.224 519.869 739.344 520.337 739.344C520.793 739.344 521.183 739.23 521.507 739.002C521.843 738.762 522.059 738.444 522.155 738.048C522.167 738.024 522.173 737.994 522.173 737.958C522.185 737.946 522.191 737.928 522.191 737.904C522.227 737.76 522.311 737.7 522.443 737.724L524.063 737.976C524.123 737.988 524.171 738.018 524.207 738.066C524.255 738.102 524.273 738.156 524.261 738.228C524.225 738.42 524.195 738.558 524.171 738.642C523.943 739.41 523.481 740.022 522.785 740.478C522.089 740.922 521.273 741.144 520.337 741.144ZM530.475 731.658C531.447 731.658 532.221 731.946 532.797 732.522C533.385 733.098 533.679 733.884 533.679 734.88V740.784C533.679 740.844 533.655 740.898 533.607 740.946C533.571 740.982 533.523 741 533.463 741H531.807C531.747 741 531.693 740.982 531.645 740.946C531.609 740.898 531.591 740.844 531.591 740.784V735.312C531.591 734.76 531.435 734.316 531.123 733.98C530.811 733.632 530.397 733.458 529.881 733.458C529.365 733.458 528.945 733.626 528.621 733.962C528.309 734.298 528.153 734.742 528.153 735.294V740.784C528.153 740.844 528.129 740.898 528.081 740.946C528.045 740.982 527.997 741 527.937 741H526.281C526.221 741 526.167 740.982 526.119 740.946C526.083 740.898 526.065 740.844 526.065 740.784V728.616C526.065 728.556 526.083 728.508 526.119 728.472C526.167 728.424 526.221 728.4 526.281 728.4H527.937C527.997 728.4 528.045 728.424 528.081 728.472C528.129 728.508 528.153 728.556 528.153 728.616V732.594C528.153 732.63 528.165 732.654 528.189 732.666C528.213 732.678 528.231 732.666 528.243 732.63C528.735 731.982 529.479 731.658 530.475 731.658ZM543.544 735.366C543.592 735.666 543.616 736.002 543.616 736.374L543.598 736.932C543.598 737.076 543.526 737.148 543.382 737.148H537.748C537.688 737.148 537.658 737.178 537.658 737.238C537.694 737.634 537.748 737.904 537.82 738.048C538.108 738.912 538.81 739.35 539.926 739.362C540.742 739.362 541.39 739.026 541.87 738.354C541.918 738.282 541.978 738.246 542.05 738.246C542.098 738.246 542.14 738.264 542.176 738.3L543.292 739.218C543.4 739.302 543.418 739.398 543.346 739.506C542.974 740.034 542.476 740.442 541.852 740.73C541.24 741.018 540.556 741.162 539.8 741.162C538.864 741.162 538.066 740.952 537.406 740.532C536.758 740.112 536.284 739.524 535.984 738.768C535.708 738.12 535.57 737.22 535.57 736.068C535.57 735.372 535.642 734.808 535.786 734.376C536.026 733.536 536.476 732.876 537.136 732.396C537.808 731.904 538.612 731.658 539.548 731.658C541.912 731.658 543.244 732.894 543.544 735.366ZM539.548 733.458C539.104 733.458 538.732 733.572 538.432 733.8C538.144 734.016 537.94 734.322 537.82 734.718C537.748 734.922 537.7 735.186 537.676 735.51C537.652 735.57 537.676 735.6 537.748 735.6H541.402C541.462 735.6 541.492 735.57 541.492 735.51C541.468 735.21 541.432 734.982 541.384 734.826C541.276 734.394 541.06 734.058 540.736 733.818C540.424 733.578 540.028 733.458 539.548 733.458ZM549.934 731.658C550.906 731.658 551.68 731.946 552.256 732.522C552.844 733.098 553.138 733.884 553.138 734.88V740.784C553.138 740.844 553.114 740.898 553.066 740.946C553.03 740.982 552.982 741 552.922 741H551.266C551.206 741 551.152 740.982 551.104 740.946C551.068 740.898 551.05 740.844 551.05 740.784V735.312C551.05 734.76 550.894 734.316 550.582 733.98C550.27 733.632 549.856 733.458 549.34 733.458C548.824 733.458 548.404 733.626 548.08 733.962C547.768 734.298 547.612 734.742 547.612 735.294V740.784C547.612 740.844 547.588 740.898 547.54 740.946C547.504 740.982 547.456 741 547.396 741H545.74C545.68 741 545.626 740.982 545.578 740.946C545.542 740.898 545.524 740.844 545.524 740.784V732.018C545.524 731.958 545.542 731.91 545.578 731.874C545.626 731.826 545.68 731.802 545.74 731.802H547.396C547.456 731.802 547.504 731.826 547.54 731.874C547.588 731.91 547.612 731.958 547.612 732.018V732.594C547.612 732.63 547.624 732.654 547.648 732.666C547.672 732.678 547.69 732.666 547.702 732.63C548.194 731.982 548.938 731.658 549.934 731.658ZM557.483 741C557.363 741 557.285 740.94 557.249 740.82L554.351 732.036C554.339 732.012 554.333 731.982 554.333 731.946C554.333 731.838 554.399 731.784 554.531 731.784H556.367C556.499 731.784 556.583 731.844 556.619 731.964L558.365 737.976C558.377 738.012 558.395 738.03 558.419 738.03C558.443 738.03 558.461 738.012 558.473 737.976L560.219 731.964C560.255 731.844 560.339 731.784 560.471 731.784L562.307 731.82C562.379 731.82 562.433 731.844 562.469 731.892C562.505 731.928 562.511 731.988 562.487 732.072L559.607 740.82C559.571 740.94 559.493 741 559.373 741H557.483ZM567.483 741.144C566.535 741.144 565.719 740.904 565.035 740.424C564.363 739.944 563.889 739.278 563.613 738.426C563.409 737.778 563.307 737.094 563.307 736.374C563.307 735.606 563.403 734.922 563.595 734.322C563.871 733.482 564.351 732.828 565.035 732.36C565.719 731.892 566.541 731.658 567.501 731.658C568.413 731.658 569.199 731.892 569.859 732.36C570.531 732.828 571.005 733.476 571.281 734.304C571.497 734.88 571.605 735.564 571.605 736.356C571.605 737.112 571.503 737.796 571.299 738.408C571.023 739.26 570.549 739.932 569.877 740.424C569.205 740.904 568.407 741.144 567.483 741.144ZM567.483 739.344C567.927 739.344 568.305 739.218 568.617 738.966C568.941 738.714 569.175 738.36 569.319 737.904C569.439 737.508 569.499 737.004 569.499 736.392C569.499 735.744 569.439 735.24 569.319 734.88C569.187 734.424 568.959 734.076 568.635 733.836C568.311 733.584 567.915 733.458 567.447 733.458C567.003 733.458 566.619 733.584 566.295 733.836C565.971 734.076 565.737 734.424 565.593 734.88C565.473 735.3 565.413 735.804 565.413 736.392C565.413 736.98 565.473 737.484 565.593 737.904C565.725 738.36 565.953 738.714 566.277 738.966C566.613 739.218 567.015 739.344 567.483 739.344ZM577.863 731.694C578.247 731.694 578.583 731.772 578.871 731.928C578.967 731.976 579.003 732.066 578.979 732.198L578.673 733.818C578.661 733.962 578.577 734.004 578.421 733.944C578.241 733.884 578.031 733.854 577.791 733.854C577.635 733.854 577.515 733.86 577.431 733.872C576.927 733.896 576.507 734.076 576.171 734.412C575.835 734.736 575.667 735.162 575.667 735.69V740.784C575.667 740.844 575.643 740.898 575.595 740.946C575.559 740.982 575.511 741 575.451 741H573.795C573.735 741 573.681 740.982 573.633 740.946C573.597 740.898 573.579 740.844 573.579 740.784V732.018C573.579 731.958 573.597 731.91 573.633 731.874C573.681 731.826 573.735 731.802 573.795 731.802H575.451C575.511 731.802 575.559 731.826 575.595 731.874C575.643 731.91 575.667 731.958 575.667 732.018V732.828C575.667 732.876 575.673 732.906 575.685 732.918C575.709 732.918 575.733 732.9 575.757 732.864C576.261 732.084 576.963 731.694 577.863 731.694ZM584.63 731.694C585.014 731.694 585.35 731.772 585.638 731.928C585.734 731.976 585.77 732.066 585.746 732.198L585.44 733.818C585.428 733.962 585.344 734.004 585.188 733.944C585.008 733.884 584.798 733.854 584.558 733.854C584.402 733.854 584.282 733.86 584.198 733.872C583.694 733.896 583.274 734.076 582.938 734.412C582.602 734.736 582.434 735.162 582.434 735.69V740.784C582.434 740.844 582.41 740.898 582.362 740.946C582.326 740.982 582.278 741 582.218 741H580.562C580.502 741 580.448 740.982 580.4 740.946C580.364 740.898 580.346 740.844 580.346 740.784V732.018C580.346 731.958 580.364 731.91 580.4 731.874C580.448 731.826 580.502 731.802 580.562 731.802H582.218C582.278 731.802 582.326 731.826 582.362 731.874C582.41 731.91 582.434 731.958 582.434 732.018V732.828C582.434 732.876 582.44 732.906 582.452 732.918C582.476 732.918 582.5 732.9 582.524 732.864C583.028 732.084 583.73 731.694 584.63 731.694ZM590.536 731.658C591.292 731.658 591.958 731.79 592.534 732.054C593.11 732.318 593.554 732.684 593.866 733.152C594.178 733.608 594.334 734.13 594.334 734.718V740.784C594.334 740.844 594.31 740.898 594.262 740.946C594.226 740.982 594.178 741 594.118 741H592.462C592.402 741 592.348 740.982 592.3 740.946C592.264 740.898 592.246 740.844 592.246 740.784V740.208C592.246 740.172 592.234 740.154 592.21 740.154C592.186 740.142 592.162 740.148 592.138 740.172C591.55 740.82 590.698 741.144 589.582 741.144C588.682 741.144 587.938 740.916 587.35 740.46C586.774 740.004 586.486 739.326 586.486 738.426C586.486 737.49 586.81 736.764 587.458 736.248C588.118 735.72 589.042 735.456 590.23 735.456H592.156C592.216 735.456 592.246 735.426 592.246 735.366V734.934C592.246 734.466 592.108 734.106 591.832 733.854C591.556 733.59 591.142 733.458 590.59 733.458C590.134 733.458 589.762 733.542 589.474 733.71C589.198 733.866 589.024 734.088 588.952 734.376C588.916 734.52 588.832 734.58 588.7 734.556L586.954 734.34C586.894 734.328 586.84 734.31 586.792 734.286C586.756 734.25 586.744 734.208 586.756 734.16C586.852 733.428 587.242 732.828 587.926 732.36C588.622 731.892 589.492 731.658 590.536 731.658ZM590.104 739.488C590.692 739.488 591.196 739.332 591.616 739.02C592.036 738.708 592.246 738.312 592.246 737.832V736.986C592.246 736.926 592.216 736.896 592.156 736.896H590.644C590.008 736.896 589.504 737.016 589.132 737.256C588.772 737.496 588.592 737.838 588.592 738.282C588.592 738.666 588.73 738.966 589.006 739.182C589.294 739.386 589.66 739.488 590.104 739.488ZM601.168 733.278C601.168 733.338 601.144 733.392 601.096 733.44C601.06 733.476 601.012 733.494 600.952 733.494H599.116C599.056 733.494 599.026 733.524 599.026 733.584V737.922C599.026 738.378 599.122 738.708 599.314 738.912C599.518 739.116 599.836 739.218 600.268 739.218H600.808C600.868 739.218 600.916 739.242 600.952 739.29C601 739.326 601.024 739.374 601.024 739.434V740.784C601.024 740.916 600.952 740.994 600.808 741.018L599.872 741.036C598.924 741.036 598.216 740.874 597.748 740.55C597.28 740.226 597.04 739.614 597.028 738.714V733.584C597.028 733.524 596.998 733.494 596.938 733.494H595.912C595.852 733.494 595.798 733.476 595.75 733.44C595.714 733.392 595.696 733.338 595.696 733.278V732.018C595.696 731.958 595.714 731.91 595.75 731.874C595.798 731.826 595.852 731.802 595.912 731.802H596.938C596.998 731.802 597.028 731.772 597.028 731.712V729.606C597.028 729.546 597.046 729.498 597.082 729.462C597.13 729.414 597.184 729.39 597.244 729.39H598.81C598.87 729.39 598.918 729.414 598.954 729.462C599.002 729.498 599.026 729.546 599.026 729.606V731.712C599.026 731.772 599.056 731.802 599.116 731.802H600.952C601.012 731.802 601.06 731.826 601.096 731.874C601.144 731.91 601.168 731.958 601.168 732.018V733.278Z" fill="black"/>
</g>
<defs>
<clipPath id="clip0">
<rect width="1440" height="1024" fill="white"/>
</clipPath>
</defs>
</svg>
