<svg width="613" height="460" viewBox="0 0 613 460" fill="none" xmlns="http://www.w3.org/2000/svg">
<path d="M306 92C334.01 92 361.548 99.218 385.956 112.958C410.365 126.698 430.821 146.496 445.352 170.442C459.882 194.389 467.997 221.675 468.913 249.671C469.829 277.666 463.515 305.425 450.58 330.269L306 255V92Z" fill="#6E6E6E"/>
<path d="M161.888 331.162C148.761 306.324 142.277 278.514 143.064 250.432C143.851 222.349 151.884 194.947 166.382 170.883C180.879 146.819 201.351 126.911 225.81 113.09C250.268 99.2687 277.884 92.0038 305.978 92L306 255L161.888 331.162Z" fill="#404040"/>
<path d="M450.605 330.222C436.883 356.602 416.206 378.725 390.812 394.197C365.419 409.669 336.277 417.9 306.541 417.999C276.806 418.098 247.61 410.061 222.114 394.758C196.618 379.454 175.795 357.469 161.897 331.18L306 255L450.605 330.222Z" fill="#333333"/>
<path d="M306 429C402.098 429 480 351.098 480 255C480 158.902 402.098 81 306 81C209.902 81 132 158.902 132 255C132 351.098 209.902 429 306 429Z" stroke="#F1BB52" stroke-width="2"/>
<path d="M212.232 170V158.832H214.664V167.84H218.92V170H212.232ZM224.556 170.192C223.82 170.192 223.148 170.069 222.54 169.824C221.932 169.579 221.414 169.216 220.988 168.736C220.561 168.245 220.23 167.643 219.996 166.928C219.761 166.203 219.644 165.365 219.644 164.416C219.644 163.467 219.761 162.635 219.996 161.92C220.23 161.195 220.561 160.592 220.988 160.112C221.414 159.621 221.932 159.253 222.54 159.008C223.148 158.763 223.82 158.64 224.556 158.64C225.292 158.64 225.964 158.763 226.572 159.008C227.18 159.253 227.697 159.621 228.124 160.112C228.55 160.592 228.881 161.195 229.116 161.92C229.35 162.635 229.468 163.467 229.468 164.416C229.468 165.365 229.35 166.203 229.116 166.928C228.881 167.643 228.55 168.245 228.124 168.736C227.697 169.216 227.18 169.579 226.572 169.824C225.964 170.069 225.292 170.192 224.556 170.192ZM224.556 168.032C225.292 168.032 225.862 167.792 226.268 167.312C226.684 166.832 226.892 166.144 226.892 165.248V163.584C226.892 162.688 226.684 162 226.268 161.52C225.862 161.04 225.292 160.8 224.556 160.8C223.82 160.8 223.244 161.04 222.828 161.52C222.422 162 222.22 162.688 222.22 163.584V165.248C222.22 166.144 222.422 166.832 222.828 167.312C223.244 167.792 223.82 168.032 224.556 168.032ZM235.978 170.192C235.242 170.192 234.57 170.069 233.962 169.824C233.354 169.579 232.836 169.216 232.41 168.736C231.983 168.245 231.652 167.643 231.418 166.928C231.183 166.203 231.066 165.365 231.066 164.416C231.066 163.467 231.183 162.635 231.418 161.92C231.652 161.195 231.983 160.592 232.41 160.112C232.836 159.621 233.354 159.253 233.962 159.008C234.57 158.763 235.242 158.64 235.978 158.64C236.714 158.64 237.386 158.763 237.994 159.008C238.602 159.253 239.119 159.621 239.546 160.112C239.972 160.592 240.303 161.195 240.538 161.92C240.772 162.635 240.89 163.467 240.89 164.416C240.89 165.365 240.772 166.203 240.538 166.928C240.303 167.643 239.972 168.245 239.546 168.736C239.119 169.216 238.602 169.579 237.994 169.824C237.386 170.069 236.714 170.192 235.978 170.192ZM235.978 168.032C236.714 168.032 237.284 167.792 237.69 167.312C238.106 166.832 238.314 166.144 238.314 165.248V163.584C238.314 162.688 238.106 162 237.69 161.52C237.284 161.04 236.714 160.8 235.978 160.8C235.242 160.8 234.666 161.04 234.25 161.52C233.844 162 233.642 162.688 233.642 163.584V165.248C233.642 166.144 233.844 166.832 234.25 167.312C234.666 167.792 235.242 168.032 235.978 168.032ZM246.808 165.136L245.352 166.896V170H242.92V158.832H245.352V164.144H245.448L247.032 161.984L249.544 158.832H252.296L248.536 163.424L252.632 170H249.767L246.808 165.136Z" fill="white"/>
<path d="M267.536 297.832V304.68C267.536 305.469 267.691 306.061 268 306.456C268.309 306.84 268.827 307.032 269.552 307.032C270.277 307.032 270.795 306.84 271.104 306.456C271.413 306.061 271.568 305.469 271.568 304.68V297.832H273.936V304.424C273.936 305.245 273.856 305.96 273.696 306.568C273.547 307.165 273.296 307.661 272.944 308.056C272.592 308.44 272.139 308.728 271.584 308.92C271.029 309.101 270.352 309.192 269.552 309.192C268.752 309.192 268.075 309.101 267.52 308.92C266.965 308.728 266.512 308.44 266.16 308.056C265.808 307.661 265.552 307.165 265.392 306.568C265.243 305.96 265.168 305.245 265.168 304.424V297.832H267.536ZM279.957 309.192C278.976 309.192 278.144 309.027 277.461 308.696C276.779 308.355 276.197 307.917 275.717 307.384L277.317 305.768C278.075 306.621 279.008 307.048 280.117 307.048C280.715 307.048 281.157 306.925 281.445 306.68C281.733 306.435 281.877 306.109 281.877 305.704C281.877 305.395 281.792 305.139 281.621 304.936C281.451 304.723 281.104 304.579 280.581 304.504L279.477 304.36C278.293 304.211 277.424 303.853 276.869 303.288C276.325 302.723 276.053 301.971 276.053 301.032C276.053 300.531 276.149 300.072 276.341 299.656C276.533 299.24 276.805 298.883 277.157 298.584C277.52 298.285 277.957 298.056 278.469 297.896C278.992 297.725 279.584 297.64 280.245 297.64C281.088 297.64 281.829 297.773 282.469 298.04C283.109 298.307 283.659 298.696 284.117 299.208L282.501 300.84C282.235 300.531 281.909 300.28 281.525 300.088C281.152 299.885 280.677 299.784 280.101 299.784C279.557 299.784 279.152 299.88 278.885 300.072C278.619 300.264 278.485 300.531 278.485 300.872C278.485 301.256 278.587 301.533 278.789 301.704C279.003 301.875 279.344 301.997 279.813 302.072L280.917 302.248C282.069 302.429 282.923 302.787 283.477 303.32C284.032 303.843 284.309 304.589 284.309 305.56C284.309 306.093 284.213 306.584 284.021 307.032C283.829 307.48 283.547 307.864 283.173 308.184C282.811 308.504 282.357 308.755 281.813 308.936C281.269 309.107 280.651 309.192 279.957 309.192ZM293.206 309L292.406 306.344H288.678L287.878 309H285.414L289.094 297.832H292.102L295.734 309H293.206ZM290.566 300.04H290.486L289.254 304.28H291.814L290.566 300.04ZM297.279 297.832H302.703C303.631 297.832 304.351 298.093 304.863 298.616C305.386 299.139 305.647 299.832 305.647 300.696C305.647 301.123 305.588 301.485 305.471 301.784C305.364 302.083 305.215 302.328 305.023 302.52C304.842 302.712 304.623 302.856 304.367 302.952C304.122 303.037 303.855 303.085 303.567 303.096V303.192C303.834 303.192 304.111 303.24 304.399 303.336C304.698 303.432 304.97 303.587 305.215 303.8C305.46 304.003 305.663 304.269 305.823 304.6C305.994 304.931 306.079 305.336 306.079 305.816C306.079 306.253 306.004 306.669 305.855 307.064C305.716 307.448 305.519 307.784 305.263 308.072C305.007 308.36 304.703 308.589 304.351 308.76C303.999 308.92 303.615 309 303.199 309H297.279V297.832ZM299.711 306.952H302.511C302.831 306.952 303.082 306.867 303.263 306.696C303.455 306.515 303.551 306.264 303.551 305.944V305.4C303.551 305.08 303.455 304.835 303.263 304.664C303.082 304.483 302.831 304.392 302.511 304.392H299.711V306.952ZM299.711 302.408H302.127C302.447 302.408 302.698 302.317 302.879 302.136C303.06 301.955 303.151 301.704 303.151 301.384V300.904C303.151 300.584 303.06 300.333 302.879 300.152C302.698 299.971 302.447 299.88 302.127 299.88H299.711V302.408ZM307.519 309V307.064H308.959V299.768H307.519V297.832H312.831V299.768H311.391V307.064H312.831V309H307.519ZM314.857 309V297.832H317.289V306.84H321.545V309H314.857ZM322.909 309V307.064H324.349V299.768H322.909V297.832H328.221V299.768H326.781V307.064H328.221V309H322.909ZM334.841 299.992V309H332.409V299.992H329.385V297.832H337.865V299.992H334.841ZM342.312 309V304.632L338.488 297.832H341.208L343.608 302.28H343.64L345.944 297.832H348.584L344.76 304.616V309H342.312Z" fill="white"/>
<path d="M356.591 158V146.832H363.999V148.992H359.023V151.28H363.263V153.424H359.023V158H356.591ZM365.951 158V146.832H373.551V148.992H368.383V151.28H372.815V153.424H368.383V155.84H373.551V158H365.951ZM375.67 158V146.832H383.27V148.992H378.102V151.28H382.534V153.424H378.102V155.84H383.27V158H375.67ZM385.388 158V146.832H387.82V155.84H392.076V158H385.388ZM332.657 171.96C332.177 171.96 331.825 171.853 331.601 171.64C331.388 171.416 331.281 171.139 331.281 170.808V170.472C331.281 170.163 331.324 169.853 331.409 169.544C331.505 169.224 331.628 168.92 331.777 168.632C331.937 168.344 332.124 168.077 332.337 167.832C332.55 167.576 332.78 167.352 333.025 167.16H334.513C334.161 167.48 333.857 167.805 333.601 168.136C333.356 168.467 333.169 168.835 333.041 169.24C333.382 169.304 333.633 169.448 333.793 169.672C333.953 169.885 334.033 170.131 334.033 170.408V170.808C334.033 171.139 333.921 171.416 333.697 171.64C333.484 171.853 333.137 171.96 332.657 171.96ZM336.417 171.96C335.937 171.96 335.585 171.853 335.361 171.64C335.148 171.416 335.041 171.139 335.041 170.808V170.472C335.041 170.163 335.084 169.853 335.169 169.544C335.265 169.224 335.388 168.92 335.537 168.632C335.697 168.344 335.884 168.077 336.097 167.832C336.31 167.576 336.54 167.352 336.785 167.16H338.273C337.921 167.48 337.617 167.805 337.361 168.136C337.116 168.467 336.929 168.835 336.801 169.24C337.142 169.304 337.393 169.448 337.553 169.672C337.713 169.885 337.793 170.131 337.793 170.408V170.808C337.793 171.139 337.681 171.416 337.457 171.64C337.244 171.853 336.897 171.96 336.417 171.96ZM339.956 170.6H342.324V179.896C342.324 180.643 342.137 181.213 341.764 181.608C341.39 182.003 340.788 182.2 339.956 182.2H338.708V180.36H339.956V170.6ZM341.14 169.704C340.66 169.704 340.308 169.597 340.084 169.384C339.87 169.16 339.764 168.877 339.764 168.536V168.184C339.764 167.843 339.87 167.565 340.084 167.352C340.308 167.128 340.66 167.016 341.14 167.016C341.62 167.016 341.966 167.128 342.18 167.352C342.404 167.565 342.516 167.843 342.516 168.184V168.536C342.516 168.877 342.404 169.16 342.18 169.384C341.966 169.597 341.62 169.704 341.14 169.704ZM347.942 179.192C347.323 179.192 346.768 179.091 346.278 178.888C345.798 178.685 345.387 178.392 345.046 178.008C344.715 177.624 344.459 177.16 344.278 176.616C344.096 176.072 344.006 175.464 344.006 174.792C344.006 174.12 344.096 173.512 344.278 172.968C344.459 172.424 344.715 171.965 345.046 171.592C345.387 171.208 345.798 170.915 346.278 170.712C346.768 170.509 347.323 170.408 347.942 170.408C348.56 170.408 349.11 170.509 349.59 170.712C350.08 170.915 350.491 171.208 350.822 171.592C351.163 171.965 351.424 172.424 351.606 172.968C351.787 173.512 351.878 174.12 351.878 174.792C351.878 175.464 351.787 176.072 351.606 176.616C351.424 177.16 351.163 177.624 350.822 178.008C350.491 178.392 350.08 178.685 349.59 178.888C349.11 179.091 348.56 179.192 347.942 179.192ZM347.942 177.32C348.411 177.32 348.774 177.176 349.03 176.888C349.286 176.6 349.414 176.189 349.414 175.656V173.944C349.414 173.411 349.286 173 349.03 172.712C348.774 172.424 348.411 172.28 347.942 172.28C347.472 172.28 347.11 172.424 346.854 172.712C346.598 173 346.47 173.411 346.47 173.944V175.656C346.47 176.189 346.598 176.6 346.854 176.888C347.11 177.176 347.472 177.32 347.942 177.32ZM358.545 170.6H360.753L357.521 180.296C357.307 180.947 357.003 181.427 356.609 181.736C356.225 182.045 355.67 182.2 354.945 182.2H353.473V180.36H355.057L355.345 179.432L352.401 170.6H354.753L355.985 174.52L356.593 176.952H356.689L357.313 174.52L358.545 170.6ZM369.145 179.192C368.526 179.192 367.971 179.091 367.481 178.888C367.001 178.685 366.59 178.392 366.249 178.008C365.918 177.624 365.662 177.16 365.481 176.616C365.299 176.072 365.209 175.464 365.209 174.792C365.209 174.12 365.299 173.512 365.481 172.968C365.662 172.424 365.918 171.965 366.249 171.592C366.59 171.208 367.001 170.915 367.481 170.712C367.971 170.509 368.526 170.408 369.145 170.408C369.763 170.408 370.313 170.509 370.793 170.712C371.283 170.915 371.694 171.208 372.025 171.592C372.366 171.965 372.627 172.424 372.809 172.968C372.99 173.512 373.081 174.12 373.081 174.792C373.081 175.464 372.99 176.072 372.809 176.616C372.627 177.16 372.366 177.624 372.025 178.008C371.694 178.392 371.283 178.685 370.793 178.888C370.313 179.091 369.763 179.192 369.145 179.192ZM369.145 177.32C369.614 177.32 369.977 177.176 370.233 176.888C370.489 176.6 370.617 176.189 370.617 175.656V173.944C370.617 173.411 370.489 173 370.233 172.712C369.977 172.424 369.614 172.28 369.145 172.28C368.675 172.28 368.313 172.424 368.057 172.712C367.801 173 367.673 173.411 367.673 173.944V175.656C367.673 176.189 367.801 176.6 368.057 176.888C368.313 177.176 368.675 177.32 369.145 177.32ZM375.09 172.44H373.906V170.6H375.09V169.608C375.09 168.797 375.304 168.189 375.73 167.784C376.157 167.368 376.781 167.16 377.602 167.16H379.138V169H377.458V170.6H379.138V172.44H377.458V179H375.09V172.44ZM389.197 177.592H389.117C389.042 177.805 388.941 178.008 388.813 178.2C388.695 178.392 388.541 178.563 388.349 178.712C388.157 178.861 387.927 178.979 387.661 179.064C387.405 179.149 387.106 179.192 386.765 179.192C385.901 179.192 385.245 178.909 384.797 178.344C384.359 177.768 384.141 176.947 384.141 175.88V170.6H386.509V175.672C386.509 176.184 386.599 176.579 386.781 176.856C386.962 177.133 387.271 177.272 387.709 177.272C387.89 177.272 388.071 177.245 388.253 177.192C388.434 177.139 388.594 177.064 388.733 176.968C388.871 176.861 388.983 176.733 389.069 176.584C389.154 176.435 389.197 176.259 389.197 176.056V170.6H391.565V179H389.197V177.592ZM396.616 179.192C395.805 179.192 395.123 179.064 394.568 178.808C394.013 178.541 393.517 178.168 393.08 177.688L394.472 176.28C394.771 176.611 395.101 176.872 395.464 177.064C395.827 177.256 396.237 177.352 396.696 177.352C397.165 177.352 397.491 177.283 397.672 177.144C397.853 176.995 397.944 176.797 397.944 176.552C397.944 176.157 397.661 175.923 397.096 175.848L396.184 175.736C394.296 175.501 393.352 174.637 393.352 173.144C393.352 172.739 393.427 172.371 393.576 172.04C393.736 171.699 393.955 171.411 394.232 171.176C394.52 170.931 394.861 170.744 395.256 170.616C395.661 170.477 396.115 170.408 396.616 170.408C397.053 170.408 397.437 170.44 397.768 170.504C398.109 170.557 398.408 170.643 398.664 170.76C398.931 170.867 399.171 171.005 399.384 171.176C399.608 171.336 399.827 171.517 400.04 171.72L398.68 173.112C398.413 172.845 398.109 172.637 397.768 172.488C397.437 172.328 397.096 172.248 396.744 172.248C396.339 172.248 396.051 172.312 395.88 172.44C395.709 172.568 395.624 172.739 395.624 172.952C395.624 173.176 395.683 173.352 395.8 173.48C395.928 173.597 396.163 173.683 396.504 173.736L397.448 173.864C399.293 174.109 400.216 174.952 400.216 176.392C400.216 176.797 400.131 177.171 399.96 177.512C399.789 177.853 399.544 178.152 399.224 178.408C398.915 178.653 398.536 178.845 398.088 178.984C397.651 179.123 397.16 179.192 396.616 179.192ZM405.335 179.192C404.695 179.192 404.124 179.091 403.623 178.888C403.121 178.675 402.695 178.381 402.343 178.008C402.001 177.624 401.74 177.16 401.559 176.616C401.388 176.072 401.303 175.464 401.303 174.792C401.303 174.131 401.388 173.533 401.559 173C401.729 172.456 401.98 171.992 402.311 171.608C402.652 171.224 403.068 170.931 403.559 170.728C404.049 170.515 404.609 170.408 405.239 170.408C405.932 170.408 406.524 170.525 407.015 170.76C407.516 170.995 407.921 171.309 408.231 171.704C408.551 172.099 408.78 172.557 408.919 173.08C409.068 173.592 409.143 174.131 409.143 174.696V175.4H403.751V175.528C403.751 176.083 403.9 176.525 404.199 176.856C404.497 177.176 404.967 177.336 405.607 177.336C406.097 177.336 406.497 177.24 406.807 177.048C407.116 176.845 407.404 176.605 407.671 176.328L408.855 177.8C408.481 178.237 407.991 178.579 407.383 178.824C406.785 179.069 406.103 179.192 405.335 179.192ZM405.287 172.152C404.807 172.152 404.428 172.312 404.151 172.632C403.884 172.941 403.751 173.357 403.751 173.88V174.008H406.695V173.864C406.695 173.352 406.577 172.941 406.343 172.632C406.119 172.312 405.767 172.152 405.287 172.152ZM411.58 167C412.06 167 412.407 167.112 412.62 167.336C412.844 167.549 412.956 167.821 412.956 168.152V168.488C412.956 168.797 412.908 169.112 412.812 169.432C412.727 169.741 412.604 170.04 412.444 170.328C412.295 170.616 412.114 170.888 411.9 171.144C411.687 171.389 411.458 171.608 411.212 171.8H409.724C410.076 171.48 410.375 171.155 410.62 170.824C410.876 170.493 411.068 170.125 411.196 169.72C410.855 169.656 410.604 169.517 410.444 169.304C410.284 169.08 410.204 168.829 410.204 168.552V168.152C410.204 167.821 410.311 167.549 410.524 167.336C410.748 167.112 411.1 167 411.58 167ZM415.34 167C415.82 167 416.167 167.112 416.38 167.336C416.604 167.549 416.716 167.821 416.716 168.152V168.488C416.716 168.797 416.668 169.112 416.572 169.432C416.487 169.741 416.364 170.04 416.204 170.328C416.055 170.616 415.874 170.888 415.66 171.144C415.447 171.389 415.218 171.608 414.972 171.8H413.484C413.836 171.48 414.135 171.155 414.38 170.824C414.636 170.493 414.828 170.125 414.956 169.72C414.615 169.656 414.364 169.517 414.204 169.304C414.044 169.08 413.964 168.829 413.964 168.552V168.152C413.964 167.821 414.071 167.549 414.284 167.336C414.508 167.112 414.86 167 415.34 167Z" fill="white"/>
<path d="M205.108 207.144C204.412 207.144 203.848 206.924 203.416 206.484C202.984 206.036 202.768 205.384 202.768 204.528C202.768 203.984 202.844 203.476 202.996 203.004C203.148 202.524 203.364 202.108 203.644 201.756C203.924 201.404 204.256 201.128 204.64 200.928C205.032 200.72 205.464 200.616 205.936 200.616C206.512 200.616 206.984 200.756 207.352 201.036C207.728 201.316 207.968 201.684 208.072 202.14L207.028 202.56C206.94 202.28 206.808 202.064 206.632 201.912C206.464 201.752 206.212 201.672 205.876 201.672C205.444 201.672 205.092 201.808 204.82 202.08C204.548 202.352 204.364 202.74 204.268 203.244L204.064 204.276C204.024 204.476 204.004 204.652 204.004 204.804C204.004 205.188 204.104 205.5 204.304 205.74C204.504 205.972 204.812 206.088 205.228 206.088C205.532 206.088 205.792 206 206.008 205.824C206.232 205.648 206.452 205.364 206.668 204.972L207.628 205.428C207.364 205.988 207.02 206.416 206.596 206.712C206.172 207 205.676 207.144 205.108 207.144ZM208.482 207L209.73 200.76H210.978L210.714 202.092H210.786C210.858 201.932 210.946 201.772 211.05 201.612C211.162 201.452 211.294 201.312 211.446 201.192C211.598 201.064 211.77 200.96 211.962 200.88C212.162 200.8 212.386 200.76 212.634 200.76H212.982L212.73 201.996H212.31C211.758 201.996 211.33 202.128 211.026 202.392C210.722 202.656 210.526 203.016 210.438 203.472L209.73 207H208.482ZM215.599 207.144C214.791 207.144 214.175 206.916 213.751 206.46C213.335 205.996 213.127 205.344 213.127 204.504C213.127 203.992 213.203 203.504 213.355 203.04C213.515 202.568 213.739 202.152 214.027 201.792C214.315 201.432 214.663 201.148 215.071 200.94C215.479 200.724 215.935 200.616 216.439 200.616C216.687 200.616 216.935 200.648 217.183 200.712C217.439 200.776 217.667 200.876 217.867 201.012C218.067 201.148 218.227 201.324 218.347 201.54C218.475 201.756 218.539 202.016 218.539 202.32C218.539 202.984 218.203 203.492 217.531 203.844C216.867 204.196 215.823 204.388 214.399 204.42C214.375 204.58 214.363 204.712 214.363 204.816C214.363 205.2 214.467 205.508 214.675 205.74C214.891 205.972 215.227 206.088 215.683 206.088C216.027 206.088 216.339 206.012 216.619 205.86C216.899 205.708 217.167 205.472 217.423 205.152L218.215 205.812C217.823 206.3 217.411 206.644 216.979 206.844C216.547 207.044 216.087 207.144 215.599 207.144ZM216.343 201.612C215.911 201.612 215.535 201.76 215.215 202.056C214.903 202.344 214.699 202.736 214.603 203.232L214.543 203.544C215.111 203.52 215.575 203.48 215.935 203.424C216.295 203.368 216.575 203.292 216.775 203.196C216.983 203.1 217.123 202.984 217.195 202.848C217.267 202.712 217.303 202.556 217.303 202.38C217.303 202.228 217.275 202.104 217.219 202.008C217.163 201.904 217.087 201.824 216.991 201.768C216.903 201.704 216.803 201.664 216.691 201.648C216.579 201.624 216.463 201.612 216.343 201.612ZM223.972 207C223.692 207 223.468 206.928 223.3 206.784C223.14 206.64 223.06 206.44 223.06 206.184C223.06 206.048 223.072 205.932 223.096 205.836L223.144 205.608H223.096C222.84 206.12 222.556 206.504 222.244 206.76C221.94 207.016 221.548 207.144 221.068 207.144C220.492 207.144 220.048 206.936 219.736 206.52C219.424 206.104 219.268 205.548 219.268 204.852C219.268 204.308 219.336 203.78 219.472 203.268C219.608 202.756 219.804 202.304 220.06 201.912C220.324 201.52 220.64 201.208 221.008 200.976C221.376 200.736 221.792 200.616 222.256 200.616C222.664 200.616 223.016 200.724 223.312 200.94C223.608 201.148 223.788 201.436 223.852 201.804H223.912L224.644 198.12H225.892L224.32 205.956H225.124L224.92 207H223.972ZM221.572 206.076C221.82 206.076 222.04 206.02 222.232 205.908C222.424 205.788 222.6 205.644 222.76 205.476C223.112 205.1 223.34 204.64 223.444 204.096L223.672 202.956C223.744 202.596 223.68 202.296 223.48 202.056C223.28 201.808 222.944 201.684 222.472 201.684C222.024 201.684 221.66 201.828 221.38 202.116C221.1 202.396 220.904 202.812 220.792 203.364L220.612 204.24C220.596 204.336 220.58 204.444 220.564 204.564C220.556 204.676 220.552 204.784 220.552 204.888C220.552 205.24 220.636 205.528 220.804 205.752C220.972 205.968 221.228 206.076 221.572 206.076ZM228.243 199.644C228.011 199.644 227.843 199.596 227.739 199.5C227.635 199.404 227.583 199.284 227.583 199.14C227.583 199.06 227.603 198.92 227.643 198.72C227.683 198.536 227.767 198.384 227.895 198.264C228.023 198.136 228.227 198.072 228.507 198.072C228.739 198.072 228.907 198.12 229.011 198.216C229.115 198.312 229.167 198.432 229.167 198.576C229.167 198.656 229.147 198.796 229.107 198.996C229.067 199.18 228.983 199.336 228.855 199.464C228.727 199.584 228.523 199.644 228.243 199.644ZM227.247 207C226.943 207 226.711 206.924 226.551 206.772C226.391 206.612 226.311 206.408 226.311 206.16C226.311 206.08 226.323 205.98 226.347 205.86L227.367 200.76H228.615L227.571 205.956H228.375L228.171 207H227.247ZM231.153 198.12H232.401L231.597 202.152H231.645C231.901 201.64 232.181 201.256 232.485 201C232.797 200.744 233.193 200.616 233.673 200.616C234.249 200.616 234.693 200.824 235.005 201.24C235.317 201.656 235.473 202.212 235.473 202.908C235.473 203.452 235.405 203.98 235.269 204.492C235.133 205.004 234.933 205.456 234.669 205.848C234.413 206.24 234.101 206.556 233.733 206.796C233.365 207.028 232.949 207.144 232.485 207.144C232.077 207.144 231.725 207.04 231.429 206.832C231.133 206.624 230.953 206.332 230.889 205.956H230.829L230.625 207H229.377L231.153 198.12ZM232.257 206.076C232.713 206.076 233.081 205.936 233.361 205.656C233.641 205.368 233.837 204.948 233.949 204.396L234.129 203.52C234.145 203.424 234.157 203.32 234.165 203.208C234.181 203.088 234.189 202.976 234.189 202.872C234.189 202.52 234.105 202.236 233.937 202.02C233.769 201.796 233.513 201.684 233.169 201.684C232.921 201.684 232.701 201.744 232.509 201.864C232.317 201.976 232.141 202.116 231.981 202.284C231.813 202.468 231.669 202.676 231.549 202.908C231.437 203.132 231.353 203.384 231.297 203.664L231.069 204.804C230.997 205.164 231.061 205.468 231.261 205.716C231.461 205.956 231.793 206.076 232.257 206.076ZM238.427 199.644C238.195 199.644 238.027 199.596 237.923 199.5C237.819 199.404 237.767 199.284 237.767 199.14C237.767 199.06 237.787 198.92 237.827 198.72C237.867 198.536 237.951 198.384 238.079 198.264C238.207 198.136 238.411 198.072 238.691 198.072C238.923 198.072 239.091 198.12 239.195 198.216C239.299 198.312 239.351 198.432 239.351 198.576C239.351 198.656 239.331 198.796 239.291 198.996C239.251 199.18 239.167 199.336 239.039 199.464C238.911 199.584 238.707 199.644 238.427 199.644ZM237.431 207C237.127 207 236.895 206.924 236.735 206.772C236.575 206.612 236.495 206.408 236.495 206.16C236.495 206.08 236.507 205.98 236.531 205.86L237.551 200.76H238.799L237.755 205.956H238.559L238.355 207H237.431ZM240.676 207C240.372 207 240.14 206.924 239.98 206.772C239.82 206.612 239.74 206.408 239.74 206.16C239.74 206.08 239.752 205.98 239.776 205.86L241.324 198.12H242.572L241 205.956H241.864L241.66 207H240.676ZM244.919 199.644C244.687 199.644 244.519 199.596 244.415 199.5C244.311 199.404 244.259 199.284 244.259 199.14C244.259 199.06 244.279 198.92 244.319 198.72C244.359 198.536 244.443 198.384 244.571 198.264C244.699 198.136 244.903 198.072 245.183 198.072C245.415 198.072 245.583 198.12 245.687 198.216C245.791 198.312 245.843 198.432 245.843 198.576C245.843 198.656 245.823 198.796 245.783 198.996C245.743 199.18 245.659 199.336 245.531 199.464C245.403 199.584 245.199 199.644 244.919 199.644ZM243.923 207C243.619 207 243.387 206.924 243.227 206.772C243.067 206.612 242.987 206.408 242.987 206.16C242.987 206.08 242.999 205.98 243.023 205.86L244.043 200.76H245.291L244.247 205.956H245.051L244.847 207H243.923ZM247.625 207C247.241 207 246.957 206.916 246.773 206.748C246.597 206.58 246.509 206.348 246.509 206.052C246.509 205.988 246.513 205.916 246.521 205.836C246.529 205.756 246.541 205.676 246.557 205.596L247.313 201.804H246.401L246.605 200.76H247.073C247.305 200.76 247.461 200.712 247.541 200.616C247.629 200.52 247.693 200.364 247.733 200.148L247.949 199.056H249.113L248.777 200.76H250.025L249.821 201.804H248.561L247.733 205.956H248.945L248.741 207H247.625ZM254.895 200.76H256.227L252.171 208.236C252.059 208.444 251.947 208.62 251.835 208.764C251.731 208.908 251.611 209.028 251.475 209.124C251.347 209.22 251.199 209.288 251.031 209.328C250.863 209.376 250.671 209.4 250.455 209.4H249.507L249.711 208.368H250.851L251.439 207.264L250.491 200.76H251.715L252.087 203.532L252.315 205.824H252.375L253.467 203.532L254.895 200.76ZM218.41 223C218.026 223 217.742 222.916 217.558 222.748C217.382 222.58 217.294 222.348 217.294 222.052C217.294 221.988 217.298 221.916 217.306 221.836C217.314 221.756 217.326 221.676 217.342 221.596L218.098 217.804H217.186L217.39 216.76H217.858C218.09 216.76 218.246 216.712 218.326 216.616C218.414 216.52 218.478 216.364 218.518 216.148L218.734 215.056H219.898L219.562 216.76H220.81L220.606 217.804H219.346L218.518 221.956H219.73L219.526 223H218.41ZM220.834 223L222.082 216.76H223.33L223.066 218.092H223.138C223.21 217.932 223.298 217.772 223.402 217.612C223.514 217.452 223.646 217.312 223.798 217.192C223.95 217.064 224.122 216.96 224.314 216.88C224.514 216.8 224.738 216.76 224.986 216.76H225.334L225.082 217.996H224.662C224.11 217.996 223.682 218.128 223.378 218.392C223.074 218.656 222.878 219.016 222.79 219.472L222.082 223H220.834ZM227.781 216.76L227.025 220.552C227.001 220.664 226.981 220.776 226.965 220.888C226.957 221 226.953 221.1 226.953 221.188C226.953 221.468 227.013 221.684 227.133 221.836C227.253 221.988 227.453 222.064 227.733 222.064C228.133 222.064 228.489 221.888 228.801 221.536C228.985 221.328 229.137 221.1 229.257 220.852C229.385 220.596 229.473 220.344 229.521 220.096L230.193 216.76H231.441L230.397 221.956H231.201L230.997 223H230.037C229.757 223 229.537 222.928 229.377 222.784C229.225 222.632 229.149 222.428 229.149 222.172C229.149 222.068 229.161 221.948 229.185 221.812L229.209 221.668H229.149C228.917 222.148 228.649 222.516 228.345 222.772C228.041 223.02 227.665 223.144 227.217 223.144C226.705 223.144 226.317 222.996 226.053 222.7C225.797 222.404 225.669 221.992 225.669 221.464C225.669 221.328 225.677 221.192 225.693 221.056C225.709 220.92 225.733 220.772 225.765 220.612L226.533 216.76H227.781ZM234.397 223.144C233.901 223.144 233.437 223.048 233.005 222.856C232.581 222.664 232.241 222.388 231.985 222.028L232.801 221.284C233.001 221.548 233.229 221.752 233.485 221.896C233.749 222.04 234.061 222.112 234.421 222.112C234.821 222.112 235.129 222.024 235.345 221.848C235.569 221.672 235.681 221.436 235.681 221.14C235.681 220.972 235.629 220.828 235.525 220.708C235.421 220.58 235.217 220.488 234.913 220.432L234.373 220.336C233.869 220.248 233.465 220.08 233.161 219.832C232.857 219.584 232.705 219.208 232.705 218.704C232.705 218.432 232.753 218.172 232.849 217.924C232.953 217.668 233.105 217.444 233.305 217.252C233.505 217.06 233.757 216.908 234.061 216.796C234.365 216.676 234.721 216.616 235.129 216.616C236.057 216.616 236.777 216.932 237.289 217.564L236.473 218.308C236.329 218.116 236.141 217.96 235.909 217.84C235.677 217.712 235.393 217.648 235.057 217.648C234.673 217.648 234.385 217.732 234.193 217.9C234.009 218.068 233.917 218.284 233.917 218.548C233.917 218.724 233.969 218.872 234.073 218.992C234.185 219.112 234.389 219.2 234.685 219.256L235.225 219.34C235.745 219.428 236.153 219.6 236.449 219.856C236.745 220.112 236.893 220.492 236.893 220.996C236.893 221.308 236.833 221.596 236.713 221.86C236.601 222.116 236.437 222.34 236.221 222.532C236.005 222.724 235.741 222.876 235.429 222.988C235.125 223.092 234.781 223.144 234.397 223.144ZM239.386 223C239.002 223 238.718 222.916 238.534 222.748C238.358 222.58 238.27 222.348 238.27 222.052C238.27 221.988 238.274 221.916 238.282 221.836C238.29 221.756 238.302 221.676 238.318 221.596L239.074 217.804H238.162L238.366 216.76H238.834C239.066 216.76 239.222 216.712 239.302 216.616C239.39 216.52 239.454 216.364 239.494 216.148L239.71 215.056H240.874L240.538 216.76H241.786L241.582 217.804H240.322L239.494 221.956H240.706L240.502 223H239.386ZM207.077 230.12H208.325L207.533 234.092H207.593C207.825 233.612 208.097 233.248 208.409 233C208.721 232.744 209.109 232.616 209.573 232.616C210.093 232.616 210.481 232.764 210.737 233.06C211.001 233.356 211.133 233.768 211.133 234.296C211.133 234.432 211.125 234.568 211.109 234.704C211.093 234.832 211.069 234.976 211.037 235.136L210.473 237.956H211.229L211.025 239H210.077C209.813 239 209.601 238.932 209.441 238.796C209.289 238.66 209.213 238.464 209.213 238.208C209.213 238.16 209.213 238.112 209.213 238.064C209.221 238.008 209.229 237.96 209.237 237.92L209.777 235.22C209.825 234.98 209.849 234.76 209.849 234.56C209.849 234.28 209.785 234.068 209.657 233.924C209.529 233.772 209.321 233.696 209.033 233.696C208.617 233.696 208.253 233.872 207.941 234.224C207.765 234.416 207.613 234.64 207.485 234.896C207.357 235.144 207.269 235.392 207.221 235.64L206.549 239H205.301L207.077 230.12ZM217.063 239C216.783 239 216.559 238.928 216.391 238.784C216.231 238.64 216.151 238.44 216.151 238.184C216.151 238.048 216.163 237.932 216.187 237.836L216.235 237.608H216.187C215.931 238.12 215.647 238.504 215.335 238.76C215.031 239.016 214.639 239.144 214.159 239.144C213.583 239.144 213.139 238.936 212.827 238.52C212.515 238.104 212.359 237.548 212.359 236.852C212.359 236.308 212.427 235.78 212.563 235.268C212.699 234.756 212.895 234.304 213.151 233.912C213.415 233.52 213.731 233.208 214.099 232.976C214.467 232.736 214.883 232.616 215.347 232.616C215.755 232.616 216.107 232.724 216.403 232.94C216.699 233.148 216.879 233.436 216.943 233.804H217.003L217.207 232.76H218.455L217.411 237.956H218.215L218.011 239H217.063ZM214.639 238.076C214.895 238.076 215.119 238.02 215.311 237.908C215.511 237.796 215.691 237.652 215.851 237.476C216.195 237.108 216.423 236.644 216.535 236.084L216.787 234.824C216.811 234.688 216.803 234.552 216.763 234.416C216.723 234.28 216.651 234.16 216.547 234.056C216.443 233.944 216.307 233.856 216.139 233.792C215.979 233.72 215.795 233.684 215.587 233.684C215.123 233.684 214.751 233.828 214.471 234.116C214.191 234.396 213.995 234.812 213.883 235.364L213.703 236.24C213.687 236.336 213.671 236.444 213.655 236.564C213.647 236.684 213.643 236.792 213.643 236.888C213.643 237.24 213.723 237.528 213.883 237.752C214.051 237.968 214.303 238.076 214.639 238.076ZM219.211 239L220.459 232.76H221.707L221.443 234.092H221.515C221.587 233.932 221.675 233.772 221.779 233.612C221.891 233.452 222.023 233.312 222.175 233.192C222.327 233.064 222.499 232.96 222.691 232.88C222.891 232.8 223.115 232.76 223.363 232.76H223.711L223.459 233.996H223.039C222.487 233.996 222.059 234.128 221.755 234.392C221.451 234.656 221.255 235.016 221.167 235.472L220.459 239H219.211ZM223.734 239L224.982 232.76H226.23L225.966 234.092H226.026C226.258 233.612 226.522 233.248 226.818 233C227.122 232.744 227.506 232.616 227.97 232.616C228.426 232.616 228.774 232.748 229.014 233.012C229.254 233.268 229.39 233.628 229.422 234.092H229.482C229.706 233.62 229.974 233.256 230.286 233C230.606 232.744 231.006 232.616 231.486 232.616C231.99 232.616 232.366 232.764 232.614 233.06C232.87 233.348 232.998 233.752 232.998 234.272C232.998 234.56 232.962 234.872 232.89 235.208L232.338 237.956H233.094L232.89 239H231.942C231.67 239 231.454 238.936 231.294 238.808C231.142 238.672 231.066 238.476 231.066 238.22C231.066 238.116 231.078 238.016 231.102 237.92L231.642 235.208C231.666 235.088 231.686 234.972 231.702 234.86C231.718 234.748 231.726 234.644 231.726 234.548C231.726 234.276 231.662 234.068 231.534 233.924C231.414 233.772 231.222 233.696 230.958 233.696C230.59 233.696 230.25 233.872 229.938 234.224C229.762 234.416 229.614 234.64 229.494 234.896C229.374 235.152 229.29 235.4 229.242 235.64L228.57 239H227.322L228.078 235.22C228.102 235.1 228.122 234.984 228.138 234.872C228.154 234.752 228.162 234.64 228.162 234.536C228.162 234.272 228.102 234.068 227.982 233.924C227.87 233.772 227.686 233.696 227.43 233.696C227.222 233.696 227.03 233.744 226.854 233.84C226.678 233.936 226.522 234.064 226.386 234.224C226.202 234.432 226.046 234.66 225.918 234.908C225.79 235.156 225.702 235.4 225.654 235.64L224.982 239H223.734ZM236.579 239.144C235.875 239.144 235.307 238.924 234.875 238.484C234.443 238.044 234.227 237.404 234.227 236.564C234.227 236.028 234.307 235.52 234.467 235.04C234.627 234.56 234.847 234.14 235.127 233.78C235.415 233.42 235.755 233.136 236.147 232.928C236.539 232.72 236.971 232.616 237.443 232.616C238.147 232.616 238.715 232.836 239.147 233.276C239.579 233.716 239.795 234.356 239.795 235.196C239.795 235.74 239.715 236.252 239.555 236.732C239.395 237.204 239.171 237.62 238.883 237.98C238.603 238.34 238.267 238.624 237.875 238.832C237.483 239.04 237.051 239.144 236.579 239.144ZM236.675 238.088C237.067 238.088 237.407 237.944 237.695 237.656C237.991 237.368 238.195 236.948 238.307 236.396L238.511 235.4C238.527 235.336 238.539 235.264 238.547 235.184C238.555 235.104 238.559 235.02 238.559 234.932C238.559 234.548 238.455 234.244 238.247 234.02C238.047 233.788 237.747 233.672 237.347 233.672C236.955 233.672 236.611 233.816 236.315 234.104C236.027 234.392 235.827 234.812 235.715 235.364L235.511 236.36C235.495 236.432 235.483 236.508 235.475 236.588C235.467 236.66 235.463 236.74 235.463 236.828C235.463 237.212 235.563 237.52 235.763 237.752C235.971 237.976 236.275 238.088 236.675 238.088ZM240.621 239L241.869 232.76H243.117L242.853 234.092H242.913C243.145 233.612 243.417 233.248 243.729 233C244.041 232.744 244.429 232.616 244.893 232.616C245.413 232.616 245.801 232.764 246.057 233.06C246.321 233.356 246.453 233.768 246.453 234.296C246.453 234.432 246.445 234.568 246.429 234.704C246.413 234.832 246.389 234.976 246.357 235.136L245.793 237.956H246.549L246.345 239H245.397C245.133 239 244.921 238.932 244.761 238.796C244.609 238.66 244.533 238.464 244.533 238.208C244.533 238.16 244.533 238.12 244.533 238.088C244.533 238.048 244.541 237.992 244.557 237.92L245.097 235.22C245.145 234.98 245.169 234.76 245.169 234.56C245.169 234.28 245.105 234.068 244.977 233.924C244.849 233.772 244.641 233.696 244.353 233.696C243.937 233.696 243.573 233.872 243.261 234.224C243.085 234.416 242.933 234.64 242.805 234.896C242.677 235.144 242.589 235.392 242.541 235.64L241.869 239H240.621ZM252.182 232.76H253.514L249.458 240.236C249.346 240.444 249.234 240.62 249.122 240.764C249.018 240.908 248.898 241.028 248.762 241.124C248.634 241.22 248.486 241.288 248.318 241.328C248.15 241.376 247.958 241.4 247.742 241.4H246.794L246.998 240.368H248.138L248.726 239.264L247.778 232.76H249.002L249.374 235.532L249.602 237.824H249.662L250.754 235.532L252.182 232.76ZM213.305 246.12H214.553L213.761 250.092H213.821C214.053 249.612 214.325 249.248 214.637 249C214.949 248.744 215.337 248.616 215.801 248.616C216.321 248.616 216.709 248.764 216.965 249.06C217.229 249.356 217.361 249.768 217.361 250.296C217.361 250.432 217.353 250.568 217.337 250.704C217.321 250.832 217.297 250.976 217.265 251.136L216.701 253.956H217.457L217.253 255H216.305C216.041 255 215.829 254.932 215.669 254.796C215.517 254.66 215.441 254.464 215.441 254.208C215.441 254.16 215.441 254.112 215.441 254.064C215.449 254.008 215.457 253.96 215.465 253.92L216.005 251.22C216.053 250.98 216.077 250.76 216.077 250.56C216.077 250.28 216.013 250.068 215.885 249.924C215.757 249.772 215.549 249.696 215.261 249.696C214.845 249.696 214.481 249.872 214.169 250.224C213.993 250.416 213.841 250.64 213.713 250.896C213.585 251.144 213.497 251.392 213.449 251.64L212.777 255H211.529L213.305 246.12ZM220.832 248.76L220.076 252.552C220.052 252.664 220.032 252.776 220.016 252.888C220.008 253 220.004 253.1 220.004 253.188C220.004 253.468 220.064 253.684 220.184 253.836C220.304 253.988 220.504 254.064 220.784 254.064C221.184 254.064 221.54 253.888 221.852 253.536C222.036 253.328 222.188 253.1 222.308 252.852C222.436 252.596 222.524 252.344 222.572 252.096L223.244 248.76H224.492L223.448 253.956H224.252L224.048 255H223.088C222.808 255 222.588 254.928 222.428 254.784C222.276 254.632 222.2 254.428 222.2 254.172C222.2 254.068 222.212 253.948 222.236 253.812L222.26 253.668H222.2C221.968 254.148 221.7 254.516 221.396 254.772C221.092 255.02 220.716 255.144 220.268 255.144C219.756 255.144 219.368 254.996 219.104 254.7C218.848 254.404 218.72 253.992 218.72 253.464C218.72 253.328 218.728 253.192 218.744 253.056C218.76 252.92 218.784 252.772 218.816 252.612L219.584 248.76H220.832ZM225.252 255L226.5 248.76H227.748L227.484 250.092H227.544C227.776 249.612 228.04 249.248 228.336 249C228.64 248.744 229.024 248.616 229.488 248.616C229.944 248.616 230.292 248.748 230.532 249.012C230.772 249.268 230.908 249.628 230.94 250.092H231C231.224 249.62 231.492 249.256 231.804 249C232.124 248.744 232.524 248.616 233.004 248.616C233.508 248.616 233.884 248.764 234.132 249.06C234.388 249.348 234.516 249.752 234.516 250.272C234.516 250.56 234.48 250.872 234.408 251.208L233.856 253.956H234.612L234.408 255H233.46C233.188 255 232.972 254.936 232.812 254.808C232.66 254.672 232.584 254.476 232.584 254.22C232.584 254.116 232.596 254.016 232.62 253.92L233.16 251.208C233.184 251.088 233.204 250.972 233.22 250.86C233.236 250.748 233.244 250.644 233.244 250.548C233.244 250.276 233.18 250.068 233.052 249.924C232.932 249.772 232.74 249.696 232.476 249.696C232.108 249.696 231.768 249.872 231.456 250.224C231.28 250.416 231.132 250.64 231.012 250.896C230.892 251.152 230.808 251.4 230.76 251.64L230.088 255H228.84L229.596 251.22C229.62 251.1 229.64 250.984 229.656 250.872C229.672 250.752 229.68 250.64 229.68 250.536C229.68 250.272 229.62 250.068 229.5 249.924C229.388 249.772 229.204 249.696 228.948 249.696C228.74 249.696 228.548 249.744 228.372 249.84C228.196 249.936 228.04 250.064 227.904 250.224C227.72 250.432 227.564 250.66 227.436 250.908C227.308 251.156 227.22 251.4 227.172 251.64L226.5 255H225.252ZM240.448 255C240.168 255 239.944 254.928 239.776 254.784C239.616 254.64 239.536 254.44 239.536 254.184C239.536 254.048 239.548 253.932 239.572 253.836L239.62 253.608H239.572C239.316 254.12 239.032 254.504 238.72 254.76C238.416 255.016 238.024 255.144 237.544 255.144C236.968 255.144 236.524 254.936 236.212 254.52C235.9 254.104 235.744 253.548 235.744 252.852C235.744 252.308 235.812 251.78 235.948 251.268C236.084 250.756 236.28 250.304 236.536 249.912C236.8 249.52 237.116 249.208 237.484 248.976C237.852 248.736 238.268 248.616 238.732 248.616C239.14 248.616 239.492 248.724 239.788 248.94C240.084 249.148 240.264 249.436 240.328 249.804H240.388L240.592 248.76H241.84L240.796 253.956H241.6L241.396 255H240.448ZM238.024 254.076C238.28 254.076 238.504 254.02 238.696 253.908C238.896 253.796 239.076 253.652 239.236 253.476C239.58 253.108 239.808 252.644 239.92 252.084L240.172 250.824C240.196 250.688 240.188 250.552 240.148 250.416C240.108 250.28 240.036 250.16 239.932 250.056C239.828 249.944 239.692 249.856 239.524 249.792C239.364 249.72 239.18 249.684 238.972 249.684C238.508 249.684 238.136 249.828 237.856 250.116C237.576 250.396 237.38 250.812 237.268 251.364L237.088 252.24C237.072 252.336 237.056 252.444 237.04 252.564C237.032 252.684 237.028 252.792 237.028 252.888C237.028 253.24 237.108 253.528 237.268 253.752C237.436 253.968 237.688 254.076 238.024 254.076ZM242.595 255L243.843 248.76H245.091L244.827 250.092H244.899C244.971 249.932 245.059 249.772 245.163 249.612C245.275 249.452 245.407 249.312 245.559 249.192C245.711 249.064 245.883 248.96 246.075 248.88C246.275 248.8 246.499 248.76 246.747 248.76H247.095L246.843 249.996H246.423C245.871 249.996 245.443 250.128 245.139 250.392C244.835 250.656 244.639 251.016 244.551 251.472L243.843 255H242.595Z" fill="white"/>
<path d="M347.815 212.644C347.583 212.644 347.415 212.596 347.311 212.5C347.207 212.404 347.155 212.284 347.155 212.14C347.155 212.06 347.175 211.92 347.215 211.72C347.255 211.536 347.339 211.384 347.467 211.264C347.595 211.136 347.799 211.072 348.079 211.072C348.311 211.072 348.479 211.12 348.583 211.216C348.687 211.312 348.739 211.432 348.739 211.576C348.739 211.656 348.719 211.796 348.679 211.996C348.639 212.18 348.555 212.336 348.427 212.464C348.299 212.584 348.095 212.644 347.815 212.644ZM346.819 220C346.515 220 346.283 219.924 346.123 219.772C345.963 219.612 345.883 219.408 345.883 219.16C345.883 219.08 345.895 218.98 345.919 218.86L346.939 213.76H348.187L347.143 218.956H347.947L347.743 220H346.819ZM348.949 220L350.197 213.76H351.445L351.181 215.092H351.241C351.473 214.612 351.745 214.248 352.057 214C352.369 213.744 352.757 213.616 353.221 213.616C353.741 213.616 354.129 213.764 354.385 214.06C354.649 214.356 354.781 214.768 354.781 215.296C354.781 215.432 354.773 215.568 354.757 215.704C354.741 215.832 354.717 215.976 354.685 216.136L354.121 218.956H354.877L354.673 220H353.725C353.461 220 353.249 219.932 353.089 219.796C352.937 219.66 352.861 219.464 352.861 219.208C352.861 219.16 352.861 219.12 352.861 219.088C352.861 219.048 352.869 218.992 352.885 218.92L353.425 216.22C353.473 215.98 353.497 215.76 353.497 215.56C353.497 215.28 353.433 215.068 353.305 214.924C353.177 214.772 352.969 214.696 352.681 214.696C352.265 214.696 351.901 214.872 351.589 215.224C351.413 215.416 351.261 215.64 351.133 215.896C351.005 216.144 350.917 216.392 350.869 216.64L350.197 220H348.949ZM357.4 220C357.016 220 356.732 219.916 356.548 219.748C356.372 219.58 356.284 219.348 356.284 219.052C356.284 218.988 356.288 218.916 356.296 218.836C356.304 218.756 356.316 218.676 356.332 218.596L357.088 214.804H356.176L356.38 213.76H356.848C357.08 213.76 357.236 213.712 357.316 213.616C357.404 213.52 357.468 213.364 357.508 213.148L357.724 212.056H358.888L358.552 213.76H359.8L359.596 214.804H358.336L357.508 218.956H358.72L358.516 220H357.4ZM362.406 220.144C361.598 220.144 360.982 219.916 360.558 219.46C360.142 218.996 359.934 218.344 359.934 217.504C359.934 216.992 360.01 216.504 360.162 216.04C360.322 215.568 360.546 215.152 360.834 214.792C361.122 214.432 361.47 214.148 361.878 213.94C362.286 213.724 362.742 213.616 363.246 213.616C363.494 213.616 363.742 213.648 363.99 213.712C364.246 213.776 364.474 213.876 364.674 214.012C364.874 214.148 365.034 214.324 365.154 214.54C365.282 214.756 365.346 215.016 365.346 215.32C365.346 215.984 365.01 216.492 364.338 216.844C363.674 217.196 362.63 217.388 361.206 217.42C361.182 217.58 361.17 217.712 361.17 217.816C361.17 218.2 361.274 218.508 361.482 218.74C361.698 218.972 362.034 219.088 362.49 219.088C362.834 219.088 363.146 219.012 363.426 218.86C363.706 218.708 363.974 218.472 364.23 218.152L365.022 218.812C364.63 219.3 364.218 219.644 363.786 219.844C363.354 220.044 362.894 220.144 362.406 220.144ZM363.15 214.612C362.718 214.612 362.342 214.76 362.022 215.056C361.71 215.344 361.506 215.736 361.41 216.232L361.35 216.544C361.918 216.52 362.382 216.48 362.742 216.424C363.102 216.368 363.382 216.292 363.582 216.196C363.79 216.1 363.93 215.984 364.002 215.848C364.074 215.712 364.11 215.556 364.11 215.38C364.11 215.228 364.082 215.104 364.026 215.008C363.97 214.904 363.894 214.824 363.798 214.768C363.71 214.704 363.61 214.664 363.498 214.648C363.386 214.624 363.27 214.612 363.15 214.612ZM365.894 220L367.142 213.76H368.39L368.126 215.092H368.198C368.27 214.932 368.358 214.772 368.462 214.612C368.574 214.452 368.706 214.312 368.858 214.192C369.01 214.064 369.182 213.96 369.374 213.88C369.574 213.8 369.798 213.76 370.046 213.76H370.394L370.142 214.996H369.722C369.17 214.996 368.742 215.128 368.438 215.392C368.134 215.656 367.938 216.016 367.85 216.472L367.142 220H365.894ZM375.208 220C374.928 220 374.704 219.928 374.536 219.784C374.376 219.64 374.296 219.44 374.296 219.184C374.296 219.048 374.308 218.932 374.332 218.836L374.38 218.608H374.332C374.076 219.12 373.792 219.504 373.48 219.76C373.176 220.016 372.784 220.144 372.304 220.144C371.728 220.144 371.284 219.936 370.972 219.52C370.66 219.104 370.504 218.548 370.504 217.852C370.504 217.308 370.572 216.78 370.708 216.268C370.844 215.756 371.04 215.304 371.296 214.912C371.56 214.52 371.876 214.208 372.244 213.976C372.612 213.736 373.028 213.616 373.492 213.616C373.9 213.616 374.252 213.724 374.548 213.94C374.844 214.148 375.024 214.436 375.088 214.804H375.148L375.352 213.76H376.6L375.556 218.956H376.36L376.156 220H375.208ZM372.784 219.076C373.04 219.076 373.264 219.02 373.456 218.908C373.656 218.796 373.836 218.652 373.996 218.476C374.34 218.108 374.568 217.644 374.68 217.084L374.932 215.824C374.956 215.688 374.948 215.552 374.908 215.416C374.868 215.28 374.796 215.16 374.692 215.056C374.588 214.944 374.452 214.856 374.284 214.792C374.124 214.72 373.94 214.684 373.732 214.684C373.268 214.684 372.896 214.828 372.616 215.116C372.336 215.396 372.14 215.812 372.028 216.364L371.848 217.24C371.832 217.336 371.816 217.444 371.8 217.564C371.792 217.684 371.788 217.792 371.788 217.888C371.788 218.24 371.868 218.528 372.028 218.752C372.196 218.968 372.448 219.076 372.784 219.076ZM379.875 220.144C379.179 220.144 378.615 219.924 378.183 219.484C377.751 219.036 377.535 218.384 377.535 217.528C377.535 216.984 377.611 216.476 377.763 216.004C377.915 215.524 378.131 215.108 378.411 214.756C378.691 214.404 379.023 214.128 379.407 213.928C379.799 213.72 380.231 213.616 380.703 213.616C381.279 213.616 381.751 213.756 382.119 214.036C382.495 214.316 382.735 214.684 382.839 215.14L381.795 215.56C381.707 215.28 381.575 215.064 381.399 214.912C381.231 214.752 380.979 214.672 380.643 214.672C380.211 214.672 379.859 214.808 379.587 215.08C379.315 215.352 379.131 215.74 379.035 216.244L378.831 217.276C378.791 217.476 378.771 217.652 378.771 217.804C378.771 218.188 378.871 218.5 379.071 218.74C379.271 218.972 379.579 219.088 379.995 219.088C380.299 219.088 380.559 219 380.775 218.824C380.999 218.648 381.219 218.364 381.435 217.972L382.395 218.428C382.131 218.988 381.787 219.416 381.363 219.712C380.939 220 380.443 220.144 379.875 220.144ZM384.822 220C384.438 220 384.154 219.916 383.97 219.748C383.794 219.58 383.706 219.348 383.706 219.052C383.706 218.988 383.71 218.916 383.718 218.836C383.726 218.756 383.738 218.676 383.754 218.596L384.51 214.804H383.598L383.802 213.76H384.27C384.502 213.76 384.658 213.712 384.738 213.616C384.826 213.52 384.89 213.364 384.93 213.148L385.146 212.056H386.31L385.974 213.76H387.222L387.018 214.804H385.758L384.93 218.956H386.142L385.938 220H384.822ZM389.37 212.644C389.138 212.644 388.97 212.596 388.866 212.5C388.762 212.404 388.71 212.284 388.71 212.14C388.71 212.06 388.73 211.92 388.77 211.72C388.81 211.536 388.894 211.384 389.022 211.264C389.15 211.136 389.354 211.072 389.634 211.072C389.866 211.072 390.034 211.12 390.138 211.216C390.242 211.312 390.294 211.432 390.294 211.576C390.294 211.656 390.274 211.796 390.234 211.996C390.194 212.18 390.11 212.336 389.982 212.464C389.854 212.584 389.65 212.644 389.37 212.644ZM388.374 220C388.07 220 387.838 219.924 387.678 219.772C387.518 219.612 387.438 219.408 387.438 219.16C387.438 219.08 387.45 218.98 387.474 218.86L388.494 213.76H389.742L388.698 218.956H389.502L389.298 220H388.374ZM393.036 220.144C392.332 220.144 391.764 219.924 391.332 219.484C390.9 219.044 390.684 218.404 390.684 217.564C390.684 217.028 390.764 216.52 390.924 216.04C391.084 215.56 391.304 215.14 391.584 214.78C391.872 214.42 392.212 214.136 392.604 213.928C392.996 213.72 393.428 213.616 393.9 213.616C394.604 213.616 395.172 213.836 395.604 214.276C396.036 214.716 396.252 215.356 396.252 216.196C396.252 216.74 396.172 217.252 396.012 217.732C395.852 218.204 395.628 218.62 395.34 218.98C395.06 219.34 394.724 219.624 394.332 219.832C393.94 220.04 393.508 220.144 393.036 220.144ZM393.132 219.088C393.524 219.088 393.864 218.944 394.152 218.656C394.448 218.368 394.652 217.948 394.764 217.396L394.968 216.4C394.984 216.336 394.996 216.264 395.004 216.184C395.012 216.104 395.016 216.02 395.016 215.932C395.016 215.548 394.912 215.244 394.704 215.02C394.504 214.788 394.204 214.672 393.804 214.672C393.412 214.672 393.068 214.816 392.772 215.104C392.484 215.392 392.284 215.812 392.172 216.364L391.968 217.36C391.952 217.432 391.94 217.508 391.932 217.588C391.924 217.66 391.92 217.74 391.92 217.828C391.92 218.212 392.02 218.52 392.22 218.752C392.428 218.976 392.732 219.088 393.132 219.088ZM397.078 220L398.326 213.76H399.574L399.31 215.092H399.37C399.602 214.612 399.874 214.248 400.186 214C400.498 213.744 400.886 213.616 401.35 213.616C401.87 213.616 402.258 213.764 402.514 214.06C402.778 214.356 402.91 214.768 402.91 215.296C402.91 215.432 402.902 215.568 402.886 215.704C402.87 215.832 402.846 215.976 402.814 216.136L402.25 218.956H403.006L402.802 220H401.854C401.59 220 401.378 219.932 401.218 219.796C401.066 219.66 400.99 219.464 400.99 219.208C400.99 219.16 400.99 219.12 400.99 219.088C400.99 219.048 400.998 218.992 401.014 218.92L401.554 216.22C401.602 215.98 401.626 215.76 401.626 215.56C401.626 215.28 401.562 215.068 401.434 214.924C401.306 214.772 401.098 214.696 400.81 214.696C400.394 214.696 400.03 214.872 399.718 215.224C399.542 215.416 399.39 215.64 399.262 215.896C399.134 216.144 399.046 216.392 398.998 216.64L398.326 220H397.078ZM352.705 236L353.953 229.76H355.201L354.937 231.092H355.009C355.081 230.932 355.169 230.772 355.273 230.612C355.385 230.452 355.517 230.312 355.669 230.192C355.821 230.064 355.993 229.96 356.185 229.88C356.385 229.8 356.609 229.76 356.857 229.76H357.205L356.953 230.996H356.533C355.981 230.996 355.553 231.128 355.249 231.392C354.945 231.656 354.749 232.016 354.661 232.472L353.953 236H352.705ZM359.822 236.144C359.014 236.144 358.398 235.916 357.974 235.46C357.558 234.996 357.35 234.344 357.35 233.504C357.35 232.992 357.426 232.504 357.578 232.04C357.738 231.568 357.962 231.152 358.25 230.792C358.538 230.432 358.886 230.148 359.294 229.94C359.702 229.724 360.158 229.616 360.662 229.616C360.91 229.616 361.158 229.648 361.406 229.712C361.662 229.776 361.89 229.876 362.09 230.012C362.29 230.148 362.45 230.324 362.57 230.54C362.698 230.756 362.762 231.016 362.762 231.32C362.762 231.984 362.426 232.492 361.754 232.844C361.09 233.196 360.046 233.388 358.622 233.42C358.598 233.58 358.586 233.712 358.586 233.816C358.586 234.2 358.69 234.508 358.898 234.74C359.114 234.972 359.45 235.088 359.906 235.088C360.25 235.088 360.562 235.012 360.842 234.86C361.122 234.708 361.39 234.472 361.646 234.152L362.438 234.812C362.046 235.3 361.634 235.644 361.202 235.844C360.77 236.044 360.31 236.144 359.822 236.144ZM360.566 230.612C360.134 230.612 359.758 230.76 359.438 231.056C359.126 231.344 358.922 231.736 358.826 232.232L358.766 232.544C359.334 232.52 359.798 232.48 360.158 232.424C360.518 232.368 360.798 232.292 360.998 232.196C361.206 232.1 361.346 231.984 361.418 231.848C361.49 231.712 361.526 231.556 361.526 231.38C361.526 231.228 361.498 231.104 361.442 231.008C361.386 230.904 361.31 230.824 361.214 230.768C361.126 230.704 361.026 230.664 360.914 230.648C360.802 230.624 360.686 230.612 360.566 230.612ZM368.194 236C367.914 236 367.69 235.928 367.522 235.784C367.362 235.64 367.282 235.44 367.282 235.184C367.282 235.048 367.294 234.932 367.318 234.836L367.366 234.608H367.318C367.062 235.12 366.778 235.504 366.466 235.76C366.162 236.016 365.77 236.144 365.29 236.144C364.714 236.144 364.27 235.936 363.958 235.52C363.646 235.104 363.49 234.548 363.49 233.852C363.49 233.308 363.558 232.78 363.694 232.268C363.83 231.756 364.026 231.304 364.282 230.912C364.546 230.52 364.862 230.208 365.23 229.976C365.598 229.736 366.014 229.616 366.478 229.616C366.886 229.616 367.238 229.724 367.534 229.94C367.83 230.148 368.01 230.436 368.074 230.804H368.134L368.338 229.76H369.586L368.542 234.956H369.346L369.142 236H368.194ZM365.77 235.076C366.026 235.076 366.25 235.02 366.442 234.908C366.642 234.796 366.822 234.652 366.982 234.476C367.326 234.108 367.554 233.644 367.666 233.084L367.918 231.824C367.942 231.688 367.934 231.552 367.894 231.416C367.854 231.28 367.782 231.16 367.678 231.056C367.574 230.944 367.438 230.856 367.27 230.792C367.11 230.72 366.926 230.684 366.718 230.684C366.254 230.684 365.882 230.828 365.602 231.116C365.322 231.396 365.126 231.812 365.014 232.364L364.834 233.24C364.818 233.336 364.802 233.444 364.786 233.564C364.778 233.684 364.774 233.792 364.774 233.888C364.774 234.24 364.854 234.528 365.014 234.752C365.182 234.968 365.434 235.076 365.77 235.076ZM372.862 236.144C372.166 236.144 371.602 235.924 371.17 235.484C370.738 235.036 370.522 234.384 370.522 233.528C370.522 232.984 370.598 232.476 370.75 232.004C370.902 231.524 371.118 231.108 371.398 230.756C371.678 230.404 372.01 230.128 372.394 229.928C372.786 229.72 373.218 229.616 373.69 229.616C374.266 229.616 374.738 229.756 375.106 230.036C375.482 230.316 375.722 230.684 375.826 231.14L374.782 231.56C374.694 231.28 374.562 231.064 374.386 230.912C374.218 230.752 373.966 230.672 373.63 230.672C373.198 230.672 372.846 230.808 372.574 231.08C372.302 231.352 372.118 231.74 372.022 232.244L371.818 233.276C371.778 233.476 371.758 233.652 371.758 233.804C371.758 234.188 371.858 234.5 372.058 234.74C372.258 234.972 372.566 235.088 372.982 235.088C373.286 235.088 373.546 235 373.762 234.824C373.986 234.648 374.206 234.364 374.422 233.972L375.382 234.428C375.118 234.988 374.774 235.416 374.35 235.712C373.926 236 373.43 236.144 372.862 236.144ZM377.808 236C377.424 236 377.14 235.916 376.956 235.748C376.78 235.58 376.692 235.348 376.692 235.052C376.692 234.988 376.696 234.916 376.704 234.836C376.712 234.756 376.724 234.676 376.74 234.596L377.496 230.804H376.584L376.788 229.76H377.256C377.488 229.76 377.644 229.712 377.724 229.616C377.812 229.52 377.876 229.364 377.916 229.148L378.132 228.056H379.296L378.96 229.76H380.208L380.004 230.804H378.744L377.916 234.956H379.128L378.924 236H377.808ZM382.356 228.644C382.124 228.644 381.956 228.596 381.852 228.5C381.748 228.404 381.696 228.284 381.696 228.14C381.696 228.06 381.716 227.92 381.756 227.72C381.796 227.536 381.88 227.384 382.008 227.264C382.136 227.136 382.34 227.072 382.62 227.072C382.852 227.072 383.02 227.12 383.124 227.216C383.228 227.312 383.28 227.432 383.28 227.576C383.28 227.656 383.26 227.796 383.22 227.996C383.18 228.18 383.096 228.336 382.968 228.464C382.84 228.584 382.636 228.644 382.356 228.644ZM381.36 236C381.056 236 380.824 235.924 380.664 235.772C380.504 235.612 380.424 235.408 380.424 235.16C380.424 235.08 380.436 234.98 380.46 234.86L381.48 229.76H382.728L381.684 234.956H382.488L382.284 236H381.36ZM386.022 236.144C385.318 236.144 384.75 235.924 384.318 235.484C383.886 235.044 383.67 234.404 383.67 233.564C383.67 233.028 383.75 232.52 383.91 232.04C384.07 231.56 384.29 231.14 384.57 230.78C384.858 230.42 385.198 230.136 385.59 229.928C385.982 229.72 386.414 229.616 386.886 229.616C387.59 229.616 388.158 229.836 388.59 230.276C389.022 230.716 389.238 231.356 389.238 232.196C389.238 232.74 389.158 233.252 388.998 233.732C388.838 234.204 388.614 234.62 388.326 234.98C388.046 235.34 387.71 235.624 387.318 235.832C386.926 236.04 386.494 236.144 386.022 236.144ZM386.118 235.088C386.51 235.088 386.85 234.944 387.138 234.656C387.434 234.368 387.638 233.948 387.75 233.396L387.954 232.4C387.97 232.336 387.982 232.264 387.99 232.184C387.998 232.104 388.002 232.02 388.002 231.932C388.002 231.548 387.898 231.244 387.69 231.02C387.49 230.788 387.19 230.672 386.79 230.672C386.398 230.672 386.054 230.816 385.758 231.104C385.47 231.392 385.27 231.812 385.158 232.364L384.954 233.36C384.938 233.432 384.926 233.508 384.918 233.588C384.91 233.66 384.906 233.74 384.906 233.828C384.906 234.212 385.006 234.52 385.206 234.752C385.414 234.976 385.718 235.088 386.118 235.088ZM390.064 236L391.312 229.76H392.56L392.296 231.092H392.356C392.588 230.612 392.86 230.248 393.172 230C393.484 229.744 393.872 229.616 394.336 229.616C394.856 229.616 395.244 229.764 395.5 230.06C395.764 230.356 395.896 230.768 395.896 231.296C395.896 231.432 395.888 231.568 395.872 231.704C395.856 231.832 395.832 231.976 395.8 232.136L395.236 234.956H395.992L395.788 236H394.84C394.576 236 394.364 235.932 394.204 235.796C394.052 235.66 393.976 235.464 393.976 235.208C393.976 235.16 393.976 235.12 393.976 235.088C393.976 235.048 393.984 234.992 394 234.92L394.54 232.22C394.588 231.98 394.612 231.76 394.612 231.56C394.612 231.28 394.548 231.068 394.42 230.924C394.292 230.772 394.084 230.696 393.796 230.696C393.38 230.696 393.016 230.872 392.704 231.224C392.528 231.416 392.376 231.64 392.248 231.896C392.12 232.144 392.032 232.392 391.984 232.64L391.312 236H390.064Z" fill="white"/>
<path d="M273.843 341.852C273.747 342.348 273.555 342.728 273.267 342.992C272.979 343.264 272.555 343.4 271.995 343.4H271.155L271.359 342.356H272.487L273.807 335.804H272.871L273.075 334.76H274.023L274.239 333.668C274.335 333.172 274.527 332.792 274.815 332.528C275.103 332.256 275.527 332.12 276.087 332.12H277.011L276.807 333.164H275.583L275.271 334.76H276.483L276.279 335.804H275.055L273.843 341.852ZM278.777 334.76L278.021 338.552C277.997 338.664 277.977 338.776 277.961 338.888C277.953 339 277.949 339.1 277.949 339.188C277.949 339.468 278.009 339.684 278.129 339.836C278.249 339.988 278.449 340.064 278.729 340.064C279.129 340.064 279.485 339.888 279.797 339.536C279.981 339.328 280.133 339.1 280.253 338.852C280.381 338.596 280.469 338.344 280.517 338.096L281.189 334.76H282.437L281.393 339.956H282.197L281.993 341H281.033C280.753 341 280.533 340.928 280.373 340.784C280.221 340.632 280.145 340.428 280.145 340.172C280.145 340.068 280.157 339.948 280.181 339.812L280.205 339.668H280.145C279.913 340.148 279.645 340.516 279.341 340.772C279.037 341.02 278.661 341.144 278.213 341.144C277.701 341.144 277.313 340.996 277.049 340.7C276.793 340.404 276.665 339.992 276.665 339.464C276.665 339.328 276.673 339.192 276.689 339.056C276.705 338.92 276.729 338.772 276.761 338.612L277.529 334.76H278.777ZM283.197 341L284.445 334.76H285.693L285.429 336.092H285.489C285.721 335.612 285.993 335.248 286.305 335C286.617 334.744 287.005 334.616 287.469 334.616C287.989 334.616 288.377 334.764 288.633 335.06C288.897 335.356 289.029 335.768 289.029 336.296C289.029 336.432 289.021 336.568 289.005 336.704C288.989 336.832 288.965 336.976 288.933 337.136L288.369 339.956H289.125L288.921 341H287.973C287.709 341 287.497 340.932 287.337 340.796C287.185 340.66 287.109 340.464 287.109 340.208C287.109 340.16 287.109 340.12 287.109 340.088C287.109 340.048 287.117 339.992 287.133 339.92L287.673 337.22C287.721 336.98 287.745 336.76 287.745 336.56C287.745 336.28 287.681 336.068 287.553 335.924C287.425 335.772 287.217 335.696 286.929 335.696C286.513 335.696 286.149 335.872 285.837 336.224C285.661 336.416 285.509 336.64 285.381 336.896C285.253 337.144 285.165 337.392 285.117 337.64L284.445 341H283.197ZM292.596 341.144C291.9 341.144 291.336 340.924 290.904 340.484C290.472 340.036 290.256 339.384 290.256 338.528C290.256 337.984 290.332 337.476 290.484 337.004C290.636 336.524 290.852 336.108 291.132 335.756C291.412 335.404 291.744 335.128 292.128 334.928C292.52 334.72 292.952 334.616 293.424 334.616C294 334.616 294.472 334.756 294.84 335.036C295.216 335.316 295.456 335.684 295.56 336.14L294.516 336.56C294.428 336.28 294.296 336.064 294.12 335.912C293.952 335.752 293.7 335.672 293.364 335.672C292.932 335.672 292.58 335.808 292.308 336.08C292.036 336.352 291.852 336.74 291.756 337.244L291.552 338.276C291.512 338.476 291.492 338.652 291.492 338.804C291.492 339.188 291.592 339.5 291.792 339.74C291.992 339.972 292.3 340.088 292.716 340.088C293.02 340.088 293.28 340 293.496 339.824C293.72 339.648 293.94 339.364 294.156 338.972L295.116 339.428C294.852 339.988 294.508 340.416 294.084 340.712C293.66 341 293.164 341.144 292.596 341.144ZM297.542 341C297.158 341 296.874 340.916 296.69 340.748C296.514 340.58 296.426 340.348 296.426 340.052C296.426 339.988 296.43 339.916 296.438 339.836C296.446 339.756 296.458 339.676 296.474 339.596L297.23 335.804H296.318L296.522 334.76H296.99C297.222 334.76 297.378 334.712 297.458 334.616C297.546 334.52 297.61 334.364 297.65 334.148L297.866 333.056H299.03L298.694 334.76H299.942L299.738 335.804H298.478L297.65 339.956H298.862L298.658 341H297.542ZM302.091 333.644C301.859 333.644 301.691 333.596 301.587 333.5C301.483 333.404 301.431 333.284 301.431 333.14C301.431 333.06 301.451 332.92 301.491 332.72C301.531 332.536 301.615 332.384 301.743 332.264C301.871 332.136 302.075 332.072 302.355 332.072C302.587 332.072 302.755 332.12 302.859 332.216C302.963 332.312 303.015 332.432 303.015 332.576C303.015 332.656 302.995 332.796 302.955 332.996C302.915 333.18 302.831 333.336 302.703 333.464C302.575 333.584 302.371 333.644 302.091 333.644ZM301.095 341C300.791 341 300.559 340.924 300.399 340.772C300.239 340.612 300.159 340.408 300.159 340.16C300.159 340.08 300.171 339.98 300.195 339.86L301.215 334.76H302.463L301.419 339.956H302.223L302.019 341H301.095ZM305.756 341.144C305.052 341.144 304.484 340.924 304.052 340.484C303.62 340.044 303.404 339.404 303.404 338.564C303.404 338.028 303.484 337.52 303.644 337.04C303.804 336.56 304.024 336.14 304.304 335.78C304.592 335.42 304.932 335.136 305.324 334.928C305.716 334.72 306.148 334.616 306.62 334.616C307.324 334.616 307.892 334.836 308.324 335.276C308.756 335.716 308.972 336.356 308.972 337.196C308.972 337.74 308.892 338.252 308.732 338.732C308.572 339.204 308.348 339.62 308.06 339.98C307.78 340.34 307.444 340.624 307.052 340.832C306.66 341.04 306.228 341.144 305.756 341.144ZM305.852 340.088C306.244 340.088 306.584 339.944 306.872 339.656C307.168 339.368 307.372 338.948 307.484 338.396L307.688 337.4C307.704 337.336 307.716 337.264 307.724 337.184C307.732 337.104 307.736 337.02 307.736 336.932C307.736 336.548 307.632 336.244 307.424 336.02C307.224 335.788 306.924 335.672 306.524 335.672C306.132 335.672 305.788 335.816 305.492 336.104C305.204 336.392 305.004 336.812 304.892 337.364L304.688 338.36C304.672 338.432 304.66 338.508 304.652 338.588C304.644 338.66 304.64 338.74 304.64 338.828C304.64 339.212 304.74 339.52 304.94 339.752C305.148 339.976 305.452 340.088 305.852 340.088ZM309.799 341L311.047 334.76H312.295L312.031 336.092H312.091C312.323 335.612 312.595 335.248 312.907 335C313.219 334.744 313.607 334.616 314.071 334.616C314.591 334.616 314.979 334.764 315.235 335.06C315.499 335.356 315.631 335.768 315.631 336.296C315.631 336.432 315.623 336.568 315.607 336.704C315.591 336.832 315.567 336.976 315.535 337.136L314.971 339.956H315.727L315.523 341H314.575C314.311 341 314.099 340.932 313.939 340.796C313.787 340.66 313.711 340.464 313.711 340.208C313.711 340.16 313.711 340.12 313.711 340.088C313.711 340.048 313.719 339.992 313.735 339.92L314.275 337.22C314.323 336.98 314.347 336.76 314.347 336.56C314.347 336.28 314.283 336.068 314.155 335.924C314.027 335.772 313.819 335.696 313.531 335.696C313.115 335.696 312.751 335.872 312.439 336.224C312.263 336.416 312.111 336.64 311.983 336.896C311.855 337.144 311.767 337.392 311.719 337.64L311.047 341H309.799ZM321.562 341C321.282 341 321.058 340.928 320.89 340.784C320.73 340.64 320.65 340.44 320.65 340.184C320.65 340.048 320.662 339.932 320.686 339.836L320.734 339.608H320.686C320.43 340.12 320.146 340.504 319.834 340.76C319.53 341.016 319.138 341.144 318.658 341.144C318.082 341.144 317.638 340.936 317.326 340.52C317.014 340.104 316.858 339.548 316.858 338.852C316.858 338.308 316.926 337.78 317.062 337.268C317.198 336.756 317.394 336.304 317.65 335.912C317.914 335.52 318.23 335.208 318.598 334.976C318.966 334.736 319.382 334.616 319.846 334.616C320.254 334.616 320.606 334.724 320.902 334.94C321.198 335.148 321.378 335.436 321.442 335.804H321.502L321.706 334.76H322.954L321.91 339.956H322.714L322.51 341H321.562ZM319.138 340.076C319.394 340.076 319.618 340.02 319.81 339.908C320.01 339.796 320.19 339.652 320.35 339.476C320.694 339.108 320.922 338.644 321.034 338.084L321.286 336.824C321.31 336.688 321.302 336.552 321.262 336.416C321.222 336.28 321.15 336.16 321.046 336.056C320.942 335.944 320.806 335.856 320.638 335.792C320.478 335.72 320.294 335.684 320.086 335.684C319.622 335.684 319.25 335.828 318.97 336.116C318.69 336.396 318.494 336.812 318.382 337.364L318.202 338.24C318.186 338.336 318.17 338.444 318.154 338.564C318.146 338.684 318.142 338.792 318.142 338.888C318.142 339.24 318.222 339.528 318.382 339.752C318.55 339.968 318.802 340.076 319.138 340.076ZM324.825 341C324.521 341 324.289 340.924 324.129 340.772C323.969 340.612 323.889 340.408 323.889 340.16C323.889 340.08 323.901 339.98 323.925 339.86L325.473 332.12H326.721L325.149 339.956H326.013L325.809 341H324.825ZM329.067 333.644C328.835 333.644 328.667 333.596 328.563 333.5C328.459 333.404 328.407 333.284 328.407 333.14C328.407 333.06 328.427 332.92 328.467 332.72C328.507 332.536 328.591 332.384 328.719 332.264C328.847 332.136 329.051 332.072 329.331 332.072C329.563 332.072 329.731 332.12 329.835 332.216C329.939 332.312 329.991 332.432 329.991 332.576C329.991 332.656 329.971 332.796 329.931 332.996C329.891 333.18 329.807 333.336 329.679 333.464C329.551 333.584 329.347 333.644 329.067 333.644ZM328.071 341C327.767 341 327.535 340.924 327.375 340.772C327.215 340.612 327.135 340.408 327.135 340.16C327.135 340.08 327.147 339.98 327.171 339.86L328.191 334.76H329.439L328.395 339.956H329.199L328.995 341H328.071ZM331.773 341C331.389 341 331.105 340.916 330.921 340.748C330.745 340.58 330.657 340.348 330.657 340.052C330.657 339.988 330.661 339.916 330.669 339.836C330.677 339.756 330.689 339.676 330.705 339.596L331.461 335.804H330.549L330.753 334.76H331.221C331.453 334.76 331.609 334.712 331.689 334.616C331.777 334.52 331.841 334.364 331.881 334.148L332.097 333.056H333.261L332.925 334.76H334.173L333.969 335.804H332.709L331.881 339.956H333.093L332.889 341H331.773ZM339.043 334.76H340.375L336.319 342.236C336.207 342.444 336.095 342.62 335.983 342.764C335.879 342.908 335.759 343.028 335.623 343.124C335.495 343.22 335.347 343.288 335.179 343.328C335.011 343.376 334.819 343.4 334.603 343.4H333.655L333.859 342.368H334.999L335.587 341.264L334.639 334.76H335.863L336.235 337.532L336.463 339.824H336.523L337.615 337.532L339.043 334.76ZM283.094 349.644C282.862 349.644 282.694 349.596 282.59 349.5C282.486 349.404 282.434 349.284 282.434 349.14C282.434 349.06 282.454 348.92 282.494 348.72C282.534 348.536 282.618 348.384 282.746 348.264C282.874 348.136 283.078 348.072 283.358 348.072C283.59 348.072 283.758 348.12 283.862 348.216C283.966 348.312 284.018 348.432 284.018 348.576C284.018 348.656 283.998 348.796 283.958 348.996C283.918 349.18 283.834 349.336 283.706 349.464C283.578 349.584 283.374 349.644 283.094 349.644ZM282.098 357C281.794 357 281.562 356.924 281.402 356.772C281.242 356.612 281.162 356.408 281.162 356.16C281.162 356.08 281.174 355.98 281.198 355.86L282.218 350.76H283.466L282.422 355.956H283.226L283.022 357H282.098ZM284.228 357L285.476 350.76H286.724L286.46 352.092H286.52C286.752 351.612 287.024 351.248 287.336 351C287.648 350.744 288.036 350.616 288.5 350.616C289.02 350.616 289.408 350.764 289.664 351.06C289.928 351.356 290.06 351.768 290.06 352.296C290.06 352.432 290.052 352.568 290.036 352.704C290.02 352.832 289.996 352.976 289.964 353.136L289.4 355.956H290.156L289.952 357H289.004C288.74 357 288.528 356.932 288.368 356.796C288.216 356.66 288.14 356.464 288.14 356.208C288.14 356.16 288.14 356.12 288.14 356.088C288.14 356.048 288.148 355.992 288.164 355.92L288.704 353.22C288.752 352.98 288.776 352.76 288.776 352.56C288.776 352.28 288.712 352.068 288.584 351.924C288.456 351.772 288.248 351.696 287.96 351.696C287.544 351.696 287.18 351.872 286.868 352.224C286.692 352.416 286.54 352.64 286.412 352.896C286.284 353.144 286.196 353.392 286.148 353.64L285.476 357H284.228ZM292.679 357C292.295 357 292.011 356.916 291.827 356.748C291.651 356.58 291.563 356.348 291.563 356.052C291.563 355.988 291.567 355.916 291.575 355.836C291.583 355.756 291.595 355.676 291.611 355.596L292.367 351.804H291.455L291.659 350.76H292.127C292.359 350.76 292.515 350.712 292.595 350.616C292.683 350.52 292.747 350.364 292.787 350.148L293.003 349.056H294.167L293.831 350.76H295.079L294.875 351.804H293.615L292.787 355.956H293.999L293.795 357H292.679ZM297.527 350.76L296.771 354.552C296.747 354.664 296.727 354.776 296.711 354.888C296.703 355 296.699 355.1 296.699 355.188C296.699 355.468 296.759 355.684 296.879 355.836C296.999 355.988 297.199 356.064 297.479 356.064C297.879 356.064 298.235 355.888 298.547 355.536C298.731 355.328 298.883 355.1 299.003 354.852C299.131 354.596 299.219 354.344 299.267 354.096L299.939 350.76H301.187L300.143 355.956H300.947L300.743 357H299.783C299.503 357 299.283 356.928 299.123 356.784C298.971 356.632 298.895 356.428 298.895 356.172C298.895 356.068 298.907 355.948 298.931 355.812L298.955 355.668H298.895C298.663 356.148 298.395 356.516 298.091 356.772C297.787 357.02 297.411 357.144 296.963 357.144C296.451 357.144 296.063 356.996 295.799 356.7C295.543 356.404 295.415 355.992 295.415 355.464C295.415 355.328 295.423 355.192 295.439 355.056C295.455 354.92 295.479 354.772 295.511 354.612L296.279 350.76H297.527ZM304.071 349.644C303.839 349.644 303.671 349.596 303.567 349.5C303.463 349.404 303.411 349.284 303.411 349.14C303.411 349.06 303.431 348.92 303.471 348.72C303.511 348.536 303.595 348.384 303.723 348.264C303.851 348.136 304.055 348.072 304.335 348.072C304.567 348.072 304.735 348.12 304.839 348.216C304.943 348.312 304.995 348.432 304.995 348.576C304.995 348.656 304.975 348.796 304.935 348.996C304.895 349.18 304.811 349.336 304.683 349.464C304.555 349.584 304.351 349.644 304.071 349.644ZM303.075 357C302.771 357 302.539 356.924 302.379 356.772C302.219 356.612 302.139 356.408 302.139 356.16C302.139 356.08 302.151 355.98 302.175 355.86L303.195 350.76H304.443L303.399 355.956H304.203L303.999 357H303.075ZM306.777 357C306.393 357 306.109 356.916 305.925 356.748C305.749 356.58 305.661 356.348 305.661 356.052C305.661 355.988 305.665 355.916 305.673 355.836C305.681 355.756 305.693 355.676 305.709 355.596L306.465 351.804H305.553L305.757 350.76H306.225C306.457 350.76 306.613 350.712 306.693 350.616C306.781 350.52 306.845 350.364 306.885 350.148L307.101 349.056H308.265L307.929 350.76H309.177L308.973 351.804H307.713L306.885 355.956H308.097L307.893 357H306.777ZM311.325 349.644C311.093 349.644 310.925 349.596 310.821 349.5C310.717 349.404 310.665 349.284 310.665 349.14C310.665 349.06 310.685 348.92 310.725 348.72C310.765 348.536 310.849 348.384 310.977 348.264C311.105 348.136 311.309 348.072 311.589 348.072C311.821 348.072 311.989 348.12 312.093 348.216C312.197 348.312 312.249 348.432 312.249 348.576C312.249 348.656 312.229 348.796 312.189 348.996C312.149 349.18 312.065 349.336 311.937 349.464C311.809 349.584 311.605 349.644 311.325 349.644ZM310.329 357C310.025 357 309.793 356.924 309.633 356.772C309.473 356.612 309.393 356.408 309.393 356.16C309.393 356.08 309.405 355.98 309.429 355.86L310.449 350.76H311.697L310.653 355.956H311.457L311.253 357H310.329ZM313.707 357L312.831 350.76H314.055L314.403 353.532L314.631 355.86H314.691L315.783 353.532L317.211 350.76H318.543L315.195 357H313.707ZM320.536 349.644C320.304 349.644 320.136 349.596 320.032 349.5C319.928 349.404 319.876 349.284 319.876 349.14C319.876 349.06 319.896 348.92 319.936 348.72C319.976 348.536 320.06 348.384 320.188 348.264C320.316 348.136 320.52 348.072 320.8 348.072C321.032 348.072 321.2 348.12 321.304 348.216C321.408 348.312 321.46 348.432 321.46 348.576C321.46 348.656 321.44 348.796 321.4 348.996C321.36 349.18 321.276 349.336 321.148 349.464C321.02 349.584 320.816 349.644 320.536 349.644ZM319.54 357C319.236 357 319.004 356.924 318.844 356.772C318.684 356.612 318.604 356.408 318.604 356.16C318.604 356.08 318.616 355.98 318.64 355.86L319.66 350.76H320.908L319.864 355.956H320.668L320.464 357H319.54ZM323.242 357C322.858 357 322.574 356.916 322.39 356.748C322.214 356.58 322.126 356.348 322.126 356.052C322.126 355.988 322.13 355.916 322.138 355.836C322.146 355.756 322.158 355.676 322.174 355.596L322.93 351.804H322.018L322.222 350.76H322.69C322.922 350.76 323.078 350.712 323.158 350.616C323.246 350.52 323.31 350.364 323.35 350.148L323.566 349.056H324.73L324.394 350.76H325.642L325.438 351.804H324.178L323.35 355.956H324.562L324.358 357H323.242ZM330.512 350.76H331.844L327.788 358.236C327.676 358.444 327.564 358.62 327.452 358.764C327.348 358.908 327.228 359.028 327.092 359.124C326.964 359.22 326.816 359.288 326.648 359.328C326.48 359.376 326.288 359.4 326.072 359.4H325.124L325.328 358.368H326.468L327.056 357.264L326.108 350.76H327.332L327.704 353.532L327.932 355.824H327.992L329.084 353.532L330.512 350.76ZM271.9 366.76H273.148L272.872 368.152H272.92C273.176 367.64 273.456 367.256 273.76 367C274.072 366.744 274.468 366.616 274.948 366.616C275.524 366.616 275.968 366.824 276.28 367.24C276.592 367.656 276.748 368.212 276.748 368.908C276.748 369.452 276.68 369.98 276.544 370.492C276.408 371.004 276.208 371.456 275.944 371.848C275.688 372.24 275.376 372.556 275.008 372.796C274.64 373.028 274.224 373.144 273.76 373.144C273.352 373.144 273 373.04 272.704 372.832C272.408 372.624 272.228 372.332 272.164 371.956H272.104L271.42 375.4H270.172L271.9 366.76ZM273.532 372.076C273.988 372.076 274.356 371.936 274.636 371.656C274.916 371.368 275.112 370.948 275.224 370.396L275.404 369.52C275.42 369.424 275.432 369.32 275.44 369.208C275.456 369.088 275.464 368.976 275.464 368.872C275.464 368.52 275.38 368.236 275.212 368.02C275.044 367.796 274.788 367.684 274.444 367.684C274.196 367.684 273.972 367.74 273.772 367.852C273.58 367.964 273.408 368.108 273.256 368.284C273.088 368.476 272.944 368.684 272.824 368.908C272.712 369.132 272.628 369.384 272.572 369.664L272.344 370.804C272.272 371.164 272.336 371.468 272.536 371.716C272.736 371.956 273.068 372.076 273.532 372.076ZM277.578 373L278.826 366.76H280.074L279.81 368.092H279.882C279.954 367.932 280.042 367.772 280.146 367.612C280.258 367.452 280.39 367.312 280.542 367.192C280.694 367.064 280.866 366.96 281.058 366.88C281.258 366.8 281.482 366.76 281.73 366.76H282.078L281.826 367.996H281.406C280.854 367.996 280.426 368.128 280.122 368.392C279.818 368.656 279.622 369.016 279.534 369.472L278.826 373H277.578ZM284.695 373.144C283.887 373.144 283.271 372.916 282.847 372.46C282.431 371.996 282.223 371.344 282.223 370.504C282.223 369.992 282.299 369.504 282.451 369.04C282.611 368.568 282.835 368.152 283.123 367.792C283.411 367.432 283.759 367.148 284.167 366.94C284.575 366.724 285.031 366.616 285.535 366.616C285.783 366.616 286.031 366.648 286.279 366.712C286.535 366.776 286.763 366.876 286.963 367.012C287.163 367.148 287.323 367.324 287.443 367.54C287.571 367.756 287.635 368.016 287.635 368.32C287.635 368.984 287.299 369.492 286.627 369.844C285.963 370.196 284.919 370.388 283.495 370.42C283.471 370.58 283.459 370.712 283.459 370.816C283.459 371.2 283.563 371.508 283.771 371.74C283.987 371.972 284.323 372.088 284.779 372.088C285.123 372.088 285.435 372.012 285.715 371.86C285.995 371.708 286.263 371.472 286.519 371.152L287.311 371.812C286.919 372.3 286.507 372.644 286.075 372.844C285.643 373.044 285.183 373.144 284.695 373.144ZM285.439 367.612C285.007 367.612 284.631 367.76 284.311 368.056C283.999 368.344 283.795 368.736 283.699 369.232L283.639 369.544C284.207 369.52 284.671 369.48 285.031 369.424C285.391 369.368 285.671 369.292 285.871 369.196C286.079 369.1 286.219 368.984 286.291 368.848C286.363 368.712 286.399 368.556 286.399 368.38C286.399 368.228 286.371 368.104 286.315 368.008C286.259 367.904 286.183 367.824 286.087 367.768C285.999 367.704 285.899 367.664 285.787 367.648C285.675 367.624 285.559 367.612 285.439 367.612ZM293.067 373C292.787 373 292.563 372.928 292.395 372.784C292.235 372.64 292.155 372.44 292.155 372.184C292.155 372.048 292.167 371.932 292.191 371.836L292.239 371.608H292.191C291.935 372.12 291.651 372.504 291.339 372.76C291.035 373.016 290.643 373.144 290.163 373.144C289.587 373.144 289.143 372.936 288.831 372.52C288.519 372.104 288.363 371.548 288.363 370.852C288.363 370.308 288.431 369.78 288.567 369.268C288.703 368.756 288.899 368.304 289.155 367.912C289.419 367.52 289.735 367.208 290.103 366.976C290.471 366.736 290.887 366.616 291.351 366.616C291.759 366.616 292.111 366.724 292.407 366.94C292.703 367.148 292.883 367.436 292.947 367.804H293.007L293.739 364.12H294.987L293.415 371.956H294.219L294.015 373H293.067ZM290.667 372.076C290.915 372.076 291.135 372.02 291.327 371.908C291.519 371.788 291.695 371.644 291.855 371.476C292.207 371.1 292.435 370.64 292.539 370.096L292.767 368.956C292.839 368.596 292.775 368.296 292.575 368.056C292.375 367.808 292.039 367.684 291.567 367.684C291.119 367.684 290.755 367.828 290.475 368.116C290.195 368.396 289.999 368.812 289.887 369.364L289.707 370.24C289.691 370.336 289.675 370.444 289.659 370.564C289.651 370.676 289.647 370.784 289.647 370.888C289.647 371.24 289.731 371.528 289.899 371.752C290.067 371.968 290.323 372.076 290.667 372.076ZM297.339 365.644C297.107 365.644 296.939 365.596 296.835 365.5C296.731 365.404 296.679 365.284 296.679 365.14C296.679 365.06 296.699 364.92 296.739 364.72C296.779 364.536 296.863 364.384 296.991 364.264C297.119 364.136 297.323 364.072 297.603 364.072C297.835 364.072 298.003 364.12 298.107 364.216C298.211 364.312 298.263 364.432 298.263 364.576C298.263 364.656 298.243 364.796 298.203 364.996C298.163 365.18 298.079 365.336 297.951 365.464C297.823 365.584 297.619 365.644 297.339 365.644ZM296.343 373C296.039 373 295.807 372.924 295.647 372.772C295.487 372.612 295.407 372.408 295.407 372.16C295.407 372.08 295.419 371.98 295.443 371.86L296.463 366.76H297.711L296.667 371.956H297.471L297.267 373H296.343ZM300.992 373.144C300.296 373.144 299.732 372.924 299.3 372.484C298.868 372.036 298.652 371.384 298.652 370.528C298.652 369.984 298.728 369.476 298.88 369.004C299.032 368.524 299.248 368.108 299.528 367.756C299.808 367.404 300.14 367.128 300.524 366.928C300.916 366.72 301.348 366.616 301.82 366.616C302.396 366.616 302.868 366.756 303.236 367.036C303.612 367.316 303.852 367.684 303.956 368.14L302.912 368.56C302.824 368.28 302.692 368.064 302.516 367.912C302.348 367.752 302.096 367.672 301.76 367.672C301.328 367.672 300.976 367.808 300.704 368.08C300.432 368.352 300.248 368.74 300.152 369.244L299.948 370.276C299.908 370.476 299.888 370.652 299.888 370.804C299.888 371.188 299.988 371.5 300.188 371.74C300.388 371.972 300.696 372.088 301.112 372.088C301.416 372.088 301.676 372 301.892 371.824C302.116 371.648 302.336 371.364 302.552 370.972L303.512 371.428C303.248 371.988 302.904 372.416 302.48 372.712C302.056 373 301.56 373.144 300.992 373.144ZM305.939 373C305.555 373 305.271 372.916 305.087 372.748C304.911 372.58 304.823 372.348 304.823 372.052C304.823 371.988 304.827 371.916 304.835 371.836C304.843 371.756 304.855 371.676 304.871 371.596L305.627 367.804H304.715L304.919 366.76H305.387C305.619 366.76 305.775 366.712 305.855 366.616C305.943 366.52 306.007 366.364 306.047 366.148L306.263 365.056H307.427L307.091 366.76H308.339L308.135 367.804H306.875L306.047 371.956H307.259L307.055 373H305.939ZM313.188 373C312.908 373 312.684 372.928 312.516 372.784C312.356 372.64 312.276 372.44 312.276 372.184C312.276 372.048 312.288 371.932 312.312 371.836L312.36 371.608H312.312C312.056 372.12 311.772 372.504 311.46 372.76C311.156 373.016 310.764 373.144 310.284 373.144C309.708 373.144 309.264 372.936 308.952 372.52C308.64 372.104 308.484 371.548 308.484 370.852C308.484 370.308 308.552 369.78 308.688 369.268C308.824 368.756 309.02 368.304 309.276 367.912C309.54 367.52 309.856 367.208 310.224 366.976C310.592 366.736 311.008 366.616 311.472 366.616C311.88 366.616 312.232 366.724 312.528 366.94C312.824 367.148 313.004 367.436 313.068 367.804H313.128L313.332 366.76H314.58L313.536 371.956H314.34L314.136 373H313.188ZM310.764 372.076C311.02 372.076 311.244 372.02 311.436 371.908C311.636 371.796 311.816 371.652 311.976 371.476C312.32 371.108 312.548 370.644 312.66 370.084L312.912 368.824C312.936 368.688 312.928 368.552 312.888 368.416C312.848 368.28 312.776 368.16 312.672 368.056C312.568 367.944 312.432 367.856 312.264 367.792C312.104 367.72 311.92 367.684 311.712 367.684C311.248 367.684 310.876 367.828 310.596 368.116C310.316 368.396 310.12 368.812 310.008 369.364L309.828 370.24C309.812 370.336 309.796 370.444 309.78 370.564C309.772 370.684 309.768 370.792 309.768 370.888C309.768 371.24 309.848 371.528 310.008 371.752C310.176 371.968 310.428 372.076 310.764 372.076ZM317.088 364.12H318.336L317.532 368.152H317.58C317.836 367.64 318.116 367.256 318.42 367C318.732 366.744 319.128 366.616 319.608 366.616C320.184 366.616 320.628 366.824 320.94 367.24C321.252 367.656 321.408 368.212 321.408 368.908C321.408 369.452 321.34 369.98 321.204 370.492C321.068 371.004 320.868 371.456 320.604 371.848C320.348 372.24 320.036 372.556 319.668 372.796C319.3 373.028 318.884 373.144 318.42 373.144C318.012 373.144 317.66 373.04 317.364 372.832C317.068 372.624 316.888 372.332 316.824 371.956H316.764L316.56 373H315.312L317.088 364.12ZM318.192 372.076C318.648 372.076 319.016 371.936 319.296 371.656C319.576 371.368 319.772 370.948 319.884 370.396L320.064 369.52C320.08 369.424 320.092 369.32 320.1 369.208C320.116 369.088 320.124 368.976 320.124 368.872C320.124 368.52 320.04 368.236 319.872 368.02C319.704 367.796 319.448 367.684 319.104 367.684C318.856 367.684 318.636 367.744 318.444 367.864C318.252 367.976 318.076 368.116 317.916 368.284C317.748 368.468 317.604 368.676 317.484 368.908C317.372 369.132 317.288 369.384 317.232 369.664L317.004 370.804C316.932 371.164 316.996 371.468 317.196 371.716C317.396 371.956 317.728 372.076 318.192 372.076ZM324.362 365.644C324.13 365.644 323.962 365.596 323.858 365.5C323.754 365.404 323.702 365.284 323.702 365.14C323.702 365.06 323.722 364.92 323.762 364.72C323.802 364.536 323.886 364.384 324.014 364.264C324.142 364.136 324.346 364.072 324.626 364.072C324.858 364.072 325.026 364.12 325.13 364.216C325.234 364.312 325.286 364.432 325.286 364.576C325.286 364.656 325.266 364.796 325.226 364.996C325.186 365.18 325.102 365.336 324.974 365.464C324.846 365.584 324.642 365.644 324.362 365.644ZM323.366 373C323.062 373 322.83 372.924 322.67 372.772C322.51 372.612 322.43 372.408 322.43 372.16C322.43 372.08 322.442 371.98 322.466 371.86L323.486 366.76H324.734L323.69 371.956H324.494L324.29 373H323.366ZM326.612 373C326.308 373 326.076 372.924 325.916 372.772C325.756 372.612 325.676 372.408 325.676 372.16C325.676 372.08 325.688 371.98 325.712 371.86L327.26 364.12H328.508L326.936 371.956H327.8L327.596 373H326.612ZM330.854 365.644C330.622 365.644 330.454 365.596 330.35 365.5C330.246 365.404 330.194 365.284 330.194 365.14C330.194 365.06 330.214 364.92 330.254 364.72C330.294 364.536 330.378 364.384 330.506 364.264C330.634 364.136 330.838 364.072 331.118 364.072C331.35 364.072 331.518 364.12 331.622 364.216C331.726 364.312 331.778 364.432 331.778 364.576C331.778 364.656 331.758 364.796 331.718 364.996C331.678 365.18 331.594 365.336 331.466 365.464C331.338 365.584 331.134 365.644 330.854 365.644ZM329.858 373C329.554 373 329.322 372.924 329.162 372.772C329.002 372.612 328.922 372.408 328.922 372.16C328.922 372.08 328.934 371.98 328.958 371.86L329.978 366.76H331.226L330.182 371.956H330.986L330.782 373H329.858ZM333.56 373C333.176 373 332.892 372.916 332.708 372.748C332.532 372.58 332.444 372.348 332.444 372.052C332.444 371.988 332.448 371.916 332.456 371.836C332.464 371.756 332.476 371.676 332.492 371.596L333.248 367.804H332.336L332.54 366.76H333.008C333.24 366.76 333.396 366.712 333.476 366.616C333.564 366.52 333.628 366.364 333.668 366.148L333.884 365.056H335.048L334.712 366.76H335.96L335.756 367.804H334.496L333.668 371.956H334.88L334.676 373H333.56ZM340.83 366.76H342.162L338.106 374.236C337.994 374.444 337.882 374.62 337.77 374.764C337.666 374.908 337.546 375.028 337.41 375.124C337.282 375.22 337.134 375.288 336.966 375.328C336.798 375.376 336.606 375.4 336.39 375.4H335.442L335.646 374.368H336.786L337.374 373.264L336.426 366.76H337.65L338.022 369.532L338.25 371.824H338.31L339.402 369.532L340.83 366.76Z" fill="white"/>
<path d="M230.641 37.342V46.33C230.641 47.366 230.844 48.143 231.25 48.661C231.656 49.165 232.335 49.417 233.287 49.417C234.239 49.417 234.918 49.165 235.324 48.661C235.73 48.143 235.933 47.366 235.933 46.33V37.342H239.041V45.994C239.041 47.072 238.936 48.01 238.726 48.808C238.53 49.592 238.201 50.243 237.739 50.761C237.277 51.265 236.682 51.643 235.954 51.895C235.226 52.133 234.337 52.252 233.287 52.252C232.237 52.252 231.348 52.133 230.62 51.895C229.892 51.643 229.297 51.265 228.835 50.761C228.373 50.243 228.037 49.592 227.827 48.808C227.631 48.01 227.533 47.072 227.533 45.994V37.342H230.641ZM245.768 52.252C244.704 52.252 243.808 52.084 243.08 51.748C242.352 51.398 241.701 50.908 241.127 50.278L242.954 48.43C243.346 48.864 243.78 49.207 244.256 49.459C244.732 49.711 245.271 49.837 245.873 49.837C246.489 49.837 246.916 49.746 247.154 49.564C247.392 49.368 247.511 49.109 247.511 48.787C247.511 48.269 247.14 47.961 246.398 47.863L245.201 47.716C242.723 47.408 241.484 46.274 241.484 44.314C241.484 43.782 241.582 43.299 241.778 42.865C241.988 42.417 242.275 42.039 242.639 41.731C243.017 41.409 243.465 41.164 243.983 40.996C244.515 40.814 245.11 40.723 245.768 40.723C246.342 40.723 246.846 40.765 247.28 40.849C247.728 40.919 248.12 41.031 248.456 41.185C248.806 41.325 249.121 41.507 249.401 41.731C249.695 41.941 249.982 42.179 250.262 42.445L248.477 44.272C248.127 43.922 247.728 43.649 247.28 43.453C246.846 43.243 246.398 43.138 245.936 43.138C245.404 43.138 245.026 43.222 244.802 43.39C244.578 43.558 244.466 43.782 244.466 44.062C244.466 44.356 244.543 44.587 244.697 44.755C244.865 44.909 245.173 45.021 245.621 45.091L246.86 45.259C249.282 45.581 250.493 46.687 250.493 48.577C250.493 49.109 250.381 49.599 250.157 50.047C249.933 50.495 249.611 50.887 249.191 51.223C248.785 51.545 248.288 51.797 247.7 51.979C247.126 52.161 246.482 52.252 245.768 52.252ZM257.211 52.252C256.371 52.252 255.622 52.119 254.964 51.853C254.306 51.573 253.746 51.188 253.284 50.698C252.836 50.194 252.493 49.585 252.255 48.871C252.031 48.157 251.919 47.359 251.919 46.477C251.919 45.609 252.031 44.825 252.255 44.125C252.479 43.411 252.808 42.802 253.242 42.298C253.69 41.794 254.236 41.409 254.88 41.143C255.524 40.863 256.259 40.723 257.085 40.723C257.995 40.723 258.772 40.877 259.416 41.185C260.074 41.493 260.606 41.906 261.012 42.424C261.432 42.942 261.733 43.544 261.915 44.23C262.111 44.902 262.209 45.609 262.209 46.351V47.275H255.132V47.443C255.132 48.171 255.328 48.752 255.72 49.186C256.112 49.606 256.728 49.816 257.568 49.816C258.212 49.816 258.737 49.69 259.143 49.438C259.549 49.172 259.927 48.857 260.277 48.493L261.831 50.425C261.341 50.999 260.697 51.447 259.899 51.769C259.115 52.091 258.219 52.252 257.211 52.252ZM257.148 43.012C256.518 43.012 256.021 43.222 255.657 43.642C255.307 44.048 255.132 44.594 255.132 45.28V45.448H258.996V45.259C258.996 44.587 258.842 44.048 258.534 43.642C258.24 43.222 257.778 43.012 257.148 43.012ZM264.404 52V40.975H267.512V43.369H267.617C267.673 43.061 267.771 42.767 267.911 42.487C268.051 42.193 268.233 41.934 268.457 41.71C268.695 41.486 268.975 41.311 269.297 41.185C269.619 41.045 269.997 40.975 270.431 40.975H270.977V43.873H270.2C269.29 43.873 268.611 43.992 268.163 44.23C267.729 44.468 267.512 44.909 267.512 45.553V52H264.404ZM278.025 52V37.342H288V40.177H281.217V43.18H287.034V45.994H281.217V49.165H288V52H278.025ZM289.542 52L293.175 46.393L289.584 40.975H293.112L295.17 44.44H295.254L297.249 40.975H300.525L296.871 46.498L300.546 52H297.018L294.897 48.409H294.813L292.776 52H289.542ZM302.364 40.975H305.472V42.823H305.577C305.731 42.207 306.081 41.703 306.627 41.311C307.187 40.919 307.824 40.723 308.538 40.723C309.938 40.723 310.995 41.213 311.709 42.193C312.423 43.173 312.78 44.601 312.78 46.477C312.78 48.353 312.423 49.788 311.709 50.782C310.995 51.762 309.938 52.252 308.538 52.252C308.174 52.252 307.831 52.196 307.509 52.084C307.187 51.986 306.893 51.846 306.627 51.664C306.375 51.468 306.158 51.244 305.976 50.992C305.794 50.726 305.661 50.446 305.577 50.152H305.472V56.2H302.364V40.975ZM307.509 49.732C308.097 49.732 308.58 49.529 308.958 49.123C309.35 48.703 309.546 48.143 309.546 47.443V45.532C309.546 44.832 309.35 44.279 308.958 43.873C308.58 43.453 308.097 43.243 307.509 43.243C306.921 43.243 306.431 43.39 306.039 43.684C305.661 43.964 305.472 44.356 305.472 44.86V48.115C305.472 48.619 305.661 49.018 306.039 49.312C306.431 49.592 306.921 49.732 307.509 49.732ZM319.739 52.252C318.899 52.252 318.15 52.119 317.492 51.853C316.834 51.573 316.274 51.188 315.812 50.698C315.364 50.194 315.021 49.585 314.783 48.871C314.559 48.157 314.447 47.359 314.447 46.477C314.447 45.609 314.559 44.825 314.783 44.125C315.007 43.411 315.336 42.802 315.77 42.298C316.218 41.794 316.764 41.409 317.408 41.143C318.052 40.863 318.787 40.723 319.613 40.723C320.523 40.723 321.3 40.877 321.944 41.185C322.602 41.493 323.134 41.906 323.54 42.424C323.96 42.942 324.261 43.544 324.443 44.23C324.639 44.902 324.737 45.609 324.737 46.351V47.275H317.66V47.443C317.66 48.171 317.856 48.752 318.248 49.186C318.64 49.606 319.256 49.816 320.096 49.816C320.74 49.816 321.265 49.69 321.671 49.438C322.077 49.172 322.455 48.857 322.805 48.493L324.359 50.425C323.869 50.999 323.225 51.447 322.427 51.769C321.643 52.091 320.747 52.252 319.739 52.252ZM319.676 43.012C319.046 43.012 318.549 43.222 318.185 43.642C317.835 44.048 317.66 44.594 317.66 45.28V45.448H321.524V45.259C321.524 44.587 321.37 44.048 321.062 43.642C320.768 43.222 320.306 43.012 319.676 43.012ZM326.932 52V40.975H330.04V43.369H330.145C330.201 43.061 330.299 42.767 330.439 42.487C330.579 42.193 330.761 41.934 330.985 41.71C331.223 41.486 331.503 41.311 331.825 41.185C332.147 41.045 332.525 40.975 332.959 40.975H333.505V43.873H332.728C331.818 43.873 331.139 43.992 330.691 44.23C330.257 44.468 330.04 44.909 330.04 45.553V52H326.932ZM336.977 39.799C336.347 39.799 335.885 39.659 335.591 39.379C335.311 39.085 335.171 38.714 335.171 38.266V37.804C335.171 37.356 335.311 36.992 335.591 36.712C335.885 36.418 336.347 36.271 336.977 36.271C337.607 36.271 338.062 36.418 338.342 36.712C338.636 36.992 338.783 37.356 338.783 37.804V38.266C338.783 38.714 338.636 39.085 338.342 39.379C338.062 39.659 337.607 39.799 336.977 39.799ZM335.423 40.975H338.531V52H335.423V40.975ZM346.03 52.252C345.19 52.252 344.441 52.119 343.783 51.853C343.125 51.573 342.565 51.188 342.103 50.698C341.655 50.194 341.312 49.585 341.074 48.871C340.85 48.157 340.738 47.359 340.738 46.477C340.738 45.609 340.85 44.825 341.074 44.125C341.298 43.411 341.627 42.802 342.061 42.298C342.509 41.794 343.055 41.409 343.699 41.143C344.343 40.863 345.078 40.723 345.904 40.723C346.814 40.723 347.591 40.877 348.235 41.185C348.893 41.493 349.425 41.906 349.831 42.424C350.251 42.942 350.552 43.544 350.734 44.23C350.93 44.902 351.028 45.609 351.028 46.351V47.275H343.951V47.443C343.951 48.171 344.147 48.752 344.539 49.186C344.931 49.606 345.547 49.816 346.387 49.816C347.031 49.816 347.556 49.69 347.962 49.438C348.368 49.172 348.746 48.857 349.096 48.493L350.65 50.425C350.16 50.999 349.516 51.447 348.718 51.769C347.934 52.091 347.038 52.252 346.03 52.252ZM345.967 43.012C345.337 43.012 344.84 43.222 344.476 43.642C344.126 44.048 343.951 44.594 343.951 45.28V45.448H347.815V45.259C347.815 44.587 347.661 44.048 347.353 43.642C347.059 43.222 346.597 43.012 345.967 43.012ZM353.223 52V40.975H356.331V42.844H356.457C356.653 42.27 356.996 41.773 357.486 41.353C357.976 40.933 358.655 40.723 359.523 40.723C360.657 40.723 361.511 41.101 362.085 41.857C362.673 42.613 362.967 43.691 362.967 45.091V52H359.859V45.343C359.859 44.629 359.747 44.104 359.523 43.768C359.299 43.418 358.9 43.243 358.326 43.243C358.074 43.243 357.829 43.278 357.591 43.348C357.353 43.404 357.136 43.502 356.94 43.642C356.758 43.782 356.611 43.957 356.499 44.167C356.387 44.363 356.331 44.594 356.331 44.86V52H353.223ZM370.185 52.252C369.359 52.252 368.624 52.119 367.98 51.853C367.336 51.573 366.797 51.188 366.363 50.698C365.929 50.194 365.6 49.585 365.376 48.871C365.152 48.157 365.04 47.359 365.04 46.477C365.04 45.595 365.152 44.804 365.376 44.104C365.6 43.39 365.929 42.781 366.363 42.277C366.797 41.773 367.336 41.388 367.98 41.122C368.624 40.856 369.359 40.723 370.185 40.723C371.305 40.723 372.236 40.975 372.978 41.479C373.734 41.983 374.273 42.69 374.595 43.6L372.075 44.692C371.977 44.272 371.774 43.915 371.466 43.621C371.158 43.327 370.731 43.18 370.185 43.18C369.555 43.18 369.079 43.39 368.757 43.81C368.435 44.216 368.274 44.769 368.274 45.469V47.527C368.274 48.227 368.435 48.78 368.757 49.186C369.079 49.592 369.555 49.795 370.185 49.795C370.745 49.795 371.186 49.648 371.508 49.354C371.844 49.046 372.089 48.647 372.243 48.157L374.658 49.207C374.294 50.257 373.727 51.027 372.957 51.517C372.201 52.007 371.277 52.252 370.185 52.252ZM381.078 52.252C380.238 52.252 379.489 52.119 378.831 51.853C378.173 51.573 377.613 51.188 377.151 50.698C376.703 50.194 376.36 49.585 376.122 48.871C375.898 48.157 375.786 47.359 375.786 46.477C375.786 45.609 375.898 44.825 376.122 44.125C376.346 43.411 376.675 42.802 377.109 42.298C377.557 41.794 378.103 41.409 378.747 41.143C379.391 40.863 380.126 40.723 380.952 40.723C381.862 40.723 382.639 40.877 383.283 41.185C383.941 41.493 384.473 41.906 384.879 42.424C385.299 42.942 385.6 43.544 385.782 44.23C385.978 44.902 386.076 45.609 386.076 46.351V47.275H378.999V47.443C378.999 48.171 379.195 48.752 379.587 49.186C379.979 49.606 380.595 49.816 381.435 49.816C382.079 49.816 382.604 49.69 383.01 49.438C383.416 49.172 383.794 48.857 384.144 48.493L385.698 50.425C385.208 50.999 384.564 51.447 383.766 51.769C382.982 52.091 382.086 52.252 381.078 52.252ZM381.015 43.012C380.385 43.012 379.888 43.222 379.524 43.642C379.174 44.048 378.999 44.594 378.999 45.28V45.448H382.863V45.259C382.863 44.587 382.709 44.048 382.401 43.642C382.107 43.222 381.645 43.012 381.015 43.012Z" fill="#333333"/>
</svg>
