<svg width="1440" height="297" viewBox="0 0 1440 297" fill="none" xmlns="http://www.w3.org/2000/svg">
<path d="M164 64C186 64 224 64 271 64C334.6 64 304 114.5 349.5 114.5C382.534 114.5 392 114.5 425 114.5C457.76 114.5 445 233.5 473 233.5C501 233.5 508.5 64 547 64C595.283 64 591.5 64 614.5 64C656.539 64 645 233.5 720.5 233.5C805.5 233.5 742.5 114.5 852.5 114.5C887 114.5 902.5 64.0001 935.5 64C982.097 63.9998 999.5 71.9999 1006 114.5C1016.9 185.786 1031.5 234.333 1059 233.5C1086.5 232.667 1085.5 233.5 1112.5 233.5C1147.92 233.5 1126.93 64 1172 64C1202 64 1216 64 1241 64" stroke="black" stroke-width="5"/>
</svg>
