<svg width="1440" height="1024" viewBox="0 0 1440 1024" fill="none" xmlns="http://www.w3.org/2000/svg">
<g clip-path="url(#clip0)">
<rect width="1440" height="1024" fill="white"/>
<path d="M603.383 531.384C600.887 531.384 598.711 530.984 596.855 530.184C594.999 529.384 593.559 528.264 592.535 526.824C591.543 525.384 591.047 523.688 591.047 521.736V520.536C591.047 520.376 591.095 520.248 591.191 520.152C591.319 520.024 591.463 519.96 591.623 519.96H595.895C596.055 519.96 596.183 520.024 596.279 520.152C596.407 520.248 596.471 520.376 596.471 520.536V521.448C596.471 522.92 597.127 524.152 598.439 525.144C599.751 526.104 601.543 526.584 603.815 526.584C605.767 526.584 607.239 526.168 608.231 525.336C609.223 524.504 609.719 523.432 609.719 522.12C609.719 521.224 609.447 520.472 608.903 519.864C608.359 519.224 607.575 518.648 606.551 518.136C605.559 517.624 604.055 516.984 602.039 516.216C599.767 515.384 597.927 514.6 596.519 513.864C595.111 513.128 593.927 512.136 592.967 510.888C592.039 509.608 591.575 508.024 591.575 506.136C591.575 503.32 592.599 501.096 594.647 499.464C596.695 497.832 599.431 497.016 602.855 497.016C605.255 497.016 607.367 497.432 609.191 498.264C611.047 499.096 612.487 500.264 613.511 501.768C614.535 503.24 615.047 504.952 615.047 506.904V507.72C615.047 507.88 614.983 508.024 614.855 508.152C614.759 508.248 614.631 508.296 614.471 508.296H610.151C609.991 508.296 609.847 508.248 609.719 508.152C609.623 508.024 609.575 507.88 609.575 507.72V507.192C609.575 505.688 608.951 504.424 607.703 503.4C606.487 502.344 604.791 501.816 602.615 501.816C600.855 501.816 599.479 502.184 598.487 502.92C597.527 503.656 597.047 504.696 597.047 506.04C597.047 507 597.303 507.784 597.815 508.392C598.327 509 599.095 509.56 600.119 510.072C601.143 510.552 602.727 511.176 604.871 511.944C607.143 512.808 608.951 513.592 610.295 514.296C611.671 515 612.839 515.992 613.799 517.272C614.791 518.52 615.287 520.088 615.287 521.976C615.287 524.856 614.215 527.144 612.071 528.84C609.959 530.536 607.063 531.384 603.383 531.384ZM630.591 531.384C628.127 531.384 625.999 530.76 624.207 529.512C622.415 528.232 621.167 526.52 620.463 524.376C619.951 522.936 619.695 521.016 619.695 518.616C619.695 516.312 619.951 514.424 620.463 512.952C621.135 510.84 622.367 509.176 624.159 507.96C625.983 506.712 628.127 506.088 630.591 506.088C633.087 506.088 635.263 506.712 637.119 507.96C638.975 509.208 640.207 510.776 640.815 512.664C640.975 513.176 641.087 513.688 641.151 514.2V514.296C641.151 514.616 640.975 514.808 640.623 514.872L636.303 515.496H636.207C635.919 515.496 635.727 515.336 635.631 515.016C635.631 514.856 635.615 514.728 635.583 514.632C635.519 514.376 635.455 514.152 635.391 513.96C635.103 513.064 634.527 512.328 633.663 511.752C632.799 511.176 631.775 510.888 630.591 510.888C629.375 510.888 628.335 511.208 627.471 511.848C626.639 512.456 626.079 513.304 625.791 514.392C625.471 515.416 625.311 516.84 625.311 518.664C625.311 520.424 625.455 521.848 625.743 522.936C626.063 524.056 626.639 524.952 627.471 525.624C628.303 526.264 629.343 526.584 630.591 526.584C631.807 526.584 632.847 526.28 633.711 525.672C634.607 525.032 635.183 524.184 635.439 523.128C635.471 523.064 635.487 522.984 635.487 522.888C635.519 522.856 635.535 522.808 635.535 522.744C635.631 522.36 635.855 522.2 636.207 522.264L640.527 522.936C640.687 522.968 640.815 523.048 640.911 523.176C641.039 523.272 641.087 523.416 641.055 523.608C640.959 524.12 640.879 524.488 640.815 524.712C640.207 526.76 638.975 528.392 637.119 529.608C635.263 530.792 633.087 531.384 630.591 531.384ZM657.627 506.088C660.219 506.088 662.283 506.856 663.819 508.392C665.387 509.928 666.171 512.024 666.171 514.68V530.424C666.171 530.584 666.107 530.728 665.979 530.856C665.883 530.952 665.755 531 665.595 531H661.179C661.019 531 660.875 530.952 660.747 530.856C660.651 530.728 660.603 530.584 660.603 530.424V515.832C660.603 514.36 660.187 513.176 659.355 512.28C658.523 511.352 657.419 510.888 656.043 510.888C654.667 510.888 653.547 511.336 652.683 512.232C651.851 513.128 651.435 514.312 651.435 515.784V530.424C651.435 530.584 651.371 530.728 651.243 530.856C651.147 530.952 651.019 531 650.859 531H646.443C646.283 531 646.139 530.952 646.011 530.856C645.915 530.728 645.867 530.584 645.867 530.424V497.976C645.867 497.816 645.915 497.688 646.011 497.592C646.139 497.464 646.283 497.4 646.443 497.4H650.859C651.019 497.4 651.147 497.464 651.243 497.592C651.371 497.688 651.435 497.816 651.435 497.976V508.584C651.435 508.68 651.467 508.744 651.531 508.776C651.595 508.808 651.643 508.776 651.675 508.68C652.987 506.952 654.971 506.088 657.627 506.088ZM676.94 531C676.588 531 676.364 530.84 676.268 530.52L669.404 507.096L669.356 506.904C669.356 506.584 669.532 506.424 669.884 506.424H674.444C674.796 506.424 675.02 506.584 675.116 506.904L679.1 522.936C679.132 523.032 679.18 523.08 679.244 523.08C679.308 523.08 679.356 523.032 679.388 522.936L683.564 506.904C683.66 506.584 683.884 506.424 684.236 506.424H688.22C688.572 506.424 688.796 506.584 688.892 506.904L693.164 522.936C693.196 523.032 693.244 523.08 693.308 523.08C693.372 523.08 693.42 523.032 693.452 522.936L697.724 506.904C697.82 506.584 698.044 506.424 698.396 506.424L702.908 506.52C703.1 506.52 703.228 506.584 703.292 506.712C703.388 506.808 703.42 506.952 703.388 507.144L696.476 530.52C696.38 530.84 696.172 531 695.852 531H691.244C690.892 531 690.668 530.84 690.572 530.52L686.348 515.88C686.316 515.784 686.268 515.736 686.204 515.736C686.14 515.736 686.092 515.784 686.06 515.88L682.172 530.52C682.076 530.84 681.852 531 681.5 531H676.94ZM727.023 515.976C727.151 516.776 727.215 517.672 727.215 518.664L727.167 520.152C727.167 520.536 726.975 520.728 726.591 520.728H711.567C711.407 520.728 711.327 520.808 711.327 520.968C711.423 522.024 711.567 522.744 711.759 523.128C712.527 525.432 714.399 526.6 717.375 526.632C719.551 526.632 721.279 525.736 722.559 523.944C722.687 523.752 722.847 523.656 723.039 523.656C723.167 523.656 723.279 523.704 723.375 523.8L726.351 526.248C726.639 526.472 726.687 526.728 726.495 527.016C725.503 528.424 724.175 529.512 722.511 530.28C720.879 531.048 719.055 531.432 717.039 531.432C714.543 531.432 712.415 530.872 710.655 529.752C708.927 528.632 707.663 527.064 706.863 525.048C706.127 523.32 705.759 520.92 705.759 517.848C705.759 515.992 705.951 514.488 706.335 513.336C706.975 511.096 708.175 509.336 709.935 508.056C711.727 506.744 713.871 506.088 716.367 506.088C722.671 506.088 726.223 509.384 727.023 515.976ZM716.367 510.888C715.183 510.888 714.191 511.192 713.391 511.8C712.623 512.376 712.079 513.192 711.759 514.248C711.567 514.792 711.439 515.496 711.375 516.36C711.311 516.52 711.375 516.6 711.567 516.6H721.311C721.471 516.6 721.551 516.52 721.551 516.36C721.487 515.56 721.391 514.952 721.263 514.536C720.975 513.384 720.399 512.488 719.535 511.848C718.703 511.208 717.647 510.888 716.367 510.888ZM743.728 506.184C744.752 506.184 745.648 506.392 746.416 506.808C746.672 506.936 746.768 507.176 746.704 507.528L745.888 511.848C745.856 512.232 745.632 512.344 745.216 512.184C744.736 512.024 744.176 511.944 743.536 511.944C743.12 511.944 742.8 511.96 742.576 511.992C741.232 512.056 740.112 512.536 739.216 513.432C738.32 514.296 737.872 515.432 737.872 516.84V530.424C737.872 530.584 737.808 530.728 737.68 530.856C737.584 530.952 737.456 531 737.296 531H732.88C732.72 531 732.576 530.952 732.448 530.856C732.352 530.728 732.304 530.584 732.304 530.424V507.048C732.304 506.888 732.352 506.76 732.448 506.664C732.576 506.536 732.72 506.472 732.88 506.472H737.296C737.456 506.472 737.584 506.536 737.68 506.664C737.808 506.76 737.872 506.888 737.872 507.048V509.208C737.872 509.336 737.888 509.416 737.92 509.448C737.984 509.448 738.048 509.4 738.112 509.304C739.456 507.224 741.328 506.184 743.728 506.184ZM750.927 531C750.767 531 750.623 530.952 750.495 530.856C750.399 530.728 750.351 530.584 750.351 530.424V497.976C750.351 497.816 750.399 497.688 750.495 497.592C750.623 497.464 750.767 497.4 750.927 497.4H755.343C755.503 497.4 755.631 497.464 755.727 497.592C755.855 497.688 755.919 497.816 755.919 497.976V515.304C755.919 515.4 755.951 515.464 756.015 515.496C756.079 515.528 756.143 515.496 756.207 515.4L763.983 506.808C764.207 506.584 764.447 506.472 764.703 506.472H769.791C770.111 506.472 770.271 506.584 770.271 506.808C770.271 506.904 770.223 507.032 770.127 507.192L764.031 514.488C763.935 514.584 763.919 514.696 763.983 514.824L771.183 530.328C771.247 530.456 771.279 530.552 771.279 530.616C771.279 530.872 771.103 531 770.751 531H766.095C765.775 531 765.551 530.856 765.423 530.568L760.191 518.376C760.159 518.312 760.095 518.28 759.999 518.28C759.935 518.248 759.887 518.264 759.855 518.328L756.015 522.744C755.951 522.872 755.919 522.984 755.919 523.08V530.424C755.919 530.584 755.855 530.728 755.727 530.856C755.631 530.952 755.503 531 755.343 531H750.927ZM786.853 506.184C787.877 506.184 788.773 506.392 789.541 506.808C789.797 506.936 789.893 507.176 789.829 507.528L789.013 511.848C788.981 512.232 788.757 512.344 788.341 512.184C787.861 512.024 787.301 511.944 786.661 511.944C786.245 511.944 785.925 511.96 785.701 511.992C784.357 512.056 783.237 512.536 782.341 513.432C781.445 514.296 780.997 515.432 780.997 516.84V530.424C780.997 530.584 780.933 530.728 780.805 530.856C780.709 530.952 780.581 531 780.421 531H776.005C775.845 531 775.701 530.952 775.573 530.856C775.477 530.728 775.429 530.584 775.429 530.424V507.048C775.429 506.888 775.477 506.76 775.573 506.664C775.701 506.536 775.845 506.472 776.005 506.472H780.421C780.581 506.472 780.709 506.536 780.805 506.664C780.933 506.76 780.997 506.888 780.997 507.048V509.208C780.997 509.336 781.013 509.416 781.045 509.448C781.109 509.448 781.173 509.4 781.237 509.304C782.581 507.224 784.453 506.184 786.853 506.184ZM802.602 506.088C804.618 506.088 806.394 506.44 807.93 507.144C809.466 507.848 810.65 508.824 811.482 510.072C812.314 511.288 812.73 512.68 812.73 514.248V530.424C812.73 530.584 812.666 530.728 812.538 530.856C812.442 530.952 812.314 531 812.154 531H807.738C807.578 531 807.434 530.952 807.306 530.856C807.21 530.728 807.162 530.584 807.162 530.424V528.888C807.162 528.792 807.13 528.744 807.066 528.744C807.002 528.712 806.938 528.728 806.874 528.792C805.306 530.52 803.034 531.384 800.058 531.384C797.658 531.384 795.674 530.776 794.106 529.56C792.57 528.344 791.802 526.536 791.802 524.136C791.802 521.64 792.666 519.704 794.394 518.328C796.154 516.92 798.618 516.216 801.786 516.216H806.922C807.082 516.216 807.162 516.136 807.162 515.976V514.824C807.162 513.576 806.794 512.616 806.058 511.944C805.322 511.24 804.218 510.888 802.746 510.888C801.53 510.888 800.538 511.112 799.77 511.56C799.034 511.976 798.57 512.568 798.378 513.336C798.282 513.72 798.058 513.88 797.706 513.816L793.05 513.24C792.89 513.208 792.746 513.16 792.618 513.096C792.522 513 792.49 512.888 792.522 512.76C792.778 510.808 793.818 509.208 795.642 507.96C797.498 506.712 799.818 506.088 802.602 506.088ZM801.45 526.968C803.018 526.968 804.362 526.552 805.482 525.72C806.602 524.888 807.162 523.832 807.162 522.552V520.296C807.162 520.136 807.082 520.056 806.922 520.056H802.89C801.194 520.056 799.85 520.376 798.858 521.016C797.898 521.656 797.418 522.568 797.418 523.752C797.418 524.776 797.786 525.576 798.522 526.152C799.29 526.696 800.266 526.968 801.45 526.968ZM830.713 506.424C830.873 506.424 831.001 506.488 831.097 506.616C831.225 506.712 831.289 506.84 831.289 507V510.792C831.289 510.952 831.225 511.096 831.097 511.224C831.001 511.32 830.873 511.368 830.713 511.368H825.961C825.801 511.368 825.721 511.448 825.721 511.608V530.424C825.721 530.584 825.657 530.728 825.529 530.856C825.433 530.952 825.305 531 825.145 531H820.729C820.569 531 820.425 530.952 820.297 530.856C820.201 530.728 820.153 530.584 820.153 530.424V511.608C820.153 511.448 820.073 511.368 819.913 511.368H816.937C816.777 511.368 816.633 511.32 816.505 511.224C816.409 511.096 816.361 510.952 816.361 510.792V507C816.361 506.84 816.409 506.712 816.505 506.616C816.633 506.488 816.777 506.424 816.937 506.424H819.913C820.073 506.424 820.153 506.344 820.153 506.184V505.32C820.153 503.24 820.425 501.64 820.969 500.52C821.513 499.368 822.409 498.552 823.657 498.072C824.905 497.592 826.665 497.368 828.937 497.4H830.617C830.777 497.4 830.905 497.464 831.001 497.592C831.129 497.688 831.193 497.816 831.193 497.976V501.336C831.193 501.496 831.129 501.64 831.001 501.768C830.905 501.864 830.777 501.912 830.617 501.912H829.369C827.993 501.912 827.033 502.184 826.489 502.728C825.977 503.272 825.721 504.264 825.721 505.704V506.184C825.721 506.344 825.801 506.424 825.961 506.424H830.713ZM849 510.408C849 510.568 848.936 510.712 848.808 510.84C848.712 510.936 848.584 510.984 848.424 510.984H843.528C843.368 510.984 843.288 511.064 843.288 511.224V522.792C843.288 524.008 843.544 524.888 844.056 525.432C844.6 525.976 845.448 526.248 846.6 526.248H848.04C848.2 526.248 848.328 526.312 848.424 526.44C848.552 526.536 848.616 526.664 848.616 526.824V530.424C848.616 530.776 848.424 530.984 848.04 531.048L845.544 531.096C843.016 531.096 841.128 530.664 839.88 529.8C838.632 528.936 837.992 527.304 837.96 524.904V511.224C837.96 511.064 837.88 510.984 837.72 510.984H834.984C834.824 510.984 834.68 510.936 834.552 510.84C834.456 510.712 834.408 510.568 834.408 510.408V507.048C834.408 506.888 834.456 506.76 834.552 506.664C834.68 506.536 834.824 506.472 834.984 506.472H837.72C837.88 506.472 837.96 506.392 837.96 506.232V500.616C837.96 500.456 838.008 500.328 838.104 500.232C838.232 500.104 838.376 500.04 838.536 500.04H842.712C842.872 500.04 843 500.104 843.096 500.232C843.224 500.328 843.288 500.456 843.288 500.616V506.232C843.288 506.392 843.368 506.472 843.528 506.472H848.424C848.584 506.472 848.712 506.536 848.808 506.664C848.936 506.76 849 506.888 849 507.048V510.408Z" fill="black"/>
<path d="M514.263 91.7064C514.029 91.7563 513.886 91.6638 513.837 91.4291L508.747 67.484C508.697 67.2493 508.789 67.1069 509.024 67.057L510.186 66.81C510.421 66.7601 510.563 66.8526 510.613 67.0873L515.703 91.0324C515.753 91.2671 515.66 91.4095 515.426 91.4594L514.263 91.7064ZM528.183 87.3123C529.287 87.0778 530.173 86.6317 530.843 85.974C531.531 85.2879 532.004 84.4514 532.26 83.4645C532.333 83.2283 532.473 83.1372 532.681 83.1911L533.693 83.4543C533.93 83.5268 534.021 83.6669 533.967 83.8747C533.695 85.1347 533.068 86.2249 532.086 87.1452C531.127 88.0606 529.897 88.6779 528.394 88.9972C526.751 89.3465 525.269 89.2443 523.949 88.6907C522.629 88.137 521.611 87.2126 520.894 85.9173C520.581 85.3704 520.312 84.7405 520.087 84.0277C519.862 83.3149 519.632 82.4069 519.398 81.3035C519.153 80.1532 518.981 79.2821 518.879 78.6903C518.801 78.0934 518.769 77.536 518.781 77.0181C518.843 75.4593 519.354 74.1116 520.314 72.975C521.299 71.8334 522.636 71.083 524.326 70.7237C526.251 70.3146 527.896 70.4925 529.261 71.2574C530.621 71.9989 531.629 73.22 532.284 74.9208C532.45 75.3519 532.609 75.8701 532.762 76.4754C532.91 77.0573 533.079 77.7943 533.269 78.6864C533.319 78.9212 533.226 79.0635 532.992 79.1134L521.512 81.5534C521.418 81.5734 521.381 81.6303 521.401 81.7242C521.721 83.2267 521.991 84.2119 522.213 84.6799C522.716 85.7753 523.486 86.5686 524.523 87.0598C525.578 87.5225 526.798 87.6067 528.183 87.3123ZM520.667 77.0589C520.645 77.5299 520.757 78.4629 521.004 79.8579C521.024 79.9518 521.081 79.9888 521.175 79.9688L531 77.8806C531.094 77.8606 531.131 77.8037 531.111 77.7098C530.861 76.536 530.615 75.6681 530.373 75.1062C529.876 74.0343 529.12 73.2502 528.107 72.754C527.088 72.2344 525.945 72.1093 524.678 72.3788C523.41 72.6482 522.426 73.2132 521.726 74.0736C521.02 74.9105 520.667 75.9056 520.667 77.0589ZM537.443 64.5128C536.927 64.6226 536.469 64.5481 536.071 64.2893C535.672 64.0305 535.418 63.6428 535.308 63.1264C535.198 62.6099 535.273 62.1524 535.532 61.7539C535.791 61.3554 536.178 61.1013 536.695 60.9915C537.211 60.8817 537.669 60.9562 538.067 61.215C538.466 61.4738 538.72 61.8614 538.83 62.3779C538.939 62.8944 538.865 63.3519 538.606 63.7504C538.347 64.1489 537.96 64.403 537.443 64.5128ZM541.295 85.9239C541.06 85.9738 540.918 85.8813 540.868 85.6466L537.245 68.6033C537.195 68.3686 537.288 68.2263 537.523 68.1764L538.685 67.9294C538.919 67.8795 539.062 67.9719 539.112 68.2066L542.734 85.2499C542.784 85.4846 542.692 85.627 542.457 85.6769L541.295 85.9239ZM556.041 83.1207C554.374 83.4749 552.862 83.3425 551.503 82.7234C550.169 82.0993 549.147 81.102 548.438 79.7313C547.894 78.6694 547.429 77.2346 547.045 75.427C546.676 73.6898 546.519 72.2018 546.575 70.9632C546.646 69.4514 547.176 68.1364 548.165 67.0183C549.154 65.9002 550.482 65.164 552.149 64.8097C553.816 64.4555 555.338 64.5736 556.715 65.1643C558.115 65.7499 559.114 66.6417 559.712 67.8395C559.876 68.1482 560.016 68.4619 560.133 68.7805L560.148 68.851C560.183 69.0153 560.1 69.1434 559.899 69.2352L558.802 69.6156L558.731 69.6306C558.567 69.6655 558.439 69.5823 558.347 69.381L558.137 68.9105C557.716 67.9694 556.989 67.265 555.958 66.7973C554.921 66.3062 553.769 66.1953 552.501 66.4648C551.21 66.7392 550.202 67.3091 549.478 68.1746C548.778 69.035 548.43 70.0536 548.435 71.2303C548.413 72.1673 548.575 73.4457 548.919 75.0655C549.268 76.7088 549.638 77.9305 550.029 78.7307C550.508 79.8311 551.243 80.6319 552.233 81.1331C553.246 81.6292 554.398 81.7401 555.689 81.4656C556.957 81.1962 557.967 80.638 558.72 79.7911C559.49 78.9157 559.862 77.9533 559.836 76.9039L559.833 76.7204C559.825 76.4522 559.944 76.3166 560.189 76.3136L561.318 76.2577C561.562 76.2547 561.695 76.3614 561.717 76.5776L561.711 77.2414C561.662 78.6259 561.116 79.8705 560.075 80.9751C559.053 82.0512 557.708 82.7664 556.041 83.1207ZM570.842 60.8733C572.649 60.4891 574.222 60.7314 575.56 61.6002C576.921 62.4641 577.794 63.7998 578.178 65.6074L580.648 77.2278C580.698 77.4626 580.606 77.6049 580.371 77.6548L579.209 77.9018C578.974 77.9517 578.832 77.8593 578.782 77.6245L576.387 66.3562C576.092 64.9712 575.43 63.9342 574.401 63.2452C573.366 62.5328 572.168 62.3213 570.806 62.6107C569.398 62.9101 568.351 63.5864 567.667 64.6396C566.978 65.6693 566.781 66.8767 567.076 68.2618L569.486 79.6005C569.536 79.8352 569.443 79.9776 569.208 80.0275L568.046 80.2745C567.812 80.3244 567.669 80.2319 567.619 79.9972L562.53 56.0521C562.48 55.8174 562.572 55.675 562.807 55.6252L563.969 55.3782C564.204 55.3283 564.346 55.4207 564.396 55.6554L566.23 64.2827C566.245 64.3531 566.266 64.3976 566.295 64.4161C566.342 64.4061 566.372 64.3751 566.386 64.3232C566.737 63.4387 567.293 62.7071 568.054 62.1284C568.809 61.5262 569.738 61.1078 570.842 60.8733ZM590.492 58.2423C590.542 58.4771 590.449 58.6194 590.215 58.6693L586.095 59.545C586.001 59.565 585.964 59.6219 585.984 59.7158L588.349 70.8432C588.604 72.0405 589.053 72.8282 589.698 73.2064C590.338 73.5612 591.256 73.6113 592.453 73.3568L593.263 73.1846C593.498 73.1347 593.64 73.2272 593.69 73.4619L593.892 74.4127C593.942 74.6474 593.85 74.7898 593.615 74.8397L592.566 75.0994C590.923 75.4487 589.611 75.3963 588.631 74.9421C587.675 74.4829 587.006 73.4106 586.623 71.7254L584.153 60.105C584.133 60.0111 584.076 59.9741 583.982 59.9941L581.869 60.4432C581.634 60.4931 581.492 60.4006 581.442 60.1659L581.255 59.2856C581.205 59.0508 581.298 58.9085 581.532 58.8586L583.645 58.4095C583.739 58.3895 583.776 58.3326 583.756 58.2387L582.903 54.2244C582.853 53.9896 582.945 53.8473 583.18 53.7974L584.307 53.5579C584.542 53.508 584.684 53.6004 584.734 53.8352L585.587 57.8495C585.607 57.9434 585.664 57.9804 585.758 57.9604L589.878 57.0847C590.113 57.0348 590.255 57.1272 590.305 57.362L590.492 58.2423Z" fill="black"/>
<path d="M636.069 72.1744C636.086 71.935 636.214 71.8236 636.453 71.8404L637.602 71.9207C637.842 71.9375 637.953 72.0656 637.936 72.305L636.721 89.6865C636.704 89.9259 636.576 90.0373 636.337 90.0205L635.188 89.9402C634.948 89.9234 634.837 89.7954 634.854 89.5559L634.977 87.7962C634.982 87.7244 634.96 87.6868 634.912 87.6835C634.866 87.6562 634.828 87.6776 634.8 87.7478C634.241 88.5027 633.517 89.0535 632.627 89.4002C631.761 89.7487 630.753 89.8827 629.604 89.8023C627.832 89.6784 626.396 89.0488 625.297 87.9133C624.197 86.7778 623.712 85.2884 623.841 83.4449L624.685 71.3783C624.701 71.1389 624.83 71.0276 625.069 71.0443L626.218 71.1247C626.458 71.1414 626.569 71.2695 626.552 71.5089L625.744 83.0727C625.643 84.5092 625.982 85.6877 626.759 86.6081C627.561 87.5303 628.668 88.0408 630.081 88.1396C631.541 88.2417 632.744 87.8928 633.691 87.0928C634.638 86.2689 635.162 85.1507 635.26 83.7381L636.069 72.1744ZM651.344 72.629C653.188 72.7579 654.633 73.4244 655.679 74.6283C656.75 75.8339 657.22 77.3585 657.092 79.202L656.263 91.053C656.246 91.2924 656.118 91.4038 655.879 91.387L654.694 91.3042C654.454 91.2874 654.343 91.1594 654.36 90.9199L655.163 79.428C655.262 78.0154 654.911 76.8361 654.111 75.89C653.313 74.92 652.22 74.3864 650.831 74.2893C649.395 74.1888 648.202 74.5506 647.255 75.3745C646.308 76.1744 645.786 77.2807 645.687 78.6932L644.879 90.257C644.862 90.4964 644.734 90.6077 644.494 90.591L643.309 90.5081C643.07 90.4914 642.959 90.3633 642.975 90.1239L644.191 72.7423C644.207 72.5029 644.336 72.3916 644.575 72.4083L645.76 72.4912C646 72.5079 646.111 72.636 646.094 72.8754L645.971 74.6351C645.966 74.7069 645.975 74.7557 645.997 74.7813C646.045 74.7846 646.082 74.7632 646.11 74.717C646.692 73.9637 647.428 73.4138 648.318 73.067C649.21 72.6963 650.219 72.5503 651.344 72.629ZM676.511 79.2246C676.616 79.7853 676.668 80.4145 676.668 81.1122C676.667 81.8098 676.629 82.6973 676.554 83.7747C676.413 85.7858 676.176 87.2849 675.842 88.272C675.333 89.704 674.486 90.8116 673.3 91.5948C672.115 92.378 670.708 92.7127 669.08 92.5989C668.026 92.5252 667.096 92.2436 666.288 91.7541C665.48 91.2645 664.853 90.6071 664.405 89.7819C664.36 89.7307 664.313 89.7153 664.264 89.7359C664.24 89.7343 664.225 89.7693 664.22 89.8412L664.097 91.6009C664.081 91.8403 663.953 91.9516 663.713 91.9349L662.528 91.852C662.289 91.8353 662.177 91.7072 662.194 91.4678L663.902 67.0474C663.918 66.808 664.046 66.6967 664.286 66.7134L665.471 66.7963C665.71 66.813 665.822 66.9411 665.805 67.1805L665.187 76.0149C665.182 76.0868 665.203 76.1363 665.249 76.1636C665.297 76.1669 665.335 76.1335 665.364 76.0634C665.922 75.3085 666.635 74.7449 667.503 74.3725C668.372 74.0001 669.332 73.8508 670.386 73.9245C672.062 74.0417 673.431 74.5825 674.495 75.547C675.56 76.4876 676.232 77.7135 676.511 79.2246ZM673.887 87.8466C674.088 87.3795 674.244 86.8731 674.354 86.3275C674.466 85.7579 674.566 84.8507 674.653 83.6057C674.742 82.3368 674.758 81.4117 674.702 80.8304C674.671 80.2508 674.565 79.7021 674.385 79.1842C674.164 78.2065 673.668 77.3899 672.896 76.7344C672.125 76.055 671.177 75.676 670.052 75.5973C668.951 75.5203 667.995 75.7662 667.186 76.3351C666.402 76.8818 665.844 77.6367 665.512 78.5999C665.311 79.067 665.153 79.5973 665.04 80.1908C664.928 80.7604 664.827 81.6796 664.738 82.9485C664.653 84.1695 664.614 85.069 664.622 85.647C664.654 86.2266 664.737 86.7497 664.873 87.2163C665.066 88.2403 665.512 89.0894 666.211 89.7638C666.933 90.4399 667.869 90.8181 669.018 90.8984C670.168 90.9788 671.183 90.737 672.064 90.1731C672.946 89.6093 673.553 88.8338 673.887 87.8466ZM688.167 92.2374C689.292 92.3161 690.267 92.1317 691.093 91.6842C691.943 91.2144 692.628 90.5405 693.147 89.6625C693.281 89.4554 693.441 89.4065 693.626 89.5156L694.527 90.0478C694.734 90.1825 694.783 90.3423 694.674 90.5272C694.065 91.6635 693.162 92.5386 691.964 93.1526C690.791 93.7682 689.437 94.0224 687.905 93.9153C686.229 93.7981 684.833 93.2915 683.717 92.3954C682.601 91.4994 681.877 90.33 681.544 88.8873C681.395 88.2754 681.31 87.5958 681.29 86.8486C681.27 86.1014 681.3 85.1652 681.378 84.0399C681.46 82.8668 681.534 81.9818 681.6 81.3849C681.69 80.7897 681.812 80.2449 681.967 79.7505C682.455 78.269 683.318 77.1143 684.555 76.2866C685.815 75.4605 687.308 75.1078 689.031 75.2283C690.995 75.3656 692.527 75.99 693.628 77.1015C694.731 78.1891 695.363 79.6407 695.525 81.4564C695.565 81.9163 695.575 82.4584 695.556 83.0825C695.538 83.6827 695.497 84.4377 695.433 85.3475C695.416 85.5869 695.288 85.6983 695.049 85.6815L683.342 84.8629C683.246 84.8562 683.195 84.9007 683.188 84.9965C683.081 86.5287 683.069 87.5504 683.154 88.0616C683.335 89.2531 683.857 90.2279 684.718 90.9858C685.605 91.7214 686.754 92.1387 688.167 92.2374ZM683.768 80.3095C683.617 80.7561 683.468 81.6839 683.321 83.0931C683.314 83.1889 683.359 83.2401 683.455 83.2468L693.474 83.9474C693.57 83.9541 693.621 83.9096 693.628 83.8138C693.712 82.6168 693.714 81.7148 693.637 81.1079C693.454 79.9403 692.943 78.9783 692.106 78.2221C691.271 77.4419 690.206 77.0066 688.913 76.9162C687.621 76.8258 686.519 77.0976 685.609 77.7316C684.7 78.3417 684.086 79.201 683.768 80.3095ZM705.636 95.0468C704.343 94.9564 703.208 94.6726 702.231 94.1953C701.279 93.6957 700.553 93.0675 700.053 92.3107C699.553 91.554 699.333 90.7447 699.393 89.8828L699.425 89.4159C699.442 89.1765 699.57 89.0652 699.81 89.0819L700.923 89.1597C701.162 89.1765 701.274 89.3046 701.257 89.544L701.229 89.939C701.167 90.8249 701.557 91.622 702.397 92.3303C703.24 93.0147 704.343 93.4047 705.708 93.5001C707.049 93.5939 708.16 93.3468 709.044 92.759C709.927 92.1712 710.402 91.3984 710.469 90.4408C710.516 89.7704 710.339 89.2047 709.938 88.7436C709.537 88.2825 709.045 87.9233 708.462 87.666C707.904 87.3864 707.051 87.026 705.903 86.5848C704.59 86.0841 703.54 85.6257 702.751 85.2096C701.962 84.7936 701.303 84.2423 700.773 83.5557C700.27 82.8468 700.053 81.9896 700.123 80.9841C700.225 79.5236 700.881 78.4026 702.091 77.6211C703.326 76.8173 704.889 76.4815 706.78 76.6138C708.049 76.7025 709.147 76.9958 710.075 77.4937C711.028 77.9694 711.743 78.5848 712.219 79.3398C712.72 80.0966 712.938 80.9298 712.875 81.8396L712.867 81.9474C712.85 82.1868 712.722 82.2981 712.483 82.2814L711.37 82.2035C711.13 82.1868 711.019 82.0587 711.036 81.8193L711.043 81.7116C711.107 80.8018 710.729 80.0175 709.909 79.3587C709.114 78.6776 708.023 78.2885 706.634 78.1914C705.293 78.0977 704.196 78.3096 703.342 78.8273C702.489 79.321 702.029 80.0467 701.962 81.0044C701.899 81.9142 702.222 82.6224 702.933 83.1292C703.667 83.6377 704.819 84.1874 706.39 84.7784C707.75 85.2825 708.825 85.7426 709.613 86.1587C710.426 86.5764 711.109 87.1413 711.66 87.8536C712.214 88.5418 712.453 89.4127 712.38 90.4661C712.274 91.9744 711.602 93.1544 710.364 94.0061C709.151 94.8355 707.575 95.1824 705.636 95.0468ZM723.676 96.4166C721.977 96.2978 720.559 95.7536 719.424 94.784C718.313 93.8161 717.606 92.5758 717.302 91.063C717.071 89.892 717.02 88.3848 717.149 86.5413C717.273 84.7696 717.533 83.2961 717.928 82.1208C718.413 80.6871 719.285 79.5693 720.544 78.7671C721.803 77.965 723.282 77.6234 724.982 77.7422C726.682 77.8611 728.112 78.3942 729.273 79.3414C730.458 80.2904 731.173 81.423 731.417 82.7393C731.49 83.0812 731.538 83.4214 731.563 83.7599L731.557 83.8317C731.546 83.9993 731.43 84.0995 731.212 84.1323L730.052 84.1956L729.981 84.1906C729.813 84.1789 729.713 84.0636 729.68 83.8448L729.607 83.3345C729.462 82.3139 728.958 81.4366 728.095 80.7026C727.234 79.9447 726.157 79.5205 724.864 79.4301C723.547 79.338 722.422 79.6082 721.487 80.2405C720.577 80.8746 719.962 81.7578 719.642 82.8903C719.363 83.785 719.166 85.0583 719.05 86.7103C718.933 88.3862 718.952 89.6626 719.107 90.5396C719.265 91.7295 719.75 92.7017 720.563 93.4563C721.401 94.2125 722.478 94.6367 723.794 94.7287C725.087 94.8192 726.212 94.561 727.169 93.9542C728.151 93.3252 728.774 92.5027 729.037 91.4866L729.086 91.3095C729.152 91.0495 729.303 90.9518 729.539 91.0165L730.64 91.2739C730.876 91.3385 730.975 91.4777 730.936 91.6915L730.747 92.3279C730.318 93.6452 729.451 94.6912 728.146 95.4661C726.866 96.2186 725.376 96.5355 723.676 96.4166ZM744.036 79.1107C745.879 79.2396 747.324 79.906 748.371 81.1099C749.441 82.3155 749.912 83.8401 749.783 85.6836L748.954 97.5347C748.938 97.7741 748.81 97.8854 748.57 97.8687L747.385 97.7858C747.146 97.7691 747.034 97.641 747.051 97.4016L747.855 85.9096C747.954 84.4971 747.603 83.3177 746.803 82.3716C746.005 81.4016 744.911 80.868 743.523 80.7709C742.086 80.6705 740.894 81.0322 739.946 81.8561C739 82.656 738.478 83.7623 738.379 85.1748L737.57 96.7386C737.554 96.978 737.425 97.0894 737.186 97.0726L736.001 96.9897C735.762 96.973 735.65 96.8449 735.667 96.6055L737.375 72.1851C737.391 71.9457 737.519 71.8344 737.759 71.8511L738.944 71.934C739.183 71.9507 739.295 72.0788 739.278 72.3182L738.663 81.1167C738.658 81.1886 738.666 81.2373 738.689 81.2629C738.736 81.2663 738.774 81.2448 738.801 81.1986C739.383 80.4454 740.119 79.8954 741.01 79.5487C741.902 79.178 742.91 79.032 744.036 79.1107ZM758.311 98.5498C758.12 98.5365 757.995 98.4315 757.937 98.2349L754.055 80.4609L754.027 80.3506C754.04 80.1591 754.166 80.0717 754.406 80.0884L755.627 80.1738C755.842 80.1889 755.966 80.3058 755.999 80.5246L759.082 95.7889C759.103 95.8384 759.125 95.864 759.149 95.8657C759.197 95.8691 759.234 95.8476 759.262 95.8014L764.477 81.0814C764.538 80.8932 764.677 80.8066 764.892 80.8217L766.005 80.8996C766.197 80.9129 766.322 81.0179 766.38 81.2145L769.571 96.4862C769.591 96.5358 769.614 96.5614 769.638 96.5631C769.686 96.5664 769.723 96.545 769.75 96.4988L774.997 81.8531C775.06 81.641 775.199 81.5424 775.414 81.5575L776.597 81.6763C776.717 81.6846 776.81 81.7273 776.877 81.8041C776.944 81.881 776.949 81.9776 776.893 82.0939L770.542 99.1164C770.457 99.3029 770.318 99.3894 770.127 99.376L768.906 99.2907C768.714 99.2773 768.589 99.1723 768.531 98.9757L765.297 84.3145C765.277 84.2649 765.243 84.2385 765.195 84.2351C765.171 84.2335 765.145 84.2557 765.118 84.3019L759.984 98.3781C759.898 98.5646 759.76 98.6511 759.568 98.6377L758.311 98.5498ZM786.435 99.109C787.56 99.1877 788.535 99.0033 789.36 98.5557C790.211 98.0859 790.896 97.4121 791.414 96.5341C791.549 96.327 791.709 96.278 791.894 96.3872L792.795 96.9193C793.002 97.0541 793.051 97.2139 792.942 97.3987C792.333 98.535 791.43 99.4102 790.232 100.024C789.058 100.64 787.705 100.894 786.173 100.787C784.497 100.67 783.101 100.163 781.985 99.267C780.869 98.3709 780.144 97.2016 779.812 95.7589C779.663 95.1469 779.578 94.4674 779.558 93.7202C779.538 92.9729 779.567 92.0367 779.646 90.9115C779.728 89.7383 779.802 88.8533 779.868 88.2565C779.958 87.6613 780.08 87.1165 780.235 86.6221C780.723 85.1405 781.586 83.9859 782.823 83.1582C784.083 82.3321 785.576 81.9793 787.299 82.0999C789.263 82.2371 790.795 82.8615 791.896 83.9731C792.999 85.0606 793.631 86.5123 793.793 88.328C793.833 88.7879 793.843 89.3299 793.823 89.9541C793.805 90.5543 793.765 91.3093 793.701 92.2191C793.684 92.4585 793.556 92.5698 793.317 92.5531L781.609 91.7344C781.514 91.7277 781.462 91.7723 781.456 91.868C781.349 93.4003 781.337 94.422 781.422 94.9331C781.603 96.1247 782.124 97.0994 782.986 97.8573C783.873 98.593 785.022 99.0102 786.435 99.109ZM782.036 87.1811C781.885 87.6276 781.735 88.5555 781.589 89.9647C781.582 90.0604 781.627 90.1117 781.722 90.1184L791.742 90.819C791.838 90.8257 791.889 90.7812 791.896 90.6854C791.979 89.4883 791.982 88.5863 791.904 87.9794C791.721 86.8118 791.211 85.8499 790.374 85.0936C789.538 84.3134 788.474 83.8781 787.181 83.7877C785.888 83.6973 784.787 83.9692 783.876 84.6032C782.968 85.2133 782.354 86.0726 782.036 87.1811ZM806.728 83.6028C807.542 83.6597 808.226 83.8519 808.78 84.1794C808.967 84.2646 809.028 84.4252 808.963 84.6613L808.56 85.7879C808.471 86.0223 808.311 86.0832 808.078 85.9707C807.612 85.7457 807.02 85.6201 806.3 85.5938C804.957 85.524 803.808 85.9609 802.852 86.9045C801.921 87.8258 801.406 89.0047 801.305 90.4412L800.557 101.143C800.54 101.382 800.412 101.494 800.173 101.477L798.988 101.394C798.748 101.377 798.637 101.249 798.654 101.01L799.869 83.6284C799.886 83.389 800.014 83.2777 800.253 83.2944L801.439 83.3773C801.678 83.394 801.789 83.5221 801.773 83.7615L801.602 86.2035C801.597 86.2754 801.605 86.3241 801.628 86.3497C801.676 86.3531 801.714 86.3197 801.743 86.2495C802.311 85.3509 803.008 84.6659 803.835 84.1945C804.686 83.7247 805.65 83.5274 806.728 83.6028ZM820.815 85.9953C820.798 86.2347 820.67 86.346 820.431 86.3293L816.229 86.0355C816.133 86.0288 816.082 86.0733 816.075 86.1691L815.282 97.5174C815.197 98.7384 815.412 99.6196 815.927 100.161C816.444 100.678 817.313 100.98 818.534 101.065L819.36 101.123C819.6 101.139 819.711 101.267 819.694 101.507L819.627 102.477C819.61 102.716 819.482 102.827 819.242 102.811L818.162 102.771C816.487 102.654 815.24 102.242 814.424 101.535C813.631 100.83 813.283 99.615 813.379 97.8896L814.208 86.0385C814.215 85.9427 814.17 85.8915 814.074 85.8848L811.92 85.7341C811.68 85.7174 811.569 85.5893 811.586 85.3499L811.648 84.4521C811.665 84.2127 811.793 84.1013 812.033 84.1181L814.187 84.2688C814.283 84.2755 814.334 84.2309 814.341 84.1352L814.627 80.0412C814.644 79.8017 814.772 79.6904 815.012 79.7071L816.161 79.7875C816.4 79.8042 816.512 79.9323 816.495 80.1717L816.209 84.2657C816.202 84.3615 816.246 84.4127 816.342 84.4194L820.544 84.7133C820.783 84.73 820.895 84.8581 820.878 85.0975L820.815 85.9953Z" fill="black"/>
<path d="M708.706 137.76C710.554 137.728 712.052 138.266 713.199 139.374C714.371 140.482 714.973 141.96 715.005 143.807L715.212 155.685C715.216 155.925 715.098 156.047 714.858 156.052L713.671 156.072C713.431 156.077 713.309 155.959 713.304 155.719L713.103 144.2C713.079 142.785 712.627 141.64 711.747 140.768C710.867 139.871 709.732 139.435 708.34 139.459C706.9 139.484 705.744 139.948 704.872 140.852C703.999 141.731 703.575 142.879 703.6 144.294L703.802 155.885C703.806 156.125 703.688 156.247 703.448 156.251L702.26 156.272C702.02 156.276 701.898 156.158 701.894 155.918L701.59 138.497C701.586 138.257 701.704 138.134 701.944 138.13L703.132 138.11C703.371 138.105 703.494 138.223 703.498 138.463L703.529 140.227C703.53 140.299 703.543 140.347 703.567 140.37C703.615 140.369 703.651 140.345 703.674 140.296C704.188 139.495 704.873 138.883 705.73 138.46C706.586 138.013 707.578 137.78 708.706 137.76ZM726.923 137.406C729.034 137.369 730.652 137.893 731.775 138.978C732.898 140.038 733.475 141.493 733.507 143.34L733.717 155.362C733.721 155.602 733.604 155.724 733.364 155.729L732.176 155.749C731.936 155.754 731.814 155.636 731.81 155.396L731.78 153.704C731.779 153.656 731.755 153.62 731.706 153.597C731.682 153.574 731.646 153.586 731.599 153.635C730.989 154.438 730.183 155.052 729.183 155.478C728.206 155.903 727.106 156.126 725.882 156.147C724.226 156.176 722.815 155.781 721.648 154.961C720.482 154.141 719.884 152.867 719.853 151.14C719.822 149.364 720.458 147.949 721.76 146.894C723.061 145.839 724.864 145.291 727.168 145.251L731.487 145.176C731.583 145.174 731.63 145.125 731.629 145.029L731.6 143.41C731.577 142.066 731.174 141.005 730.393 140.226C729.635 139.447 728.476 139.071 726.916 139.099C725.693 139.12 724.689 139.39 723.906 139.907C723.123 140.425 722.643 141.106 722.465 141.949C722.398 142.19 722.256 142.3 722.039 142.28L720.776 142.122C720.511 142.079 720.402 141.985 720.447 141.84C720.641 140.54 721.318 139.484 722.48 138.672C723.666 137.859 725.147 137.437 726.923 137.406ZM726.177 154.486C727.689 154.459 728.99 154.065 730.081 153.302C731.196 152.538 731.741 151.496 731.718 150.177L731.661 146.901C731.66 146.805 731.611 146.758 731.515 146.76L727.375 146.832C725.672 146.862 724.298 147.246 723.255 147.984C722.236 148.722 721.737 149.727 721.759 150.998C721.78 152.174 722.203 153.055 723.03 153.641C723.856 154.226 724.905 154.508 726.177 154.486ZM746.034 155.796C744.33 155.825 742.87 155.407 741.655 154.54C740.464 153.672 739.651 152.498 739.217 151.018C738.885 149.871 738.703 148.374 738.671 146.527C738.64 144.751 738.77 143.26 739.061 142.055C739.419 140.585 740.19 139.395 741.375 138.486C742.559 137.577 744.003 137.108 745.707 137.078C747.411 137.049 748.882 137.455 750.121 138.298C751.384 139.14 752.194 140.206 752.553 141.496C752.655 141.83 752.733 142.165 752.787 142.5L752.788 142.572C752.791 142.74 752.685 142.849 752.47 142.901L751.32 143.065L751.248 143.067C751.08 143.07 750.97 142.963 750.919 142.748L750.802 142.246C750.568 141.242 749.99 140.412 749.066 139.756C748.142 139.076 747.032 138.747 745.736 138.77C744.417 138.793 743.319 139.16 742.443 139.872C741.591 140.583 741.056 141.516 740.836 142.672C740.636 143.588 740.55 144.874 740.579 146.529C740.608 148.209 740.739 149.479 740.97 150.339C741.23 151.511 741.798 152.437 742.674 153.118C743.574 153.798 744.684 154.127 746.004 154.104C747.3 154.081 748.398 153.726 749.298 153.038C750.222 152.326 750.771 151.452 750.944 150.417L750.977 150.236C751.021 149.972 751.163 149.861 751.404 149.905L752.523 150.065C752.763 150.109 752.874 150.239 752.853 150.456L752.721 151.106C752.408 152.456 751.636 153.573 750.403 154.459C749.194 155.32 747.737 155.766 746.034 155.796ZM764.807 136.781C766.655 136.749 768.152 137.287 769.3 138.395C770.471 139.503 771.073 140.98 771.106 142.828L771.313 154.706C771.317 154.946 771.199 155.068 770.959 155.072L769.771 155.093C769.531 155.097 769.409 154.979 769.405 154.739L769.204 143.221C769.179 141.805 768.727 140.661 767.848 139.788C766.968 138.892 765.832 138.455 764.441 138.48C763.001 138.505 761.845 138.969 760.972 139.872C760.1 140.752 759.676 141.899 759.7 143.315L759.903 154.905C759.907 155.145 759.789 155.267 759.549 155.272L758.361 155.292C758.121 155.296 757.999 155.179 757.995 154.939L757.568 130.462C757.564 130.222 757.681 130.1 757.921 130.096L759.109 130.075C759.349 130.071 759.471 130.189 759.475 130.429L759.629 139.248C759.631 139.32 759.643 139.367 759.668 139.391C759.716 139.39 759.751 139.366 759.775 139.317C760.289 138.516 760.974 137.904 761.831 137.481C762.687 137.034 763.679 136.801 764.807 136.781ZM791.096 155.009C789.416 155.038 787.969 154.619 786.754 153.753C785.538 152.886 784.702 151.712 784.244 150.232C783.963 149.277 783.805 147.779 783.769 145.739C783.734 143.7 783.84 142.21 784.087 141.269C784.493 139.774 785.277 138.584 786.437 137.7C787.622 136.791 789.078 136.321 790.805 136.291C792.485 136.262 793.933 136.681 795.148 137.548C796.387 138.414 797.224 139.576 797.657 141.032C797.811 141.582 797.918 142.204 797.978 142.899C798.038 143.57 798.077 144.434 798.095 145.489C798.114 146.593 798.106 147.481 798.07 148.154C798.033 148.827 797.948 149.441 797.814 149.995C797.432 151.49 796.637 152.692 795.428 153.601C794.244 154.51 792.8 154.979 791.096 155.009ZM791.067 153.317C792.338 153.295 793.412 152.928 794.288 152.217C795.187 151.481 795.759 150.535 796.003 149.378C796.159 148.728 796.221 147.454 796.188 145.559C796.155 143.639 796.06 142.368 795.905 141.747C795.621 140.576 795.017 139.65 794.093 138.97C793.193 138.29 792.095 137.961 790.799 137.984C789.503 138.006 788.417 138.373 787.542 139.085C786.666 139.796 786.106 140.742 785.863 141.922C785.708 142.669 785.646 143.942 785.678 145.742C785.709 147.542 785.815 148.812 785.996 149.553C786.281 150.724 786.873 151.65 787.773 152.331C788.673 153.011 789.771 153.34 791.067 153.317ZM817.133 140.692C817.286 141.242 817.393 141.864 817.453 142.559C817.513 143.254 817.553 144.142 817.572 145.221C817.607 147.237 817.501 148.751 817.255 149.764C816.873 151.235 816.125 152.412 815.012 153.295C813.899 154.179 812.527 154.635 810.895 154.663C809.84 154.682 808.888 154.482 808.041 154.065C807.193 153.648 806.511 153.048 805.993 152.265C805.944 152.217 805.896 152.206 805.848 152.231C805.824 152.231 805.813 152.268 805.814 152.34L805.845 154.103C805.849 154.343 805.731 154.465 805.491 154.47L804.303 154.49C804.063 154.495 803.941 154.377 803.937 154.137L803.51 129.66C803.506 129.42 803.624 129.298 803.864 129.294L805.051 129.273C805.291 129.269 805.413 129.387 805.418 129.627L805.572 138.482C805.573 138.554 805.598 138.601 805.647 138.625C805.695 138.624 805.73 138.587 805.753 138.515C806.243 137.714 806.904 137.09 807.736 136.644C808.569 136.197 809.513 135.965 810.569 135.946C812.248 135.917 813.66 136.336 814.803 137.204C815.946 138.049 816.723 139.211 817.133 140.692ZM815.27 149.51C815.43 149.027 815.541 148.509 815.603 147.956C815.665 147.379 815.685 146.467 815.663 145.219C815.641 143.947 815.577 143.024 815.471 142.45C815.389 141.875 815.236 141.338 815.011 140.837C814.706 139.883 814.141 139.112 813.314 138.527C812.487 137.917 811.51 137.622 810.382 137.642C809.278 137.661 808.348 137.989 807.591 138.627C806.858 139.239 806.368 140.04 806.121 141.029C805.961 141.511 805.851 142.053 805.789 142.655C805.727 143.232 805.707 144.156 805.729 145.428C805.751 146.652 805.791 147.551 805.849 148.126C805.931 148.701 806.06 149.215 806.236 149.668C806.517 150.671 807.035 151.478 807.79 152.089C808.569 152.7 809.534 152.995 810.686 152.975C811.838 152.955 812.828 152.625 813.657 151.987C814.486 151.348 815.024 150.523 815.27 149.51ZM829.878 152.64C831.006 152.62 831.962 152.351 832.745 151.834C833.551 151.291 834.175 150.56 834.615 149.641C834.731 149.423 834.886 149.36 835.079 149.452L836.024 149.904C836.242 150.02 836.304 150.175 836.212 150.369C835.704 151.554 834.881 152.504 833.741 153.22C832.625 153.936 831.3 154.307 829.764 154.334C828.084 154.363 826.649 153.98 825.459 153.185C824.269 152.39 823.446 151.288 822.989 149.88C822.787 149.283 822.643 148.613 822.558 147.871C822.473 147.128 822.421 146.193 822.401 145.065C822.38 143.889 822.377 143.001 822.39 142.401C822.428 141.8 822.502 141.247 822.614 140.741C822.971 139.222 823.73 137.997 824.89 137.064C826.074 136.132 827.529 135.65 829.257 135.62C831.225 135.586 832.806 136.074 833.999 137.085C835.193 138.073 835.949 139.464 836.269 141.258C836.349 141.713 836.406 142.252 836.441 142.876C836.475 143.475 836.501 144.231 836.516 145.143C836.521 145.383 836.403 145.505 836.163 145.509L824.429 145.714C824.333 145.715 824.285 145.764 824.287 145.86C824.314 147.396 824.392 148.415 824.521 148.917C824.805 150.088 825.409 151.013 826.333 151.693C827.281 152.349 828.463 152.664 829.878 152.64ZM824.457 141.141C824.345 141.599 824.277 142.536 824.254 143.953C824.256 144.049 824.304 144.096 824.4 144.094L834.443 143.919C834.539 143.917 834.586 143.868 834.584 143.772C834.563 142.572 834.488 141.674 834.357 141.076C834.073 139.929 833.481 139.015 832.581 138.334C831.681 137.63 830.583 137.289 829.287 137.312C827.991 137.334 826.917 137.701 826.065 138.412C825.213 139.099 824.677 140.009 824.457 141.141ZM849.029 135.311C850.876 135.279 852.374 135.817 853.522 136.925C854.693 138.032 855.295 139.51 855.327 141.358L855.534 153.236C855.539 153.476 855.421 153.598 855.181 153.602L853.993 153.623C853.753 153.627 853.631 153.509 853.627 153.269L853.426 141.751C853.401 140.335 852.949 139.191 852.07 138.318C851.19 137.421 850.054 136.985 848.662 137.01C847.222 137.035 846.066 137.499 845.194 138.402C844.321 139.282 843.897 140.429 843.922 141.845L844.124 153.435C844.128 153.675 844.011 153.797 843.771 153.801L842.583 153.822C842.343 153.826 842.221 153.709 842.217 153.469L841.912 136.047C841.908 135.807 842.026 135.685 842.266 135.681L843.454 135.66C843.694 135.656 843.816 135.774 843.82 136.014L843.851 137.778C843.852 137.85 843.865 137.897 843.889 137.921C843.937 137.92 843.973 137.896 843.996 137.847C844.51 137.046 845.196 136.434 846.052 136.011C846.909 135.564 847.901 135.331 849.029 135.311ZM874.416 153.447C873.12 153.469 871.965 153.285 870.95 152.895C869.958 152.48 869.181 151.918 868.616 151.207C868.052 150.497 867.762 149.71 867.747 148.846L867.739 148.378C867.734 148.138 867.852 148.016 868.092 148.012L869.208 147.993C869.448 147.988 869.57 148.106 869.574 148.346L869.581 148.742C869.597 149.63 870.054 150.39 870.953 151.023C871.852 151.631 872.985 151.923 874.353 151.899C875.697 151.876 876.783 151.533 877.612 150.87C878.44 150.208 878.846 149.397 878.829 148.437C878.818 147.765 878.592 147.217 878.152 146.792C877.713 146.368 877.191 146.053 876.588 145.848C876.008 145.618 875.127 145.333 873.944 144.994C872.593 144.609 871.507 144.244 870.685 143.898C869.863 143.553 869.158 143.061 868.571 142.423C868.007 141.761 867.716 140.926 867.699 139.918C867.673 138.454 868.229 137.28 869.366 136.396C870.526 135.488 872.054 135.017 873.95 134.984C875.222 134.962 876.341 135.158 877.309 135.573C878.299 135.964 879.065 136.515 879.606 137.226C880.17 137.936 880.46 138.747 880.476 139.659L880.478 139.767C880.482 140.007 880.364 140.129 880.125 140.133L879.009 140.152C878.769 140.157 878.647 140.039 878.642 139.799L878.641 139.691C878.625 138.779 878.18 138.031 877.305 137.446C876.454 136.836 875.333 136.544 873.941 136.568C872.598 136.592 871.523 136.899 870.717 137.489C869.911 138.055 869.516 138.818 869.533 139.778C869.549 140.69 869.932 141.367 870.684 141.81C871.46 142.252 872.656 142.7 874.272 143.152C875.671 143.535 876.782 143.9 877.604 144.246C878.45 144.591 879.179 145.094 879.791 145.756C880.402 146.393 880.717 147.24 880.735 148.296C880.761 149.807 880.195 151.041 879.035 151.998C877.9 152.93 876.36 153.413 874.416 153.447ZM893.18 136.052C893.184 136.292 893.066 136.415 892.826 136.419L888.615 136.492C888.519 136.494 888.471 136.543 888.473 136.639L888.672 148.013C888.693 149.237 888.984 150.096 889.545 150.59C890.105 151.06 890.997 151.285 892.221 151.264L893.049 151.249C893.289 151.245 893.411 151.363 893.415 151.603L893.432 152.575C893.436 152.815 893.318 152.937 893.078 152.941L891.999 152.996C890.319 153.025 889.042 152.723 888.167 152.09C887.315 151.457 886.863 150.277 886.809 148.55L886.601 136.671C886.6 136.575 886.551 136.528 886.455 136.53L884.295 136.568C884.055 136.572 883.933 136.454 883.929 136.214L883.913 135.314C883.909 135.074 884.027 134.952 884.267 134.948L886.427 134.91C886.523 134.908 886.57 134.86 886.568 134.764L886.496 130.66C886.492 130.42 886.61 130.298 886.85 130.294L888.002 130.274C888.242 130.27 888.364 130.388 888.368 130.628L888.44 134.731C888.441 134.827 888.49 134.874 888.586 134.872L892.798 134.799C893.038 134.795 893.16 134.913 893.164 135.153L893.18 136.052ZM905.371 134.435C906.187 134.421 906.885 134.553 907.466 134.831C907.659 134.9 907.734 135.054 907.69 135.295L907.386 136.453C907.318 136.694 907.164 136.769 906.922 136.677C906.439 136.493 905.837 136.42 905.118 136.456C903.775 136.504 902.668 137.039 901.797 138.062C900.951 139.061 900.54 140.281 900.565 141.72L900.752 152.447C900.756 152.687 900.639 152.809 900.399 152.813L899.211 152.834C898.971 152.838 898.849 152.72 898.845 152.48L898.541 135.059C898.536 134.819 898.654 134.697 898.894 134.693L900.082 134.672C900.322 134.668 900.444 134.785 900.448 135.025L900.491 137.473C900.492 137.545 900.505 137.593 900.529 137.616C900.577 137.616 900.613 137.579 900.636 137.507C901.123 136.562 901.758 135.819 902.541 135.277C903.348 134.735 904.291 134.454 905.371 134.435ZM918.423 151.094C919.551 151.075 920.507 150.806 921.29 150.288C922.096 149.746 922.72 149.015 923.16 148.095C923.276 147.877 923.431 147.814 923.625 147.907L924.569 148.359C924.787 148.475 924.849 148.63 924.757 148.823C924.249 150.008 923.426 150.959 922.286 151.675C921.17 152.39 919.845 152.762 918.309 152.788C916.629 152.818 915.194 152.435 914.004 151.639C912.814 150.844 911.991 149.742 911.534 148.334C911.332 147.737 911.188 147.068 911.103 146.325C911.018 145.583 910.966 144.647 910.946 143.52C910.926 142.344 910.922 141.456 910.936 140.855C910.973 140.255 911.047 139.701 911.159 139.195C911.516 137.677 912.275 136.451 913.435 135.519C914.619 134.586 916.075 134.105 917.802 134.074C919.77 134.04 921.351 134.529 922.545 135.54C923.738 136.527 924.494 137.918 924.814 139.713C924.894 140.168 924.951 140.707 924.986 141.33C925.02 141.93 925.046 142.685 925.062 143.597C925.066 143.837 924.948 143.959 924.708 143.963L912.974 144.168C912.878 144.17 912.831 144.219 912.832 144.315C912.859 145.851 912.937 146.869 913.066 147.371C913.35 148.542 913.954 149.468 914.878 150.148C915.826 150.803 917.008 151.119 918.423 151.094ZM913.002 139.595C912.89 140.053 912.822 140.99 912.799 142.407C912.801 142.503 912.849 142.55 912.945 142.548L922.988 142.373C923.084 142.372 923.131 142.323 923.129 142.227C923.108 141.027 923.033 140.128 922.902 139.53C922.618 138.383 922.026 137.469 921.126 136.789C920.226 136.084 919.128 135.744 917.832 135.766C916.536 135.789 915.462 136.156 914.611 136.867C913.758 137.554 913.222 138.463 913.002 139.595ZM943.957 138.479C944.111 139.028 944.217 139.65 944.278 140.345C944.338 141.04 944.377 141.928 944.396 143.008C944.431 145.023 944.326 146.537 944.079 147.55C943.697 149.021 942.949 150.198 941.837 151.082C940.724 151.965 939.352 152.421 937.72 152.45C936.664 152.468 935.712 152.269 934.865 151.851C934.018 151.434 933.335 150.834 932.817 150.051C932.768 150.004 932.72 149.993 932.673 150.017C932.649 150.018 932.637 150.054 932.639 150.126L932.669 151.89C932.674 152.13 932.556 152.252 932.316 152.256L931.128 152.277C930.888 152.281 930.766 152.163 930.762 151.923L930.334 127.447C930.33 127.207 930.448 127.085 930.688 127.08L931.876 127.06C932.116 127.056 932.238 127.173 932.242 127.413L932.397 136.268C932.398 136.34 932.423 136.388 932.471 136.411C932.519 136.41 932.555 136.373 932.577 136.301C933.067 135.5 933.729 134.877 934.561 134.43C935.393 133.983 936.337 133.751 937.393 133.732C939.073 133.703 940.484 134.123 941.628 134.991C942.771 135.835 943.547 136.998 943.957 138.479ZM942.095 147.296C942.254 146.814 942.365 146.296 942.428 145.742C942.489 145.165 942.51 144.253 942.488 143.005C942.466 141.733 942.401 140.81 942.295 140.236C942.213 139.661 942.06 139.124 941.835 138.624C941.53 137.669 940.965 136.899 940.139 136.313C939.312 135.703 938.335 135.408 937.207 135.428C936.103 135.447 935.172 135.776 934.415 136.413C933.682 137.026 933.192 137.826 932.945 138.815C932.786 139.298 932.675 139.84 932.614 140.441C932.552 141.018 932.532 141.943 932.554 143.214C932.575 144.438 932.615 145.338 932.673 145.913C932.755 146.487 932.884 147.001 933.06 147.454C933.342 148.457 933.86 149.265 934.614 149.875C935.393 150.486 936.359 150.781 937.51 150.761C938.662 150.741 939.653 150.412 940.482 149.773C941.311 149.134 941.848 148.309 942.095 147.296ZM956.703 150.426C957.831 150.406 958.786 150.138 959.569 149.62C960.376 149.078 960.999 148.347 961.439 147.427C961.555 147.209 961.71 147.146 961.904 147.239L962.848 147.69C963.066 147.807 963.129 147.961 963.036 148.155C962.529 149.34 961.705 150.291 960.565 151.007C959.45 151.722 958.124 152.093 956.588 152.12C954.909 152.15 953.474 151.767 952.284 150.971C951.094 150.176 950.27 149.074 949.814 147.666C949.611 147.069 949.467 146.4 949.382 145.657C949.297 144.914 949.245 143.979 949.225 142.851C949.205 141.676 949.201 140.787 949.215 140.187C949.252 139.586 949.327 139.033 949.438 138.527C949.796 137.009 950.554 135.783 951.714 134.851C952.898 133.918 954.354 133.436 956.082 133.406C958.049 133.372 959.63 133.86 960.824 134.872C962.017 135.859 962.774 137.25 963.093 139.045C963.173 139.499 963.23 140.039 963.265 140.662C963.3 141.261 963.325 142.017 963.341 142.929C963.345 143.169 963.227 143.291 962.987 143.295L951.253 143.5C951.157 143.502 951.11 143.551 951.112 143.647C951.138 145.182 951.216 146.201 951.345 146.703C951.629 147.874 952.234 148.8 953.158 149.48C954.105 150.135 955.287 150.451 956.703 150.426ZM951.281 138.927C951.169 139.385 951.102 140.322 951.078 141.739C951.08 141.835 951.129 141.882 951.225 141.88L961.267 141.705C961.363 141.703 961.41 141.655 961.409 141.559C961.388 140.359 961.312 139.46 961.182 138.862C960.898 137.715 960.306 136.801 959.406 136.121C958.505 135.416 957.407 135.075 956.111 135.098C954.815 135.121 953.742 135.487 952.89 136.198C952.038 136.885 951.502 137.795 951.281 138.927ZM975.853 133.097C977.701 133.065 979.198 133.603 980.346 134.711C981.517 135.819 982.119 137.296 982.152 139.144L982.359 151.022C982.363 151.262 982.245 151.384 982.005 151.389L980.817 151.409C980.577 151.413 980.455 151.296 980.451 151.056L980.25 139.537C980.225 138.122 979.773 136.977 978.894 136.105C978.014 135.208 976.878 134.772 975.487 134.796C974.047 134.821 972.891 135.285 972.018 136.189C971.146 137.068 970.722 138.215 970.746 139.631L970.949 151.222C970.953 151.461 970.835 151.584 970.595 151.588L969.407 151.608C969.167 151.613 969.045 151.495 969.041 151.255L968.737 133.833C968.733 133.594 968.851 133.471 969.091 133.467L970.278 133.447C970.518 133.442 970.64 133.56 970.645 133.8L970.675 135.564C970.677 135.636 970.689 135.684 970.714 135.707C970.762 135.706 970.797 135.682 970.821 135.633C971.335 134.832 972.02 134.22 972.877 133.797C973.733 133.35 974.725 133.117 975.853 133.097ZM998.968 126.249C998.964 126.009 999.081 125.887 999.321 125.882L1000.51 125.862C1000.75 125.858 1000.87 125.975 1000.88 126.215L1001.3 150.692C1001.31 150.932 1001.19 151.054 1000.95 151.058L999.761 151.079C999.521 151.083 999.399 150.965 999.395 150.725L999.364 148.961C999.363 148.889 999.338 148.854 999.29 148.855C999.266 148.831 999.23 148.844 999.183 148.892C998.693 149.693 998.032 150.317 997.199 150.763C996.367 151.21 995.423 151.442 994.367 151.461C992.735 151.489 991.348 151.081 990.205 150.237C989.062 149.393 988.274 148.243 987.841 146.786C987.663 146.237 987.544 145.627 987.485 144.956C987.424 144.261 987.385 143.361 987.365 142.258C987.347 141.178 987.355 140.29 987.391 139.593C987.427 138.896 987.512 138.27 987.646 137.716C987.98 136.222 988.704 135.033 989.816 134.15C990.953 133.242 992.361 132.773 994.04 132.744C995.096 132.725 996.048 132.925 996.895 133.342C997.743 133.759 998.425 134.359 998.943 135.142C998.968 135.214 999.005 135.249 999.053 135.249C999.1 135.224 999.124 135.175 999.122 135.103L998.968 126.249ZM998.85 146.306C999.01 145.847 999.109 145.329 999.147 144.752C999.209 144.175 999.229 143.275 999.208 142.051C999.185 140.779 999.133 139.856 999.051 139.281C998.969 138.683 998.839 138.145 998.663 137.668C998.382 136.689 997.852 135.906 997.074 135.319C996.319 134.708 995.39 134.412 994.286 134.432C993.158 134.451 992.192 134.78 991.387 135.418C990.581 136.033 990.043 136.822 989.772 137.787C989.564 138.247 989.417 138.777 989.331 139.379C989.27 139.956 989.25 140.893 989.272 142.188C989.294 143.436 989.346 144.347 989.428 144.922C989.51 145.473 989.639 145.987 989.815 146.464C990.073 147.467 990.627 148.274 991.478 148.883C992.328 149.492 993.342 149.786 994.518 149.766C995.645 149.746 996.576 149.418 997.309 148.781C998.066 148.144 998.579 147.319 998.85 146.306Z" fill="black"/>
<path d="M486.451 1024.22C484.939 1024.22 483.607 1024 482.455 1023.57C481.327 1023.11 480.451 1022.5 479.827 1021.73C479.203 1020.94 478.891 1020.06 478.891 1019.1V1018.78C478.891 1018.66 478.927 1018.56 478.999 1018.49C479.095 1018.4 479.203 1018.35 479.323 1018.35H482.491C482.611 1018.35 482.707 1018.4 482.779 1018.49C482.875 1018.56 482.923 1018.66 482.923 1018.78V1018.85C482.923 1019.45 483.247 1019.98 483.895 1020.44C484.567 1020.87 485.407 1021.08 486.415 1021.08C487.375 1021.08 488.155 1020.89 488.755 1020.51C489.355 1020.1 489.655 1019.6 489.655 1019C489.655 1018.44 489.403 1018.04 488.899 1017.77C488.419 1017.48 487.627 1017.18 486.523 1016.87L485.155 1016.44C483.931 1016.08 482.899 1015.7 482.059 1015.29C481.219 1014.88 480.511 1014.33 479.935 1013.63C479.359 1012.91 479.071 1012 479.071 1010.9C479.071 1009.22 479.731 1007.88 481.051 1006.9C482.371 1005.89 484.111 1005.39 486.271 1005.39C487.735 1005.39 489.019 1005.63 490.123 1006.11C491.227 1006.56 492.079 1007.21 492.679 1008.05C493.279 1008.87 493.579 1009.8 493.579 1010.86C493.579 1010.98 493.531 1011.09 493.435 1011.18C493.363 1011.26 493.267 1011.29 493.147 1011.29H490.087C489.967 1011.29 489.859 1011.26 489.763 1011.18C489.691 1011.09 489.655 1010.98 489.655 1010.86C489.655 1010.24 489.343 1009.72 488.719 1009.31C488.119 1008.88 487.291 1008.66 486.235 1008.66C485.299 1008.66 484.531 1008.84 483.931 1009.2C483.355 1009.54 483.067 1010.02 483.067 1010.64C483.067 1011.22 483.343 1011.66 483.895 1011.98C484.471 1012.26 485.419 1012.59 486.739 1012.95L487.531 1013.16C488.803 1013.55 489.871 1013.94 490.735 1014.35C491.599 1014.74 492.331 1015.29 492.931 1016.01C493.531 1016.7 493.831 1017.62 493.831 1018.74C493.831 1020.45 493.159 1021.79 491.815 1022.78C490.471 1023.74 488.683 1024.22 486.451 1024.22ZM505.033 1024.29C503.185 1024.29 501.589 1023.82 500.245 1022.88C498.901 1021.92 497.965 1020.64 497.437 1019.03C497.053 1017.95 496.861 1016.51 496.861 1014.71C496.861 1012.98 497.053 1011.57 497.437 1010.46C497.941 1008.88 498.865 1007.63 500.209 1006.72C501.577 1005.78 503.185 1005.32 505.033 1005.32C506.905 1005.32 508.537 1005.78 509.929 1006.72C511.321 1007.66 512.245 1008.83 512.701 1010.25C512.821 1010.63 512.905 1011.02 512.953 1011.4V1011.47C512.953 1011.71 512.821 1011.86 512.557 1011.9L509.317 1012.37H509.245C509.029 1012.37 508.885 1012.25 508.813 1012.01C508.813 1011.89 508.801 1011.8 508.777 1011.72C508.729 1011.53 508.681 1011.36 508.633 1011.22C508.417 1010.55 507.985 1010 507.337 1009.56C506.689 1009.13 505.921 1008.92 505.033 1008.92C504.121 1008.92 503.341 1009.16 502.693 1009.64C502.069 1010.09 501.649 1010.73 501.433 1011.54C501.193 1012.31 501.073 1013.38 501.073 1014.75C501.073 1016.07 501.181 1017.14 501.397 1017.95C501.637 1018.79 502.069 1019.46 502.693 1019.97C503.317 1020.45 504.097 1020.69 505.033 1020.69C505.945 1020.69 506.725 1020.46 507.373 1020C508.045 1019.52 508.477 1018.89 508.669 1018.1C508.693 1018.05 508.705 1017.99 508.705 1017.92C508.729 1017.89 508.741 1017.86 508.741 1017.81C508.813 1017.52 508.981 1017.4 509.245 1017.45L512.485 1017.95C512.605 1017.98 512.701 1018.04 512.773 1018.13C512.869 1018.2 512.905 1018.31 512.881 1018.46C512.809 1018.84 512.749 1019.12 512.701 1019.28C512.245 1020.82 511.321 1022.04 509.929 1022.96C508.537 1023.84 506.905 1024.29 505.033 1024.29ZM525.31 1005.32C527.254 1005.32 528.802 1005.89 529.954 1007.04C531.13 1008.2 531.718 1009.77 531.718 1011.76V1023.57C531.718 1023.69 531.67 1023.8 531.574 1023.89C531.502 1023.96 531.406 1024 531.286 1024H527.974C527.854 1024 527.746 1023.96 527.65 1023.89C527.578 1023.8 527.542 1023.69 527.542 1023.57V1012.62C527.542 1011.52 527.23 1010.63 526.606 1009.96C525.982 1009.26 525.154 1008.92 524.122 1008.92C523.09 1008.92 522.25 1009.25 521.602 1009.92C520.978 1010.6 520.666 1011.48 520.666 1012.59V1023.57C520.666 1023.69 520.618 1023.8 520.522 1023.89C520.45 1023.96 520.354 1024 520.234 1024H516.922C516.802 1024 516.694 1023.96 516.598 1023.89C516.526 1023.8 516.49 1023.69 516.49 1023.57V999.232C516.49 999.112 516.526 999.016 516.598 998.944C516.694 998.848 516.802 998.8 516.922 998.8H520.234C520.354 998.8 520.45 998.848 520.522 998.944C520.618 999.016 520.666 999.112 520.666 999.232V1007.19C520.666 1007.26 520.69 1007.31 520.738 1007.33C520.786 1007.36 520.822 1007.33 520.846 1007.26C521.83 1005.96 523.318 1005.32 525.31 1005.32ZM539.795 1024C539.531 1024 539.363 1023.88 539.291 1023.64L534.143 1006.07L534.107 1005.93C534.107 1005.69 534.239 1005.57 534.503 1005.57H537.923C538.187 1005.57 538.355 1005.69 538.427 1005.93L541.415 1017.95C541.439 1018.02 541.475 1018.06 541.523 1018.06C541.571 1018.06 541.607 1018.02 541.631 1017.95L544.763 1005.93C544.835 1005.69 545.003 1005.57 545.267 1005.57H548.255C548.519 1005.57 548.687 1005.69 548.759 1005.93L551.963 1017.95C551.987 1018.02 552.023 1018.06 552.071 1018.06C552.119 1018.06 552.155 1018.02 552.179 1017.95L555.383 1005.93C555.455 1005.69 555.623 1005.57 555.887 1005.57L559.271 1005.64C559.415 1005.64 559.511 1005.69 559.559 1005.78C559.631 1005.86 559.655 1005.96 559.631 1006.11L554.447 1023.64C554.375 1023.88 554.219 1024 553.979 1024H550.523C550.259 1024 550.091 1023.88 550.019 1023.64L546.851 1012.66C546.827 1012.59 546.791 1012.55 546.743 1012.55C546.695 1012.55 546.659 1012.59 546.635 1012.66L543.719 1023.64C543.647 1023.88 543.479 1024 543.215 1024H539.795ZM577.357 1012.73C577.453 1013.33 577.501 1014 577.501 1014.75L577.465 1015.86C577.465 1016.15 577.321 1016.3 577.033 1016.3H565.765C565.645 1016.3 565.585 1016.36 565.585 1016.48C565.657 1017.27 565.765 1017.81 565.909 1018.1C566.485 1019.82 567.889 1020.7 570.121 1020.72C571.753 1020.72 573.049 1020.05 574.009 1018.71C574.105 1018.56 574.225 1018.49 574.369 1018.49C574.465 1018.49 574.549 1018.53 574.621 1018.6L576.853 1020.44C577.069 1020.6 577.105 1020.8 576.961 1021.01C576.217 1022.07 575.221 1022.88 573.973 1023.46C572.749 1024.04 571.381 1024.32 569.869 1024.32C567.997 1024.32 566.401 1023.9 565.081 1023.06C563.785 1022.22 562.837 1021.05 562.237 1019.54C561.685 1018.24 561.409 1016.44 561.409 1014.14C561.409 1012.74 561.553 1011.62 561.841 1010.75C562.321 1009.07 563.221 1007.75 564.541 1006.79C565.885 1005.81 567.493 1005.32 569.365 1005.32C574.093 1005.32 576.757 1007.79 577.357 1012.73ZM569.365 1008.92C568.477 1008.92 567.733 1009.14 567.133 1009.6C566.557 1010.03 566.149 1010.64 565.909 1011.44C565.765 1011.84 565.669 1012.37 565.621 1013.02C565.573 1013.14 565.621 1013.2 565.765 1013.2H573.073C573.193 1013.2 573.253 1013.14 573.253 1013.02C573.205 1012.42 573.133 1011.96 573.037 1011.65C572.821 1010.79 572.389 1010.12 571.741 1009.64C571.117 1009.16 570.325 1008.92 569.365 1008.92ZM589.886 1005.39C590.654 1005.39 591.326 1005.54 591.902 1005.86C592.094 1005.95 592.166 1006.13 592.118 1006.4L591.506 1009.64C591.482 1009.92 591.314 1010.01 591.002 1009.89C590.642 1009.77 590.222 1009.71 589.742 1009.71C589.43 1009.71 589.19 1009.72 589.022 1009.74C588.014 1009.79 587.174 1010.15 586.502 1010.82C585.83 1011.47 585.494 1012.32 585.494 1013.38V1023.57C585.494 1023.69 585.446 1023.8 585.35 1023.89C585.278 1023.96 585.182 1024 585.062 1024H581.75C581.63 1024 581.522 1023.96 581.426 1023.89C581.354 1023.8 581.318 1023.69 581.318 1023.57V1006.04C581.318 1005.92 581.354 1005.82 581.426 1005.75C581.522 1005.65 581.63 1005.6 581.75 1005.6H585.062C585.182 1005.6 585.278 1005.65 585.35 1005.75C585.446 1005.82 585.494 1005.92 585.494 1006.04V1007.66C585.494 1007.75 585.506 1007.81 585.53 1007.84C585.578 1007.84 585.626 1007.8 585.674 1007.73C586.682 1006.17 588.086 1005.39 589.886 1005.39Z" fill="black"/>
<path d="M612.111 1024.22C610.599 1024.22 609.267 1024 608.115 1023.57C606.987 1023.11 606.111 1022.5 605.487 1021.73C604.863 1020.94 604.551 1020.06 604.551 1019.1V1018.78C604.551 1018.66 604.587 1018.56 604.659 1018.49C604.755 1018.4 604.863 1018.35 604.983 1018.35H608.151C608.271 1018.35 608.367 1018.4 608.439 1018.49C608.535 1018.56 608.583 1018.66 608.583 1018.78V1018.85C608.583 1019.45 608.907 1019.98 609.555 1020.44C610.227 1020.87 611.067 1021.08 612.075 1021.08C613.035 1021.08 613.815 1020.89 614.415 1020.51C615.015 1020.1 615.315 1019.6 615.315 1019C615.315 1018.44 615.063 1018.04 614.559 1017.77C614.079 1017.48 613.287 1017.18 612.183 1016.87L610.815 1016.44C609.591 1016.08 608.559 1015.7 607.719 1015.29C606.879 1014.88 606.171 1014.33 605.595 1013.63C605.019 1012.91 604.731 1012 604.731 1010.9C604.731 1009.22 605.391 1007.88 606.711 1006.9C608.031 1005.89 609.771 1005.39 611.931 1005.39C613.395 1005.39 614.679 1005.63 615.783 1006.11C616.887 1006.56 617.739 1007.21 618.339 1008.05C618.939 1008.87 619.239 1009.8 619.239 1010.86C619.239 1010.98 619.191 1011.09 619.095 1011.18C619.023 1011.26 618.927 1011.29 618.807 1011.29H615.747C615.627 1011.29 615.519 1011.26 615.423 1011.18C615.351 1011.09 615.315 1010.98 615.315 1010.86C615.315 1010.24 615.003 1009.72 614.379 1009.31C613.779 1008.88 612.951 1008.66 611.895 1008.66C610.959 1008.66 610.191 1008.84 609.591 1009.2C609.015 1009.54 608.727 1010.02 608.727 1010.64C608.727 1011.22 609.003 1011.66 609.555 1011.98C610.131 1012.26 611.079 1012.59 612.399 1012.95L613.191 1013.16C614.463 1013.55 615.531 1013.94 616.395 1014.35C617.259 1014.74 617.991 1015.29 618.591 1016.01C619.191 1016.7 619.491 1017.62 619.491 1018.74C619.491 1020.45 618.819 1021.79 617.475 1022.78C616.131 1023.74 614.343 1024.22 612.111 1024.22ZM630.693 1024.29C628.845 1024.29 627.249 1023.82 625.905 1022.88C624.561 1021.92 623.625 1020.64 623.097 1019.03C622.713 1017.95 622.521 1016.51 622.521 1014.71C622.521 1012.98 622.713 1011.57 623.097 1010.46C623.601 1008.88 624.525 1007.63 625.869 1006.72C627.237 1005.78 628.845 1005.32 630.693 1005.32C632.565 1005.32 634.197 1005.78 635.589 1006.72C636.981 1007.66 637.905 1008.83 638.361 1010.25C638.481 1010.63 638.565 1011.02 638.613 1011.4V1011.47C638.613 1011.71 638.481 1011.86 638.217 1011.9L634.977 1012.37H634.905C634.689 1012.37 634.545 1012.25 634.473 1012.01C634.473 1011.89 634.461 1011.8 634.437 1011.72C634.389 1011.53 634.341 1011.36 634.293 1011.22C634.077 1010.55 633.645 1010 632.997 1009.56C632.349 1009.13 631.581 1008.92 630.693 1008.92C629.781 1008.92 629.001 1009.16 628.353 1009.64C627.729 1010.09 627.309 1010.73 627.093 1011.54C626.853 1012.31 626.733 1013.38 626.733 1014.75C626.733 1016.07 626.841 1017.14 627.057 1017.95C627.297 1018.79 627.729 1019.46 628.353 1019.97C628.977 1020.45 629.757 1020.69 630.693 1020.69C631.605 1020.69 632.385 1020.46 633.033 1020C633.705 1019.52 634.137 1018.89 634.329 1018.1C634.353 1018.05 634.365 1017.99 634.365 1017.92C634.389 1017.89 634.401 1017.86 634.401 1017.81C634.473 1017.52 634.641 1017.4 634.905 1017.45L638.145 1017.95C638.265 1017.98 638.361 1018.04 638.433 1018.13C638.529 1018.2 638.565 1018.31 638.541 1018.46C638.469 1018.84 638.409 1019.12 638.361 1019.28C637.905 1020.82 636.981 1022.04 635.589 1022.96C634.197 1023.84 632.565 1024.29 630.693 1024.29ZM650.97 1005.32C652.914 1005.32 654.462 1005.89 655.614 1007.04C656.79 1008.2 657.378 1009.77 657.378 1011.76V1023.57C657.378 1023.69 657.33 1023.8 657.234 1023.89C657.162 1023.96 657.066 1024 656.946 1024H653.634C653.514 1024 653.406 1023.96 653.31 1023.89C653.238 1023.8 653.202 1023.69 653.202 1023.57V1012.62C653.202 1011.52 652.89 1010.63 652.266 1009.96C651.642 1009.26 650.814 1008.92 649.782 1008.92C648.75 1008.92 647.91 1009.25 647.262 1009.92C646.638 1010.6 646.326 1011.48 646.326 1012.59V1023.57C646.326 1023.69 646.278 1023.8 646.182 1023.89C646.11 1023.96 646.014 1024 645.894 1024H642.582C642.462 1024 642.354 1023.96 642.258 1023.89C642.186 1023.8 642.15 1023.69 642.15 1023.57V999.232C642.15 999.112 642.186 999.016 642.258 998.944C642.354 998.848 642.462 998.8 642.582 998.8H645.894C646.014 998.8 646.11 998.848 646.182 998.944C646.278 999.016 646.326 999.112 646.326 999.232V1007.19C646.326 1007.26 646.35 1007.31 646.398 1007.33C646.446 1007.36 646.482 1007.33 646.506 1007.26C647.49 1005.96 648.978 1005.32 650.97 1005.32ZM665.455 1024C665.191 1024 665.023 1023.88 664.951 1023.64L659.803 1006.07L659.767 1005.93C659.767 1005.69 659.899 1005.57 660.163 1005.57H663.583C663.847 1005.57 664.015 1005.69 664.087 1005.93L667.075 1017.95C667.099 1018.02 667.135 1018.06 667.183 1018.06C667.231 1018.06 667.267 1018.02 667.291 1017.95L670.423 1005.93C670.495 1005.69 670.663 1005.57 670.927 1005.57H673.915C674.179 1005.57 674.347 1005.69 674.419 1005.93L677.623 1017.95C677.647 1018.02 677.683 1018.06 677.731 1018.06C677.779 1018.06 677.815 1018.02 677.839 1017.95L681.043 1005.93C681.115 1005.69 681.283 1005.57 681.547 1005.57L684.931 1005.64C685.075 1005.64 685.171 1005.69 685.219 1005.78C685.291 1005.86 685.315 1005.96 685.291 1006.11L680.107 1023.64C680.035 1023.88 679.879 1024 679.639 1024H676.183C675.919 1024 675.751 1023.88 675.679 1023.64L672.511 1012.66C672.487 1012.59 672.451 1012.55 672.403 1012.55C672.355 1012.55 672.319 1012.59 672.295 1012.66L669.379 1023.64C669.307 1023.88 669.139 1024 668.875 1024H665.455ZM694.697 1005.32C696.209 1005.32 697.541 1005.58 698.693 1006.11C699.845 1006.64 700.733 1007.37 701.357 1008.3C701.981 1009.22 702.293 1010.26 702.293 1011.44V1023.57C702.293 1023.69 702.245 1023.8 702.149 1023.89C702.077 1023.96 701.981 1024 701.861 1024H698.549C698.429 1024 698.321 1023.96 698.225 1023.89C698.153 1023.8 698.117 1023.69 698.117 1023.57V1022.42C698.117 1022.34 698.093 1022.31 698.045 1022.31C697.997 1022.28 697.949 1022.3 697.901 1022.34C696.725 1023.64 695.021 1024.29 692.789 1024.29C690.989 1024.29 689.501 1023.83 688.325 1022.92C687.173 1022.01 686.597 1020.65 686.597 1018.85C686.597 1016.98 687.245 1015.53 688.541 1014.5C689.861 1013.44 691.709 1012.91 694.085 1012.91H697.937C698.057 1012.91 698.117 1012.85 698.117 1012.73V1011.87C698.117 1010.93 697.841 1010.21 697.289 1009.71C696.737 1009.18 695.909 1008.92 694.805 1008.92C693.893 1008.92 693.149 1009.08 692.573 1009.42C692.021 1009.73 691.673 1010.18 691.529 1010.75C691.457 1011.04 691.289 1011.16 691.025 1011.11L687.533 1010.68C687.413 1010.66 687.305 1010.62 687.209 1010.57C687.137 1010.5 687.113 1010.42 687.137 1010.32C687.329 1008.86 688.109 1007.66 689.477 1006.72C690.869 1005.78 692.609 1005.32 694.697 1005.32ZM693.833 1020.98C695.009 1020.98 696.017 1020.66 696.857 1020.04C697.697 1019.42 698.117 1018.62 698.117 1017.66V1015.97C698.117 1015.85 698.057 1015.79 697.937 1015.79H694.913C693.641 1015.79 692.633 1016.03 691.889 1016.51C691.169 1016.99 690.809 1017.68 690.809 1018.56C690.809 1019.33 691.085 1019.93 691.637 1020.36C692.213 1020.77 692.945 1020.98 693.833 1020.98ZM714.154 1024.29C712.306 1024.29 710.71 1023.82 709.366 1022.88C708.022 1021.92 707.086 1020.64 706.558 1019.03C706.174 1017.95 705.982 1016.51 705.982 1014.71C705.982 1012.98 706.174 1011.57 706.558 1010.46C707.062 1008.88 707.986 1007.63 709.33 1006.72C710.698 1005.78 712.306 1005.32 714.154 1005.32C716.026 1005.32 717.658 1005.78 719.05 1006.72C720.442 1007.66 721.366 1008.83 721.822 1010.25C721.942 1010.63 722.026 1011.02 722.074 1011.4V1011.47C722.074 1011.71 721.942 1011.86 721.678 1011.9L718.438 1012.37H718.366C718.15 1012.37 718.006 1012.25 717.934 1012.01C717.934 1011.89 717.922 1011.8 717.898 1011.72C717.85 1011.53 717.802 1011.36 717.754 1011.22C717.538 1010.55 717.106 1010 716.458 1009.56C715.81 1009.13 715.042 1008.92 714.154 1008.92C713.242 1008.92 712.462 1009.16 711.814 1009.64C711.19 1010.09 710.77 1010.73 710.554 1011.54C710.314 1012.31 710.194 1013.38 710.194 1014.75C710.194 1016.07 710.302 1017.14 710.518 1017.95C710.758 1018.79 711.19 1019.46 711.814 1019.97C712.438 1020.45 713.218 1020.69 714.154 1020.69C715.066 1020.69 715.846 1020.46 716.494 1020C717.166 1019.52 717.598 1018.89 717.79 1018.1C717.814 1018.05 717.826 1017.99 717.826 1017.92C717.85 1017.89 717.862 1017.86 717.862 1017.81C717.934 1017.52 718.102 1017.4 718.366 1017.45L721.606 1017.95C721.726 1017.98 721.822 1018.04 721.894 1018.13C721.99 1018.2 722.026 1018.31 722.002 1018.46C721.93 1018.84 721.87 1019.12 721.822 1019.28C721.366 1020.82 720.442 1022.04 719.05 1022.96C717.658 1023.84 716.026 1024.29 714.154 1024.29ZM734.431 1005.32C736.375 1005.32 737.923 1005.89 739.075 1007.04C740.251 1008.2 740.839 1009.77 740.839 1011.76V1023.57C740.839 1023.69 740.791 1023.8 740.695 1023.89C740.623 1023.96 740.527 1024 740.407 1024H737.095C736.975 1024 736.867 1023.96 736.771 1023.89C736.699 1023.8 736.663 1023.69 736.663 1023.57V1012.62C736.663 1011.52 736.351 1010.63 735.727 1009.96C735.103 1009.26 734.275 1008.92 733.243 1008.92C732.211 1008.92 731.371 1009.25 730.723 1009.92C730.099 1010.6 729.787 1011.48 729.787 1012.59V1023.57C729.787 1023.69 729.739 1023.8 729.643 1023.89C729.571 1023.96 729.475 1024 729.355 1024H726.043C725.923 1024 725.815 1023.96 725.719 1023.89C725.647 1023.8 725.611 1023.69 725.611 1023.57V999.232C725.611 999.112 725.647 999.016 725.719 998.944C725.815 998.848 725.923 998.8 726.043 998.8H729.355C729.475 998.8 729.571 998.848 729.643 998.944C729.739 999.016 729.787 999.112 729.787 999.232V1007.19C729.787 1007.26 729.811 1007.31 729.859 1007.33C729.907 1007.36 729.943 1007.33 729.967 1007.26C730.951 1005.96 732.439 1005.32 734.431 1005.32Z" fill="black"/>
<path d="M770.797 1010.36C771.205 1011.7 771.409 1013.16 771.409 1014.75C771.409 1016.45 771.181 1017.95 770.725 1019.25C770.197 1020.83 769.345 1022.07 768.169 1022.96C766.993 1023.84 765.553 1024.29 763.849 1024.29C762.169 1024.29 760.789 1023.65 759.709 1022.38C759.661 1022.31 759.613 1022.28 759.565 1022.31C759.517 1022.33 759.493 1022.38 759.493 1022.45V1023.57C759.493 1023.69 759.445 1023.8 759.349 1023.89C759.277 1023.96 759.181 1024 759.061 1024H755.749C755.629 1024 755.521 1023.96 755.425 1023.89C755.353 1023.8 755.317 1023.69 755.317 1023.57V999.232C755.317 999.112 755.353 999.016 755.425 998.944C755.521 998.848 755.629 998.8 755.749 998.8H759.061C759.181 998.8 759.277 998.848 759.349 998.944C759.445 999.016 759.493 999.112 759.493 999.232V1007.04C759.493 1007.12 759.517 1007.16 759.565 1007.19C759.613 1007.21 759.661 1007.2 759.709 1007.15C760.741 1005.93 762.109 1005.32 763.813 1005.32C765.589 1005.32 767.053 1005.76 768.205 1006.65C769.381 1007.54 770.245 1008.77 770.797 1010.36ZM766.261 1018.96C766.837 1017.95 767.125 1016.57 767.125 1014.82C767.125 1012.95 766.765 1011.48 766.045 1010.43C765.397 1009.42 764.437 1008.92 763.165 1008.92C761.989 1008.92 761.089 1009.44 760.465 1010.5C759.865 1011.48 759.565 1012.91 759.565 1014.78C759.565 1016.63 759.841 1018.02 760.393 1018.96C761.017 1020.11 761.953 1020.69 763.201 1020.69C763.873 1020.69 764.473 1020.54 765.001 1020.26C765.529 1019.94 765.949 1019.51 766.261 1018.96ZM790.766 1012.73C790.862 1013.33 790.91 1014 790.91 1014.75L790.874 1015.86C790.874 1016.15 790.73 1016.3 790.442 1016.3H779.174C779.054 1016.3 778.994 1016.36 778.994 1016.48C779.066 1017.27 779.174 1017.81 779.318 1018.1C779.894 1019.82 781.298 1020.7 783.53 1020.72C785.162 1020.72 786.458 1020.05 787.418 1018.71C787.514 1018.56 787.634 1018.49 787.778 1018.49C787.874 1018.49 787.958 1018.53 788.03 1018.6L790.262 1020.44C790.478 1020.6 790.514 1020.8 790.37 1021.01C789.626 1022.07 788.63 1022.88 787.382 1023.46C786.158 1024.04 784.79 1024.32 783.278 1024.32C781.406 1024.32 779.81 1023.9 778.49 1023.06C777.194 1022.22 776.246 1021.05 775.646 1019.54C775.094 1018.24 774.818 1016.44 774.818 1014.14C774.818 1012.74 774.962 1011.62 775.25 1010.75C775.73 1009.07 776.63 1007.75 777.95 1006.79C779.294 1005.81 780.902 1005.32 782.774 1005.32C787.502 1005.32 790.166 1007.79 790.766 1012.73ZM782.774 1008.92C781.886 1008.92 781.142 1009.14 780.542 1009.6C779.966 1010.03 779.558 1010.64 779.318 1011.44C779.174 1011.84 779.078 1012.37 779.03 1013.02C778.982 1013.14 779.03 1013.2 779.174 1013.2H786.482C786.602 1013.2 786.662 1013.14 786.662 1013.02C786.614 1012.42 786.542 1011.96 786.446 1011.65C786.23 1010.79 785.798 1010.12 785.15 1009.64C784.526 1009.16 783.734 1008.92 782.774 1008.92ZM801.285 1024.22C799.773 1024.22 798.441 1024 797.289 1023.57C796.161 1023.11 795.285 1022.5 794.661 1021.73C794.037 1020.94 793.725 1020.06 793.725 1019.1V1018.78C793.725 1018.66 793.761 1018.56 793.833 1018.49C793.929 1018.4 794.037 1018.35 794.157 1018.35H797.325C797.445 1018.35 797.541 1018.4 797.613 1018.49C797.709 1018.56 797.757 1018.66 797.757 1018.78V1018.85C797.757 1019.45 798.081 1019.98 798.729 1020.44C799.401 1020.87 800.241 1021.08 801.249 1021.08C802.209 1021.08 802.989 1020.89 803.589 1020.51C804.189 1020.1 804.489 1019.6 804.489 1019C804.489 1018.44 804.237 1018.04 803.733 1017.77C803.253 1017.48 802.461 1017.18 801.357 1016.87L799.989 1016.44C798.765 1016.08 797.733 1015.7 796.893 1015.29C796.053 1014.88 795.345 1014.33 794.769 1013.63C794.193 1012.91 793.905 1012 793.905 1010.9C793.905 1009.22 794.565 1007.88 795.885 1006.9C797.205 1005.89 798.945 1005.39 801.105 1005.39C802.569 1005.39 803.853 1005.63 804.957 1006.11C806.061 1006.56 806.913 1007.21 807.513 1008.05C808.113 1008.87 808.413 1009.8 808.413 1010.86C808.413 1010.98 808.365 1011.09 808.269 1011.18C808.197 1011.26 808.101 1011.29 807.981 1011.29H804.921C804.801 1011.29 804.693 1011.26 804.597 1011.18C804.525 1011.09 804.489 1010.98 804.489 1010.86C804.489 1010.24 804.177 1009.72 803.553 1009.31C802.953 1008.88 802.125 1008.66 801.069 1008.66C800.133 1008.66 799.365 1008.84 798.765 1009.2C798.189 1009.54 797.901 1010.02 797.901 1010.64C797.901 1011.22 798.177 1011.66 798.729 1011.98C799.305 1012.26 800.253 1012.59 801.573 1012.95L802.365 1013.16C803.637 1013.55 804.705 1013.94 805.569 1014.35C806.433 1014.74 807.165 1015.29 807.765 1016.01C808.365 1016.7 808.665 1017.62 808.665 1018.74C808.665 1020.45 807.993 1021.79 806.649 1022.78C805.305 1023.74 803.517 1024.22 801.285 1024.22ZM819.867 1024.29C818.019 1024.29 816.423 1023.82 815.079 1022.88C813.735 1021.92 812.799 1020.64 812.271 1019.03C811.887 1017.95 811.695 1016.51 811.695 1014.71C811.695 1012.98 811.887 1011.57 812.271 1010.46C812.775 1008.88 813.699 1007.63 815.043 1006.72C816.411 1005.78 818.019 1005.32 819.867 1005.32C821.739 1005.32 823.371 1005.78 824.763 1006.72C826.155 1007.66 827.079 1008.83 827.535 1010.25C827.655 1010.63 827.739 1011.02 827.787 1011.4V1011.47C827.787 1011.71 827.655 1011.86 827.391 1011.9L824.151 1012.37H824.079C823.863 1012.37 823.719 1012.25 823.647 1012.01C823.647 1011.89 823.635 1011.8 823.611 1011.72C823.563 1011.53 823.515 1011.36 823.467 1011.22C823.251 1010.55 822.819 1010 822.171 1009.56C821.523 1009.13 820.755 1008.92 819.867 1008.92C818.955 1008.92 818.175 1009.16 817.527 1009.64C816.903 1010.09 816.483 1010.73 816.267 1011.54C816.027 1012.31 815.907 1013.38 815.907 1014.75C815.907 1016.07 816.015 1017.14 816.231 1017.95C816.471 1018.79 816.903 1019.46 817.527 1019.97C818.151 1020.45 818.931 1020.69 819.867 1020.69C820.779 1020.69 821.559 1020.46 822.207 1020C822.879 1019.52 823.311 1018.89 823.503 1018.1C823.527 1018.05 823.539 1017.99 823.539 1017.92C823.563 1017.89 823.575 1017.86 823.575 1017.81C823.647 1017.52 823.815 1017.4 824.079 1017.45L827.319 1017.95C827.439 1017.98 827.535 1018.04 827.607 1018.13C827.703 1018.2 827.739 1018.31 827.715 1018.46C827.643 1018.84 827.583 1019.12 827.535 1019.28C827.079 1020.82 826.155 1022.04 824.763 1022.96C823.371 1023.84 821.739 1024.29 819.867 1024.29ZM840.144 1005.32C842.088 1005.32 843.636 1005.89 844.788 1007.04C845.964 1008.2 846.552 1009.77 846.552 1011.76V1023.57C846.552 1023.69 846.504 1023.8 846.408 1023.89C846.336 1023.96 846.24 1024 846.12 1024H842.808C842.688 1024 842.58 1023.96 842.484 1023.89C842.412 1023.8 842.376 1023.69 842.376 1023.57V1012.62C842.376 1011.52 842.064 1010.63 841.44 1009.96C840.816 1009.26 839.988 1008.92 838.956 1008.92C837.924 1008.92 837.084 1009.25 836.436 1009.92C835.812 1010.6 835.5 1011.48 835.5 1012.59V1023.57C835.5 1023.69 835.452 1023.8 835.356 1023.89C835.284 1023.96 835.188 1024 835.068 1024H831.756C831.636 1024 831.528 1023.96 831.432 1023.89C831.36 1023.8 831.324 1023.69 831.324 1023.57V999.232C831.324 999.112 831.36 999.016 831.432 998.944C831.528 998.848 831.636 998.8 831.756 998.8H835.068C835.188 998.8 835.284 998.848 835.356 998.944C835.452 999.016 835.5 999.112 835.5 999.232V1007.19C835.5 1007.26 835.524 1007.31 835.572 1007.33C835.62 1007.36 835.656 1007.33 835.68 1007.26C836.664 1005.96 838.152 1005.32 840.144 1005.32ZM854.629 1024C854.365 1024 854.197 1023.88 854.125 1023.64L848.977 1006.07L848.941 1005.93C848.941 1005.69 849.073 1005.57 849.337 1005.57H852.757C853.021 1005.57 853.189 1005.69 853.261 1005.93L856.249 1017.95C856.273 1018.02 856.309 1018.06 856.357 1018.06C856.405 1018.06 856.441 1018.02 856.465 1017.95L859.597 1005.93C859.669 1005.69 859.837 1005.57 860.101 1005.57H863.089C863.353 1005.57 863.521 1005.69 863.593 1005.93L866.797 1017.95C866.821 1018.02 866.857 1018.06 866.905 1018.06C866.953 1018.06 866.989 1018.02 867.013 1017.95L870.217 1005.93C870.289 1005.69 870.457 1005.57 870.721 1005.57L874.105 1005.64C874.249 1005.64 874.345 1005.69 874.393 1005.78C874.465 1005.86 874.489 1005.96 874.465 1006.11L869.281 1023.64C869.209 1023.88 869.053 1024 868.813 1024H865.357C865.093 1024 864.925 1023.88 864.853 1023.64L861.685 1012.66C861.661 1012.59 861.625 1012.55 861.577 1012.55C861.529 1012.55 861.493 1012.59 861.469 1012.66L858.553 1023.64C858.481 1023.88 858.313 1024 858.049 1024H854.629ZM892.191 1012.73C892.287 1013.33 892.335 1014 892.335 1014.75L892.299 1015.86C892.299 1016.15 892.155 1016.3 891.867 1016.3H880.599C880.479 1016.3 880.419 1016.36 880.419 1016.48C880.491 1017.27 880.599 1017.81 880.743 1018.1C881.319 1019.82 882.723 1020.7 884.955 1020.72C886.587 1020.72 887.883 1020.05 888.843 1018.71C888.939 1018.56 889.059 1018.49 889.203 1018.49C889.299 1018.49 889.383 1018.53 889.455 1018.6L891.687 1020.44C891.903 1020.6 891.939 1020.8 891.795 1021.01C891.051 1022.07 890.055 1022.88 888.807 1023.46C887.583 1024.04 886.215 1024.32 884.703 1024.32C882.831 1024.32 881.235 1023.9 879.915 1023.06C878.619 1022.22 877.671 1021.05 877.071 1019.54C876.519 1018.24 876.243 1016.44 876.243 1014.14C876.243 1012.74 876.387 1011.62 876.675 1010.75C877.155 1009.07 878.055 1007.75 879.375 1006.79C880.719 1005.81 882.327 1005.32 884.199 1005.32C888.927 1005.32 891.591 1007.79 892.191 1012.73ZM884.199 1008.92C883.311 1008.92 882.567 1009.14 881.967 1009.6C881.391 1010.03 880.983 1010.64 880.743 1011.44C880.599 1011.84 880.503 1012.37 880.455 1013.02C880.407 1013.14 880.455 1013.2 880.599 1013.2H887.907C888.027 1013.2 888.087 1013.14 888.087 1013.02C888.039 1012.42 887.967 1011.96 887.871 1011.65C887.655 1010.79 887.223 1010.12 886.575 1009.64C885.951 1009.16 885.159 1008.92 884.199 1008.92ZM904.72 1005.39C905.488 1005.39 906.16 1005.54 906.736 1005.86C906.928 1005.95 907 1006.13 906.952 1006.4L906.34 1009.64C906.316 1009.92 906.148 1010.01 905.836 1009.89C905.476 1009.77 905.056 1009.71 904.576 1009.71C904.264 1009.71 904.024 1009.72 903.856 1009.74C902.848 1009.79 902.008 1010.15 901.336 1010.82C900.664 1011.47 900.328 1012.32 900.328 1013.38V1023.57C900.328 1023.69 900.28 1023.8 900.184 1023.89C900.112 1023.96 900.016 1024 899.896 1024H896.584C896.464 1024 896.356 1023.96 896.26 1023.89C896.188 1023.8 896.152 1023.69 896.152 1023.57V1006.04C896.152 1005.92 896.188 1005.82 896.26 1005.75C896.356 1005.65 896.464 1005.6 896.584 1005.6H899.896C900.016 1005.6 900.112 1005.65 900.184 1005.75C900.28 1005.82 900.328 1005.92 900.328 1006.04V1007.66C900.328 1007.75 900.34 1007.81 900.364 1007.84C900.412 1007.84 900.46 1007.8 900.508 1007.73C901.516 1006.17 902.92 1005.39 904.72 1005.39ZM910.119 1024C909.999 1024 909.891 1023.96 909.795 1023.89C909.723 1023.8 909.687 1023.69 909.687 1023.57V999.232C909.687 999.112 909.723 999.016 909.795 998.944C909.891 998.848 909.999 998.8 910.119 998.8H913.431C913.551 998.8 913.647 998.848 913.719 998.944C913.815 999.016 913.863 999.112 913.863 999.232V1023.57C913.863 1023.69 913.815 1023.8 913.719 1023.89C913.647 1023.96 913.551 1024 913.431 1024H910.119ZM920.676 1003.08C919.932 1003.08 919.32 1002.84 918.84 1002.36C918.36 1001.88 918.12 1001.27 918.12 1000.53C918.12 999.784 918.36 999.172 918.84 998.692C919.32 998.212 919.932 997.972 920.676 997.972C921.42 997.972 922.032 998.212 922.512 998.692C922.992 999.172 923.232 999.784 923.232 1000.53C923.232 1001.27 922.992 1001.88 922.512 1002.36C922.032 1002.84 921.42 1003.08 920.676 1003.08ZM918.948 1024C918.828 1024 918.72 1023.96 918.624 1023.89C918.552 1023.8 918.516 1023.69 918.516 1023.57V1006C918.516 1005.88 918.552 1005.78 918.624 1005.71C918.72 1005.62 918.828 1005.57 918.948 1005.57H922.26C922.38 1005.57 922.476 1005.62 922.548 1005.71C922.644 1005.78 922.692 1005.88 922.692 1006V1023.57C922.692 1023.69 922.644 1023.8 922.548 1023.89C922.476 1023.96 922.38 1024 922.26 1024H918.948ZM935.144 1024.29C933.296 1024.29 931.7 1023.82 930.356 1022.88C929.012 1021.92 928.076 1020.64 927.548 1019.03C927.164 1017.95 926.972 1016.51 926.972 1014.71C926.972 1012.98 927.164 1011.57 927.548 1010.46C928.052 1008.88 928.976 1007.63 930.32 1006.72C931.688 1005.78 933.296 1005.32 935.144 1005.32C937.016 1005.32 938.648 1005.78 940.04 1006.72C941.432 1007.66 942.356 1008.83 942.812 1010.25C942.932 1010.63 943.016 1011.02 943.064 1011.4V1011.47C943.064 1011.71 942.932 1011.86 942.668 1011.9L939.428 1012.37H939.356C939.14 1012.37 938.996 1012.25 938.924 1012.01C938.924 1011.89 938.912 1011.8 938.888 1011.72C938.84 1011.53 938.792 1011.36 938.744 1011.22C938.528 1010.55 938.096 1010 937.448 1009.56C936.8 1009.13 936.032 1008.92 935.144 1008.92C934.232 1008.92 933.452 1009.16 932.804 1009.64C932.18 1010.09 931.76 1010.73 931.544 1011.54C931.304 1012.31 931.184 1013.38 931.184 1014.75C931.184 1016.07 931.292 1017.14 931.508 1017.95C931.748 1018.79 932.18 1019.46 932.804 1019.97C933.428 1020.45 934.208 1020.69 935.144 1020.69C936.056 1020.69 936.836 1020.46 937.484 1020C938.156 1019.52 938.588 1018.89 938.78 1018.1C938.804 1018.05 938.816 1017.99 938.816 1017.92C938.84 1017.89 938.852 1017.86 938.852 1017.81C938.924 1017.52 939.092 1017.4 939.356 1017.45L942.596 1017.95C942.716 1017.98 942.812 1018.04 942.884 1018.13C942.98 1018.2 943.016 1018.31 942.992 1018.46C942.92 1018.84 942.86 1019.12 942.812 1019.28C942.356 1020.82 941.432 1022.04 940.04 1022.96C938.648 1023.84 937.016 1024.29 935.144 1024.29ZM955.421 1005.32C957.365 1005.32 958.913 1005.89 960.065 1007.04C961.241 1008.2 961.829 1009.77 961.829 1011.76V1023.57C961.829 1023.69 961.781 1023.8 961.685 1023.89C961.613 1023.96 961.517 1024 961.397 1024H958.085C957.965 1024 957.857 1023.96 957.761 1023.89C957.689 1023.8 957.653 1023.69 957.653 1023.57V1012.62C957.653 1011.52 957.341 1010.63 956.717 1009.96C956.093 1009.26 955.265 1008.92 954.233 1008.92C953.201 1008.92 952.361 1009.25 951.713 1009.92C951.089 1010.6 950.777 1011.48 950.777 1012.59V1023.57C950.777 1023.69 950.729 1023.8 950.633 1023.89C950.561 1023.96 950.465 1024 950.345 1024H947.033C946.913 1024 946.805 1023.96 946.709 1023.89C946.637 1023.8 946.601 1023.69 946.601 1023.57V999.232C946.601 999.112 946.637 999.016 946.709 998.944C946.805 998.848 946.913 998.8 947.033 998.8H950.345C950.465 998.8 950.561 998.848 950.633 998.944C950.729 999.016 950.777 999.112 950.777 999.232V1007.19C950.777 1007.26 950.801 1007.31 950.849 1007.33C950.897 1007.36 950.933 1007.33 950.957 1007.26C951.941 1005.96 953.429 1005.32 955.421 1005.32Z" fill="black"/>
</g>
<defs>
<clipPath id="clip0">
<rect width="1440" height="1024" fill="white"/>
</clipPath>
</defs>
</svg>
