<svg width="1440" height="1024" viewBox="0 0 1440 1024" fill="none" xmlns="http://www.w3.org/2000/svg">
<rect width="1440" height="1024" fill="white"/>
<path d="M603.383 531.384C600.887 531.384 598.711 530.984 596.855 530.184C594.999 529.384 593.559 528.264 592.535 526.824C591.543 525.384 591.047 523.688 591.047 521.736V520.536C591.047 520.376 591.095 520.248 591.191 520.152C591.319 520.024 591.463 519.96 591.623 519.96H595.895C596.055 519.96 596.183 520.024 596.279 520.152C596.407 520.248 596.471 520.376 596.471 520.536V521.448C596.471 522.92 597.127 524.152 598.439 525.144C599.751 526.104 601.543 526.584 603.815 526.584C605.767 526.584 607.239 526.168 608.231 525.336C609.223 524.504 609.719 523.432 609.719 522.12C609.719 521.224 609.447 520.472 608.903 519.864C608.359 519.224 607.575 518.648 606.551 518.136C605.559 517.624 604.055 516.984 602.039 516.216C599.767 515.384 597.927 514.6 596.519 513.864C595.111 513.128 593.927 512.136 592.967 510.888C592.039 509.608 591.575 508.024 591.575 506.136C591.575 503.32 592.599 501.096 594.647 499.464C596.695 497.832 599.431 497.016 602.855 497.016C605.255 497.016 607.367 497.432 609.191 498.264C611.047 499.096 612.487 500.264 613.511 501.768C614.535 503.24 615.047 504.952 615.047 506.904V507.72C615.047 507.88 614.983 508.024 614.855 508.152C614.759 508.248 614.631 508.296 614.471 508.296H610.151C609.991 508.296 609.847 508.248 609.719 508.152C609.623 508.024 609.575 507.88 609.575 507.72V507.192C609.575 505.688 608.951 504.424 607.703 503.4C606.487 502.344 604.791 501.816 602.615 501.816C600.855 501.816 599.479 502.184 598.487 502.92C597.527 503.656 597.047 504.696 597.047 506.04C597.047 507 597.303 507.784 597.815 508.392C598.327 509 599.095 509.56 600.119 510.072C601.143 510.552 602.727 511.176 604.871 511.944C607.143 512.808 608.951 513.592 610.295 514.296C611.671 515 612.839 515.992 613.799 517.272C614.791 518.52 615.287 520.088 615.287 521.976C615.287 524.856 614.215 527.144 612.071 528.84C609.959 530.536 607.063 531.384 603.383 531.384ZM630.591 531.384C628.127 531.384 625.999 530.76 624.207 529.512C622.415 528.232 621.167 526.52 620.463 524.376C619.951 522.936 619.695 521.016 619.695 518.616C619.695 516.312 619.951 514.424 620.463 512.952C621.135 510.84 622.367 509.176 624.159 507.96C625.983 506.712 628.127 506.088 630.591 506.088C633.087 506.088 635.263 506.712 637.119 507.96C638.975 509.208 640.207 510.776 640.815 512.664C640.975 513.176 641.087 513.688 641.151 514.2V514.296C641.151 514.616 640.975 514.808 640.623 514.872L636.303 515.496H636.207C635.919 515.496 635.727 515.336 635.631 515.016C635.631 514.856 635.615 514.728 635.583 514.632C635.519 514.376 635.455 514.152 635.391 513.96C635.103 513.064 634.527 512.328 633.663 511.752C632.799 511.176 631.775 510.888 630.591 510.888C629.375 510.888 628.335 511.208 627.471 511.848C626.639 512.456 626.079 513.304 625.791 514.392C625.471 515.416 625.311 516.84 625.311 518.664C625.311 520.424 625.455 521.848 625.743 522.936C626.063 524.056 626.639 524.952 627.471 525.624C628.303 526.264 629.343 526.584 630.591 526.584C631.807 526.584 632.847 526.28 633.711 525.672C634.607 525.032 635.183 524.184 635.439 523.128C635.471 523.064 635.487 522.984 635.487 522.888C635.519 522.856 635.535 522.808 635.535 522.744C635.631 522.36 635.855 522.2 636.207 522.264L640.527 522.936C640.687 522.968 640.815 523.048 640.911 523.176C641.039 523.272 641.087 523.416 641.055 523.608C640.959 524.12 640.879 524.488 640.815 524.712C640.207 526.76 638.975 528.392 637.119 529.608C635.263 530.792 633.087 531.384 630.591 531.384ZM657.627 506.088C660.219 506.088 662.283 506.856 663.819 508.392C665.387 509.928 666.171 512.024 666.171 514.68V530.424C666.171 530.584 666.107 530.728 665.979 530.856C665.883 530.952 665.755 531 665.595 531H661.179C661.019 531 660.875 530.952 660.747 530.856C660.651 530.728 660.603 530.584 660.603 530.424V515.832C660.603 514.36 660.187 513.176 659.355 512.28C658.523 511.352 657.419 510.888 656.043 510.888C654.667 510.888 653.547 511.336 652.683 512.232C651.851 513.128 651.435 514.312 651.435 515.784V530.424C651.435 530.584 651.371 530.728 651.243 530.856C651.147 530.952 651.019 531 650.859 531H646.443C646.283 531 646.139 530.952 646.011 530.856C645.915 530.728 645.867 530.584 645.867 530.424V497.976C645.867 497.816 645.915 497.688 646.011 497.592C646.139 497.464 646.283 497.4 646.443 497.4H650.859C651.019 497.4 651.147 497.464 651.243 497.592C651.371 497.688 651.435 497.816 651.435 497.976V508.584C651.435 508.68 651.467 508.744 651.531 508.776C651.595 508.808 651.643 508.776 651.675 508.68C652.987 506.952 654.971 506.088 657.627 506.088ZM676.94 531C676.588 531 676.364 530.84 676.268 530.52L669.404 507.096L669.356 506.904C669.356 506.584 669.532 506.424 669.884 506.424H674.444C674.796 506.424 675.02 506.584 675.116 506.904L679.1 522.936C679.132 523.032 679.18 523.08 679.244 523.08C679.308 523.08 679.356 523.032 679.388 522.936L683.564 506.904C683.66 506.584 683.884 506.424 684.236 506.424H688.22C688.572 506.424 688.796 506.584 688.892 506.904L693.164 522.936C693.196 523.032 693.244 523.08 693.308 523.08C693.372 523.08 693.42 523.032 693.452 522.936L697.724 506.904C697.82 506.584 698.044 506.424 698.396 506.424L702.908 506.52C703.1 506.52 703.228 506.584 703.292 506.712C703.388 506.808 703.42 506.952 703.388 507.144L696.476 530.52C696.38 530.84 696.172 531 695.852 531H691.244C690.892 531 690.668 530.84 690.572 530.52L686.348 515.88C686.316 515.784 686.268 515.736 686.204 515.736C686.14 515.736 686.092 515.784 686.06 515.88L682.172 530.52C682.076 530.84 681.852 531 681.5 531H676.94ZM727.023 515.976C727.151 516.776 727.215 517.672 727.215 518.664L727.167 520.152C727.167 520.536 726.975 520.728 726.591 520.728H711.567C711.407 520.728 711.327 520.808 711.327 520.968C711.423 522.024 711.567 522.744 711.759 523.128C712.527 525.432 714.399 526.6 717.375 526.632C719.551 526.632 721.279 525.736 722.559 523.944C722.687 523.752 722.847 523.656 723.039 523.656C723.167 523.656 723.279 523.704 723.375 523.8L726.351 526.248C726.639 526.472 726.687 526.728 726.495 527.016C725.503 528.424 724.175 529.512 722.511 530.28C720.879 531.048 719.055 531.432 717.039 531.432C714.543 531.432 712.415 530.872 710.655 529.752C708.927 528.632 707.663 527.064 706.863 525.048C706.127 523.32 705.759 520.92 705.759 517.848C705.759 515.992 705.951 514.488 706.335 513.336C706.975 511.096 708.175 509.336 709.935 508.056C711.727 506.744 713.871 506.088 716.367 506.088C722.671 506.088 726.223 509.384 727.023 515.976ZM716.367 510.888C715.183 510.888 714.191 511.192 713.391 511.8C712.623 512.376 712.079 513.192 711.759 514.248C711.567 514.792 711.439 515.496 711.375 516.36C711.311 516.52 711.375 516.6 711.567 516.6H721.311C721.471 516.6 721.551 516.52 721.551 516.36C721.487 515.56 721.391 514.952 721.263 514.536C720.975 513.384 720.399 512.488 719.535 511.848C718.703 511.208 717.647 510.888 716.367 510.888ZM743.728 506.184C744.752 506.184 745.648 506.392 746.416 506.808C746.672 506.936 746.768 507.176 746.704 507.528L745.888 511.848C745.856 512.232 745.632 512.344 745.216 512.184C744.736 512.024 744.176 511.944 743.536 511.944C743.12 511.944 742.8 511.96 742.576 511.992C741.232 512.056 740.112 512.536 739.216 513.432C738.32 514.296 737.872 515.432 737.872 516.84V530.424C737.872 530.584 737.808 530.728 737.68 530.856C737.584 530.952 737.456 531 737.296 531H732.88C732.72 531 732.576 530.952 732.448 530.856C732.352 530.728 732.304 530.584 732.304 530.424V507.048C732.304 506.888 732.352 506.76 732.448 506.664C732.576 506.536 732.72 506.472 732.88 506.472H737.296C737.456 506.472 737.584 506.536 737.68 506.664C737.808 506.76 737.872 506.888 737.872 507.048V509.208C737.872 509.336 737.888 509.416 737.92 509.448C737.984 509.448 738.048 509.4 738.112 509.304C739.456 507.224 741.328 506.184 743.728 506.184ZM750.927 531C750.767 531 750.623 530.952 750.495 530.856C750.399 530.728 750.351 530.584 750.351 530.424V497.976C750.351 497.816 750.399 497.688 750.495 497.592C750.623 497.464 750.767 497.4 750.927 497.4H755.343C755.503 497.4 755.631 497.464 755.727 497.592C755.855 497.688 755.919 497.816 755.919 497.976V515.304C755.919 515.4 755.951 515.464 756.015 515.496C756.079 515.528 756.143 515.496 756.207 515.4L763.983 506.808C764.207 506.584 764.447 506.472 764.703 506.472H769.791C770.111 506.472 770.271 506.584 770.271 506.808C770.271 506.904 770.223 507.032 770.127 507.192L764.031 514.488C763.935 514.584 763.919 514.696 763.983 514.824L771.183 530.328C771.247 530.456 771.279 530.552 771.279 530.616C771.279 530.872 771.103 531 770.751 531H766.095C765.775 531 765.551 530.856 765.423 530.568L760.191 518.376C760.159 518.312 760.095 518.28 759.999 518.28C759.935 518.248 759.887 518.264 759.855 518.328L756.015 522.744C755.951 522.872 755.919 522.984 755.919 523.08V530.424C755.919 530.584 755.855 530.728 755.727 530.856C755.631 530.952 755.503 531 755.343 531H750.927ZM786.853 506.184C787.877 506.184 788.773 506.392 789.541 506.808C789.797 506.936 789.893 507.176 789.829 507.528L789.013 511.848C788.981 512.232 788.757 512.344 788.341 512.184C787.861 512.024 787.301 511.944 786.661 511.944C786.245 511.944 785.925 511.96 785.701 511.992C784.357 512.056 783.237 512.536 782.341 513.432C781.445 514.296 780.997 515.432 780.997 516.84V530.424C780.997 530.584 780.933 530.728 780.805 530.856C780.709 530.952 780.581 531 780.421 531H776.005C775.845 531 775.701 530.952 775.573 530.856C775.477 530.728 775.429 530.584 775.429 530.424V507.048C775.429 506.888 775.477 506.76 775.573 506.664C775.701 506.536 775.845 506.472 776.005 506.472H780.421C780.581 506.472 780.709 506.536 780.805 506.664C780.933 506.76 780.997 506.888 780.997 507.048V509.208C780.997 509.336 781.013 509.416 781.045 509.448C781.109 509.448 781.173 509.4 781.237 509.304C782.581 507.224 784.453 506.184 786.853 506.184ZM802.602 506.088C804.618 506.088 806.394 506.44 807.93 507.144C809.466 507.848 810.65 508.824 811.482 510.072C812.314 511.288 812.73 512.68 812.73 514.248V530.424C812.73 530.584 812.666 530.728 812.538 530.856C812.442 530.952 812.314 531 812.154 531H807.738C807.578 531 807.434 530.952 807.306 530.856C807.21 530.728 807.162 530.584 807.162 530.424V528.888C807.162 528.792 807.13 528.744 807.066 528.744C807.002 528.712 806.938 528.728 806.874 528.792C805.306 530.52 803.034 531.384 800.058 531.384C797.658 531.384 795.674 530.776 794.106 529.56C792.57 528.344 791.802 526.536 791.802 524.136C791.802 521.64 792.666 519.704 794.394 518.328C796.154 516.92 798.618 516.216 801.786 516.216H806.922C807.082 516.216 807.162 516.136 807.162 515.976V514.824C807.162 513.576 806.794 512.616 806.058 511.944C805.322 511.24 804.218 510.888 802.746 510.888C801.53 510.888 800.538 511.112 799.77 511.56C799.034 511.976 798.57 512.568 798.378 513.336C798.282 513.72 798.058 513.88 797.706 513.816L793.05 513.24C792.89 513.208 792.746 513.16 792.618 513.096C792.522 513 792.49 512.888 792.522 512.76C792.778 510.808 793.818 509.208 795.642 507.96C797.498 506.712 799.818 506.088 802.602 506.088ZM801.45 526.968C803.018 526.968 804.362 526.552 805.482 525.72C806.602 524.888 807.162 523.832 807.162 522.552V520.296C807.162 520.136 807.082 520.056 806.922 520.056H802.89C801.194 520.056 799.85 520.376 798.858 521.016C797.898 521.656 797.418 522.568 797.418 523.752C797.418 524.776 797.786 525.576 798.522 526.152C799.29 526.696 800.266 526.968 801.45 526.968ZM830.713 506.424C830.873 506.424 831.001 506.488 831.097 506.616C831.225 506.712 831.289 506.84 831.289 507V510.792C831.289 510.952 831.225 511.096 831.097 511.224C831.001 511.32 830.873 511.368 830.713 511.368H825.961C825.801 511.368 825.721 511.448 825.721 511.608V530.424C825.721 530.584 825.657 530.728 825.529 530.856C825.433 530.952 825.305 531 825.145 531H820.729C820.569 531 820.425 530.952 820.297 530.856C820.201 530.728 820.153 530.584 820.153 530.424V511.608C820.153 511.448 820.073 511.368 819.913 511.368H816.937C816.777 511.368 816.633 511.32 816.505 511.224C816.409 511.096 816.361 510.952 816.361 510.792V507C816.361 506.84 816.409 506.712 816.505 506.616C816.633 506.488 816.777 506.424 816.937 506.424H819.913C820.073 506.424 820.153 506.344 820.153 506.184V505.32C820.153 503.24 820.425 501.64 820.969 500.52C821.513 499.368 822.409 498.552 823.657 498.072C824.905 497.592 826.665 497.368 828.937 497.4H830.617C830.777 497.4 830.905 497.464 831.001 497.592C831.129 497.688 831.193 497.816 831.193 497.976V501.336C831.193 501.496 831.129 501.64 831.001 501.768C830.905 501.864 830.777 501.912 830.617 501.912H829.369C827.993 501.912 827.033 502.184 826.489 502.728C825.977 503.272 825.721 504.264 825.721 505.704V506.184C825.721 506.344 825.801 506.424 825.961 506.424H830.713ZM849 510.408C849 510.568 848.936 510.712 848.808 510.84C848.712 510.936 848.584 510.984 848.424 510.984H843.528C843.368 510.984 843.288 511.064 843.288 511.224V522.792C843.288 524.008 843.544 524.888 844.056 525.432C844.6 525.976 845.448 526.248 846.6 526.248H848.04C848.2 526.248 848.328 526.312 848.424 526.44C848.552 526.536 848.616 526.664 848.616 526.824V530.424C848.616 530.776 848.424 530.984 848.04 531.048L845.544 531.096C843.016 531.096 841.128 530.664 839.88 529.8C838.632 528.936 837.992 527.304 837.96 524.904V511.224C837.96 511.064 837.88 510.984 837.72 510.984H834.984C834.824 510.984 834.68 510.936 834.552 510.84C834.456 510.712 834.408 510.568 834.408 510.408V507.048C834.408 506.888 834.456 506.76 834.552 506.664C834.68 506.536 834.824 506.472 834.984 506.472H837.72C837.88 506.472 837.96 506.392 837.96 506.232V500.616C837.96 500.456 838.008 500.328 838.104 500.232C838.232 500.104 838.376 500.04 838.536 500.04H842.712C842.872 500.04 843 500.104 843.096 500.232C843.224 500.328 843.288 500.456 843.288 500.616V506.232C843.288 506.392 843.368 506.472 843.528 506.472H848.424C848.584 506.472 848.712 506.536 848.808 506.664C848.936 506.76 849 506.888 849 507.048V510.408Z" fill="black"/>
<path opacity="0.5" d="M18.9393 114.061C19.5251 114.646 20.4749 114.646 21.0607 114.061L30.6066 104.515C31.1924 103.929 31.1924 102.979 30.6066 102.393C30.0208 101.808 29.0711 101.808 28.4853 102.393L20 110.879L11.5147 102.393C10.9289 101.808 9.97918 101.808 9.3934 102.393C8.80761 102.979 8.80761 103.929 9.3934 104.515L18.9393 114.061ZM18.5 0L18.5 113H21.5L21.5 0L18.5 0Z" fill="black"/>
<path opacity="0.5" d="M68.9393 114.061C69.5251 114.646 70.4749 114.646 71.0607 114.061L80.6066 104.515C81.1924 103.929 81.1924 102.979 80.6066 102.393C80.0208 101.808 79.0711 101.808 78.4853 102.393L70 110.879L61.5147 102.393C60.9289 101.808 59.9792 101.808 59.3934 102.393C58.8076 102.979 58.8076 103.929 59.3934 104.515L68.9393 114.061ZM68.5 0V113H71.5V0L68.5 0Z" fill="black"/>
<path opacity="0.5" d="M118.939 114.061C119.525 114.646 120.475 114.646 121.061 114.061L130.607 104.515C131.192 103.929 131.192 102.979 130.607 102.393C130.021 101.808 129.071 101.808 128.485 102.393L120 110.879L111.515 102.393C110.929 101.808 109.979 101.808 109.393 102.393C108.808 102.979 108.808 103.929 109.393 104.515L118.939 114.061ZM118.5 0V113H121.5V0L118.5 0Z" fill="black"/>
<path opacity="0.5" d="M168.939 114.061C169.525 114.646 170.475 114.646 171.061 114.061L180.607 104.515C181.192 103.929 181.192 102.979 180.607 102.393C180.021 101.808 179.071 101.808 178.485 102.393L170 110.879L161.515 102.393C160.929 101.808 159.979 101.808 159.393 102.393C158.808 102.979 158.808 103.929 159.393 104.515L168.939 114.061ZM168.5 0V113H171.5V0L168.5 0Z" fill="black"/>
<path opacity="0.5" d="M218.939 114.061C219.525 114.646 220.475 114.646 221.061 114.061L230.607 104.515C231.192 103.929 231.192 102.979 230.607 102.393C230.021 101.808 229.071 101.808 228.485 102.393L220 110.879L211.515 102.393C210.929 101.808 209.979 101.808 209.393 102.393C208.808 102.979 208.808 103.929 209.393 104.515L218.939 114.061ZM218.5 0V113H221.5V0L218.5 0Z" fill="black"/>
<path opacity="0.5" d="M268.939 114.061C269.525 114.646 270.475 114.646 271.061 114.061L280.607 104.515C281.192 103.929 281.192 102.979 280.607 102.393C280.021 101.808 279.071 101.808 278.485 102.393L270 110.879L261.515 102.393C260.929 101.808 259.979 101.808 259.393 102.393C258.808 102.979 258.808 103.929 259.393 104.515L268.939 114.061ZM268.5 0V113H271.5V0L268.5 0Z" fill="black"/>
<path opacity="0.5" d="M318.939 114.061C319.525 114.646 320.475 114.646 321.061 114.061L330.607 104.515C331.192 103.929 331.192 102.979 330.607 102.393C330.021 101.808 329.071 101.808 328.485 102.393L320 110.879L311.515 102.393C310.929 101.808 309.979 101.808 309.393 102.393C308.808 102.979 308.808 103.929 309.393 104.515L318.939 114.061ZM318.5 0V113H321.5V0L318.5 0Z" fill="black"/>
<path opacity="0.5" d="M368.939 114.061C369.525 114.646 370.475 114.646 371.061 114.061L380.607 104.515C381.192 103.929 381.192 102.979 380.607 102.393C380.021 101.808 379.071 101.808 378.485 102.393L370 110.879L361.515 102.393C360.929 101.808 359.979 101.808 359.393 102.393C358.808 102.979 358.808 103.929 359.393 104.515L368.939 114.061ZM368.5 0V113H371.5V0L368.5 0Z" fill="black"/>
<path opacity="0.5" d="M418.939 114.061C419.525 114.646 420.475 114.646 421.061 114.061L430.607 104.515C431.192 103.929 431.192 102.979 430.607 102.393C430.021 101.808 429.071 101.808 428.485 102.393L420 110.879L411.515 102.393C410.929 101.808 409.979 101.808 409.393 102.393C408.808 102.979 408.808 103.929 409.393 104.515L418.939 114.061ZM418.5 0V113H421.5V0L418.5 0Z" fill="black"/>
<path opacity="0.5" d="M468.939 114.061C469.525 114.646 470.475 114.646 471.061 114.061L480.607 104.515C481.192 103.929 481.192 102.979 480.607 102.393C480.021 101.808 479.071 101.808 478.485 102.393L470 110.879L461.515 102.393C460.929 101.808 459.979 101.808 459.393 102.393C458.808 102.979 458.808 103.929 459.393 104.515L468.939 114.061ZM468.5 0V113H471.5V0L468.5 0Z" fill="black"/>
<path opacity="0.5" d="M518.939 114.061C519.525 114.646 520.475 114.646 521.061 114.061L530.607 104.515C531.192 103.929 531.192 102.979 530.607 102.393C530.021 101.808 529.071 101.808 528.485 102.393L520 110.879L511.515 102.393C510.929 101.808 509.979 101.808 509.393 102.393C508.808 102.979 508.808 103.929 509.393 104.515L518.939 114.061ZM518.5 0V113H521.5V0L518.5 0Z" fill="black"/>
<path opacity="0.5" d="M568.939 114.061C569.525 114.646 570.475 114.646 571.061 114.061L580.607 104.515C581.192 103.929 581.192 102.979 580.607 102.393C580.021 101.808 579.071 101.808 578.485 102.393L570 110.879L561.515 102.393C560.929 101.808 559.979 101.808 559.393 102.393C558.808 102.979 558.808 103.929 559.393 104.515L568.939 114.061ZM568.5 0V113H571.5V0L568.5 0Z" fill="black"/>
<path opacity="0.5" d="M618.939 114.061C619.525 114.646 620.475 114.646 621.061 114.061L630.607 104.515C631.192 103.929 631.192 102.979 630.607 102.393C630.021 101.808 629.071 101.808 628.485 102.393L620 110.879L611.515 102.393C610.929 101.808 609.979 101.808 609.393 102.393C608.808 102.979 608.808 103.929 609.393 104.515L618.939 114.061ZM618.5 0V113H621.5V0L618.5 0Z" fill="black"/>
<path opacity="0.5" d="M668.939 114.061C669.525 114.646 670.475 114.646 671.061 114.061L680.607 104.515C681.192 103.929 681.192 102.979 680.607 102.393C680.021 101.808 679.071 101.808 678.485 102.393L670 110.879L661.515 102.393C660.929 101.808 659.979 101.808 659.393 102.393C658.808 102.979 658.808 103.929 659.393 104.515L668.939 114.061ZM668.5 0V113H671.5V0L668.5 0Z" fill="black"/>
<path opacity="0.5" d="M718.939 114.061C719.525 114.646 720.475 114.646 721.061 114.061L730.607 104.515C731.192 103.929 731.192 102.979 730.607 102.393C730.021 101.808 729.071 101.808 728.485 102.393L720 110.879L711.515 102.393C710.929 101.808 709.979 101.808 709.393 102.393C708.808 102.979 708.808 103.929 709.393 104.515L718.939 114.061ZM718.5 0V113H721.5V0L718.5 0Z" fill="black"/>
<path opacity="0.5" d="M768.939 114.061C769.525 114.646 770.475 114.646 771.061 114.061L780.607 104.515C781.192 103.929 781.192 102.979 780.607 102.393C780.021 101.808 779.071 101.808 778.485 102.393L770 110.879L761.515 102.393C760.929 101.808 759.979 101.808 759.393 102.393C758.808 102.979 758.808 103.929 759.393 104.515L768.939 114.061ZM768.5 0V113H771.5V0L768.5 0Z" fill="black"/>
<path opacity="0.5" d="M818.939 114.061C819.525 114.646 820.475 114.646 821.061 114.061L830.607 104.515C831.192 103.929 831.192 102.979 830.607 102.393C830.021 101.808 829.071 101.808 828.485 102.393L820 110.879L811.515 102.393C810.929 101.808 809.979 101.808 809.393 102.393C808.808 102.979 808.808 103.929 809.393 104.515L818.939 114.061ZM818.5 0V113H821.5V0L818.5 0Z" fill="black"/>
<path opacity="0.5" d="M868.939 114.061C869.525 114.646 870.475 114.646 871.061 114.061L880.607 104.515C881.192 103.929 881.192 102.979 880.607 102.393C880.021 101.808 879.071 101.808 878.485 102.393L870 110.879L861.515 102.393C860.929 101.808 859.979 101.808 859.393 102.393C858.808 102.979 858.808 103.929 859.393 104.515L868.939 114.061ZM868.5 0V113H871.5V0L868.5 0Z" fill="black"/>
<path opacity="0.5" d="M918.939 114.061C919.525 114.646 920.475 114.646 921.061 114.061L930.607 104.515C931.192 103.929 931.192 102.979 930.607 102.393C930.021 101.808 929.071 101.808 928.485 102.393L920 110.879L911.515 102.393C910.929 101.808 909.979 101.808 909.393 102.393C908.808 102.979 908.808 103.929 909.393 104.515L918.939 114.061ZM918.5 0V113H921.5V0L918.5 0Z" fill="black"/>
<path opacity="0.5" d="M968.939 114.061C969.525 114.646 970.475 114.646 971.061 114.061L980.607 104.515C981.192 103.929 981.192 102.979 980.607 102.393C980.021 101.808 979.071 101.808 978.485 102.393L970 110.879L961.515 102.393C960.929 101.808 959.979 101.808 959.393 102.393C958.808 102.979 958.808 103.929 959.393 104.515L968.939 114.061ZM968.5 0V113H971.5V0L968.5 0Z" fill="black"/>
<path opacity="0.5" d="M1018.94 114.061C1019.53 114.646 1020.47 114.646 1021.06 114.061L1030.61 104.515C1031.19 103.929 1031.19 102.979 1030.61 102.393C1030.02 101.808 1029.07 101.808 1028.49 102.393L1020 110.879L1011.51 102.393C1010.93 101.808 1009.98 101.808 1009.39 102.393C1008.81 102.979 1008.81 103.929 1009.39 104.515L1018.94 114.061ZM1018.5 0V113H1021.5V0L1018.5 0Z" fill="black"/>
<path opacity="0.5" d="M1068.94 114.061C1069.53 114.646 1070.47 114.646 1071.06 114.061L1080.61 104.515C1081.19 103.929 1081.19 102.979 1080.61 102.393C1080.02 101.808 1079.07 101.808 1078.49 102.393L1070 110.879L1061.51 102.393C1060.93 101.808 1059.98 101.808 1059.39 102.393C1058.81 102.979 1058.81 103.929 1059.39 104.515L1068.94 114.061ZM1068.5 0V113H1071.5V0L1068.5 0Z" fill="black"/>
<path opacity="0.5" d="M1118.94 114.061C1119.53 114.646 1120.47 114.646 1121.06 114.061L1130.61 104.515C1131.19 103.929 1131.19 102.979 1130.61 102.393C1130.02 101.808 1129.07 101.808 1128.49 102.393L1120 110.879L1111.51 102.393C1110.93 101.808 1109.98 101.808 1109.39 102.393C1108.81 102.979 1108.81 103.929 1109.39 104.515L1118.94 114.061ZM1118.5 0V113H1121.5V0L1118.5 0Z" fill="black"/>
<path opacity="0.5" d="M1168.94 114.061C1169.53 114.646 1170.47 114.646 1171.06 114.061L1180.61 104.515C1181.19 103.929 1181.19 102.979 1180.61 102.393C1180.02 101.808 1179.07 101.808 1178.49 102.393L1170 110.879L1161.51 102.393C1160.93 101.808 1159.98 101.808 1159.39 102.393C1158.81 102.979 1158.81 103.929 1159.39 104.515L1168.94 114.061ZM1168.5 0V113H1171.5V0L1168.5 0Z" fill="black"/>
<path opacity="0.5" d="M1218.94 114.061C1219.53 114.646 1220.47 114.646 1221.06 114.061L1230.61 104.515C1231.19 103.929 1231.19 102.979 1230.61 102.393C1230.02 101.808 1229.07 101.808 1228.49 102.393L1220 110.879L1211.51 102.393C1210.93 101.808 1209.98 101.808 1209.39 102.393C1208.81 102.979 1208.81 103.929 1209.39 104.515L1218.94 114.061ZM1218.5 0V113H1221.5V0L1218.5 0Z" fill="black"/>
<path opacity="0.5" d="M1268.94 114.061C1269.53 114.646 1270.47 114.646 1271.06 114.061L1280.61 104.515C1281.19 103.929 1281.19 102.979 1280.61 102.393C1280.02 101.808 1279.07 101.808 1278.49 102.393L1270 110.879L1261.51 102.393C1260.93 101.808 1259.98 101.808 1259.39 102.393C1258.81 102.979 1258.81 103.929 1259.39 104.515L1268.94 114.061ZM1268.5 0V113H1271.5V0L1268.5 0Z" fill="black"/>
<path opacity="0.5" d="M1318.94 114.061C1319.53 114.646 1320.47 114.646 1321.06 114.061L1330.61 104.515C1331.19 103.929 1331.19 102.979 1330.61 102.393C1330.02 101.808 1329.07 101.808 1328.49 102.393L1320 110.879L1311.51 102.393C1310.93 101.808 1309.98 101.808 1309.39 102.393C1308.81 102.979 1308.81 103.929 1309.39 104.515L1318.94 114.061ZM1318.5 0V113H1321.5V0L1318.5 0Z" fill="black"/>
<path opacity="0.5" d="M1368.94 114.061C1369.53 114.646 1370.47 114.646 1371.06 114.061L1380.61 104.515C1381.19 103.929 1381.19 102.979 1380.61 102.393C1380.02 101.808 1379.07 101.808 1378.49 102.393L1370 110.879L1361.51 102.393C1360.93 101.808 1359.98 101.808 1359.39 102.393C1358.81 102.979 1358.81 103.929 1359.39 104.515L1368.94 114.061ZM1368.5 0V113H1371.5V0L1368.5 0Z" fill="black"/>
<path opacity="0.5" d="M1418.94 114.061C1419.53 114.646 1420.47 114.646 1421.06 114.061L1430.61 104.515C1431.19 103.929 1431.19 102.979 1430.61 102.393C1430.02 101.808 1429.07 101.808 1428.49 102.393L1420 110.879L1411.51 102.393C1410.93 101.808 1409.98 101.808 1409.39 102.393C1408.81 102.979 1408.81 103.929 1409.39 104.515L1418.94 114.061ZM1418.5 0V113H1421.5V0L1418.5 0Z" fill="black"/>
</svg>
